M48
; DRILL file KiCad 10.0.6 date 2026-09-26T18:23:07
; FORMAT={-:-/ absolute / metric / decimal}
; #@! TF.CreationDate,2026-09-26T18:23:07+02:00
; #@! TF.GenerationSoftware,Kicad,Pcbnew,10.0.6
; #@! TF.FileFunction,Plated,1,10,PTH
FMAT,2
METRIC
; #@! TA.AperFunction,Plated,PTH,ViaDrill
T1C0.250
; #@! TA.AperFunction,Plated,PTH,ViaDrill
T2C0.300
; Post-machining
; #@! TA.AperFunction,Plated,PTH,ComponentDrill
T3C0.600
; #@! TA.AperFunction,Plated,PTH,ComponentDrill
T4C0.600
; #@! TA.AperFunction,Plated,PTH,ComponentDrill
T5C0.700
; #@! TA.AperFunction,Plated,PTH,ComponentDrill
T6C0.800
; #@! TA.AperFunction,Plated,PTH,ComponentDrill
T7C1.000
; #@! TA.AperFunction,Plated,PTH,ComponentDrill
T8C2.300
%
G90
G05
T1
X36.01Y-103.28
X36.26Y-107.85
X36.57Y-105.67
X36.74Y-108.22
X37.57Y-107.79
X37.98Y-108.15
X40.56Y-103.04
X40.58Y-105.25
X41.12Y-105.05
X42.61Y-99.61
X42.61Y-100.2
X43.79Y-96.8
X43.89Y-106.41
X51.15Y-45.0
X51.49Y-51.46
X51.51Y-47.93
X51.66Y-104.3
X52.1Y-57.24
X52.356Y-53.635
X52.47Y-107.35
X52.49Y-34.66
X52.588Y-33.298
X52.6Y-104.21
X53.06Y-107.34
X53.38Y-28.4
X53.38Y-29.2
X53.38Y-30.0
X53.38Y-30.8
X53.38Y-31.6
X53.38Y-33.2
X53.38Y-34.8
X53.38Y-35.6
X53.38Y-36.4
X53.38Y-37.2
X53.38Y-38.0
X53.38Y-38.8
X53.38Y-39.6
X53.38Y-40.4
X54.17Y-34.79
X54.18Y-28.4
X54.18Y-29.2
X54.18Y-30.0
X54.18Y-30.8
X54.18Y-31.6
X54.18Y-32.4
X54.18Y-33.2
X54.18Y-34.0
X54.18Y-35.6
X54.18Y-36.36
X54.18Y-37.2
X54.18Y-38.0
X54.18Y-38.76
X54.18Y-39.56
X54.18Y-40.4
X54.26Y-58.17
X54.27Y-54.54
X54.28Y-52.96
X54.28Y-56.64
X54.98Y-28.4
X54.98Y-29.2
X54.98Y-30.0
X54.98Y-30.8
X54.98Y-32.4
X54.98Y-33.2
X54.98Y-34.0
X54.98Y-34.79
X54.98Y-35.6
X54.98Y-36.36
X54.98Y-37.16
X54.98Y-37.96
X54.98Y-38.76
X54.98Y-39.56
X54.98Y-40.36
X55.18Y-51.25
X55.25Y-49.71
X55.86Y-58.19
X55.88Y-55.98
X55.93Y-53.08
X56.12Y-51.26
X56.24Y-49.69
X56.59Y-50.51
X57.43Y-53.29
X57.72Y-57.57
X57.76Y-58.59
X57.77Y-50.662
X57.77Y-51.59
X57.77Y-55.59
X58.18Y-28.4
X58.18Y-29.2
X58.18Y-30.0
X58.18Y-30.8
X58.18Y-31.6
X58.18Y-32.4
X58.18Y-33.2
X58.18Y-33.99
X58.18Y-35.6
X58.18Y-36.36
X58.18Y-37.16
X58.18Y-37.96
X58.18Y-38.76
X58.18Y-39.56
X58.18Y-40.36
X58.19Y-34.8
X58.77Y-48.59
X58.77Y-50.662
X58.77Y-51.59
X58.77Y-55.59
X58.77Y-57.59
X58.77Y-69.59
X58.977Y-38.739
X58.979Y-34.798
X58.979Y-37.965
X58.98Y-29.2
X58.98Y-30.0
X58.98Y-30.8
X58.98Y-31.6
X58.98Y-32.4
X58.98Y-33.2
X58.98Y-34.0
X58.98Y-35.6
X58.98Y-36.36
X58.98Y-37.16
X58.98Y-39.585
X58.98Y-40.405
X59.28Y-48.94
X59.77Y-48.59
X59.77Y-52.59
X59.77Y-55.59
X59.77Y-65.59
X59.78Y-28.4
X59.78Y-29.2
X59.78Y-30.0
X59.78Y-30.8
X59.78Y-31.6
X59.78Y-33.2
X59.78Y-34.8
X59.78Y-36.36
X59.78Y-37.16
X59.78Y-39.585
X59.78Y-40.405
X59.792Y-35.611
X59.792Y-37.965
X59.792Y-38.774
X60.18Y-53.15
X60.29Y-35.95
X60.63Y-31.57
X60.675Y-42.904
X60.77Y-52.59
X60.77Y-55.59
X60.77Y-62.59
X60.78Y-54.64
X61.0Y-65.1
X61.011Y-44.044
X61.06Y-27.3
X61.162Y-53.04
X61.319Y-51.083
X61.46Y-33.157
X61.717Y-53.583
X61.77Y-49.59
X61.77Y-62.59
X61.86Y-101.54
X61.919Y-32.37
X61.95Y-28.33
X62.695Y-32.631
X62.77Y-49.59
X62.77Y-50.59
X62.77Y-51.59
X62.77Y-52.622
X62.77Y-60.59
X62.77Y-61.59
X62.77Y-62.59
X62.77Y-64.59
X62.77Y-65.59
X62.79Y-29.98
X62.79Y-48.56
X62.798Y-54.618
X62.815Y-30.785
X63.27Y-59.39
X63.34Y-27.24
X63.77Y-49.59
X63.77Y-50.59
X63.77Y-51.59
X63.77Y-52.622
X63.77Y-53.59
X63.77Y-54.59
X63.77Y-55.59
X63.77Y-61.59
X63.77Y-62.59
X63.77Y-63.59
X63.77Y-64.59
X63.977Y-33.98
X64.17Y-57.0
X64.196Y-57.976
X64.23Y-36.63
X64.54Y-89.71
X64.722Y-48.59
X64.77Y-49.59
X64.77Y-51.59
X64.77Y-54.59
X64.77Y-60.59
X64.77Y-61.59
X64.77Y-62.59
X64.77Y-63.59
X64.77Y-64.59
X64.77Y-66.59
X64.77Y-67.59
X64.81Y-94.31
X64.85Y-93.4
X65.03Y-29.195
X65.1Y-30.71
X65.53Y-34.78
X65.532Y-35.458
X65.757Y-62.577
X65.77Y-49.59
X65.77Y-52.59
X65.77Y-53.59
X65.77Y-54.59
X65.77Y-55.59
X65.77Y-56.59
X65.77Y-57.59
X65.77Y-60.59
X65.77Y-61.59
X65.77Y-63.59
X65.77Y-65.59
X65.77Y-66.59
X65.77Y-67.59
X65.818Y-50.59
X65.883Y-29.135
X65.98Y-90.99
X66.64Y-53.03
X66.695Y-55.535
X66.708Y-51.55
X66.71Y-50.72
X66.77Y-62.59
X66.77Y-63.59
X66.77Y-64.59
X66.77Y-65.59
X66.77Y-67.59
X66.91Y-27.26
X67.07Y-28.35
X67.328Y-26.162
X67.77Y-48.59
X67.77Y-56.59
X67.77Y-62.59
X67.77Y-64.59
X67.782Y-53.66
X67.8Y-51.57
X67.81Y-52.61
X67.82Y-45.37
X67.821Y-50.551
X67.822Y-54.666
X67.822Y-55.59
X67.849Y-52.078
X67.851Y-49.619
X67.96Y-34.798
X67.99Y-35.31
X68.16Y-31.53
X68.25Y-62.12
X68.529Y-29.92
X68.733Y-54.643
X68.77Y-49.59
X68.77Y-51.59
X68.77Y-52.59
X68.77Y-53.59
X68.77Y-62.59
X68.77Y-64.59
X68.8Y-45.81
X68.8Y-50.16
X68.83Y-55.64
X69.18Y-63.58
X69.5Y-29.16
X69.749Y-30.785
X69.77Y-48.59
X69.77Y-50.59
X69.77Y-51.59
X69.77Y-53.59
X69.77Y-56.59
X69.77Y-63.59
X69.77Y-64.59
X69.77Y-65.59
X70.09Y-52.59
X70.15Y-93.27
X70.235Y-94.34
X70.67Y-32.37
X70.77Y-48.59
X70.77Y-49.59
X70.77Y-50.59
X70.77Y-52.59
X70.77Y-55.59
X70.77Y-62.59
X70.77Y-63.59
X70.77Y-65.59
X70.77Y-67.59
X70.88Y-61.66
X70.898Y-34.93
X71.037Y-31.561
X71.1Y-29.98
X71.77Y-48.59
X71.77Y-49.59
X71.77Y-50.59
X71.77Y-52.59
X71.77Y-54.59
X71.77Y-62.59
X71.77Y-63.59
X71.77Y-64.59
X71.77Y-65.59
X71.77Y-67.59
X71.79Y-53.59
X71.85Y-31.58
X72.46Y-33.18
X72.67Y-61.67
X72.77Y-49.59
X72.77Y-50.59
X72.77Y-52.59
X72.77Y-57.59
X72.77Y-62.59
X72.77Y-63.59
X72.77Y-64.59
X72.77Y-65.59
X73.72Y-55.63
X73.77Y-48.59
X73.77Y-51.59
X73.77Y-54.59
X73.77Y-56.59
X73.77Y-63.59
X73.77Y-64.59
X73.77Y-65.59
X74.03Y-28.4
X74.03Y-29.2
X74.03Y-30.0
X74.03Y-30.8
X74.03Y-31.6
X74.03Y-33.2
X74.03Y-34.8
X74.03Y-35.6
X74.03Y-36.4
X74.03Y-37.2
X74.03Y-38.0
X74.03Y-38.774
X74.03Y-39.6
X74.03Y-40.4
X74.3Y-61.11
X74.77Y-48.59
X74.77Y-50.59
X74.77Y-53.59
X74.77Y-54.59
X74.77Y-55.59
X74.77Y-56.59
X74.77Y-61.59
X74.77Y-63.59
X74.77Y-65.59
X74.83Y-28.4
X74.83Y-29.2
X74.83Y-30.0
X74.83Y-30.8
X74.83Y-31.6
X74.83Y-32.4
X74.83Y-33.2
X74.83Y-34.0
X74.83Y-34.8
X74.83Y-35.6
X74.83Y-36.4
X74.83Y-37.2
X74.83Y-38.0
X74.83Y-38.8
X74.83Y-39.6
X74.83Y-40.4
X75.63Y-28.4
X75.63Y-29.2
X75.63Y-30.0
X75.63Y-30.8
X75.63Y-32.4
X75.63Y-33.2
X75.63Y-34.0
X75.63Y-34.8
X75.63Y-35.62
X75.63Y-36.4
X75.63Y-37.2
X75.63Y-38.0
X75.63Y-38.8
X75.63Y-39.6
X75.63Y-40.4
X75.712Y-50.612
X75.712Y-53.628
X75.77Y-49.59
X75.77Y-56.59
X75.77Y-63.59
X75.77Y-65.59
X75.77Y-66.59
X75.77Y-67.59
X76.77Y-51.59
X76.77Y-64.59
X76.77Y-65.59
X76.77Y-66.59
X76.77Y-67.59
X76.828Y-48.596
X76.838Y-53.59
X77.66Y-107.28
X78.77Y-49.59
X78.77Y-51.59
X78.77Y-52.59
X78.821Y-28.369
X78.83Y-29.2
X78.83Y-30.0
X78.83Y-30.8
X78.83Y-31.6
X78.83Y-32.4
X78.83Y-33.2
X78.83Y-34.0
X78.83Y-34.8
X78.83Y-35.6
X78.83Y-36.4
X78.83Y-37.2
X78.83Y-38.0
X78.83Y-38.8
X78.83Y-39.6
X78.83Y-40.4
X79.63Y-29.2
X79.63Y-30.0
X79.63Y-30.8
X79.63Y-31.6
X79.63Y-32.4
X79.63Y-33.2
X79.63Y-34.0
X79.63Y-34.8
X79.63Y-35.6
X79.63Y-36.4
X79.63Y-37.2
X79.63Y-38.0
X79.63Y-38.8
X79.63Y-39.6
X79.63Y-40.4
X80.43Y-28.4
X80.43Y-29.2
X80.43Y-30.0
X80.43Y-30.8
X80.43Y-31.6
X80.43Y-33.2
X80.43Y-34.8
X80.43Y-35.6
X80.43Y-36.4
X80.43Y-37.2
X80.43Y-38.0
X80.43Y-38.8
X80.43Y-39.6
X80.43Y-40.4
X81.023Y-34.056
X81.11Y-33.17
X82.477Y-26.707
X83.2Y-77.24
X83.34Y-70.45
X84.29Y-68.29
X84.71Y-50.86
X84.73Y-77.19
T2
X29.98Y-44.55
X29.98Y-46.07
X30.09Y-35.47
X30.13Y-36.88
X30.17Y-24.92
X30.2Y-26.39
X30.49Y-25.86
X30.5Y-30.32
X30.69Y-99.23
X30.79Y-26.41
X31.03Y-32.89
X31.12Y-96.09
X31.27Y-101.23
X31.44Y-66.57
X31.8Y-29.08
X31.92Y-32.89
X32.12Y-100.82
X32.14Y-99.26
X32.2Y-26.81
X32.257Y-28.37
X32.53Y-29.09
X32.64Y-94.54
X32.71Y-72.75
X32.71Y-93.03
X32.75Y-32.89
X32.85Y-41.98
X32.86Y-75.3
X32.94Y-101.71
X33.06Y-105.8
X33.433Y-104.276
X33.73Y-27.4
X34.1Y-104.27
X34.21Y-26.53
X34.26Y-28.24
X34.557Y-102.349
X34.63Y-31.191
X34.71Y-27.41
X34.89Y-95.55
X34.954Y-104.277
X35.23Y-63.74
X35.36Y-95.91
X35.526Y-104.201
X35.63Y-25.82
X35.84Y-108.76
X36.082Y-95.547
X36.514Y-104.111
X36.56Y-95.87
X36.6Y-24.88
X36.84Y-25.53
X37.03Y-26.13
X37.08Y-104.18
X37.17Y-108.73
X37.253Y-96.266
X37.47Y-48.8
X37.58Y-30.84
X37.6Y-30.14
X37.68Y-95.55
X37.7Y-40.549
X37.706Y-104.24
X37.9Y-38.59
X38.11Y-95.92
X38.152Y-48.762
X38.229Y-104.597
X38.27Y-46.26
X38.37Y-108.71
X38.42Y-101.92
X38.485Y-40.549
X38.65Y-38.57
X38.78Y-104.7
X38.87Y-96.12
X38.88Y-46.27
X38.99Y-37.75
X39.19Y-39.65
X39.21Y-34.6
X39.21Y-43.32
X39.22Y-62.54
X39.23Y-44.74
X39.23Y-57.47
X39.24Y-49.79
X39.24Y-54.9
X39.26Y-67.59
X39.27Y-60.02
X39.28Y-70.09
X39.29Y-47.35
X39.29Y-65.03
X39.3Y-72.6
X39.3Y-75.25
X39.31Y-82.86
X39.32Y-80.28
X39.32Y-85.36
X39.352Y-52.492
X39.36Y-89.75
X39.366Y-96.463
X39.38Y-87.95
X39.38Y-89.05
X39.5Y-77.81
X39.625Y-103.089
X40.56Y-85.36
X40.62Y-82.87
X40.63Y-65.41
X40.63Y-75.27
X40.65Y-67.64
X40.65Y-70.18
X40.67Y-59.97
X40.67Y-72.65
X40.68Y-80.28
X40.72Y-57.46
X40.74Y-52.37
X40.74Y-77.81
X40.74Y-87.86
X40.75Y-54.91
X40.76Y-62.53
X40.77Y-89.03
X40.78Y-89.73
X40.81Y-39.67
X40.82Y-34.59
X40.82Y-47.31
X40.84Y-49.83
X40.85Y-37.16
X40.92Y-96.08
X41.89Y-33.34
X41.9Y-30.17
X41.91Y-30.87
X42.064Y-98.01
X42.212Y-97.37
X42.37Y-106.84
X42.86Y-98.7
X42.95Y-48.26
X43.32Y-92.66
X43.33Y-110.24
X43.464Y-43.516
X44.32Y-99.29
X44.44Y-101.48
X45.32Y-48.41
X45.32Y-96.41
X45.7Y-63.78
X45.96Y-73.63
X46.19Y-25.25
X46.41Y-96.45
X46.659Y-31.985
X46.85Y-93.45
X48.05Y-93.21
X48.17Y-44.53
X48.3Y-46.46
X48.42Y-26.31
X48.45Y-107.32
X48.543Y-48.968
X48.71Y-104.27
X48.92Y-44.57
X48.92Y-46.46
X48.92Y-27.836
X48.92Y-28.836
X48.92Y-29.836
X48.92Y-30.836
X48.92Y-32.627
X48.92Y-33.627
X48.92Y-34.627
X48.92Y-35.627
X48.92Y-37.394
X48.92Y-38.394
X48.92Y-39.394
X48.92Y-40.394
X48.925Y-48.495
X49.03Y-43.62
X49.03Y-107.32
X49.04Y-42.99
X49.25Y-77.91
X49.34Y-28.344
X49.34Y-29.344
X49.34Y-30.344
X49.34Y-31.344
X49.34Y-33.127
X49.34Y-34.127
X49.34Y-35.127
X49.34Y-36.127
X49.34Y-37.894
X49.34Y-38.894
X49.34Y-39.894
X49.682Y-25.812
X49.733Y-42.316
X49.83Y-43.61
X49.86Y-42.98
X49.89Y-100.96
X49.94Y-107.5
X50.44Y-101.11
X50.76Y-49.86
X50.87Y-55.65
X51.004Y-100.986
X51.38Y-55.13
X51.44Y-58.98
X51.47Y-53.6
X51.71Y-105.86
X51.746Y-41.537
X52.19Y-51.87
X52.42Y-65.98
X52.63Y-56.93
X52.64Y-56.13
X52.656Y-57.658
X52.66Y-54.83
X52.67Y-53.2
X52.67Y-54.1
X52.72Y-58.52
X52.75Y-52.48
X53.24Y-66.91
X53.25Y-67.63
X53.38Y-104.27
X53.645Y-25.812
X54.86Y-45.3
X55.71Y-46.192
X55.79Y-53.595
X55.9Y-52.55
X56.02Y-35.35
X56.24Y-57.37
X56.55Y-48.98
X57.13Y-48.78
X57.19Y-77.81
X57.21Y-76.9
X57.77Y-59.59
X57.77Y-60.59
X57.77Y-61.59
X57.77Y-62.59
X57.77Y-63.59
X57.77Y-65.59
X57.77Y-69.562
X58.58Y-72.24
X58.59Y-71.55
X58.62Y-77.84
X58.76Y-60.6
X58.77Y-58.59
X58.77Y-59.59
X58.77Y-61.59
X58.77Y-62.59
X58.77Y-63.59
X58.77Y-65.59
X58.77Y-67.59
X58.77Y-76.01
X59.16Y-90.39
X59.33Y-77.87
; Post-machining back countersink angle 82deg
X59.334Y-90.946
X59.51Y-76.0
X59.6Y-89.89
X59.77Y-56.59
X59.77Y-57.59
X59.77Y-58.59
X59.77Y-59.59
X59.77Y-60.59
X59.77Y-61.59
X59.77Y-62.59
X59.77Y-63.59
X59.77Y-64.59
X59.77Y-68.59
X59.77Y-69.562
X60.04Y-77.85
X60.07Y-72.42
X60.147Y-25.812
X60.25Y-75.97
X60.281Y-55.07
X60.4Y-50.08
X60.74Y-77.83
X60.77Y-57.59
X60.77Y-59.59
X60.77Y-60.59
X60.77Y-61.59
X60.77Y-63.59
X60.77Y-66.59
X60.77Y-68.59
X60.77Y-69.562
X60.776Y-58.629
X61.02Y-75.91
X61.07Y-76.58
X61.09Y-71.48
X61.29Y-96.158
X61.52Y-77.86
X61.53Y-72.87
X61.77Y-58.59
X61.77Y-60.59
X61.77Y-64.59
X61.77Y-67.59
X61.77Y-68.59
X61.78Y-69.6
X61.86Y-73.58
; Post-machining back countersink angle 82deg
X62.0Y-96.158
X62.32Y-59.13
X62.47Y-74.28
X62.54Y-95.81
X62.77Y-55.59
X62.77Y-59.59
X62.77Y-63.59
X62.77Y-66.59
X62.77Y-68.59
X62.77Y-69.59
X62.842Y-56.518
X63.08Y-90.4
X63.299Y-57.031
X63.44Y-73.65
X63.7Y-90.4
X63.77Y-59.59
X63.77Y-60.59
X63.77Y-65.59
X63.77Y-66.59
X63.77Y-67.59
X64.41Y-26.05
X64.77Y-52.59
X64.77Y-55.59
X64.77Y-59.59
X64.77Y-65.59
X65.019Y-35.617
X65.2Y-91.26
X65.77Y-64.59
X65.77Y-69.59
X66.0Y-95.43
X66.265Y-75.535
X66.6Y-93.96
X66.71Y-91.99
X66.73Y-95.6
X66.755Y-74.695
X66.77Y-57.59
X66.77Y-60.59
X66.77Y-61.59
X66.77Y-66.59
X67.2Y-75.48
X67.457Y-35.967
X67.77Y-57.59
X67.77Y-58.59
X67.77Y-59.59
X67.77Y-60.59
X67.77Y-61.59
X67.77Y-63.59
X67.77Y-66.59
X67.77Y-68.59
X67.86Y-90.15
X68.14Y-75.61
X68.316Y-95.693
X68.39Y-92.02
X68.75Y-93.34
X68.77Y-57.59
X68.77Y-65.59
X68.77Y-66.59
X68.77Y-67.59
X68.77Y-69.59
X68.89Y-95.75
X69.56Y-26.16
X69.77Y-58.59
X69.77Y-62.594
X69.77Y-66.59
X69.77Y-67.59
X69.773Y-61.546
X69.81Y-86.36
X70.77Y-51.59
X70.77Y-54.59
X70.77Y-56.59
X70.77Y-58.59
X70.77Y-60.59
X70.77Y-64.59
X70.77Y-66.59
X70.813Y-69.59
X70.86Y-108.78
X71.32Y-75.29
X71.68Y-74.83
X71.77Y-51.59
X71.77Y-55.59
X71.77Y-57.59
X71.77Y-58.59
X71.77Y-59.59
X71.77Y-60.59
X71.77Y-66.59
X71.97Y-26.12
X72.16Y-93.08
X72.66Y-90.82
X72.77Y-51.59
X72.77Y-53.59
X72.77Y-54.59
X72.77Y-60.59
X72.77Y-68.59
X72.77Y-69.59
X73.04Y-86.5
X73.27Y-62.34
X73.4Y-94.77
X73.527Y-61.114
X73.65Y-90.52
X73.77Y-50.59
X73.77Y-53.59
X73.77Y-57.59
X73.77Y-58.59
X73.77Y-59.59
X73.77Y-60.566
X73.77Y-66.59
X73.99Y-92.67
X74.38Y-90.67
X74.77Y-51.59
X74.77Y-52.59
X74.77Y-57.59
X74.77Y-59.59
X74.77Y-60.566
X74.77Y-62.614
X74.77Y-64.59
X74.77Y-66.59
X74.77Y-67.59
X74.85Y-47.73
X74.96Y-99.41
X75.399Y-103.185
X75.63Y-99.39
X75.69Y-92.53
X75.712Y-51.62
X75.72Y-93.53
X75.729Y-94.492
X75.77Y-54.59
X75.77Y-55.59
X75.77Y-57.59
X75.77Y-58.59
X75.77Y-59.59
X75.77Y-60.59
X75.77Y-61.59
X75.77Y-62.59
X75.77Y-64.59
X75.77Y-69.59
X76.18Y-93.03
X76.2Y-94.03
X76.215Y-106.585
X76.22Y-92.04
X76.221Y-97.324
X76.33Y-26.04
X76.62Y-46.5
X76.76Y-106.21
X76.77Y-57.59
X76.77Y-58.59
X76.77Y-59.59
X76.77Y-60.59
X76.77Y-61.59
X76.77Y-62.59
X76.77Y-68.59
X76.86Y-89.7
X77.03Y-102.71
X77.21Y-48.12
X77.31Y-103.74
X77.37Y-91.53
X77.401Y-95.105
X77.51Y-89.23
X77.517Y-97.62
X77.59Y-26.25
X77.77Y-52.59
X77.77Y-53.59
X77.77Y-58.59
X77.77Y-59.59
X77.77Y-61.59
X77.77Y-63.556
X77.77Y-68.59
X77.82Y-93.522
X77.84Y-104.26
X78.01Y-89.7
X78.32Y-103.7
X78.38Y-96.52
X78.52Y-89.24
X78.54Y-94.61
X78.6Y-101.21
X78.77Y-50.59
X78.77Y-55.59
X78.77Y-58.59
X78.77Y-59.59
X78.77Y-60.59
X78.77Y-61.59
X78.77Y-62.59
X78.77Y-65.59
X78.81Y-46.31
X79.0Y-89.7
X79.02Y-97.67
X79.028Y-99.605
X79.06Y-103.76
X79.224Y-99.08
X79.38Y-69.18
X79.44Y-53.52
X79.44Y-69.87
X79.47Y-50.68
X79.49Y-90.921
X79.6Y-60.59
X79.74Y-103.81
X79.8Y-93.33
X79.8Y-94.215
X79.8Y-95.1
X79.87Y-96.33
X80.02Y-89.27
X80.05Y-106.6
X80.28Y-99.41
X80.38Y-102.56
X80.45Y-65.09
X80.46Y-92.41
X80.52Y-61.52
X80.52Y-89.76
X80.528Y-97.749
X80.55Y-98.9
X80.78Y-93.38
X80.78Y-94.265
X80.78Y-95.15
X81.17Y-59.3
X81.18Y-65.07
X81.19Y-48.69
X81.2Y-69.27
X81.2Y-101.12
X81.26Y-96.88
X81.37Y-102.98
X81.382Y-37.998
X81.46Y-99.83
X81.48Y-68.67
X81.525Y-98.623
X81.72Y-57.13
X81.74Y-93.37
X81.74Y-94.255
X81.74Y-95.14
X81.8Y-65.05
X81.94Y-25.96
X82.02Y-68.07
X82.16Y-57.58
X82.38Y-63.24
X82.49Y-97.657
X82.5Y-90.921
X82.55Y-37.795
X82.56Y-67.54
X82.64Y-51.98
X83.01Y-63.23
X83.11Y-67.06
X83.15Y-44.4
X83.39Y-58.518
X83.41Y-77.86
X83.43Y-92.41
X83.43Y-97.498
X83.49Y-63.66
X83.51Y-60.45
X83.65Y-50.21
X83.737Y-49.31
X83.85Y-67.3
X83.922Y-38.049
X84.1Y-52.05
X84.108Y-95.912
X84.11Y-96.489
X84.137Y-97.09
X84.22Y-43.01
X84.31Y-44.57
X84.328Y-38.608
X84.43Y-37.592
X84.64Y-28.547
X84.64Y-29.547
X84.64Y-30.547
X84.64Y-31.547
X84.64Y-33.311
X84.64Y-34.311
X84.64Y-35.311
X84.64Y-36.311
X84.785Y-40.284
X84.85Y-51.6
X84.925Y-37.135
X84.935Y-99.065
X85.0Y-108.83
X85.02Y-103.29
X85.04Y-28.047
X85.04Y-29.047
X85.04Y-30.047
X85.04Y-31.047
X85.04Y-32.811
X85.04Y-33.811
X85.04Y-34.811
X85.04Y-35.811
X85.09Y-101.81
X85.14Y-49.26
X85.15Y-100.79
X85.34Y-68.17
X85.64Y-64.98
X85.68Y-42.69
X85.68Y-43.91
X85.75Y-97.63
X85.83Y-62.99
X85.95Y-95.61
X86.01Y-72.02
X86.025Y-71.313
X86.054Y-70.647
X86.08Y-96.63
X86.13Y-68.37
X86.138Y-67.683
X86.23Y-66.91
X86.29Y-45.5
X86.55Y-76.41
X86.6Y-78.8
X86.83Y-66.64
X88.403Y-58.72
X88.42Y-53.61
X88.42Y-68.97
X88.43Y-41.88
X88.44Y-56.16
X88.44Y-71.04
X88.48Y-46.02
X88.52Y-51.11
X88.56Y-43.48
X88.87Y-97.7
X88.92Y-96.38
X88.94Y-102.65
X89.07Y-100.67
X89.3Y-95.54
X89.38Y-105.55
X89.57Y-103.06
X89.61Y-111.27
X89.71Y-83.97
X89.82Y-74.146
X89.93Y-76.21
X90.14Y-101.99
X90.36Y-68.97
X90.41Y-71.08
X90.5Y-101.26
X91.28Y-76.75
X91.72Y-108.78
X91.73Y-66.7
X92.152Y-60.01
X92.23Y-42.25
X92.23Y-75.23
X92.235Y-83.785
X92.245Y-91.595
X92.246Y-89.07
X92.25Y-72.69
X92.25Y-85.46
X92.25Y-87.97
X92.26Y-47.32
X92.276Y-89.77
X92.278Y-44.742
X92.28Y-65.12
X92.28Y-80.32
X92.29Y-54.93
X92.31Y-39.66
X92.31Y-67.27
X92.32Y-33.82
X92.32Y-37.52
X92.326Y-77.81
X92.34Y-82.77
X92.36Y-48.56
X92.36Y-57.15
X92.37Y-52.4
X92.39Y-49.78
X92.4Y-33.03
X92.432Y-62.37
X92.45Y-30.04
X92.5Y-68.3
X92.64Y-25.11
X92.64Y-71.67
X92.65Y-69.58
X92.66Y-70.43
X92.69Y-69.01
X92.92Y-108.73
X92.95Y-31.16
X92.96Y-30.49
X92.96Y-61.1
X92.98Y-36.23
X93.21Y-25.11
X93.27Y-36.75
X93.42Y-109.32
X93.47Y-87.92
X93.53Y-77.81
X93.56Y-98.93
X93.57Y-80.27
X93.59Y-82.77
X93.62Y-72.71
X93.62Y-75.21
X93.63Y-85.41
X93.66Y-39.7
X93.67Y-44.76
X93.68Y-76.81
X93.686Y-47.74
X93.69Y-67.55
X93.71Y-65.08
X93.73Y-40.94
X93.75Y-42.19
X93.76Y-70.16
X93.761Y-88.89
X93.79Y-57.48
X93.804Y-89.766
X93.81Y-30.02
X93.81Y-54.88
X93.83Y-49.8
X93.83Y-52.35
X93.83Y-59.85
X93.92Y-105.53
X93.97Y-37.14
X94.08Y-111.1
X94.19Y-61.73
X94.34Y-69.207
X94.36Y-96.27
X94.441Y-68.479
X94.55Y-102.75
X95.77Y-25.11
X96.12Y-71.73
X96.21Y-26.16
T4
X75.15Y-106.53
X80.95Y-106.53
T5
X61.16Y-97.53
X61.66Y-99.03
X63.16Y-97.53
X64.16Y-99.03
X65.16Y-97.53
X66.16Y-99.03
X67.16Y-97.53
X68.66Y-99.03
X69.16Y-97.53
T7
X31.34Y-52.57
X31.34Y-55.11
X31.34Y-57.65
X31.34Y-60.19
X34.8Y-79.12
X34.8Y-81.66
X34.8Y-84.2
X34.8Y-86.74
T8
X58.59Y-101.13
X71.73Y-101.13
T3
G00X46.38Y-105.195
M15
G01X46.38Y-106.195
M16
G05
G00X46.38Y-110.305
M15
G01X46.38Y-111.805
M16
G05
G00X55.02Y-105.195
M15
G01X55.02Y-106.195
M16
G05
G00X55.02Y-110.305
M15
G01X55.02Y-111.805
M16
G05
T5
G00X34.07Y-106.58
M15
G01X34.07Y-107.58
M16
G05
G00X34.07Y-109.95
M15
G01X34.07Y-110.95
M16
G05
G00X40.27Y-106.58
M15
G01X40.27Y-107.58
M16
G05
G00X40.27Y-109.95
M15
G01X40.27Y-110.95
M16
G05
T6
G00X73.72Y-105.68
M15
G01X73.72Y-106.38
M16
G05
G00X73.72Y-110.01
M15
G01X73.72Y-110.41
M16
G05
G00X82.38Y-105.68
M15
G01X82.38Y-106.38
M16
G05
G00X82.38Y-110.01
M15
G01X82.38Y-110.41
M16
G05
M30
