%TF.GenerationSoftware,KiCad,Pcbnew,10.0.6*%
%TF.CreationDate,2026-09-26T18:23:01+02:00*%
%TF.ProjectId,mega_videl,6d656761-5f76-4696-9465-6c2e6b696361,rev?*%
%TF.SameCoordinates,Original*%
%TF.FileFunction,Copper,L8,Inr*%
%TF.FilePolarity,Positive*%
%FSLAX46Y46*%
G04 Gerber Fmt 4.6, Leading zero omitted, Abs format (unit mm)*
G04 Created by KiCad (PCBNEW 10.0.6) date 2026-09-26 18:23:01*
%MOMM*%
%LPD*%
G01*
G04 APERTURE LIST*
%TA.AperFunction,ComponentPad*%
%ADD10C,1.300000*%
%TD*%
%TA.AperFunction,ComponentPad*%
%ADD11C,3.200000*%
%TD*%
%TA.AperFunction,ComponentPad*%
%ADD12C,0.800000*%
%TD*%
%TA.AperFunction,ComponentPad*%
%ADD13O,1.200000X2.000000*%
%TD*%
%TA.AperFunction,ComponentPad*%
%ADD14O,1.200000X1.800000*%
%TD*%
%TA.AperFunction,ComponentPad*%
%ADD15O,1.500000X2.550000*%
%TD*%
%TA.AperFunction,ComponentPad*%
%ADD16R,1.700000X1.700000*%
%TD*%
%TA.AperFunction,ComponentPad*%
%ADD17C,1.700000*%
%TD*%
%TA.AperFunction,ComponentPad*%
%ADD18O,1.000000X2.100000*%
%TD*%
%TA.AperFunction,ComponentPad*%
%ADD19O,1.000000X2.600000*%
%TD*%
%TA.AperFunction,ViaPad*%
%ADD20C,0.370000*%
%TD*%
%TA.AperFunction,ViaPad*%
%ADD21C,0.450000*%
%TD*%
%TA.AperFunction,ViaPad*%
%ADD22C,0.500000*%
%TD*%
%TA.AperFunction,ViaPad*%
%ADD23C,0.610000*%
%TD*%
%TA.AperFunction,ViaPad*%
%ADD24C,0.350000*%
%TD*%
%TA.AperFunction,Conductor*%
%ADD25C,0.181610*%
%TD*%
%TA.AperFunction,Conductor*%
%ADD26C,0.127000*%
%TD*%
%TA.AperFunction,Conductor*%
%ADD27C,0.304800*%
%TD*%
%TA.AperFunction,Conductor*%
%ADD28C,1.270000*%
%TD*%
%TA.AperFunction,Conductor*%
%ADD29C,0.116078*%
%TD*%
%TA.AperFunction,Conductor*%
%ADD30C,0.152400*%
%TD*%
%TA.AperFunction,Conductor*%
%ADD31C,0.500000*%
%TD*%
%TA.AperFunction,Conductor*%
%ADD32C,0.800000*%
%TD*%
%TA.AperFunction,Conductor*%
%ADD33C,0.171450*%
%TD*%
G04 APERTURE END LIST*
D10*
%TO.N,/fpga/PCIE.SPARE*%
%TO.C,U17*%
X61660000Y-99030000D03*
%TO.N,/PCIe/PCIESLOT.REFLCK_N*%
X64160000Y-99030000D03*
%TO.N,/PCIe/PCIESLOT.REFLCK_P*%
X66160000Y-99030000D03*
%TO.N,/fpga/PCIE.PERST_N*%
X68660000Y-99030000D03*
%TO.N,/PCIe/PCISLOT.TX_P*%
X69160000Y-97530000D03*
%TO.N,/PCIe/PCISLOT.TX_N*%
X67160000Y-97530000D03*
%TO.N,GND*%
X65160000Y-97530000D03*
%TO.N,/fpga/PCIE.RX_P*%
X63160000Y-97530000D03*
%TO.N,/fpga/PCIE.RX_N*%
X61160000Y-97530000D03*
D11*
%TO.N,GND*%
X58590000Y-101130000D03*
X71730000Y-101130000D03*
%TD*%
D12*
%TO.N,*%
%TO.C,USBC1*%
X75150000Y-106530000D03*
X80950000Y-106530000D03*
D13*
%TO.N,GND*%
X82380000Y-106030000D03*
D14*
X82380000Y-110210000D03*
X73720000Y-110210000D03*
D13*
X73720000Y-106030000D03*
%TD*%
D15*
%TO.N,GND*%
%TO.C,VID1*%
X34070000Y-107080000D03*
X34070000Y-110450000D03*
X40270000Y-107080000D03*
X40270000Y-110450000D03*
%TD*%
D16*
%TO.N,+3V3*%
%TO.C,J4*%
X34800000Y-79120000D03*
D17*
%TO.N,/video/EXT.SDA*%
X34800000Y-81660000D03*
%TO.N,/video/EXT.SCL*%
X34800000Y-84200000D03*
%TO.N,GND*%
X34800000Y-86740000D03*
%TD*%
D16*
%TO.N,GND*%
%TO.C,J2*%
X31340000Y-60190000D03*
D17*
%TO.N,+3V3*%
X31340000Y-57650000D03*
%TO.N,+1V35*%
X31340000Y-55110000D03*
%TO.N,+1V1*%
X31340000Y-52570000D03*
%TD*%
D18*
%TO.N,GND*%
%TO.C,USBC2*%
X46380000Y-105695088D03*
D19*
X46380000Y-111055088D03*
D18*
X55020000Y-105695088D03*
D19*
X55020000Y-111055088D03*
%TD*%
D20*
%TO.N,/fpga/DRAM.RAS_N*%
X64230000Y-36630000D03*
D21*
X48920400Y-40394000D03*
X81381600Y-37998400D03*
D20*
%TO.N,/fpga/DRAM.ODT*%
X70897725Y-34930000D03*
D21*
X84785200Y-40284400D03*
X49340000Y-39894000D03*
%TO.N,/fpga/DRAM.CAS_N*%
X82550000Y-37795200D03*
X48920400Y-39394000D03*
D20*
X63977195Y-33980000D03*
D21*
%TO.N,/fpga/DRAM.WE_N*%
X84328000Y-38608000D03*
D20*
X58180000Y-32400000D03*
X61460000Y-33157195D03*
X78830000Y-32400000D03*
D21*
X49340000Y-38894000D03*
%TO.N,/fpga/DRAM.CS_N*%
X48920400Y-38394000D03*
D20*
X70670000Y-32370000D03*
D21*
X83921600Y-38049200D03*
%TO.N,/fpga/DRAM.A10*%
X84429600Y-37592000D03*
X49340000Y-37894000D03*
D20*
X61919248Y-32369585D03*
D21*
%TO.N,/fpga/DRAM.BA2*%
X48920400Y-37394000D03*
D20*
X71037195Y-31560999D03*
D21*
X84924805Y-37134800D03*
D20*
X58180000Y-31600000D03*
X78830000Y-31600000D03*
D22*
%TO.N,+0V675VTT*%
X46659000Y-31985301D03*
X35630000Y-25820000D03*
%TO.N,+1V35*%
X85830000Y-62990000D03*
X84850000Y-51600000D03*
D21*
X49860000Y-42980000D03*
D23*
X32750000Y-32890000D03*
D22*
X71970000Y-26120000D03*
X55710000Y-46191600D03*
D23*
X31030000Y-32890000D03*
D22*
X84310000Y-44570000D03*
X48420000Y-26310000D03*
D20*
X73720000Y-55630000D03*
D21*
X70770000Y-54590000D03*
D23*
X31920000Y-32890000D03*
D22*
X78810000Y-46310000D03*
X34630000Y-31191000D03*
D21*
X49030000Y-43620000D03*
D22*
X76620000Y-46500000D03*
X49682400Y-25812000D03*
D21*
X49040000Y-42990000D03*
D22*
X64410000Y-26050000D03*
D21*
X49830000Y-43610000D03*
D22*
X77590000Y-26250000D03*
X49733200Y-42316400D03*
D21*
%TO.N,/fpga/TCK*%
X45960000Y-73630000D03*
X58580000Y-72240000D03*
D22*
%TO.N,GND*%
X78380000Y-96520000D03*
D20*
X55930000Y-53080000D03*
D22*
X80380000Y-102560000D03*
D21*
X80780000Y-95150000D03*
D20*
X70149998Y-93270001D03*
D21*
X81740000Y-95140000D03*
D20*
X65980000Y-90990000D03*
D22*
X48170000Y-44530000D03*
X77210000Y-48120000D03*
D23*
X37600000Y-30140000D03*
D21*
X31800000Y-29080000D03*
X78540000Y-94610000D03*
X59334453Y-90945547D03*
D20*
X54260000Y-58170000D03*
D21*
X92640000Y-25110000D03*
D22*
X88560000Y-43480000D03*
X92950000Y-31160000D03*
X83150000Y-44400000D03*
D21*
X81740000Y-93370000D03*
X37470000Y-48800000D03*
D22*
X79870000Y-96330000D03*
X92960000Y-30490000D03*
X35840000Y-108760000D03*
D21*
X62000000Y-96158200D03*
D23*
X92245600Y-89070000D03*
X93760551Y-88890000D03*
D22*
X69560000Y-26160000D03*
X92360000Y-48560000D03*
D20*
X40560000Y-103040000D03*
D21*
X88440000Y-71040000D03*
D22*
X37700000Y-40549000D03*
D20*
X55860000Y-58190000D03*
D22*
X66710000Y-91990000D03*
X31270000Y-101230000D03*
D21*
X57770000Y-63590000D03*
D23*
X40770000Y-89030000D03*
D22*
X37170000Y-108730000D03*
X86010000Y-72020000D03*
X40820000Y-47310000D03*
X32640000Y-94540000D03*
D20*
X83200000Y-77240000D03*
X84730000Y-77190000D03*
D22*
X89930000Y-76210000D03*
X42950000Y-48260000D03*
X42860000Y-98700000D03*
D21*
X32530000Y-29090000D03*
D22*
X85150000Y-100790000D03*
D20*
X83340000Y-70450000D03*
D22*
X53250000Y-67630000D03*
X88420000Y-53610000D03*
X38370000Y-108710000D03*
X94080000Y-111100000D03*
X53644800Y-25812000D03*
X81190000Y-48690000D03*
X32860000Y-75300000D03*
D21*
X59770000Y-60590000D03*
D20*
X54270000Y-54540000D03*
D23*
X39360000Y-89750000D03*
D21*
X90360000Y-68970000D03*
X67456889Y-35966889D03*
D22*
X73650000Y-90520000D03*
X81940000Y-25960000D03*
X92450000Y-30040000D03*
D21*
X34710000Y-27410000D03*
D22*
X94440831Y-68479217D03*
X73040000Y-86500000D03*
D20*
X42610000Y-99610000D03*
D21*
X57770000Y-61590000D03*
X93210000Y-25110000D03*
D22*
X83430000Y-97498498D03*
X92235000Y-83785000D03*
X91720000Y-108780000D03*
X85140000Y-49260000D03*
X48710000Y-104270000D03*
D21*
X79800000Y-94215000D03*
D22*
X81370000Y-102980000D03*
X96120000Y-71730000D03*
D23*
X93804400Y-89766003D03*
D22*
X34556922Y-102349463D03*
X68390000Y-92020000D03*
D20*
X52356400Y-53634867D03*
D22*
X30690000Y-99230000D03*
X85640000Y-64980000D03*
X36600000Y-24880000D03*
D21*
X33730000Y-27400000D03*
D22*
X37030000Y-26130000D03*
D21*
X50440000Y-101110000D03*
D20*
X51490000Y-51460000D03*
D22*
X35230000Y-63740000D03*
D21*
X88420000Y-68970000D03*
D23*
X41900000Y-30170000D03*
X41910000Y-30870000D03*
D21*
X34210000Y-26530000D03*
D22*
X88480000Y-46020000D03*
D21*
X58770000Y-63590000D03*
D20*
X64540000Y-89710000D03*
D22*
X38485461Y-40548837D03*
D20*
X56590000Y-50510000D03*
X64850000Y-93400000D03*
D21*
X58770000Y-61590000D03*
D22*
X31120000Y-96090000D03*
D20*
X52100000Y-57240000D03*
D21*
X80780000Y-94265000D03*
D24*
X77660000Y-107280000D03*
D21*
X81740000Y-94255000D03*
X34260000Y-28240000D03*
D22*
X49940000Y-107500000D03*
X93810000Y-30020000D03*
D20*
X36570000Y-105670000D03*
D22*
X54860000Y-45300000D03*
X45320000Y-48410000D03*
D23*
X92275600Y-89770000D03*
D22*
X50760000Y-49860000D03*
X78600000Y-101210000D03*
X89610000Y-111270000D03*
D21*
X95770000Y-25110000D03*
D22*
X51745810Y-41536580D03*
D21*
X90410000Y-71080000D03*
D22*
X60147200Y-25812000D03*
X29980000Y-44550000D03*
X68750000Y-93340000D03*
X88520000Y-51110000D03*
D20*
X54280000Y-56640000D03*
D22*
X88403200Y-58720000D03*
X84935461Y-99065461D03*
D21*
X83430000Y-92410000D03*
D22*
X30090000Y-35470000D03*
X32940000Y-101710000D03*
D20*
X43790000Y-96800000D03*
D21*
X80780000Y-93380000D03*
D22*
X69810000Y-86360000D03*
X86550000Y-76410000D03*
X93680000Y-76810000D03*
D21*
X80460000Y-92410000D03*
X59770000Y-62590000D03*
D22*
X73400000Y-94770000D03*
X66600000Y-93960000D03*
X53380000Y-104270000D03*
X74380000Y-90670000D03*
D21*
X38152216Y-48762216D03*
D23*
X39380000Y-89050000D03*
D20*
X54280000Y-52960000D03*
X84710000Y-50860000D03*
D22*
X30170000Y-24920000D03*
X74850000Y-47730000D03*
X30500000Y-30320000D03*
D21*
X96210000Y-26160000D03*
D22*
X89380000Y-105550000D03*
X36840000Y-25530000D03*
X84100000Y-52050000D03*
D20*
X55880000Y-55980000D03*
D22*
X86600000Y-78800000D03*
X48920000Y-44570000D03*
X51710000Y-105860000D03*
D21*
X65019063Y-35617358D03*
X79800000Y-93330000D03*
D23*
X40780000Y-89730000D03*
D20*
X51150000Y-45000000D03*
X84290000Y-68290000D03*
D23*
X37580000Y-30840000D03*
D22*
X37705921Y-104239883D03*
X88440000Y-56160000D03*
D20*
X36010000Y-103280000D03*
D22*
X76330000Y-26040000D03*
X81260000Y-96880000D03*
D21*
X77820000Y-93521800D03*
X79800000Y-95100000D03*
D22*
%TO.N,+3V3*%
X67860000Y-90150000D03*
X79490000Y-90920998D03*
X85750000Y-97630000D03*
X40920000Y-96080000D03*
X29980000Y-46070000D03*
X93920000Y-105530000D03*
X77370000Y-91530000D03*
X32120000Y-100820000D03*
X94340000Y-69206800D03*
X30490000Y-25860000D03*
X48300000Y-46460000D03*
X72660000Y-90820000D03*
X48920000Y-46460000D03*
D20*
X51510000Y-47930000D03*
D22*
X72160000Y-93080000D03*
X46410000Y-96450000D03*
D20*
X64810000Y-94310000D03*
D22*
X31440000Y-66570000D03*
X38650000Y-38570000D03*
X65200000Y-91260000D03*
X88430000Y-41880000D03*
X30790000Y-26410000D03*
X32710000Y-72750000D03*
X86230000Y-66910000D03*
X37900000Y-38590000D03*
X75630000Y-99390000D03*
X49250000Y-77910000D03*
X82500000Y-90920998D03*
X32200000Y-26810000D03*
X86025335Y-71313350D03*
X30200000Y-26390000D03*
X32140000Y-99260000D03*
D20*
X70234502Y-94340000D03*
D22*
X74960000Y-99410000D03*
X93970000Y-37140000D03*
X83410000Y-77860000D03*
X38270000Y-46260000D03*
X38880000Y-46270000D03*
X32257003Y-28370000D03*
X50870000Y-55650000D03*
X30130000Y-36880000D03*
X86137501Y-67682501D03*
X83650000Y-50210000D03*
X82640000Y-51980000D03*
X52420000Y-65980000D03*
X32710000Y-93030000D03*
D20*
X42610000Y-100200000D03*
D22*
X93270000Y-36750000D03*
X37253200Y-96265692D03*
X89820266Y-74145720D03*
X92980000Y-36230000D03*
X43320000Y-92660000D03*
D21*
%TO.N,/fpga/TDI*%
X58590000Y-71550000D03*
X45700000Y-63780000D03*
D22*
%TO.N,/usb2/USBVBUSE*%
X92245000Y-91595000D03*
X76215000Y-106585000D03*
X85000000Y-108830000D03*
X80050000Y-106600000D03*
D21*
%TO.N,/fpga/HDMI.CLK_P*%
X55789893Y-53595133D03*
%TO.N,/fpga/HDMI.CLK_N*%
X55900000Y-52550000D03*
%TO.N,/video/AC.CLK_N*%
X34890000Y-95550000D03*
X52750000Y-52480000D03*
%TO.N,/video/AC.CLK_P*%
X35360000Y-95910000D03*
X52670000Y-53200000D03*
%TO.N,/video/AC.TX_N0*%
X52670000Y-54100000D03*
X36081979Y-95546847D03*
%TO.N,/video/AC.TX_P0*%
X52660000Y-54830000D03*
X36560000Y-95870000D03*
D22*
%TO.N,+3V3A_PCIE*%
X73990000Y-92670000D03*
D21*
%TO.N,/usb2/USBD_P*%
X79060000Y-103760000D03*
X77840000Y-104260000D03*
%TO.N,/usb2/USBD_N*%
X77310000Y-103740000D03*
X78320000Y-103700000D03*
%TO.N,/usb2/Net-(U20-EXTVBUS)*%
X92640000Y-71670000D03*
X91280000Y-76750000D03*
%TO.N,/fpga/USB2.NXT*%
X92960000Y-61100000D03*
X83390000Y-58518200D03*
%TO.N,/fpga/USB2.DIR*%
X83850000Y-67300000D03*
X86830000Y-66640000D03*
X91730000Y-66700000D03*
%TO.N,/fpga/USB2.STP*%
X85340000Y-68170000D03*
X73770000Y-57590000D03*
X82160000Y-57580000D03*
X92650000Y-69580000D03*
%TO.N,/fpga/USB2.CLK*%
X83510000Y-60450000D03*
X92690000Y-69010000D03*
D22*
%TO.N,/usb2/+1V8*%
X86130000Y-68370000D03*
X92500000Y-68300000D03*
D21*
%TO.N,+2V5*%
X60400000Y-50080000D03*
D22*
X48925000Y-48495000D03*
D20*
%TO.N,/fpga/PCIE.SPARE*%
X61860000Y-101540000D03*
D21*
%TO.N,/PCIe/PCIESLOT.REFLCK_N*%
X66730000Y-95600000D03*
%TO.N,/PCIe/PCIESLOT.REFLCK_P*%
X66000000Y-95430000D03*
%TO.N,/fpga/PCIE.RX_P*%
X59160000Y-90390000D03*
X61290000Y-96158200D03*
%TO.N,/fpga/PCIE.RX_N*%
X59600000Y-89890000D03*
X62540000Y-95810000D03*
%TO.N,+1V1*%
X71770000Y-57590000D03*
X67770000Y-59590000D03*
X70770000Y-56590000D03*
D22*
X32850000Y-41980000D03*
X56550000Y-48980000D03*
D21*
X70770000Y-58590000D03*
X66770000Y-60590000D03*
X70770000Y-60590000D03*
X67770000Y-57590000D03*
D22*
X57130000Y-48780000D03*
%TO.N,+5V*%
X70860000Y-108780000D03*
X86290000Y-45500000D03*
X89710000Y-83970000D03*
X43330000Y-110240000D03*
D20*
X43890000Y-106410000D03*
D21*
%TO.N,/fpga/Net-(U5special-nSTATUS)*%
X51380000Y-55130000D03*
X56240000Y-57370000D03*
%TO.N,/fpga/ETH.RESET_N*%
X76221380Y-97324498D03*
X71320000Y-75290000D03*
D20*
%TO.N,/fpga/DRAM.DQ22*%
X71770000Y-48590000D03*
X79630000Y-35600000D03*
%TO.N,+0V675REF*%
X64770000Y-49590000D03*
X60290390Y-35950000D03*
D22*
X46190000Y-25250000D03*
D20*
X70770000Y-50590000D03*
X80430000Y-34800000D03*
%TO.N,/fpga/DRAM.CK_P*%
X67990000Y-35310000D03*
X81022705Y-34056188D03*
X54980000Y-34000000D03*
X65532000Y-35458400D03*
X75630000Y-34000000D03*
X52490000Y-34660000D03*
%TO.N,/fpga/DRAM.CK_N*%
X65530000Y-34780000D03*
X81110000Y-33170000D03*
X54980000Y-33200000D03*
X52587830Y-33297972D03*
X67960000Y-34798000D03*
X75630000Y-33200000D03*
%TO.N,/fpga/DRAM.CKE*%
X72460000Y-33180000D03*
%TO.N,/fpga/DRAM.BA0*%
X62695001Y-32631319D03*
D21*
X49340000Y-36126800D03*
X84640400Y-36311200D03*
%TO.N,/fpga/DRAM.A3*%
X48920400Y-35626800D03*
D20*
X64770000Y-54590000D03*
D21*
X85040400Y-35811200D03*
D20*
X60630000Y-31570195D03*
X60675195Y-42904447D03*
%TO.N,/fpga/DRAM.A0*%
X68160000Y-31530000D03*
D21*
X85040400Y-34811200D03*
D20*
X68800000Y-45810000D03*
D21*
X48920400Y-34626800D03*
D20*
X71850000Y-31580000D03*
X64196486Y-57976243D03*
D21*
%TO.N,/fpga/DRAM.A12*%
X84640400Y-35311200D03*
D20*
X54980000Y-30800000D03*
D21*
X49340000Y-35126800D03*
D20*
X75630000Y-30800000D03*
X62815195Y-30785195D03*
D21*
%TO.N,/fpga/DRAM.BA1*%
X84640400Y-34311200D03*
D20*
X68529200Y-29920000D03*
D21*
X49340000Y-34126800D03*
D20*
%TO.N,/fpga/DRAM.A5*%
X65100000Y-30710000D03*
D21*
X84640400Y-33311200D03*
X49340000Y-33126800D03*
D20*
%TO.N,/fpga/DRAM.A2*%
X58180000Y-30000000D03*
D21*
X64770000Y-55590000D03*
D20*
X67820000Y-45370000D03*
D21*
X48920400Y-33626800D03*
X85040400Y-33811200D03*
D20*
X71100000Y-29980000D03*
X78830000Y-30000000D03*
%TO.N,/fpga/DRAM.A1*%
X65030000Y-29195195D03*
D21*
X48920400Y-32626800D03*
D20*
X69749401Y-30785196D03*
D21*
X85040400Y-32811200D03*
%TO.N,/fpga/DRAM.A4*%
X48920400Y-30835600D03*
X85040400Y-31046800D03*
D20*
X62790000Y-29980000D03*
%TO.N,/fpga/DRAM.A7*%
X69500000Y-29160000D03*
X58980000Y-29200000D03*
D21*
X84640400Y-31546800D03*
D20*
X79630000Y-29200000D03*
D21*
X49340000Y-31343600D03*
%TO.N,/fpga/DRAM.A9*%
X84640400Y-30546800D03*
D20*
X65882510Y-29134572D03*
D21*
X49340000Y-30343600D03*
%TO.N,/fpga/DRAM.A11*%
X49340000Y-29343600D03*
D20*
X61950000Y-28330000D03*
D21*
X84640400Y-29546800D03*
D20*
%TO.N,/fpga/DRAM.A6*%
X67070000Y-28350000D03*
D21*
X48920400Y-29835600D03*
X85040400Y-30046800D03*
D20*
X74830000Y-29200000D03*
X54180000Y-29200000D03*
%TO.N,/fpga/DRAM.RESET_N*%
X82477195Y-26707195D03*
X67327500Y-26162500D03*
%TO.N,/fpga/DRAM.A13*%
X66910000Y-27260000D03*
D21*
X48920400Y-28835600D03*
X85040400Y-29046800D03*
D20*
%TO.N,/fpga/DRAM.A14*%
X61060000Y-27300000D03*
X62798461Y-54618461D03*
D21*
X48920400Y-27835600D03*
X85040400Y-28046800D03*
D20*
X61010800Y-44043600D03*
%TO.N,/fpga/DRAM.A8*%
X74830000Y-28400000D03*
X63340000Y-27240000D03*
D21*
X49340000Y-28343600D03*
X84640400Y-28546800D03*
D20*
X54180000Y-28400000D03*
D21*
%TO.N,/fpga/LINK.TX_N*%
X57770000Y-60590000D03*
X49890000Y-100960000D03*
D20*
%TO.N,Net-(USBC2-TX2-)*%
X51660000Y-104300000D03*
X52470000Y-107350000D03*
D21*
%TO.N,/video/HDMIO.SCL*%
X44320000Y-99290000D03*
D20*
X41120000Y-105050000D03*
D22*
%TO.N,+1V1_TX*%
X52190000Y-51870000D03*
D21*
%TO.N,/fpga/VIDEL33.CLK0*%
X85680000Y-42690000D03*
%TO.N,/fpga/VIDEL33.CLK1*%
X85680000Y-43910000D03*
%TO.N,/fpga/VIDEL33.CLK2*%
X84220000Y-43010000D03*
%TO.N,/fpga/FALCON_AUDIOLV.O*%
X83736805Y-49310000D03*
X75711912Y-51620174D03*
X79470000Y-50680000D03*
%TO.N,/Ethernet/Net-(U3-XTAL1{slash}CLKIN\u002A\u002A)*%
X85090000Y-101810000D03*
X85020000Y-103290000D03*
%TO.N,/Ethernet/Net-(U3-XTAL2)*%
X81200000Y-101120000D03*
%TO.N,/video/HDMIO.HPD*%
X39625432Y-103088610D03*
X38420000Y-101920000D03*
%TO.N,/video/HDMIO.D2P*%
X38780000Y-104700000D03*
%TO.N,/video/HDMIO.D2N*%
X38229468Y-104597065D03*
%TO.N,/video/HDMIO.D1P*%
X37080000Y-104180000D03*
D20*
X37980000Y-108150000D03*
%TO.N,/video/HDMIO.D1N*%
X37570000Y-107790000D03*
D21*
X36514166Y-104111119D03*
%TO.N,/video/HDMIO.D0P*%
X35526400Y-104201367D03*
%TO.N,/video/HDMIO.D0N*%
X34954402Y-104277192D03*
%TO.N,/video/HDMIO.CKP*%
X34100000Y-104270000D03*
D20*
X36740000Y-108220000D03*
%TO.N,/video/HDMIO.CKN*%
X36260000Y-107850000D03*
D21*
X33433029Y-104276055D03*
%TO.N,/video/HDMIO.SDA*%
X45320000Y-96410000D03*
D20*
X40580000Y-105250000D03*
D22*
%TO.N,+2V5_TX*%
X51470000Y-53600000D03*
X51440000Y-58980000D03*
D21*
%TO.N,/fpga/CT.A23*%
X40670000Y-59970000D03*
X58770000Y-76010000D03*
%TO.N,/fpga/CT.A27*%
X60250000Y-75970000D03*
X40750000Y-54910000D03*
%TO.N,/fpga/CT.A18*%
X39290000Y-65030000D03*
X61070000Y-76580000D03*
%TO.N,/fpga/CT.A9*%
X66265000Y-75535000D03*
X40740000Y-77810000D03*
%TO.N,/fpga/CT.RST_N*%
X39290000Y-47350000D03*
X60040000Y-77850000D03*
%TO.N,/fpga/ETH.IRQ*%
X71680000Y-74830000D03*
X77516502Y-97620000D03*
%TO.N,/fpga/CT.D27*%
X81200000Y-69270000D03*
X93590000Y-82770000D03*
%TO.N,/fpga/CT.A30*%
X39240000Y-49790000D03*
%TO.N,/fpga/CT.SIZ0*%
X39190000Y-39650000D03*
%TO.N,/fpga/CT.A25*%
X40720000Y-57460000D03*
X59510000Y-76000000D03*
%TO.N,/fpga/CT.A19*%
X59330000Y-77870000D03*
X40630000Y-65410000D03*
D20*
X66770000Y-63590000D03*
D21*
%TO.N,/fpga/CT.A7*%
X40680000Y-80280000D03*
X66755000Y-74695000D03*
%TO.N,/fpga/CT.A5*%
X40620000Y-82870000D03*
X68139800Y-75610000D03*
%TO.N,/fpga/CT.A14*%
X58620000Y-77840000D03*
X68770000Y-69590000D03*
X39280000Y-70090000D03*
%TO.N,/fpga/CT.D28*%
X92250000Y-85460000D03*
D20*
%TO.N,/fpga/DRAM.DQ3*%
X69770000Y-51590000D03*
X54180000Y-36360000D03*
%TO.N,/fpga/CLK0*%
X66640000Y-53030000D03*
X67849374Y-52077584D03*
%TO.N,/fpga/HDMI.REFCLK_N*%
X61717079Y-53582921D03*
X56240000Y-49690000D03*
%TO.N,/fpga/HDMI.REFCLK_P*%
X56120000Y-51260000D03*
X60780000Y-54640000D03*
D21*
%TO.N,/fpga/USB2LV.DATA0*%
X71770000Y-55590000D03*
X81720000Y-57130000D03*
%TO.N,/fpga/CT.TM0*%
X92400000Y-33030000D03*
%TO.N,/fpga/CT.D2*%
X92370000Y-52400000D03*
X81170000Y-59300000D03*
%TO.N,/fpga/CT.I6_N*%
X92260000Y-47320000D03*
X75770000Y-58590000D03*
%TO.N,/fpga/CT.TM1*%
X92320000Y-33820000D03*
%TO.N,/fpga/HDMI.SCL*%
X62770000Y-59590000D03*
X48050000Y-93210000D03*
%TO.N,/fpga/HDMI.SDA*%
X46850000Y-93450000D03*
X63770000Y-59590000D03*
%TO.N,/fpga/HDMI.I2CRESET*%
X64770000Y-59590000D03*
X44440000Y-101480000D03*
%TO.N,/fpga/CT.D0*%
X92390000Y-49780000D03*
%TO.N,/fpga/CT.TM2*%
X92320000Y-37520000D03*
%TO.N,/fpga/CT.D4*%
X92290000Y-54930000D03*
X77770000Y-59590000D03*
%TO.N,/fpga/CT.D1*%
X93830000Y-49800000D03*
%TO.N,/fpga/LINK.TX_P*%
X51003526Y-100986024D03*
X58760000Y-60600000D03*
%TO.N,/fpga/CT.BR_N*%
X41890000Y-33340000D03*
D20*
%TO.N,/fpga/CT.A24*%
X64770000Y-60590000D03*
D21*
X39230000Y-57470000D03*
X61860000Y-73580000D03*
%TO.N,/fpga/CT.TEA_N*%
X61530000Y-72870000D03*
X43463879Y-43515502D03*
%TO.N,/fpga/CT.TT0*%
X92310000Y-39660000D03*
%TO.N,/fpga/CT.D6*%
X92360000Y-57150000D03*
X76770000Y-60590000D03*
%TO.N,/fpga/CT.D7*%
X93790000Y-57480000D03*
X80520000Y-61520000D03*
%TO.N,/fpga/CT.BG_N*%
X40820000Y-34590000D03*
%TO.N,/fpga/CT.A28*%
X39351800Y-52491745D03*
X60070000Y-72420000D03*
D20*
%TO.N,/fpga/CT.DTKCMB_N*%
X64770000Y-61590000D03*
D21*
X62470000Y-74280000D03*
X39230000Y-44740000D03*
%TO.N,/fpga/CT.A21*%
X63440000Y-73650000D03*
X40760000Y-62530000D03*
%TO.N,/fpga/CT.A1*%
X40740000Y-87860000D03*
%TO.N,/fpga/CT.D9*%
X93830000Y-59850000D03*
D20*
X70880000Y-61660000D03*
D21*
%TO.N,/fpga/CT.D5*%
X93810000Y-54880000D03*
%TO.N,/fpga/CT.D3*%
X93830000Y-52350000D03*
%TO.N,/fpga/CT.BS_N1*%
X93750000Y-42190000D03*
%TO.N,/fpga/CT.TT1*%
X93660000Y-39700000D03*
%TO.N,/fpga/CT.BS_N0*%
X92230000Y-42250000D03*
%TO.N,/fpga/LINK.RX_N*%
X49030000Y-107320000D03*
X57770000Y-62590000D03*
%TO.N,/fpga/LINK.RX_P*%
X48450000Y-107320000D03*
X58770000Y-62590000D03*
%TO.N,/fpga/Net-(U29-~{S}{slash}~{CS})*%
X61090000Y-71480000D03*
D20*
X60770000Y-62590000D03*
D21*
%TO.N,/fpga/CT.BB_N*%
X40850000Y-37160000D03*
%TO.N,/fpga/CT.TS_N*%
X39210000Y-34600000D03*
%TO.N,/fpga/CT.RW*%
X38990000Y-37750000D03*
%TO.N,/fpga/CT.SIZ1*%
X40810000Y-39670000D03*
D20*
%TO.N,/fpga/CT.A13*%
X66770000Y-62590000D03*
D21*
X60740000Y-77830000D03*
X40670000Y-72650000D03*
%TO.N,/fpga/CT.A3*%
X40560000Y-85360000D03*
%TO.N,/fpga/ETH.D3*%
X76180000Y-93030000D03*
D20*
%TO.N,/fpga/CT.D10*%
X70770000Y-62590000D03*
D21*
X92431800Y-62370000D03*
%TO.N,/fpga/ETH.D6*%
X76860000Y-89700000D03*
%TO.N,/fpga/CT.D15*%
X93690000Y-67550000D03*
X82380000Y-63240000D03*
%TO.N,/fpga/CT.D11*%
X83010000Y-63230000D03*
X94190000Y-61730000D03*
%TO.N,/fpga/CT.D8*%
X92151800Y-60010000D03*
D20*
%TO.N,/fpga/CT.A17*%
X63770000Y-63590000D03*
D21*
X57210000Y-76900000D03*
X40650000Y-67640000D03*
D20*
%TO.N,/fpga/CT.A15*%
X64770000Y-63590000D03*
D21*
X57190000Y-77810000D03*
X40650000Y-70180000D03*
%TO.N,/fpga/CT.A10*%
X61520000Y-77860000D03*
D20*
X65770000Y-63590000D03*
D21*
X39300000Y-75250000D03*
%TO.N,/fpga/CT.A31*%
X61020000Y-75910000D03*
X40840000Y-49830000D03*
%TO.N,/fpga/ETH.D2*%
X75720000Y-93530000D03*
D20*
%TO.N,/fpga/ETH.D0*%
X69770000Y-63590000D03*
D21*
X75728617Y-94492334D03*
%TO.N,/fpga/CT.D18*%
X92250000Y-72690000D03*
D20*
X70770000Y-63590000D03*
D21*
%TO.N,/fpga/CT.D12*%
X92280000Y-65120000D03*
D20*
X71770000Y-63590000D03*
D21*
%TO.N,/fpga/CT.D26*%
X92340000Y-82770000D03*
%TO.N,/fpga/CT.D14*%
X92310000Y-67270000D03*
%TO.N,/fpga/CT.BS_N2*%
X92277784Y-44742216D03*
%TO.N,/fpga/CT.BS_N3*%
X93670000Y-44760000D03*
X83490000Y-63660000D03*
%TO.N,/fpga/CT.D13*%
X93710000Y-65080000D03*
X76770000Y-68590000D03*
%TO.N,/fpga/CT.A26*%
X39240000Y-54900000D03*
%TO.N,/fpga/CT.TA_N*%
X39210000Y-43320000D03*
%TO.N,/fpga/CT.A29*%
X40740000Y-52370000D03*
%TO.N,/fpga/CT.A11*%
X40630000Y-75270000D03*
%TO.N,/fpga/CT.A0*%
X39380000Y-87950000D03*
%TO.N,/fpga/ETH.D1*%
X76200000Y-94030000D03*
D20*
X68770000Y-64590000D03*
D21*
%TO.N,/fpga/CT.D21*%
X93620000Y-75210000D03*
D20*
X71770000Y-64590000D03*
D21*
%TO.N,/fpga/ETH.D8*%
X78010000Y-89700000D03*
%TO.N,/fpga/ETH.D9*%
X78520000Y-89240000D03*
%TO.N,/fpga/CT.D20*%
X92230000Y-75230000D03*
%TO.N,/fpga/CT.D19*%
X81800000Y-65050000D03*
X93620000Y-72710000D03*
%TO.N,/fpga/CT.D17*%
X93760000Y-70160000D03*
X81180000Y-65070000D03*
%TO.N,/fpga/CT.A22*%
X39270000Y-60020000D03*
%TO.N,/fpga/CT.A12*%
X39300000Y-72600000D03*
%TO.N,/fpga/CT.A6*%
X39320000Y-80280000D03*
%TO.N,/fpga/ETH.D4*%
X75690000Y-92530000D03*
%TO.N,/fpga/ETH.D10*%
X79000000Y-89700000D03*
%TO.N,/fpga/CT.D31*%
X93470000Y-87920000D03*
%TO.N,/fpga/CT.D29*%
X93630000Y-85410000D03*
%TO.N,/fpga/CT.D16*%
X80450000Y-65090000D03*
X92660000Y-70430000D03*
%TO.N,/fpga/CT.A20*%
X39220000Y-62540000D03*
%TO.N,/fpga/CT.A16*%
X39260000Y-67590000D03*
%TO.N,/fpga/CT.CLK*%
X48543350Y-48967968D03*
%TO.N,/fpga/ETH.D12*%
X80520000Y-89760000D03*
%TO.N,/fpga/CT.D23*%
X93530000Y-77810000D03*
X83110000Y-67060000D03*
%TO.N,/fpga/CT.D22*%
X82560000Y-67540000D03*
X92325600Y-77810000D03*
%TO.N,/fpga/CT.A8*%
X39500000Y-77810000D03*
%TO.N,/fpga/CT.A2*%
X39320000Y-85360000D03*
%TO.N,/fpga/CT.A4*%
X67200000Y-75480000D03*
X39310000Y-82860000D03*
%TO.N,/fpga/ETH.D5*%
X76220000Y-92040000D03*
%TO.N,/fpga/ETH.D7*%
X77510000Y-89230000D03*
%TO.N,/fpga/ETH.D11*%
X80020000Y-89270000D03*
%TO.N,/fpga/CT.D30*%
X92250000Y-87970000D03*
%TO.N,/fpga/CT.D25*%
X93570000Y-80270000D03*
X82020000Y-68070000D03*
%TO.N,/fpga/CT.D24*%
X81480000Y-68670000D03*
X92280000Y-80320000D03*
D20*
%TO.N,Net-(USBC2-TX2+)*%
X53060000Y-107340000D03*
X52600000Y-104210000D03*
D21*
%TO.N,/Ethernet/LED2*%
X84107694Y-95911975D03*
X92920000Y-108730000D03*
%TO.N,/Ethernet/LED1*%
X93420000Y-109320000D03*
X84109933Y-96488973D03*
D22*
%TO.N,+3V3A_ETH*%
X80527700Y-97749273D03*
X81525358Y-98623021D03*
X93560000Y-98930000D03*
X79020000Y-97670000D03*
D21*
%TO.N,/video/Net-(U26-SD1)*%
X42211603Y-97370084D03*
%TO.N,/video/Net-(U26-SC1)*%
X42064291Y-98010000D03*
%TO.N,/PCIe/REFCLKAC_N*%
X68890000Y-95750000D03*
X63700000Y-90400000D03*
%TO.N,/PCIe/REFCLKAC_P*%
X68315861Y-95692586D03*
X63080000Y-90400000D03*
%TO.N,/video/AC.TX_N1*%
X37680000Y-95550000D03*
X52640000Y-56130000D03*
%TO.N,/video/AC.TX_P1*%
X52630000Y-56930000D03*
X38110000Y-95920000D03*
%TO.N,/video/AC.TX_N2*%
X38870000Y-96120000D03*
X52655786Y-57658019D03*
%TO.N,/video/AC.TX_P2*%
X52720000Y-58520000D03*
X39366177Y-96463413D03*
%TO.N,/Ethernet/TPO_N*%
X90500000Y-101260000D03*
X79028038Y-99604933D03*
X89570000Y-103060000D03*
%TO.N,/Ethernet/TPO_P*%
X89070000Y-100670000D03*
X90140000Y-101990000D03*
X79224000Y-99080000D03*
%TO.N,/Ethernet/TPI_N*%
X86080000Y-96630000D03*
X88870000Y-97700000D03*
X80280000Y-99410000D03*
%TO.N,/Ethernet/TPI_P*%
X89300000Y-95540000D03*
X85950000Y-95610000D03*
X80550000Y-98900000D03*
%TO.N,/Ethernet/Net-(U3-EXRES)*%
X81459990Y-99830429D03*
%TO.N,Net-(L3-RCT)*%
X77030000Y-102710000D03*
X88940000Y-102650000D03*
X88920000Y-96380000D03*
%TO.N,Net-(L3-RXCT)*%
X94550000Y-102750000D03*
%TO.N,Net-(L3-TXCT)*%
X94360000Y-96270000D03*
%TO.N,/fpga/Net-(U29-~{W}{slash}V_{PP})*%
X53240000Y-66910000D03*
%TO.N,Net-(J1-Pin_6)*%
X93730000Y-40940000D03*
X93685998Y-47740000D03*
D22*
%TO.N,+1V8_ETH*%
X77400998Y-95105151D03*
X82490000Y-97657002D03*
X84137002Y-97090367D03*
%TO.N,/video/HDMIOV*%
X42370000Y-106840000D03*
X33060000Y-105800000D03*
D20*
%TO.N,Net-(U9-OUT2)*%
X55250000Y-49710000D03*
%TO.N,Net-(U9-OUT)*%
X55180000Y-51250000D03*
D21*
%TO.N,Net-(D3-IO1)*%
X76760000Y-106210000D03*
%TO.N,Net-(D3-IO4)*%
X79740000Y-103810000D03*
X75399039Y-103184997D03*
D22*
%TO.N,/usb2/+1VA8*%
X86053856Y-70647337D03*
%TD*%
%TO.N,/fpga/DRAM.WE_N*%
D25*
X51612800Y-37490400D02*
X50209200Y-38894000D01*
X83820000Y-38608000D02*
X84328000Y-38608000D01*
X63393335Y-32760000D02*
X70960000Y-32760000D01*
X83134200Y-37363400D02*
X83134200Y-37922200D01*
D26*
X75940000Y-32780000D02*
X75940000Y-32760000D01*
D25*
X62861849Y-32228514D02*
X63393335Y-32760000D01*
X60100000Y-32760000D02*
X62094996Y-32760000D01*
D26*
X60100000Y-32800000D02*
X60100000Y-32760000D01*
X52900000Y-32800000D02*
X52900000Y-32760000D01*
X73600000Y-32780000D02*
X73600000Y-32760000D01*
D25*
X68629200Y-33120000D02*
X68629200Y-32770000D01*
X55240000Y-32760000D02*
X57810000Y-32760000D01*
X51612800Y-33629600D02*
X51612800Y-37490400D01*
D26*
X80800000Y-32780000D02*
X80800000Y-32760000D01*
D25*
X78470000Y-32760000D02*
X78510000Y-32760000D01*
X78830000Y-32400000D02*
X78470000Y-32760000D01*
D26*
X57810000Y-32800000D02*
X58580000Y-32800000D01*
D25*
X75940000Y-32760000D02*
X78470000Y-32760000D01*
X83134200Y-37922200D02*
X83820000Y-38608000D01*
X62292196Y-32464471D02*
X62528153Y-32228514D01*
X68469200Y-33280000D02*
X68629200Y-33120000D01*
X62292196Y-32562800D02*
X62292196Y-32464471D01*
X62528153Y-32228514D02*
X62861849Y-32228514D01*
D26*
X52900000Y-32800000D02*
X55240000Y-32800000D01*
D25*
X61582805Y-33280000D02*
X68469200Y-33280000D01*
X62094996Y-32760000D02*
X62292196Y-32562800D01*
X50209200Y-38894000D02*
X49340000Y-38894000D01*
D26*
X78510000Y-32780000D02*
X80800000Y-32780000D01*
D25*
X61460000Y-33157195D02*
X61582805Y-33280000D01*
X82092800Y-33274000D02*
X82092800Y-36322000D01*
D26*
X73600000Y-32780000D02*
X75940000Y-32780000D01*
D25*
X82092800Y-36322000D02*
X83134200Y-37363400D01*
D26*
X57810000Y-32800000D02*
X57810000Y-32760000D01*
D25*
X58180000Y-32400000D02*
X58580000Y-32800000D01*
X70960000Y-32760000D02*
X73600000Y-32760000D01*
X80800000Y-32760000D02*
X81578800Y-32760000D01*
X81578800Y-32760000D02*
X82092800Y-33274000D01*
X52900000Y-32760000D02*
X52482400Y-32760000D01*
D26*
X78510000Y-32780000D02*
X78510000Y-32760000D01*
X55240000Y-32800000D02*
X55240000Y-32760000D01*
D25*
X52482400Y-32760000D02*
X51612800Y-33629600D01*
D26*
X58580000Y-32800000D02*
X60100000Y-32800000D01*
%TO.N,/fpga/DRAM.BA2*%
X73600000Y-31990000D02*
X73600000Y-31970000D01*
D25*
X55240000Y-31970000D02*
X57810000Y-31970000D01*
X75940000Y-31970000D02*
X78460000Y-31970000D01*
D26*
X58580000Y-32000000D02*
X60100000Y-32000000D01*
D25*
X69970000Y-31560999D02*
X69969001Y-31560000D01*
D26*
X60100000Y-32000000D02*
X60100000Y-31970000D01*
X78510000Y-31990000D02*
X80800000Y-31990000D01*
D25*
X81855600Y-31970000D02*
X82651600Y-32766000D01*
X62914320Y-31870000D02*
X63014320Y-31970000D01*
X63014320Y-31970000D02*
X73600000Y-31970000D01*
X52205600Y-31970000D02*
X51054000Y-33121600D01*
D26*
X80800000Y-31990000D02*
X80800000Y-31970000D01*
D25*
X60988149Y-31870000D02*
X62914320Y-31870000D01*
D26*
X52900000Y-31970000D02*
X55240000Y-31970000D01*
D25*
X80800000Y-31970000D02*
X81855600Y-31970000D01*
X78460000Y-31970000D02*
X78510000Y-31970000D01*
X51054000Y-35915600D02*
X49575600Y-37394000D01*
X58180000Y-31600000D02*
X58580000Y-32000000D01*
X69969001Y-31560000D02*
X68840000Y-31560000D01*
X68680000Y-31720000D02*
X68680000Y-31970000D01*
X52900000Y-31970000D02*
X52205600Y-31970000D01*
X78830000Y-31600000D02*
X78460000Y-31970000D01*
X82651600Y-32766000D02*
X82651600Y-35356800D01*
X84226400Y-36931600D02*
X84721605Y-36931600D01*
X49575600Y-37394000D02*
X48920400Y-37394000D01*
X51054000Y-33121600D02*
X51054000Y-35915600D01*
D26*
X78510000Y-31990000D02*
X78510000Y-31970000D01*
D25*
X84721605Y-36931600D02*
X84924805Y-37134800D01*
D26*
X57810000Y-32000000D02*
X57810000Y-31970000D01*
X75940000Y-31990000D02*
X75940000Y-31970000D01*
X57810000Y-32000000D02*
X58580000Y-32000000D01*
D25*
X60100000Y-31970000D02*
X60888149Y-31970000D01*
D26*
X73600000Y-31990000D02*
X75940000Y-31990000D01*
D25*
X68840000Y-31560000D02*
X68680000Y-31720000D01*
X60888149Y-31970000D02*
X60988149Y-31870000D01*
X82651600Y-35356800D02*
X84226400Y-36931600D01*
X69970000Y-31560999D02*
X71037195Y-31560999D01*
%TO.N,+0V675VTT*%
D27*
X35800000Y-29010000D02*
X35730000Y-29010000D01*
X33930000Y-30810000D02*
X33930000Y-31600000D01*
X33930000Y-31600000D02*
X34980000Y-32650000D01*
X35730000Y-29010000D02*
X33930000Y-30810000D01*
X35630000Y-25820000D02*
X35800000Y-25990000D01*
X34980000Y-32650000D02*
X45994301Y-32650000D01*
X45994301Y-32650000D02*
X46659000Y-31985301D01*
X35800000Y-25990000D02*
X35800000Y-29010000D01*
%TO.N,+1V35*%
D28*
X31030000Y-32890000D02*
X33280000Y-32890000D01*
D27*
X46730000Y-26010000D02*
X48120000Y-26010000D01*
D28*
X41550000Y-35970000D02*
X43660000Y-38080000D01*
X43660000Y-38080000D02*
X43660000Y-40100000D01*
X49830000Y-42413200D02*
X49733200Y-42316400D01*
D27*
X48120000Y-26010000D02*
X48420000Y-26310000D01*
X72760000Y-55630000D02*
X72180000Y-55050000D01*
D28*
X46470000Y-42910000D02*
X49300000Y-42910000D01*
D27*
X34630000Y-31191000D02*
X36685500Y-29135500D01*
D28*
X49300000Y-42910000D02*
X49830000Y-43440000D01*
D27*
X43604500Y-29135500D02*
X46730000Y-26010000D01*
D28*
X43660000Y-40100000D02*
X46470000Y-42910000D01*
X38590000Y-35950000D02*
X38610000Y-35970000D01*
X49830000Y-43610000D02*
X49830000Y-42413200D01*
X31030000Y-32890000D02*
X32750000Y-32890000D01*
X38610000Y-35970000D02*
X41550000Y-35970000D01*
D27*
X36685500Y-29135500D02*
X43604500Y-29135500D01*
D28*
X36340000Y-35950000D02*
X38590000Y-35950000D01*
D27*
X72180000Y-55050000D02*
X71230000Y-55050000D01*
D28*
X49830000Y-43440000D02*
X49830000Y-43610000D01*
D27*
X73720000Y-55630000D02*
X72760000Y-55630000D01*
X71230000Y-55050000D02*
X70770000Y-54590000D01*
D28*
X33280000Y-32890000D02*
X36340000Y-35950000D01*
%TO.N,GND*%
D27*
X58770000Y-63590000D02*
X59770000Y-62590000D01*
X58770000Y-61590000D02*
X59770000Y-60590000D01*
X57770000Y-61590000D02*
X58770000Y-61590000D01*
X58770000Y-61590000D02*
X59770000Y-62590000D01*
X57770000Y-63590000D02*
X58770000Y-63590000D01*
%TO.N,/video/AC.CLK_N*%
D29*
X52680000Y-52480000D02*
X52547401Y-52612599D01*
X35047600Y-95392400D02*
X34890000Y-95550000D01*
X52750000Y-52480000D02*
X52680000Y-52480000D01*
X50511875Y-52612599D02*
X44057600Y-59066874D01*
X37036874Y-92717600D02*
X35047600Y-94706874D01*
X44057600Y-88306874D02*
X39646874Y-92717600D01*
X35047600Y-94706874D02*
X35047600Y-95392400D01*
X52547401Y-52612599D02*
X50511875Y-52612599D01*
X39646874Y-92717600D02*
X37036874Y-92717600D01*
X44057600Y-59066874D02*
X44057600Y-88306874D01*
%TO.N,/video/AC.CLK_P*%
X42602183Y-90193342D02*
X42292111Y-90503415D01*
X44362400Y-88433126D02*
X43910333Y-88885193D01*
X43219802Y-89575727D02*
X43061804Y-89733723D01*
X42292111Y-90503415D02*
X39773126Y-93022400D01*
X52547401Y-52917401D02*
X50638125Y-52917401D01*
X39773126Y-93022400D02*
X37163126Y-93022400D01*
X52670000Y-53040000D02*
X52547401Y-52917401D01*
X35352400Y-94833126D02*
X35352400Y-95902400D01*
X50638125Y-52917401D02*
X44362400Y-59193126D01*
X37163126Y-93022400D02*
X35352400Y-94833126D01*
X43061804Y-89733723D02*
X42602183Y-90193342D01*
X35352400Y-95902400D02*
X35360000Y-95910000D01*
X43910333Y-89417727D02*
X43752334Y-89575727D01*
X52670000Y-53200000D02*
X52670000Y-53040000D01*
X44362400Y-59193126D02*
X44362400Y-88433126D01*
X43752334Y-89575727D02*
G75*
G02*
X43486068Y-89575727I-133133J133135D01*
G01*
X43910332Y-89151461D02*
G75*
G02*
X43910339Y-89417732I-133132J-133139D01*
G01*
X43486068Y-89575727D02*
G75*
G03*
X43219802Y-89575727I-133133J-133135D01*
G01*
X43910333Y-88885193D02*
G75*
G03*
X43910359Y-89151434I133167J-133107D01*
G01*
%TO.N,/video/AC.TX_N0*%
X45367600Y-64717967D02*
X45367600Y-89166874D01*
X46128200Y-63957367D02*
X45367600Y-64717967D01*
X45367600Y-59436874D02*
X45367600Y-62842033D01*
X46128200Y-63602633D02*
X46128200Y-63957367D01*
X52670000Y-54100000D02*
X52660000Y-54100000D01*
X36081979Y-95012495D02*
X36081979Y-95546847D01*
X45367600Y-89166874D02*
X40596874Y-93937600D01*
X50551875Y-54252599D02*
X45367600Y-59436874D01*
X45367600Y-62842033D02*
X46128200Y-63602633D01*
X40596874Y-93937600D02*
X37156874Y-93937600D01*
X52507401Y-54252599D02*
X50551875Y-54252599D01*
X52660000Y-54100000D02*
X52507401Y-54252599D01*
X37156874Y-93937600D02*
X36081979Y-95012495D01*
%TO.N,/video/AC.TX_P0*%
X50678125Y-54557401D02*
X45672400Y-59563126D01*
X45672400Y-74523167D02*
X45672400Y-89293126D01*
X45672400Y-64782843D02*
X45672400Y-72736833D01*
X45672400Y-59563126D02*
X45672400Y-62777158D01*
X40723126Y-94242400D02*
X37283126Y-94242400D01*
X46389600Y-63494358D02*
X46389600Y-64065643D01*
X52507401Y-54557401D02*
X50678125Y-54557401D01*
X36577763Y-94947763D02*
X36577763Y-95852237D01*
X37283126Y-94242400D02*
X36577763Y-94947763D01*
X52660000Y-54710000D02*
X52507401Y-54557401D01*
X45672400Y-62777158D02*
X46389600Y-63494358D01*
X36577763Y-95852237D02*
X36560000Y-95870000D01*
X46388200Y-73452633D02*
X46388200Y-73807367D01*
X46388200Y-73807367D02*
X45672400Y-74523167D01*
X46389600Y-64065643D02*
X45672400Y-64782843D01*
X45672400Y-89293126D02*
X40723126Y-94242400D01*
X52660000Y-54830000D02*
X52660000Y-54710000D01*
X45672400Y-72736833D02*
X46388200Y-73452633D01*
%TO.N,/fpga/USB2.STP*%
D30*
X73770000Y-57590000D02*
X74260000Y-57100000D01*
X74260000Y-57100000D02*
X80850000Y-57100000D01*
X80850000Y-57100000D02*
X81330000Y-57580000D01*
X81330000Y-57580000D02*
X82160000Y-57580000D01*
%TO.N,+2V5*%
D31*
X61230000Y-49330000D02*
X60950000Y-49330000D01*
X56750000Y-47110000D02*
X61060000Y-47110000D01*
X61060000Y-47110000D02*
X61580000Y-47630000D01*
X61580000Y-48980000D02*
X61230000Y-49330000D01*
X48925000Y-48495000D02*
X50310000Y-47110000D01*
X60950000Y-49330000D02*
X60380000Y-49900000D01*
X61580000Y-47630000D02*
X61580000Y-48980000D01*
X50310000Y-47110000D02*
X56750000Y-47110000D01*
%TO.N,+1V1*%
X67500000Y-59320000D02*
X67770000Y-59590000D01*
D32*
X62000000Y-56770000D02*
X63080000Y-57850000D01*
X63080000Y-58140000D02*
X63720000Y-58780000D01*
X60966000Y-51800000D02*
X62500000Y-53334000D01*
D31*
X66580000Y-58780000D02*
X67770000Y-57590000D01*
X70455000Y-56905000D02*
X70770000Y-56590000D01*
D32*
X62000000Y-54410000D02*
X62000000Y-56770000D01*
D31*
X67500000Y-59320000D02*
X67900000Y-59720000D01*
X69640000Y-59720000D02*
X70770000Y-58590000D01*
X68550000Y-56810000D02*
X69060000Y-56810000D01*
X66960000Y-58780000D02*
X67500000Y-59320000D01*
X70060000Y-57340000D02*
X70060000Y-57300000D01*
X70455000Y-56905000D02*
X71140000Y-57590000D01*
D32*
X62500000Y-53334000D02*
X62500000Y-53910000D01*
D31*
X69070000Y-59720000D02*
X69640000Y-59720000D01*
X66500000Y-58780000D02*
X66960000Y-58780000D01*
X69060000Y-56810000D02*
X69590000Y-57340000D01*
X67770000Y-59590000D02*
X66770000Y-60590000D01*
D32*
X58870000Y-49600000D02*
X59880000Y-50610000D01*
D31*
X69940000Y-60590000D02*
X70770000Y-60590000D01*
D32*
X62500000Y-53910000D02*
X62000000Y-54410000D01*
X60620000Y-51800000D02*
X60966000Y-51800000D01*
D31*
X70060000Y-57300000D02*
X70455000Y-56905000D01*
X69070000Y-59720000D02*
X69940000Y-60590000D01*
D32*
X63720000Y-58780000D02*
X66500000Y-58780000D01*
D31*
X67900000Y-59720000D02*
X69070000Y-59720000D01*
D32*
X56780000Y-48940000D02*
X57440000Y-49600000D01*
X57440000Y-49600000D02*
X58870000Y-49600000D01*
X59880000Y-50610000D02*
X59880000Y-51060000D01*
D31*
X66500000Y-58780000D02*
X66580000Y-58780000D01*
D32*
X63080000Y-57850000D02*
X63080000Y-58140000D01*
D31*
X69590000Y-57340000D02*
X70060000Y-57340000D01*
D32*
X59880000Y-51060000D02*
X60620000Y-51800000D01*
D31*
X71140000Y-57590000D02*
X71770000Y-57590000D01*
X67770000Y-57590000D02*
X68550000Y-56810000D01*
%TO.N,/fpga/DRAM.DQ22*%
D25*
X68840000Y-43390000D02*
X68840000Y-43190000D01*
X68303421Y-41510000D02*
X68303421Y-41390000D01*
X71770000Y-48590000D02*
X71770000Y-46320000D01*
X78590000Y-35200000D02*
X75950000Y-35200000D01*
X68840000Y-42350000D02*
X69136552Y-42350000D01*
X71272805Y-36533416D02*
X71272805Y-36527195D01*
X69136552Y-41750000D02*
X68840000Y-41750000D01*
X79630000Y-35600000D02*
X79230000Y-35200000D01*
X68840000Y-40790000D02*
X68840000Y-40090000D01*
X68600000Y-42350000D02*
X68840000Y-42350000D01*
X71770000Y-46320000D02*
X68840000Y-43390000D01*
X68600000Y-42950000D02*
X68543421Y-42950000D01*
X68840000Y-40090000D02*
X68840000Y-38440000D01*
X70487195Y-36792805D02*
X71013416Y-36792805D01*
X68840000Y-38440000D02*
X70487195Y-36792805D01*
X72600000Y-35200000D02*
X73660000Y-35200000D01*
X69376552Y-42110000D02*
X69376552Y-41990000D01*
X68543421Y-41150000D02*
X68600000Y-41150000D01*
X71272805Y-36527195D02*
X72600000Y-35200000D01*
X68600000Y-41750000D02*
X68543421Y-41750000D01*
X71013416Y-36792805D02*
X71272805Y-36533416D01*
D26*
X73660000Y-35200000D02*
X75950000Y-35200000D01*
X78590000Y-35200000D02*
X79110000Y-35200000D01*
D25*
X68840000Y-40910000D02*
X68840000Y-40790000D01*
X68840000Y-41750000D02*
X68600000Y-41750000D01*
X68543421Y-42350000D02*
X68600000Y-42350000D01*
X79230000Y-35200000D02*
X79110000Y-35200000D01*
X68303421Y-42710000D02*
X68303421Y-42590000D01*
X68600000Y-41150000D02*
G75*
G03*
X68840000Y-40910000I0J240000D01*
G01*
X68840000Y-43190000D02*
G75*
G03*
X68600000Y-42950000I-240000J0D01*
G01*
X68543421Y-42950000D02*
G75*
G02*
X68303400Y-42710000I-21J240000D01*
G01*
X68543421Y-41750000D02*
G75*
G02*
X68303400Y-41510000I-21J240000D01*
G01*
X68303421Y-41390000D02*
G75*
G02*
X68543421Y-41150021I239979J0D01*
G01*
X69136552Y-42350000D02*
G75*
G03*
X69376600Y-42110000I48J240000D01*
G01*
X69376552Y-41990000D02*
G75*
G03*
X69136552Y-41750048I-239952J0D01*
G01*
X68303421Y-42590000D02*
G75*
G02*
X68543421Y-42350021I239979J0D01*
G01*
%TO.N,+0V675REF*%
D27*
X65250000Y-40410000D02*
X60790000Y-35950000D01*
X71040000Y-52090000D02*
X69580000Y-52090000D01*
X64770000Y-49590000D02*
X65250000Y-49110000D01*
X71240000Y-49410000D02*
X71530000Y-49120000D01*
X66620000Y-44760000D02*
X65250000Y-46130000D01*
X81980000Y-42150000D02*
X81980000Y-37310000D01*
X70985000Y-50375000D02*
X71240000Y-50120000D01*
X69300000Y-51810000D02*
X69300000Y-46190000D01*
X65250000Y-49110000D02*
X65250000Y-46130000D01*
X71530000Y-49120000D02*
X72050000Y-49120000D01*
X70985000Y-50375000D02*
X70830000Y-50530000D01*
X72050000Y-49120000D02*
X77850000Y-43320000D01*
X70830000Y-50530000D02*
X70830000Y-50880000D01*
X69580000Y-52090000D02*
X69300000Y-51810000D01*
X77850000Y-43320000D02*
X80810000Y-43320000D01*
X81220000Y-36550000D02*
X81220000Y-35590000D01*
X71240000Y-50120000D02*
X71240000Y-49410000D01*
X70770000Y-50590000D02*
X70985000Y-50375000D01*
X81980000Y-37310000D02*
X81220000Y-36550000D01*
X70830000Y-50880000D02*
X71260000Y-51310000D01*
X65250000Y-46130000D02*
X65250000Y-40410000D01*
X80810000Y-43320000D02*
X81980000Y-42150000D01*
X69300000Y-46190000D02*
X69480000Y-46010000D01*
X71260000Y-51870000D02*
X71040000Y-52090000D01*
X68550000Y-44760000D02*
X66620000Y-44760000D01*
X69480000Y-46010000D02*
X69480000Y-45690000D01*
X81220000Y-35590000D02*
X80430000Y-34800000D01*
X60290390Y-35950000D02*
X60790000Y-35950000D01*
X71260000Y-51310000D02*
X71260000Y-51870000D01*
X69480000Y-45690000D02*
X68550000Y-44760000D01*
%TO.N,/fpga/DRAM.CK_P*%
D29*
X73570000Y-34100000D02*
X66912538Y-34100000D01*
X54980000Y-34200000D02*
X54980000Y-34000000D01*
X75150000Y-34370000D02*
X75310000Y-34370000D01*
X55210000Y-34430000D02*
X55420000Y-34430000D01*
X65710400Y-35280000D02*
X65532000Y-35458400D01*
X65730000Y-35280000D02*
X65710400Y-35280000D01*
X75310000Y-34370000D02*
X75340000Y-34400000D01*
X75630000Y-34000000D02*
X75260000Y-34370000D01*
X80708893Y-34370000D02*
X81022705Y-34056188D01*
X65396144Y-35146144D02*
X65532000Y-35282000D01*
X66291269Y-34721269D02*
X66288731Y-34721269D01*
X55420000Y-34430000D02*
X55730000Y-34120000D01*
X60070000Y-34370000D02*
X60340000Y-34100000D01*
X60340000Y-34100000D02*
X63177462Y-34100000D01*
X57880000Y-34370000D02*
X60070000Y-34370000D01*
X55730000Y-34120000D02*
X57630000Y-34120000D01*
X55150000Y-34370000D02*
X54980000Y-34200000D01*
X52780000Y-34370000D02*
X52490000Y-34660000D01*
X78530000Y-34370000D02*
X80360000Y-34370000D01*
X75900000Y-34400000D02*
X76190000Y-34110000D01*
X57630000Y-34120000D02*
X57880000Y-34370000D01*
X78270000Y-34110000D02*
X78530000Y-34370000D01*
X55150000Y-34370000D02*
X55210000Y-34430000D01*
X80360000Y-34370000D02*
X80708893Y-34370000D01*
X66288731Y-34721269D02*
X65730000Y-35280000D01*
X52930000Y-34370000D02*
X52780000Y-34370000D01*
X66912538Y-34100000D02*
X66291269Y-34721269D01*
X75260000Y-34370000D02*
X75150000Y-34370000D01*
X64223606Y-35146144D02*
X65396144Y-35146144D01*
X75340000Y-34400000D02*
X75900000Y-34400000D01*
X73840000Y-34370000D02*
X73570000Y-34100000D01*
X55150000Y-34370000D02*
X52930000Y-34370000D01*
X63177462Y-34100000D02*
X64223606Y-35146144D01*
X75150000Y-34370000D02*
X73840000Y-34370000D01*
X76190000Y-34110000D02*
X78270000Y-34110000D01*
X65532000Y-35282000D02*
X65532000Y-35458400D01*
%TO.N,/fpga/DRAM.CK_N*%
X55660000Y-33840000D02*
X57660000Y-33840000D01*
X78203643Y-33830000D02*
X78433643Y-33600000D01*
X80120000Y-33600000D02*
X80680000Y-33600000D01*
X64336394Y-34873856D02*
X65226144Y-34873856D01*
X65320000Y-34780000D02*
X65530000Y-34780000D01*
X57660000Y-33840000D02*
X57900000Y-33600000D01*
X55390000Y-33690000D02*
X55390000Y-33610000D01*
X55553856Y-33840000D02*
X55550000Y-33843856D01*
X55660000Y-33840000D02*
X55553856Y-33840000D01*
X73729112Y-33600000D02*
X73510000Y-33819112D01*
X73680000Y-33600000D02*
X73940000Y-33600000D01*
X55390000Y-33610000D02*
X55380000Y-33600000D01*
X65226144Y-34873856D02*
X65320000Y-34780000D01*
X76110000Y-33830000D02*
X78203643Y-33830000D01*
X73940000Y-33600000D02*
X75230000Y-33600000D01*
X65847462Y-34780000D02*
X65530000Y-34780000D01*
X66808350Y-33819112D02*
X65847462Y-34780000D01*
X55540000Y-33840000D02*
X55390000Y-33690000D01*
X80680000Y-33600000D02*
X81110000Y-33170000D01*
X52889858Y-33600000D02*
X52587830Y-33297972D01*
X55660000Y-33840000D02*
X55540000Y-33840000D01*
X53480000Y-33600000D02*
X52889858Y-33600000D01*
X54980000Y-33200000D02*
X55390000Y-33610000D01*
X63290298Y-33827760D02*
X64336394Y-34873856D01*
X60170000Y-33600000D02*
X60389112Y-33819112D01*
X55380000Y-33600000D02*
X53480000Y-33600000D01*
X75880000Y-33600000D02*
X76110000Y-33830000D01*
X75630000Y-33200000D02*
X75230000Y-33600000D01*
X60389112Y-33819112D02*
X63290298Y-33819112D01*
X73940000Y-33600000D02*
X73729112Y-33600000D01*
X75230000Y-33600000D02*
X75880000Y-33600000D01*
X57900000Y-33600000D02*
X60170000Y-33600000D01*
X78433643Y-33600000D02*
X80120000Y-33600000D01*
X73510000Y-33819112D02*
X66808350Y-33819112D01*
X63290298Y-33819112D02*
X63290298Y-33827760D01*
%TO.N,/fpga/DRAM.A3*%
D25*
X64270000Y-54090000D02*
X64270000Y-46499252D01*
X64770000Y-54590000D02*
X64270000Y-54090000D01*
X64270000Y-46499252D02*
X60675195Y-42904447D01*
%TO.N,/fpga/DRAM.A0*%
X68800000Y-45810000D02*
X68270000Y-46340000D01*
X65580000Y-57090000D02*
X65260000Y-57410000D01*
X67630000Y-55110000D02*
X67210000Y-55530000D01*
X68270000Y-46340000D02*
X68270000Y-54930000D01*
X67210000Y-55530000D02*
X67210000Y-55840000D01*
X67210000Y-55840000D02*
X66930000Y-56120000D01*
X64320243Y-58100000D02*
X64196486Y-57976243D01*
X66020000Y-57090000D02*
X65580000Y-57090000D01*
X66570000Y-56120000D02*
X66260000Y-56430000D01*
X64940000Y-58100000D02*
X64320243Y-58100000D01*
X66260000Y-56850000D02*
X66020000Y-57090000D01*
X68090000Y-55110000D02*
X67630000Y-55110000D01*
X68270000Y-54930000D02*
X68090000Y-55110000D01*
X65260000Y-57780000D02*
X64940000Y-58100000D01*
X65260000Y-57410000D02*
X65260000Y-57780000D01*
X66930000Y-56120000D02*
X66570000Y-56120000D01*
X66260000Y-56430000D02*
X66260000Y-56850000D01*
%TO.N,/fpga/DRAM.A12*%
D26*
X78520000Y-31190000D02*
X78520000Y-31170000D01*
D25*
X83312000Y-33982800D02*
X84640400Y-35311200D01*
X62190000Y-31540000D02*
X65260000Y-31540000D01*
D26*
X75950000Y-31190000D02*
X75950000Y-31170000D01*
X60110000Y-31200000D02*
X60110000Y-31170000D01*
X78520000Y-31190000D02*
X80810000Y-31190000D01*
X57820000Y-31200000D02*
X57820000Y-31170000D01*
D25*
X50647600Y-32664400D02*
X50647600Y-33819200D01*
D26*
X55250000Y-31200000D02*
X55250000Y-31170000D01*
D25*
X68459653Y-31170000D02*
X73610000Y-31170000D01*
X83312000Y-32308800D02*
X83312000Y-33982800D01*
X68316848Y-31027195D02*
X68459653Y-31170000D01*
X52142000Y-31170000D02*
X50647600Y-32664400D01*
X82173200Y-31170000D02*
X83312000Y-32308800D01*
D26*
X73610000Y-31190000D02*
X73610000Y-31170000D01*
D25*
X66310000Y-31170000D02*
X67840347Y-31170000D01*
X61820000Y-31170000D02*
X62190000Y-31540000D01*
X63130000Y-31100000D02*
X65070000Y-31100000D01*
X65070000Y-31100000D02*
X65260000Y-31290000D01*
X65260000Y-31540000D02*
X65940000Y-31540000D01*
X50647600Y-33819200D02*
X49340000Y-35126800D01*
X75630000Y-30800000D02*
X75240000Y-31190000D01*
D26*
X75240000Y-31190000D02*
X75950000Y-31190000D01*
X52910000Y-31200000D02*
X52910000Y-31170000D01*
D25*
X67840347Y-31170000D02*
X67983152Y-31027195D01*
X75950000Y-31170000D02*
X78520000Y-31170000D01*
X80810000Y-31170000D02*
X82173200Y-31170000D01*
X62815195Y-30785195D02*
X63130000Y-31100000D01*
X52910000Y-31170000D02*
X52142000Y-31170000D01*
X65940000Y-31540000D02*
X66310000Y-31170000D01*
X65260000Y-31290000D02*
X65260000Y-31540000D01*
X55250000Y-31170000D02*
X55350000Y-31170000D01*
D26*
X80810000Y-31190000D02*
X80810000Y-31170000D01*
D25*
X54980000Y-30800000D02*
X55350000Y-31170000D01*
X60110000Y-31170000D02*
X61820000Y-31170000D01*
D26*
X73610000Y-31190000D02*
X75240000Y-31190000D01*
D25*
X67983152Y-31027195D02*
X68316848Y-31027195D01*
X55350000Y-31170000D02*
X57820000Y-31170000D01*
D26*
X57820000Y-31200000D02*
X60110000Y-31200000D01*
X52910000Y-31200000D02*
X55250000Y-31200000D01*
%TO.N,/fpga/DRAM.A2*%
X60110000Y-30400000D02*
X60110000Y-30380000D01*
D25*
X50190400Y-33274000D02*
X49834800Y-33629600D01*
X51611200Y-30380000D02*
X50190400Y-31800800D01*
X84023200Y-31902400D02*
X84023200Y-33528000D01*
D26*
X58580000Y-30400000D02*
X60110000Y-30400000D01*
D25*
X84306400Y-33811200D02*
X85040400Y-33811200D01*
D33*
X68970000Y-29980000D02*
X68680000Y-30380000D01*
D25*
X78450000Y-30380000D02*
X78520000Y-30380000D01*
D26*
X52910000Y-30400000D02*
X52910000Y-30380000D01*
D33*
X65710000Y-54060000D02*
X65950000Y-54060000D01*
X67280000Y-50900000D02*
X67280000Y-46340000D01*
D25*
X64730000Y-30280000D02*
X65770000Y-30280000D01*
D33*
X65270000Y-54500000D02*
X65710000Y-54060000D01*
X67060000Y-51120000D02*
X67280000Y-50900000D01*
D25*
X80810000Y-30380000D02*
X82500800Y-30380000D01*
D26*
X57820000Y-30400000D02*
X58580000Y-30400000D01*
D25*
X82500800Y-30380000D02*
X84023200Y-31902400D01*
X63530000Y-30380000D02*
X63630000Y-30280000D01*
X52910000Y-30380000D02*
X51611200Y-30380000D01*
X49832000Y-33626800D02*
X48920400Y-33626800D01*
X78830000Y-30000000D02*
X78450000Y-30380000D01*
D33*
X66260000Y-53750000D02*
X66260000Y-52982123D01*
D25*
X58180000Y-30000000D02*
X58580000Y-30400000D01*
X60110000Y-30380000D02*
X63530000Y-30380000D01*
D26*
X52910000Y-30400000D02*
X55250000Y-30400000D01*
D33*
X67850000Y-45770000D02*
X67850000Y-45400000D01*
D26*
X73610000Y-30380000D02*
X75950000Y-30380000D01*
D33*
X66232448Y-52954571D02*
X66232448Y-52625083D01*
D25*
X63630000Y-30280000D02*
X64730000Y-30280000D01*
D33*
X66260000Y-51360000D02*
X66500000Y-51120000D01*
D26*
X57820000Y-30400000D02*
X57820000Y-30380000D01*
D33*
X64770000Y-55590000D02*
X65270000Y-55090000D01*
D26*
X55250000Y-30400000D02*
X55250000Y-30380000D01*
D33*
X67850000Y-45400000D02*
X67820000Y-45370000D01*
X66500000Y-51120000D02*
X67060000Y-51120000D01*
D25*
X75950000Y-30380000D02*
X78450000Y-30380000D01*
X65870000Y-30380000D02*
X68810000Y-30380000D01*
D33*
X65270000Y-55090000D02*
X65270000Y-54500000D01*
X66232448Y-52625083D02*
X66260000Y-52597531D01*
D25*
X55250000Y-30380000D02*
X57820000Y-30380000D01*
X50190400Y-31800800D02*
X50190400Y-33274000D01*
X65770000Y-30280000D02*
X65870000Y-30380000D01*
D33*
X66260000Y-52982123D02*
X66232448Y-52954571D01*
X71100000Y-29980000D02*
X68970000Y-29980000D01*
X65950000Y-54060000D02*
X66260000Y-53750000D01*
D25*
X84023200Y-33528000D02*
X84306400Y-33811200D01*
D33*
X66260000Y-52597531D02*
X66260000Y-51360000D01*
D25*
X68810000Y-30380000D02*
X68970000Y-30380000D01*
D33*
X67280000Y-46340000D02*
X67850000Y-45770000D01*
D26*
X78520000Y-30380000D02*
X80810000Y-30380000D01*
D25*
X49834800Y-33629600D02*
X49832000Y-33626800D01*
X68970000Y-30380000D02*
X73610000Y-30380000D01*
%TO.N,/fpga/DRAM.A7*%
D26*
X52920000Y-29600000D02*
X55260000Y-29600000D01*
X57825000Y-29600000D02*
X57830000Y-29580000D01*
X52920000Y-29600000D02*
X52920000Y-29580000D01*
D25*
X49631600Y-31343600D02*
X49340000Y-31343600D01*
X79630000Y-29200000D02*
X79250000Y-29580000D01*
D26*
X57825000Y-29600000D02*
X59380000Y-29600000D01*
D25*
X69480000Y-29180000D02*
X69500000Y-29160000D01*
X69300637Y-29480000D02*
X69400637Y-29580000D01*
X55260000Y-29580000D02*
X57830000Y-29580000D01*
X68159362Y-29580000D02*
X68259362Y-29480000D01*
D26*
X73620000Y-29580000D02*
X75960000Y-29580000D01*
D25*
X82615200Y-29580000D02*
X84582000Y-31546800D01*
X84582000Y-31546800D02*
X84640400Y-31546800D01*
D26*
X55260000Y-29600000D02*
X55260000Y-29580000D01*
X78530000Y-29580000D02*
X79250000Y-29580000D01*
D25*
X75960000Y-29580000D02*
X78530000Y-29580000D01*
X68259362Y-29480000D02*
X69300637Y-29480000D01*
X69480000Y-29580000D02*
X69480000Y-29180000D01*
X51395200Y-29580000D02*
X49631600Y-31343600D01*
X80820000Y-29580000D02*
X82615200Y-29580000D01*
X60120000Y-29580000D02*
X68159362Y-29580000D01*
D26*
X79250000Y-29580000D02*
X80820000Y-29580000D01*
D25*
X69400637Y-29580000D02*
X73620000Y-29580000D01*
X58980000Y-29200000D02*
X59380000Y-29600000D01*
X52920000Y-29580000D02*
X51395200Y-29580000D01*
D26*
X60115000Y-29600000D02*
X60120000Y-29580000D01*
X59380000Y-29600000D02*
X60115000Y-29600000D01*
%TO.N,/fpga/DRAM.A6*%
D25*
X60120000Y-28790000D02*
X61800347Y-28790000D01*
D26*
X52920000Y-28800000D02*
X54580000Y-28800000D01*
D25*
X62219653Y-28790000D02*
X64730000Y-28790000D01*
X69333152Y-28757195D02*
X69666848Y-28757195D01*
X64710000Y-28770000D02*
X64730000Y-28790000D01*
X84199600Y-30046800D02*
X85040400Y-30046800D01*
X49768000Y-29835600D02*
X48920400Y-29835600D01*
X80820000Y-28790000D02*
X82942800Y-28790000D01*
D26*
X55260000Y-28800000D02*
X55260000Y-28790000D01*
D25*
X64680000Y-28770000D02*
X64680000Y-28490000D01*
D26*
X57830000Y-28800000D02*
X60120000Y-28800000D01*
X74420000Y-28790000D02*
X75960000Y-28790000D01*
D25*
X52920000Y-28790000D02*
X50813600Y-28790000D01*
X64730000Y-28790000D02*
X65606932Y-28790000D01*
X75960000Y-28790000D02*
X78530000Y-28790000D01*
X62176848Y-28747195D02*
X62219653Y-28790000D01*
X61800347Y-28790000D02*
X61843152Y-28747195D01*
X69699653Y-28790000D02*
X73620000Y-28790000D01*
X74830000Y-29200000D02*
X74420000Y-28790000D01*
D26*
X57830000Y-28800000D02*
X57830000Y-28790000D01*
D25*
X69300347Y-28790000D02*
X69333152Y-28757195D01*
D26*
X73620000Y-28790000D02*
X74420000Y-28790000D01*
D25*
X66309653Y-28790000D02*
X69300347Y-28790000D01*
X65606932Y-28790000D02*
X65663152Y-28733780D01*
X65663152Y-28733780D02*
X66253433Y-28733780D01*
D26*
X54580000Y-28800000D02*
X55260000Y-28800000D01*
D25*
X64820000Y-28350000D02*
X67070000Y-28350000D01*
X82942800Y-28790000D02*
X84199600Y-30046800D01*
X50813600Y-28790000D02*
X49768000Y-29835600D01*
D26*
X60120000Y-28800000D02*
X60120000Y-28790000D01*
D25*
X69666848Y-28757195D02*
X69699653Y-28790000D01*
X55260000Y-28790000D02*
X57830000Y-28790000D01*
D26*
X78530000Y-28790000D02*
X80820000Y-28790000D01*
D25*
X61843152Y-28747195D02*
X62176848Y-28747195D01*
X66253433Y-28733780D02*
X66309653Y-28790000D01*
X64680000Y-28490000D02*
X64820000Y-28350000D01*
X54180000Y-29200000D02*
X54580000Y-28800000D01*
%TO.N,/fpga/DRAM.A14*%
D33*
X63310000Y-54106922D02*
X62798461Y-54618461D01*
X61010800Y-44196000D02*
X63310000Y-46495200D01*
X63310000Y-46495200D02*
X63310000Y-54106922D01*
X61010800Y-44043600D02*
X61010800Y-44196000D01*
%TO.N,/fpga/DRAM.A8*%
D25*
X63648423Y-27240000D02*
X64168423Y-27760000D01*
X80820000Y-27990000D02*
X84083600Y-27990000D01*
D26*
X78530000Y-27990000D02*
X80820000Y-27990000D01*
D25*
X75960000Y-27990000D02*
X78530000Y-27990000D01*
X72730000Y-27760000D02*
X72960000Y-27990000D01*
X84083600Y-27990000D02*
X84640400Y-28546800D01*
X52920000Y-27990000D02*
X49693600Y-27990000D01*
D26*
X73620000Y-27990000D02*
X74420000Y-27990000D01*
X57830000Y-27990000D02*
X60120000Y-27990000D01*
D25*
X74830000Y-28400000D02*
X74420000Y-27990000D01*
X54180000Y-28400000D02*
X54590000Y-27990000D01*
X62540000Y-27760000D02*
X72730000Y-27760000D01*
X60650000Y-27760000D02*
X62540000Y-27760000D01*
D26*
X74420000Y-27990000D02*
X75960000Y-27990000D01*
X54590000Y-27990000D02*
X55260000Y-27990000D01*
X52920000Y-27990000D02*
X54590000Y-27990000D01*
D25*
X55260000Y-27990000D02*
X57830000Y-27990000D01*
X49693600Y-27990000D02*
X49340000Y-28343600D01*
X63340000Y-27240000D02*
X63648423Y-27240000D01*
X72960000Y-27990000D02*
X73620000Y-27990000D01*
X60120000Y-27990000D02*
X60420000Y-27990000D01*
X60420000Y-27990000D02*
X60650000Y-27760000D01*
%TO.N,/fpga/LINK.TX_N*%
D29*
X50287600Y-100140000D02*
X50287600Y-100562400D01*
X55424474Y-60590000D02*
X54167600Y-61846874D01*
X57770000Y-60590000D02*
X55424474Y-60590000D01*
X54167600Y-61846874D02*
X54167600Y-94886874D01*
X54167600Y-94886874D02*
X50287600Y-98766874D01*
X50287600Y-98766874D02*
X50287600Y-100140000D01*
X50287600Y-100562400D02*
X49890000Y-100960000D01*
%TO.N,/fpga/FALCON_AUDIOLV.O*%
D30*
X75739826Y-51620174D02*
X76240000Y-51120000D01*
X77600000Y-51120000D02*
X79030000Y-51120000D01*
X76240000Y-51120000D02*
X77600000Y-51120000D01*
X75711912Y-51620174D02*
X75739826Y-51620174D01*
X79030000Y-51120000D02*
X79470000Y-50680000D01*
%TO.N,/fpga/CT.A19*%
X65140000Y-76440000D02*
X62600000Y-78980000D01*
X66770000Y-63590000D02*
X67290000Y-64110000D01*
X68810000Y-75110000D02*
X68810000Y-75950000D01*
X68320000Y-76440000D02*
X65140000Y-76440000D01*
X68810000Y-75950000D02*
X68320000Y-76440000D01*
X68320000Y-74620000D02*
X68810000Y-75110000D01*
X68010000Y-64110000D02*
X68320000Y-64420000D01*
X62600000Y-78980000D02*
X60250000Y-78980000D01*
X60250000Y-78980000D02*
X59330000Y-78060000D01*
X59330000Y-78060000D02*
X59330000Y-77870000D01*
X67290000Y-64110000D02*
X68010000Y-64110000D01*
X68320000Y-64420000D02*
X68320000Y-74620000D01*
%TO.N,/fpga/CT.A14*%
X59800000Y-79520000D02*
X58620000Y-78340000D01*
X68770000Y-74130000D02*
X69370000Y-74730000D01*
X68770000Y-69590000D02*
X68770000Y-74130000D01*
X69370000Y-76180000D02*
X66030000Y-79520000D01*
X66030000Y-79520000D02*
X59800000Y-79520000D01*
X58620000Y-78340000D02*
X58620000Y-77840000D01*
X69370000Y-74730000D02*
X69370000Y-76180000D01*
%TO.N,/fpga/DRAM.DQ3*%
D25*
X61280000Y-35170000D02*
X66230000Y-40120000D01*
D26*
X54570000Y-35960000D02*
X55310000Y-35960000D01*
X57590000Y-35150000D02*
X57640000Y-35200000D01*
D25*
X68310000Y-43700000D02*
X70260000Y-45650000D01*
X69770000Y-51290000D02*
X69770000Y-51590000D01*
X55552195Y-35156228D02*
X55866228Y-34842195D01*
X60110000Y-35170000D02*
X61280000Y-35170000D01*
X66860000Y-43700000D02*
X68310000Y-43700000D01*
D26*
X57640000Y-35200000D02*
X60080000Y-35200000D01*
D25*
X57570000Y-35130000D02*
X57590000Y-35150000D01*
X55866228Y-34842195D02*
X56280000Y-34842195D01*
X66732947Y-41200000D02*
X66732947Y-41320000D01*
X54570000Y-35970000D02*
X54570000Y-35960000D01*
X66492947Y-41560000D02*
X66470000Y-41560000D01*
X56567805Y-35130000D02*
X57570000Y-35130000D01*
X70260000Y-50800000D02*
X69770000Y-51290000D01*
X55310000Y-35960000D02*
X55552195Y-35717805D01*
X66470000Y-40960000D02*
X66492947Y-40960000D01*
X66230000Y-43070000D02*
X66860000Y-43700000D01*
X54180000Y-36360000D02*
X54570000Y-35970000D01*
X66230000Y-41920000D02*
X66230000Y-43070000D01*
X66230000Y-41800000D02*
X66230000Y-41920000D01*
D26*
X60080000Y-35200000D02*
X60110000Y-35170000D01*
D25*
X70260000Y-45650000D02*
X70260000Y-50800000D01*
X56280000Y-34842195D02*
X56567805Y-35130000D01*
X55552195Y-35717805D02*
X55552195Y-35156228D01*
X66230000Y-40120000D02*
X66230000Y-40720000D01*
X66732947Y-41320000D02*
G75*
G02*
X66492947Y-41560047I-240047J0D01*
G01*
X66230000Y-40720000D02*
G75*
G03*
X66470000Y-40960000I240000J0D01*
G01*
X66492947Y-40960000D02*
G75*
G02*
X66732900Y-41200000I-47J-240000D01*
G01*
X66470000Y-41560000D02*
G75*
G03*
X66230000Y-41800000I0J-240000D01*
G01*
%TO.N,/fpga/CLK0*%
D30*
X67849374Y-52077584D02*
X67342416Y-52077584D01*
X67342416Y-52077584D02*
X66640000Y-52780000D01*
X66640000Y-52780000D02*
X66640000Y-53030000D01*
%TO.N,/fpga/HDMI.REFCLK_N*%
D29*
X61662400Y-53637600D02*
X61717079Y-53582921D01*
X61717079Y-53582921D02*
X61697619Y-53563461D01*
X57312400Y-51976874D02*
X58103126Y-52767600D01*
X56240000Y-49690000D02*
X56470000Y-49690000D01*
X59963126Y-53637600D02*
X61662400Y-53637600D01*
X56470000Y-49690000D02*
X57312400Y-50532400D01*
X59093126Y-52767600D02*
X59963126Y-53637600D01*
X57312400Y-50532400D02*
X57312400Y-51976874D01*
X58103126Y-52767600D02*
X59093126Y-52767600D01*
%TO.N,/fpga/HDMI.REFCLK_P*%
X57976874Y-53072400D02*
X58966874Y-53072400D01*
X60932400Y-53942400D02*
X61230000Y-54240000D01*
X56500000Y-50880000D02*
X56760000Y-50880000D01*
X59836874Y-53942400D02*
X60932400Y-53942400D01*
X58966874Y-53072400D02*
X59836874Y-53942400D01*
X57007600Y-51127600D02*
X57007600Y-52103126D01*
X57007600Y-52103126D02*
X57976874Y-53072400D01*
X61230000Y-54240000D02*
X61230000Y-54380000D01*
X56760000Y-50880000D02*
X57007600Y-51127600D01*
X56120000Y-51260000D02*
X56500000Y-50880000D01*
X61230000Y-54380000D02*
X60970000Y-54640000D01*
X60970000Y-54640000D02*
X60780000Y-54640000D01*
%TO.N,/fpga/USB2LV.DATA0*%
D30*
X71770000Y-55590000D02*
X72228200Y-56048200D01*
X72228200Y-56048200D02*
X80300000Y-56048200D01*
X80638200Y-56048200D02*
X81720000Y-57130000D01*
X80300000Y-56048200D02*
X80638200Y-56048200D01*
%TO.N,/fpga/CT.I6_N*%
X85030000Y-57820000D02*
X89530000Y-53320000D01*
X89530000Y-50050000D02*
X92260000Y-47320000D01*
X83040000Y-57820000D02*
X85030000Y-57820000D01*
X76270000Y-58090000D02*
X82770000Y-58090000D01*
X89530000Y-53320000D02*
X89530000Y-50050000D01*
X82770000Y-58090000D02*
X83040000Y-57820000D01*
X75770000Y-58590000D02*
X76270000Y-58090000D01*
%TO.N,/fpga/HDMI.SCL*%
X56200000Y-59090000D02*
X52490000Y-59090000D01*
X49810000Y-91450000D02*
X48050000Y-93210000D01*
X57130000Y-58160000D02*
X56200000Y-59090000D01*
X62770000Y-59590000D02*
X61800000Y-59590000D01*
X61800000Y-59590000D02*
X61266785Y-59056785D01*
X61266785Y-59056785D02*
X60576785Y-59056785D01*
X60050000Y-58160000D02*
X57130000Y-58160000D01*
X52490000Y-59090000D02*
X49810000Y-61770000D01*
X60576785Y-59056785D02*
X60300000Y-58780000D01*
X49810000Y-61770000D02*
X49810000Y-91450000D01*
X60300000Y-58780000D02*
X60300000Y-58410000D01*
X60300000Y-58410000D02*
X60050000Y-58160000D01*
%TO.N,/fpga/HDMI.SDA*%
X60290000Y-59820000D02*
X60290000Y-59390000D01*
X47380000Y-93450000D02*
X46850000Y-93450000D01*
X63770000Y-59590000D02*
X63290000Y-60070000D01*
X50450000Y-91870000D02*
X48460000Y-93860000D01*
X60290000Y-59390000D02*
X59970000Y-59070000D01*
X50450000Y-62240000D02*
X50450000Y-91870000D01*
X59970000Y-59070000D02*
X57150000Y-59070000D01*
X56640000Y-59580000D02*
X53110000Y-59580000D01*
X60540000Y-60070000D02*
X60290000Y-59820000D01*
X47790000Y-93860000D02*
X47380000Y-93450000D01*
X63290000Y-60070000D02*
X60540000Y-60070000D01*
X53110000Y-59580000D02*
X50450000Y-62240000D01*
X57150000Y-59070000D02*
X56640000Y-59580000D01*
X48460000Y-93860000D02*
X47790000Y-93860000D01*
%TO.N,/fpga/HDMI.I2CRESET*%
X60250000Y-60800000D02*
X60560000Y-61110000D01*
X45400000Y-100520000D02*
X45400000Y-98250000D01*
X51280000Y-92370000D02*
X51280000Y-62620000D01*
X63670000Y-60090000D02*
X64250000Y-60090000D01*
X63330000Y-60430000D02*
X63670000Y-60090000D01*
X44440000Y-101480000D02*
X45400000Y-100520000D01*
X53860000Y-60040000D02*
X59920000Y-60040000D01*
X51280000Y-62620000D02*
X53860000Y-60040000D01*
X62900000Y-61110000D02*
X63330000Y-60680000D01*
X60560000Y-61110000D02*
X62900000Y-61110000D01*
X64250000Y-60090000D02*
X64750000Y-59590000D01*
X60250000Y-60370000D02*
X60250000Y-60800000D01*
X59920000Y-60040000D02*
X60250000Y-60370000D01*
X64750000Y-59590000D02*
X64770000Y-59590000D01*
X63330000Y-60680000D02*
X63330000Y-60430000D01*
X45400000Y-98250000D02*
X51280000Y-92370000D01*
%TO.N,/fpga/CT.D4*%
X77770000Y-59590000D02*
X78310000Y-59050000D01*
X82430000Y-59070000D02*
X86530000Y-59070000D01*
X80410000Y-58780000D02*
X82140000Y-58780000D01*
X82140000Y-58780000D02*
X82430000Y-59070000D01*
X90730000Y-54870000D02*
X92230000Y-54870000D01*
X92230000Y-54870000D02*
X92290000Y-54930000D01*
X80140000Y-59050000D02*
X80410000Y-58780000D01*
X78310000Y-59050000D02*
X80140000Y-59050000D01*
X86530000Y-59070000D02*
X90730000Y-54870000D01*
%TO.N,/fpga/LINK.TX_P*%
D29*
X50592400Y-98893126D02*
X50592400Y-98991274D01*
X51053874Y-99452748D02*
X51053874Y-99591274D01*
X50600000Y-100660000D02*
X50926024Y-100986024D01*
X54472400Y-95013126D02*
X50592400Y-98893126D01*
X50592400Y-100052748D02*
X50592400Y-100191274D01*
X50592400Y-100191274D02*
X50592400Y-100652400D01*
X55435526Y-61010000D02*
X54472400Y-61973126D01*
X50592400Y-100652400D02*
X50600000Y-100660000D01*
X58770000Y-60590000D02*
X58760000Y-60600000D01*
X58760000Y-60600000D02*
X58350000Y-61010000D01*
X54472400Y-61973126D02*
X54472400Y-95013126D01*
X50926024Y-100986024D02*
X51003526Y-100986024D01*
X58350000Y-61010000D02*
X55435526Y-61010000D01*
X50592400Y-98991274D02*
G75*
G03*
X50823137Y-99222000I230700J-26D01*
G01*
X51053874Y-99591274D02*
G75*
G02*
X50823137Y-99822074I-230774J-26D01*
G01*
X50823137Y-99822011D02*
G75*
G03*
X50592411Y-100052748I-37J-230689D01*
G01*
X50823137Y-99222011D02*
G75*
G02*
X51053789Y-99452748I-37J-230689D01*
G01*
%TO.N,/fpga/CT.A24*%
D30*
X63180000Y-62800000D02*
X62920000Y-63060000D01*
X64180000Y-61770000D02*
X63890000Y-62060000D01*
X64770000Y-60590000D02*
X64180000Y-61180000D01*
X63890000Y-62060000D02*
X63530000Y-62060000D01*
X62490000Y-63060000D02*
X62230000Y-63320000D01*
X62230000Y-73210000D02*
X61860000Y-73580000D01*
X63530000Y-62060000D02*
X63180000Y-62410000D01*
X63180000Y-62410000D02*
X63180000Y-62800000D01*
X62230000Y-63320000D02*
X62230000Y-73210000D01*
X64180000Y-61180000D02*
X64180000Y-61770000D01*
X62920000Y-63060000D02*
X62490000Y-63060000D01*
%TO.N,/fpga/CT.D6*%
X92300000Y-57210000D02*
X92360000Y-57150000D01*
X77330000Y-60030000D02*
X88050000Y-60030000D01*
X90870000Y-57210000D02*
X92300000Y-57210000D01*
X76770000Y-60590000D02*
X77330000Y-60030000D01*
X88050000Y-60030000D02*
X90870000Y-57210000D01*
%TO.N,/fpga/CT.D7*%
X80520000Y-61520000D02*
X81440000Y-61520000D01*
X81810000Y-61150000D02*
X84760000Y-61150000D01*
X81440000Y-61520000D02*
X81810000Y-61150000D01*
X85300000Y-60610000D02*
X90660000Y-60610000D01*
X84760000Y-61150000D02*
X85300000Y-60610000D01*
X90660000Y-60610000D02*
X93790000Y-57480000D01*
%TO.N,/fpga/CT.DTKCMB_N*%
X64280000Y-62910000D02*
X64080000Y-63110000D01*
X63550000Y-63110000D02*
X63330000Y-63330000D01*
X62700000Y-74050000D02*
X62470000Y-74280000D01*
X63330000Y-63330000D02*
X63330000Y-70470000D01*
X64770000Y-61590000D02*
X64280000Y-62080000D01*
X64080000Y-63110000D02*
X63550000Y-63110000D01*
X63330000Y-70470000D02*
X62700000Y-71100000D01*
X64280000Y-62080000D02*
X64280000Y-62910000D01*
X62700000Y-71100000D02*
X62700000Y-74050000D01*
%TO.N,/fpga/CT.D9*%
X73840000Y-62060000D02*
X73630000Y-61850000D01*
X82210000Y-61740000D02*
X85060000Y-61740000D01*
X85060000Y-61740000D02*
X85390000Y-61410000D01*
X81640000Y-62060000D02*
X73840000Y-62060000D01*
X73630000Y-61850000D02*
X73070000Y-61850000D01*
X85390000Y-61410000D02*
X91700000Y-61410000D01*
X81640000Y-62060000D02*
X81890000Y-62060000D01*
X73070000Y-61850000D02*
X72880000Y-62040000D01*
X72880000Y-62040000D02*
X71260000Y-62040000D01*
X81890000Y-62060000D02*
X82210000Y-61740000D01*
X91700000Y-61410000D02*
X93260000Y-59850000D01*
X71260000Y-62040000D02*
X70880000Y-61660000D01*
X93260000Y-59850000D02*
X93830000Y-59850000D01*
%TO.N,/fpga/LINK.RX_N*%
D29*
X56117600Y-103489142D02*
X56117600Y-103369142D01*
X49047763Y-107337763D02*
X49047763Y-107812237D01*
X55479454Y-102889142D02*
X55479454Y-102769142D01*
X55719454Y-102529142D02*
X55877600Y-102529142D01*
X49030000Y-107320000D02*
X49047763Y-107337763D01*
X56117600Y-102169142D02*
X56117600Y-101505994D01*
X50273126Y-109037600D02*
X54976874Y-109037600D01*
X49047763Y-107812237D02*
X50273126Y-109037600D01*
X55877600Y-104329142D02*
X55719466Y-104329142D01*
X55719466Y-103729142D02*
X55877600Y-103729142D01*
X56117600Y-63446874D02*
X56960000Y-62604474D01*
X56117600Y-107896874D02*
X56117600Y-104569142D01*
X56960000Y-62590000D02*
X57770000Y-62590000D01*
X55479466Y-104089142D02*
X55479466Y-103969142D01*
X56117600Y-101505994D02*
X56117600Y-63446874D01*
X56117600Y-102289142D02*
X56117600Y-102169142D01*
X54976874Y-109037600D02*
X56117600Y-107896874D01*
X55877600Y-103129142D02*
X55719454Y-103129142D01*
X56960000Y-62604474D02*
X56960000Y-62590000D01*
X55719454Y-103129142D02*
G75*
G02*
X55479458Y-102889142I46J240042D01*
G01*
X56117600Y-103369142D02*
G75*
G03*
X55877600Y-103129100I-240000J42D01*
G01*
X55719466Y-104329142D02*
G75*
G02*
X55479458Y-104089142I34J240042D01*
G01*
X55877600Y-102529142D02*
G75*
G03*
X56117642Y-102289142I0J240042D01*
G01*
X55479454Y-102769142D02*
G75*
G02*
X55719454Y-102529054I240046J42D01*
G01*
X55877600Y-103729142D02*
G75*
G03*
X56117642Y-103489142I0J240042D01*
G01*
X55479466Y-103969142D02*
G75*
G02*
X55719466Y-103729066I240034J42D01*
G01*
X56117600Y-104569142D02*
G75*
G03*
X55877600Y-104329100I-240000J42D01*
G01*
%TO.N,/fpga/LINK.RX_P*%
X48450000Y-107645526D02*
X50146874Y-109342400D01*
X56422400Y-63573126D02*
X56925526Y-63070000D01*
X56925526Y-63070000D02*
X58290000Y-63070000D01*
X50146874Y-109342400D02*
X55103126Y-109342400D01*
X48450000Y-107320000D02*
X48450000Y-107645526D01*
X55103126Y-109342400D02*
X56422400Y-108023126D01*
X58290000Y-63070000D02*
X58770000Y-62590000D01*
X56422400Y-108023126D02*
X56422400Y-63573126D01*
%TO.N,/fpga/Net-(U29-~{S}{slash}~{CS})*%
D30*
X61090000Y-71480000D02*
X61090000Y-71410000D01*
X61660000Y-65560000D02*
X61660000Y-65060000D01*
X61120000Y-71400000D02*
X61230000Y-71290000D01*
X61660000Y-65060000D02*
X61230000Y-64630000D01*
X61110000Y-71390000D02*
X61120000Y-71400000D01*
X61230000Y-63050000D02*
X60770000Y-62590000D01*
X61230000Y-71290000D02*
X61230000Y-65990000D01*
X61230000Y-65990000D02*
X61660000Y-65560000D01*
X61230000Y-64630000D02*
X61230000Y-63050000D01*
X61090000Y-71410000D02*
X61110000Y-71390000D01*
%TO.N,/fpga/CT.A13*%
X66800000Y-64060000D02*
X67300000Y-64560000D01*
X66280000Y-63080000D02*
X66280000Y-63830000D01*
X66280000Y-63830000D02*
X66510000Y-64060000D01*
X67300000Y-73240000D02*
X62090000Y-78450000D01*
X61170000Y-78450000D02*
X60740000Y-78020000D01*
X66510000Y-64060000D02*
X66800000Y-64060000D01*
X60740000Y-78020000D02*
X60740000Y-77830000D01*
X66770000Y-62590000D02*
X66280000Y-63080000D01*
X67300000Y-64560000D02*
X67300000Y-73240000D01*
X62090000Y-78450000D02*
X61170000Y-78450000D01*
%TO.N,/fpga/CT.D10*%
X79820000Y-62620000D02*
X85130000Y-62620000D01*
X70770000Y-62590000D02*
X71240000Y-63060000D01*
X92431800Y-62341800D02*
X92431800Y-62370000D01*
X85130000Y-62620000D02*
X85760000Y-61990000D01*
X92080000Y-61990000D02*
X92431800Y-62341800D01*
X71240000Y-63060000D02*
X79380000Y-63060000D01*
X85760000Y-61990000D02*
X92080000Y-61990000D01*
X79380000Y-63060000D02*
X79820000Y-62620000D01*
%TO.N,/fpga/CT.D15*%
X82430000Y-63240000D02*
X82380000Y-63240000D01*
%TO.N,/fpga/CT.D11*%
X84660000Y-63610000D02*
X86420000Y-63610000D01*
X87280000Y-62750000D02*
X91630000Y-62750000D01*
X91630000Y-62750000D02*
X92140000Y-63260000D01*
X83010000Y-63230000D02*
X83140000Y-63100000D01*
X92800000Y-63260000D02*
X94190000Y-61870000D01*
X86420000Y-63610000D02*
X87280000Y-62750000D01*
X84150000Y-63100000D02*
X84660000Y-63610000D01*
X92140000Y-63260000D02*
X92800000Y-63260000D01*
X83140000Y-63100000D02*
X84150000Y-63100000D01*
X94190000Y-61870000D02*
X94190000Y-61730000D01*
%TO.N,/fpga/CT.A17*%
X63160000Y-74900000D02*
X58650000Y-74900000D01*
X58650000Y-74900000D02*
X57550000Y-76000000D01*
X64270000Y-73790000D02*
X63160000Y-74900000D01*
X64270000Y-64090000D02*
X64270000Y-73790000D01*
X57550000Y-76560000D02*
X57210000Y-76900000D01*
X57550000Y-76000000D02*
X57550000Y-76560000D01*
X63770000Y-63590000D02*
X64270000Y-64090000D01*
%TO.N,/fpga/CT.A15*%
X64770000Y-63590000D02*
X65290000Y-64110000D01*
X61580000Y-77260000D02*
X57740000Y-77260000D01*
X65290000Y-64110000D02*
X65290000Y-73550000D01*
X65290000Y-73550000D02*
X61580000Y-77260000D01*
X57740000Y-77260000D02*
X57190000Y-77810000D01*
%TO.N,/fpga/CT.A10*%
X61890000Y-77860000D02*
X61520000Y-77860000D01*
X66280000Y-73470000D02*
X61890000Y-77860000D01*
X66280000Y-64430000D02*
X66280000Y-73470000D01*
X65770000Y-63920000D02*
X66280000Y-64430000D01*
X65770000Y-63590000D02*
X65770000Y-63920000D01*
%TO.N,/fpga/ETH.D0*%
X77850000Y-87550000D02*
X76390000Y-89010000D01*
X78130000Y-94040000D02*
X77480000Y-94040000D01*
X77910000Y-91000000D02*
X77910000Y-92720000D01*
X77910000Y-92720000D02*
X78320000Y-93130000D01*
X77480000Y-90570000D02*
X77910000Y-91000000D01*
X69770000Y-63590000D02*
X70280000Y-64100000D01*
X78320000Y-93850000D02*
X78130000Y-94040000D01*
X70280000Y-64100000D02*
X70280000Y-70560000D01*
X77480000Y-94040000D02*
X76990000Y-94530000D01*
X70280000Y-70560000D02*
X77850000Y-78130000D01*
X76390000Y-89010000D02*
X76390000Y-90080000D01*
X75766283Y-94530000D02*
X75728617Y-94492334D01*
X76990000Y-94530000D02*
X75766283Y-94530000D01*
X77850000Y-78130000D02*
X77850000Y-87550000D01*
X76880000Y-90570000D02*
X77480000Y-90570000D01*
X78320000Y-93130000D02*
X78320000Y-93850000D01*
X76390000Y-90080000D02*
X76880000Y-90570000D01*
%TO.N,/fpga/CT.D18*%
X93850000Y-68650000D02*
X93850000Y-69450000D01*
X71960000Y-65220000D02*
X72350000Y-65610000D01*
X93850000Y-69450000D02*
X94370000Y-69970000D01*
X72350000Y-65610000D02*
X72350000Y-65930000D01*
X94370000Y-69970000D02*
X94370000Y-71100000D01*
X94370000Y-71100000D02*
X92770000Y-72700000D01*
X72350000Y-65930000D02*
X72560000Y-66140000D01*
X92260000Y-72700000D02*
X92250000Y-72690000D01*
X70770000Y-63590000D02*
X71250000Y-64070000D01*
X92740000Y-66880000D02*
X92740000Y-67540000D01*
X92740000Y-67540000D02*
X93850000Y-68650000D01*
X71690000Y-65220000D02*
X71960000Y-65220000D01*
X71250000Y-64780000D02*
X71690000Y-65220000D01*
X92770000Y-72700000D02*
X92260000Y-72700000D01*
X71250000Y-64070000D02*
X71250000Y-64780000D01*
X92000000Y-66140000D02*
X92740000Y-66880000D01*
X72560000Y-66140000D02*
X92000000Y-66140000D01*
%TO.N,/fpga/CT.D12*%
X72280000Y-64100000D02*
X71770000Y-63590000D01*
X82645000Y-64300000D02*
X81970000Y-64300000D01*
X82890000Y-64545000D02*
X82645000Y-64300000D01*
X92280000Y-65120000D02*
X91700000Y-64540000D01*
X82895000Y-64540000D02*
X82890000Y-64545000D01*
X91700000Y-64540000D02*
X82895000Y-64540000D01*
X81970000Y-64300000D02*
X81770000Y-64100000D01*
X81770000Y-64100000D02*
X72280000Y-64100000D01*
%TO.N,/fpga/CT.D13*%
X90410000Y-75020000D02*
X82070000Y-75020000D01*
X93710000Y-65080000D02*
X93900000Y-65080000D01*
X96700000Y-73130000D02*
X94010000Y-75820000D01*
X82070000Y-75020000D02*
X76770000Y-69720000D01*
X93900000Y-65080000D02*
X96700000Y-67880000D01*
X94010000Y-75820000D02*
X91210000Y-75820000D01*
X91210000Y-75820000D02*
X90410000Y-75020000D01*
X76770000Y-69720000D02*
X76770000Y-68590000D01*
X96700000Y-67880000D02*
X96700000Y-73130000D01*
%TO.N,/fpga/ETH.D1*%
X76870000Y-93530000D02*
X76720000Y-93680000D01*
X77330000Y-78540000D02*
X77330000Y-87370000D01*
X75870000Y-88830000D02*
X75870000Y-90220000D01*
X69270000Y-69830000D02*
X69270000Y-70480000D01*
X75870000Y-90220000D02*
X76870000Y-91220000D01*
X68770000Y-64590000D02*
X69270000Y-65090000D01*
X77330000Y-87370000D02*
X75870000Y-88830000D01*
X69270000Y-65090000D02*
X69270000Y-69830000D01*
X76870000Y-91220000D02*
X76870000Y-93530000D01*
X69270000Y-70480000D02*
X77330000Y-78540000D01*
X76720000Y-93680000D02*
X76370000Y-94030000D01*
X76370000Y-94030000D02*
X76200000Y-94030000D01*
%TO.N,/fpga/CT.D21*%
X95270000Y-67480000D02*
X95270000Y-73550000D01*
X95270000Y-73550000D02*
X93620000Y-75200000D01*
X93620000Y-75200000D02*
X93620000Y-75210000D01*
X71770000Y-64590000D02*
X72250000Y-65070000D01*
X93400000Y-65610000D02*
X95270000Y-67480000D01*
X79500000Y-65610000D02*
X93400000Y-65610000D01*
X72250000Y-65070000D02*
X78960000Y-65070000D01*
X78960000Y-65070000D02*
X79500000Y-65610000D01*
%TO.N,+3V3A_ETH*%
D27*
X81525358Y-98623021D02*
X81658379Y-98490000D01*
X93530000Y-98900000D02*
X93560000Y-98930000D01*
X89160000Y-98900000D02*
X93530000Y-98900000D01*
X81658379Y-98490000D02*
X88750000Y-98490000D01*
X88750000Y-98490000D02*
X89160000Y-98900000D01*
%TO.N,/video/AC.TX_N1*%
D29*
X37824474Y-95550000D02*
X38446874Y-94927600D01*
X46787600Y-60116874D02*
X50626875Y-56277599D01*
X52492401Y-56277599D02*
X52640000Y-56130000D01*
X46787600Y-90276874D02*
X46787600Y-60116874D01*
X50626875Y-56277599D02*
X52492401Y-56277599D01*
X42136874Y-94927600D02*
X46787600Y-90276874D01*
X38446874Y-94927600D02*
X42136874Y-94927600D01*
X37680000Y-95550000D02*
X37824474Y-95550000D01*
%TO.N,/video/AC.TX_P1*%
X45975572Y-91519955D02*
X44694312Y-92801214D01*
X46824101Y-91348705D02*
X46738475Y-91434332D01*
X44694312Y-92801214D02*
X42263126Y-95232400D01*
X50753125Y-56582401D02*
X47092400Y-60243126D01*
X46061197Y-91434332D02*
X45975572Y-91519955D01*
X52282401Y-56582401D02*
X50753125Y-56582401D01*
X47092400Y-60243126D02*
X47092400Y-90403126D01*
X47092400Y-90403126D02*
X46824101Y-90671425D01*
X52630000Y-56930000D02*
X52282401Y-56582401D01*
X38110000Y-95695526D02*
X38110000Y-95920000D01*
X38573126Y-95232400D02*
X38110000Y-95695526D01*
X42263126Y-95232400D02*
X38573126Y-95232400D01*
X46738475Y-91434332D02*
G75*
G02*
X46399881Y-91434288I-169275J169332D01*
G01*
X46824101Y-90671425D02*
G75*
G03*
X46824146Y-91010020I169299J-169275D01*
G01*
X46399837Y-91434331D02*
G75*
G03*
X46061180Y-91434314I-169337J-169369D01*
G01*
X46824101Y-91010065D02*
G75*
G02*
X46824116Y-91348720I-169301J-169335D01*
G01*
%TO.N,/video/AC.TX_N2*%
X41087722Y-96553200D02*
X40532278Y-96553200D01*
X41803322Y-95837600D02*
X41087722Y-96553200D01*
X39152400Y-95837600D02*
X38870000Y-96120000D01*
X48217600Y-60906874D02*
X48217600Y-90926874D01*
X51401875Y-57722599D02*
X48217600Y-60906874D01*
X43306874Y-95837600D02*
X41803322Y-95837600D01*
X52655786Y-57658019D02*
X52591206Y-57722599D01*
X48217600Y-90926874D02*
X43306874Y-95837600D01*
X39816678Y-95837600D02*
X39152400Y-95837600D01*
X52591206Y-57722599D02*
X51401875Y-57722599D01*
X40532278Y-96553200D02*
X39816678Y-95837600D01*
%TO.N,/video/AC.TX_P2*%
X48348802Y-91566136D02*
X48428344Y-91645678D01*
X47500273Y-92075254D02*
X47054748Y-92520778D01*
X39579590Y-96250000D02*
X39366177Y-96463413D01*
X47054748Y-92520778D02*
X43433126Y-96142400D01*
X51528125Y-58027401D02*
X48522400Y-61033126D01*
X41868197Y-96142400D02*
X41195997Y-96814600D01*
X43433126Y-96142400D02*
X41868197Y-96142400D01*
X47585128Y-91990402D02*
X47500273Y-92075254D01*
X52720000Y-58520000D02*
X52227401Y-58027401D01*
X48004079Y-92069944D02*
X47924538Y-91990403D01*
X48522400Y-91053126D02*
X48348802Y-91226724D01*
X48428343Y-91985090D02*
X48343491Y-92069943D01*
X39794790Y-96250000D02*
X39579590Y-96250000D01*
X41195997Y-96814600D02*
X40359390Y-96814600D01*
X52227401Y-58027401D02*
X51528125Y-58027401D01*
X48522400Y-61033126D02*
X48522400Y-91053126D01*
X40359390Y-96814600D02*
X39794790Y-96250000D01*
X47924538Y-91990403D02*
G75*
G03*
X47585096Y-91990369I-169738J-169697D01*
G01*
X48348802Y-91226724D02*
G75*
G03*
X48348832Y-91566106I169698J-169676D01*
G01*
X48343491Y-92069943D02*
G75*
G02*
X48004094Y-92069929I-169691J169743D01*
G01*
X48428344Y-91645678D02*
G75*
G02*
X48428360Y-91985106I-169744J-169722D01*
G01*
%TD*%
M02*
