%TF.GenerationSoftware,KiCad,Pcbnew,10.0.6*%
%TF.CreationDate,2026-09-26T17:55:46+02:00*%
%TF.ProjectId,mega_videl,6d656761-5f76-4696-9465-6c2e6b696361,rev?*%
%TF.SameCoordinates,Original*%
%TF.FileFunction,Copper,L10,Bot*%
%TF.FilePolarity,Positive*%
%FSLAX46Y46*%
G04 Gerber Fmt 4.6, Leading zero omitted, Abs format (unit mm)*
G04 Created by KiCad (PCBNEW 10.0.6) date 2026-09-26 17:55:46*
%MOMM*%
%LPD*%
G01*
G04 APERTURE LIST*
G04 Aperture macros list*
%AMRoundRect*
0 Rectangle with rounded corners*
0 $1 Rounding radius*
0 $2 $3 $4 $5 $6 $7 $8 $9 X,Y pos of 4 corners*
0 Add a 4 corners polygon primitive as box body*
4,1,4,$2,$3,$4,$5,$6,$7,$8,$9,$2,$3,0*
0 Add four circle primitives for the rounded corners*
1,1,$1+$1,$2,$3*
1,1,$1+$1,$4,$5*
1,1,$1+$1,$6,$7*
1,1,$1+$1,$8,$9*
0 Add four rect primitives between the rounded corners*
20,1,$1+$1,$2,$3,$4,$5,0*
20,1,$1+$1,$4,$5,$6,$7,0*
20,1,$1+$1,$6,$7,$8,$9,0*
20,1,$1+$1,$8,$9,$2,$3,0*%
%AMRotRect*
0 Rectangle, with rotation*
0 The origin of the aperture is its center*
0 $1 length*
0 $2 width*
0 $3 Rotation angle, in degrees counterclockwise*
0 Add horizontal line*
21,1,$1,$2,0,0,$3*%
%AMFreePoly0*
4,1,15,0.085418,0.145286,0.085421,0.145284,0.245416,-0.014736,0.260058,-0.050089,0.260058,-0.110084,0.245413,-0.145439,0.210058,-0.160084,-0.209956,-0.160084,-0.245311,-0.145439,-0.259956,-0.110084,-0.259956,0.109931,-0.245311,0.145286,-0.209956,0.159931,0.050063,0.159931,0.085418,0.145286,0.085418,0.145286,$1*%
%AMFreePoly1*
4,1,14,0.245388,0.145235,0.260033,0.109880,0.260033,0.049886,0.245391,0.014533,0.085396,-0.145487,0.050042,-0.160134,-0.209956,-0.160134,-0.245311,-0.145489,-0.259956,-0.110134,-0.259956,0.109880,-0.245311,0.145235,-0.209956,0.159880,0.210033,0.159880,0.245388,0.145235,0.245388,0.145235,$1*%
%AMFreePoly2*
4,1,14,0.245362,0.145464,0.260007,0.110109,0.260007,-0.109906,0.245362,-0.145261,0.210007,-0.159906,-0.049987,-0.159906,-0.085345,-0.145259,-0.245340,0.014761,-0.259982,0.050114,-0.259982,0.110109,-0.245337,0.145464,-0.209982,0.160109,0.210007,0.160109,0.245362,0.145464,0.245362,0.145464,$1*%
%AMFreePoly3*
4,1,14,0.245362,0.145439,0.260007,0.110084,0.260007,-0.109931,0.245362,-0.145286,0.210007,-0.159931,-0.210007,-0.159931,-0.245362,-0.145286,-0.260007,-0.109931,-0.260007,-0.049886,-0.245360,-0.014528,-0.085366,0.145442,-0.050013,0.160084,0.210007,0.160084,0.245362,0.145439,0.245362,0.145439,$1*%
%AMFreePoly4*
4,1,15,0.215009,0.145387,0.229654,0.110032,0.229654,-0.109982,0.215009,-0.145337,0.179654,-0.159982,-0.000356,-0.159982,-0.031055,-0.149448,-0.211039,-0.009444,-0.229954,0.023823,-0.230340,0.030022,-0.230340,0.110032,-0.215695,0.145387,-0.180340,0.160032,0.179654,0.160032,0.215009,0.145387,0.215009,0.145387,$1*%
%AMFreePoly5*
4,1,15,0.215009,0.145337,0.229654,0.109982,0.229654,-0.110033,0.215009,-0.145388,0.179654,-0.160033,-0.180340,-0.160033,-0.215695,-0.145388,-0.230340,-0.110033,-0.230340,-0.030023,-0.215695,0.005332,-0.211039,0.009443,-0.031055,0.149448,-0.000356,0.159982,0.179654,0.159982,0.215009,0.145337,0.215009,0.145337,$1*%
%AMFreePoly6*
4,1,15,0.030648,0.149448,0.210632,0.009443,0.229547,-0.023824,0.229933,-0.030023,0.229933,-0.110033,0.215288,-0.145388,0.179933,-0.160033,-0.180061,-0.160033,-0.215416,-0.145388,-0.230061,-0.110033,-0.230061,0.109982,-0.215416,0.145337,-0.180061,0.159982,-0.000051,0.159982,0.030648,0.149448,0.030648,0.149448,$1*%
%AMFreePoly7*
4,1,15,0.215263,0.145387,0.229908,0.110032,0.229908,0.030022,0.215263,-0.005333,0.210607,-0.009444,0.030623,-0.149448,-0.000076,-0.159982,-0.180086,-0.159982,-0.215441,-0.145337,-0.230086,-0.109982,-0.230086,0.110032,-0.215441,0.145387,-0.180086,0.160032,0.179908,0.160032,0.215263,0.145387,0.215263,0.145387,$1*%
G04 Aperture macros list end*
%TA.AperFunction,ComponentPad*%
%ADD10C,1.300000*%
%TD*%
%TA.AperFunction,ComponentPad*%
%ADD11C,3.200000*%
%TD*%
%TA.AperFunction,ComponentPad*%
%ADD12C,0.800000*%
%TD*%
%TA.AperFunction,ComponentPad*%
%ADD13O,1.200000X2.000000*%
%TD*%
%TA.AperFunction,ComponentPad*%
%ADD14O,1.200000X1.800000*%
%TD*%
%TA.AperFunction,ComponentPad*%
%ADD15O,1.500000X2.550000*%
%TD*%
%TA.AperFunction,ComponentPad*%
%ADD16R,1.700000X1.700000*%
%TD*%
%TA.AperFunction,ComponentPad*%
%ADD17C,1.700000*%
%TD*%
%TA.AperFunction,ComponentPad*%
%ADD18O,1.000000X2.100000*%
%TD*%
%TA.AperFunction,ComponentPad*%
%ADD19O,1.000000X2.600000*%
%TD*%
%TA.AperFunction,SMDPad,CuDef*%
%ADD20RoundRect,0.250000X-0.250000X-0.475000X0.250000X-0.475000X0.250000X0.475000X-0.250000X0.475000X0*%
%TD*%
%TA.AperFunction,SMDPad,CuDef*%
%ADD21RoundRect,0.135000X0.226274X0.035355X0.035355X0.226274X-0.226274X-0.035355X-0.035355X-0.226274X0*%
%TD*%
%TA.AperFunction,SMDPad,CuDef*%
%ADD22RoundRect,0.250000X0.250000X0.475000X-0.250000X0.475000X-0.250000X-0.475000X0.250000X-0.475000X0*%
%TD*%
%TA.AperFunction,SMDPad,CuDef*%
%ADD23RoundRect,0.140000X-0.170000X0.140000X-0.170000X-0.140000X0.170000X-0.140000X0.170000X0.140000X0*%
%TD*%
%TA.AperFunction,SMDPad,CuDef*%
%ADD24RoundRect,0.140000X0.140000X0.170000X-0.140000X0.170000X-0.140000X-0.170000X0.140000X-0.170000X0*%
%TD*%
%TA.AperFunction,SMDPad,CuDef*%
%ADD25RoundRect,0.200000X0.200000X0.275000X-0.200000X0.275000X-0.200000X-0.275000X0.200000X-0.275000X0*%
%TD*%
%TA.AperFunction,SMDPad,CuDef*%
%ADD26RoundRect,0.200000X-0.200000X-0.275000X0.200000X-0.275000X0.200000X0.275000X-0.200000X0.275000X0*%
%TD*%
%TA.AperFunction,SMDPad,CuDef*%
%ADD27RoundRect,0.225000X0.225000X0.250000X-0.225000X0.250000X-0.225000X-0.250000X0.225000X-0.250000X0*%
%TD*%
%TA.AperFunction,SMDPad,CuDef*%
%ADD28RoundRect,0.140000X0.170000X-0.140000X0.170000X0.140000X-0.170000X0.140000X-0.170000X-0.140000X0*%
%TD*%
%TA.AperFunction,SMDPad,CuDef*%
%ADD29RoundRect,0.200000X-0.275000X0.200000X-0.275000X-0.200000X0.275000X-0.200000X0.275000X0.200000X0*%
%TD*%
%TA.AperFunction,SMDPad,CuDef*%
%ADD30RoundRect,0.218750X-0.218750X-0.381250X0.218750X-0.381250X0.218750X0.381250X-0.218750X0.381250X0*%
%TD*%
%TA.AperFunction,SMDPad,CuDef*%
%ADD31RoundRect,0.250000X0.475000X-0.250000X0.475000X0.250000X-0.475000X0.250000X-0.475000X-0.250000X0*%
%TD*%
%TA.AperFunction,SMDPad,CuDef*%
%ADD32FreePoly0,180.000000*%
%TD*%
%TA.AperFunction,SMDPad,CuDef*%
%ADD33FreePoly1,180.000000*%
%TD*%
%TA.AperFunction,SMDPad,CuDef*%
%ADD34FreePoly2,180.000000*%
%TD*%
%TA.AperFunction,SMDPad,CuDef*%
%ADD35FreePoly3,180.000000*%
%TD*%
%TA.AperFunction,SMDPad,CuDef*%
%ADD36RotRect,0.250000X0.250000X315.000000*%
%TD*%
%TA.AperFunction,SMDPad,CuDef*%
%ADD37RoundRect,0.200000X0.275000X-0.200000X0.275000X0.200000X-0.275000X0.200000X-0.275000X-0.200000X0*%
%TD*%
%TA.AperFunction,SMDPad,CuDef*%
%ADD38RoundRect,0.225000X-0.250000X0.225000X-0.250000X-0.225000X0.250000X-0.225000X0.250000X0.225000X0*%
%TD*%
%TA.AperFunction,SMDPad,CuDef*%
%ADD39RoundRect,0.140000X-0.140000X-0.170000X0.140000X-0.170000X0.140000X0.170000X-0.140000X0.170000X0*%
%TD*%
%TA.AperFunction,SMDPad,CuDef*%
%ADD40RoundRect,0.225000X0.250000X-0.225000X0.250000X0.225000X-0.250000X0.225000X-0.250000X-0.225000X0*%
%TD*%
%TA.AperFunction,SMDPad,CuDef*%
%ADD41R,3.000000X1.000000*%
%TD*%
%TA.AperFunction,SMDPad,CuDef*%
%ADD42RoundRect,0.150000X-0.150000X0.800000X-0.150000X-0.800000X0.150000X-0.800000X0.150000X0.800000X0*%
%TD*%
%TA.AperFunction,SMDPad,CuDef*%
%ADD43R,0.800000X0.650000*%
%TD*%
%TA.AperFunction,SMDPad,CuDef*%
%ADD44R,0.800000X0.500000*%
%TD*%
%TA.AperFunction,SMDPad,CuDef*%
%ADD45RoundRect,0.250000X-0.400000X-0.300000X0.400000X-0.300000X0.400000X0.300000X-0.400000X0.300000X0*%
%TD*%
%TA.AperFunction,SMDPad,CuDef*%
%ADD46RoundRect,0.250000X-0.650000X0.325000X-0.650000X-0.325000X0.650000X-0.325000X0.650000X0.325000X0*%
%TD*%
%TA.AperFunction,SMDPad,CuDef*%
%ADD47RoundRect,0.140000X-0.021213X0.219203X-0.219203X0.021213X0.021213X-0.219203X0.219203X-0.021213X0*%
%TD*%
%TA.AperFunction,SMDPad,CuDef*%
%ADD48FreePoly4,0.000000*%
%TD*%
%TA.AperFunction,SMDPad,CuDef*%
%ADD49FreePoly5,0.000000*%
%TD*%
%TA.AperFunction,SMDPad,CuDef*%
%ADD50RotRect,0.300000X0.300000X135.000000*%
%TD*%
%TA.AperFunction,SMDPad,CuDef*%
%ADD51FreePoly6,0.000000*%
%TD*%
%TA.AperFunction,SMDPad,CuDef*%
%ADD52FreePoly7,0.000000*%
%TD*%
%TA.AperFunction,SMDPad,CuDef*%
%ADD53RoundRect,0.135000X0.035355X-0.226274X0.226274X-0.035355X-0.035355X0.226274X-0.226274X0.035355X0*%
%TD*%
%TA.AperFunction,SMDPad,CuDef*%
%ADD54RoundRect,0.200000X0.335876X0.053033X0.053033X0.335876X-0.335876X-0.053033X-0.053033X-0.335876X0*%
%TD*%
%TA.AperFunction,SMDPad,CuDef*%
%ADD55RoundRect,0.075000X0.075000X0.200000X-0.075000X0.200000X-0.075000X-0.200000X0.075000X-0.200000X0*%
%TD*%
%TA.AperFunction,SMDPad,CuDef*%
%ADD56RoundRect,0.225000X-0.225000X-0.250000X0.225000X-0.250000X0.225000X0.250000X-0.225000X0.250000X0*%
%TD*%
%TA.AperFunction,SMDPad,CuDef*%
%ADD57R,0.800000X0.200000*%
%TD*%
%TA.AperFunction,SMDPad,CuDef*%
%ADD58R,0.200000X0.800000*%
%TD*%
%TA.AperFunction,SMDPad,CuDef*%
%ADD59R,4.700000X2.700000*%
%TD*%
%TA.AperFunction,SMDPad,CuDef*%
%ADD60RoundRect,0.140000X0.219203X0.021213X0.021213X0.219203X-0.219203X-0.021213X-0.021213X-0.219203X0*%
%TD*%
%TA.AperFunction,SMDPad,CuDef*%
%ADD61RoundRect,0.140000X0.021213X-0.219203X0.219203X-0.021213X-0.021213X0.219203X-0.219203X0.021213X0*%
%TD*%
%TA.AperFunction,SMDPad,CuDef*%
%ADD62FreePoly0,0.000000*%
%TD*%
%TA.AperFunction,SMDPad,CuDef*%
%ADD63FreePoly1,0.000000*%
%TD*%
%TA.AperFunction,SMDPad,CuDef*%
%ADD64FreePoly2,0.000000*%
%TD*%
%TA.AperFunction,SMDPad,CuDef*%
%ADD65FreePoly3,0.000000*%
%TD*%
%TA.AperFunction,SMDPad,CuDef*%
%ADD66RotRect,0.250000X0.250000X135.000000*%
%TD*%
%TA.AperFunction,ViaPad*%
%ADD67C,0.370000*%
%TD*%
%TA.AperFunction,ViaPad*%
%ADD68C,0.450000*%
%TD*%
%TA.AperFunction,ViaPad*%
%ADD69C,0.500000*%
%TD*%
%TA.AperFunction,ViaPad*%
%ADD70C,0.610000*%
%TD*%
%TA.AperFunction,ViaPad*%
%ADD71C,0.350000*%
%TD*%
%TA.AperFunction,Conductor*%
%ADD72C,0.181610*%
%TD*%
%TA.AperFunction,Conductor*%
%ADD73C,0.304800*%
%TD*%
%TA.AperFunction,Conductor*%
%ADD74C,0.152400*%
%TD*%
%TA.AperFunction,Conductor*%
%ADD75C,1.270000*%
%TD*%
%TA.AperFunction,Conductor*%
%ADD76C,0.800000*%
%TD*%
%TA.AperFunction,Conductor*%
%ADD77C,0.119888*%
%TD*%
%TA.AperFunction,Conductor*%
%ADD78C,0.400000*%
%TD*%
%TA.AperFunction,Conductor*%
%ADD79C,0.500000*%
%TD*%
%TA.AperFunction,Conductor*%
%ADD80C,0.171450*%
%TD*%
%TA.AperFunction,Conductor*%
%ADD81C,0.508000*%
%TD*%
G04 APERTURE END LIST*
D10*
%TO.P,U17,1,VBUS_1*%
%TO.N,/fpga/PCIE.SPARE*%
X61660000Y-99030000D03*
%TO.P,U17,2,D-_2*%
%TO.N,/PCIe/PCIESLOT.REFLCK_N*%
X64160000Y-99030000D03*
%TO.P,U17,3,D+_3*%
%TO.N,/PCIe/PCIESLOT.REFLCK_P*%
X66160000Y-99030000D03*
%TO.P,U17,4,GND_4*%
%TO.N,/fpga/PCIE.PERST_N*%
X68660000Y-99030000D03*
%TO.P,U17,5,SSRX-_5*%
%TO.N,/PCIe/PCISLOT.TX_P*%
X69160000Y-97530000D03*
%TO.P,U17,6,SSRX+_6*%
%TO.N,/PCIe/PCISLOT.TX_N*%
X67160000Y-97530000D03*
%TO.P,U17,7,GND_DRAN_7*%
%TO.N,GND*%
X65160000Y-97530000D03*
%TO.P,U17,8,SSTX-_8*%
%TO.N,/fpga/PCIE.RX_P*%
X63160000Y-97530000D03*
%TO.P,U17,9,SSTX+_9*%
%TO.N,/fpga/PCIE.RX_N*%
X61160000Y-97530000D03*
D11*
%TO.P,U17,10,SH_10*%
%TO.N,GND*%
X58590000Y-101130000D03*
X71730000Y-101130000D03*
%TD*%
D12*
%TO.P,USBC1,*%
%TO.N,*%
X75150000Y-106530000D03*
X80950000Y-106530000D03*
D13*
%TO.P,USBC1,1,EH_1*%
%TO.N,GND*%
X82380000Y-106030000D03*
D14*
%TO.P,USBC1,2,EH_2*%
X82380000Y-110210000D03*
%TO.P,USBC1,3,EH_3*%
X73720000Y-110210000D03*
D13*
%TO.P,USBC1,4,EH_4*%
X73720000Y-106030000D03*
%TD*%
D15*
%TO.P,VID1,20,SHIELD_20*%
%TO.N,GND*%
X34070000Y-107080000D03*
X34070000Y-110450000D03*
X40270000Y-107080000D03*
X40270000Y-110450000D03*
%TD*%
D16*
%TO.P,J4,1,Pin_1_1*%
%TO.N,+3V3*%
X34800000Y-79120000D03*
D17*
%TO.P,J4,2,Pin_2_2*%
%TO.N,/video/EXT.SDA*%
X34800000Y-81660000D03*
%TO.P,J4,3,Pin_3_3*%
%TO.N,/video/EXT.SCL*%
X34800000Y-84200000D03*
%TO.P,J4,4,Pin_4_4*%
%TO.N,GND*%
X34800000Y-86740000D03*
%TD*%
D16*
%TO.P,J2,1,Pin_1_1*%
%TO.N,GND*%
X31340000Y-60190000D03*
D17*
%TO.P,J2,2,Pin_2_2*%
%TO.N,+3V3*%
X31340000Y-57650000D03*
%TO.P,J2,3,Pin_3_3*%
%TO.N,+1V35*%
X31340000Y-55110000D03*
%TO.P,J2,4,Pin_4_4*%
%TO.N,+1V1*%
X31340000Y-52570000D03*
%TD*%
D18*
%TO.P,USBC2,0,0_0*%
%TO.N,GND*%
X46380000Y-105695088D03*
D19*
X46380000Y-111055088D03*
D18*
X55020000Y-105695088D03*
D19*
X55020000Y-111055088D03*
%TD*%
D20*
%TO.P,C51,1*%
%TO.N,+1V35*%
X73220000Y-25360000D03*
%TO.P,C51,2*%
%TO.N,GND*%
X75120000Y-25360000D03*
%TD*%
D21*
%TO.P,R45,1*%
%TO.N,GND*%
X63910624Y-60760624D03*
%TO.P,R45,2*%
%TO.N,Net-(U10special-MSEL0)*%
X63189376Y-60039376D03*
%TD*%
D22*
%TO.P,C53,1*%
%TO.N,+1V35*%
X63063200Y-25552400D03*
%TO.P,C53,2*%
%TO.N,GND*%
X61163200Y-25552400D03*
%TD*%
D23*
%TO.P,C63,1*%
%TO.N,+1V35*%
X57300000Y-35470000D03*
%TO.P,C63,2*%
%TO.N,GND*%
X57300000Y-36430000D03*
%TD*%
D24*
%TO.P,C107,1*%
%TO.N,+3V3*%
X62800000Y-66650000D03*
%TO.P,C107,2*%
%TO.N,GND*%
X61840000Y-66650000D03*
%TD*%
D25*
%TO.P,R40,1*%
%TO.N,/fpga/Net-(U6-CLK_OUT)*%
X83170000Y-51040000D03*
%TO.P,R40,2*%
%TO.N,/fpga/CLK0*%
X81520000Y-51040000D03*
%TD*%
D26*
%TO.P,R46,1*%
%TO.N,+3V3*%
X51270000Y-68510000D03*
%TO.P,R46,2*%
%TO.N,/fpga/Net-(U29-~{W}{slash}V_{PP})*%
X52920000Y-68510000D03*
%TD*%
D25*
%TO.P,R56,1*%
%TO.N,/Ethernet/Net-(U3-XTAL1{slash}CLKIN\u002A\u002A)*%
X84080000Y-101500000D03*
%TO.P,R56,2*%
%TO.N,/Ethernet/Net-(U3-XTAL2)*%
X82430000Y-101500000D03*
%TD*%
D24*
%TO.P,C110,1*%
%TO.N,+3V3*%
X69730000Y-67640000D03*
%TO.P,C110,2*%
%TO.N,GND*%
X68770000Y-67640000D03*
%TD*%
D25*
%TO.P,R34,1*%
%TO.N,GND*%
X68295000Y-25810000D03*
%TO.P,R34,2*%
%TO.N,/fpga/DRAM.RESET_N*%
X66645000Y-25810000D03*
%TD*%
D23*
%TO.P,C111,1*%
%TO.N,+3V3*%
X72780000Y-68590000D03*
%TO.P,C111,2*%
%TO.N,GND*%
X72780000Y-69550000D03*
%TD*%
D27*
%TO.P,C90,1*%
%TO.N,GND*%
X84825000Y-52600000D03*
%TO.P,C90,2*%
%TO.N,+3V3*%
X83275000Y-52600000D03*
%TD*%
D28*
%TO.P,C70,1*%
%TO.N,+1V35*%
X81310000Y-40570000D03*
%TO.P,C70,2*%
%TO.N,GND*%
X81310000Y-39610000D03*
%TD*%
D29*
%TO.P,R54,1*%
%TO.N,+3V3A_ETH*%
X77910000Y-100337500D03*
%TO.P,R54,2*%
%TO.N,Net-(L3-RCT)*%
X77910000Y-101987500D03*
%TD*%
D30*
%TO.P,FB4,1*%
%TO.N,+3V3*%
X76327500Y-98790000D03*
%TO.P,FB4,2*%
%TO.N,+3V3A_ETH*%
X78452500Y-98790000D03*
%TD*%
D24*
%TO.P,C91,1*%
%TO.N,+1V35*%
X64750000Y-52720000D03*
%TO.P,C91,2*%
%TO.N,GND*%
X63790000Y-52720000D03*
%TD*%
D31*
%TO.P,C83,1*%
%TO.N,+1V1_TX*%
X49700000Y-51670000D03*
%TO.P,C83,2*%
%TO.N,GND*%
X49700000Y-49770000D03*
%TD*%
D28*
%TO.P,C96,1*%
%TO.N,+1V1_TX*%
X59720000Y-57580000D03*
%TO.P,C96,2*%
%TO.N,GND*%
X59720000Y-56620000D03*
%TD*%
D32*
%TO.P,D2,1,IO1_1*%
%TO.N,GND*%
X40490000Y-103590000D03*
D33*
%TO.P,D2,2,IO2_2*%
%TO.N,/video/HDMIO.SCL*%
X40490000Y-104070000D03*
D34*
%TO.P,D2,3,IO3_3*%
%TO.N,/video/HDMIO.SDA*%
X39710000Y-104070000D03*
D35*
%TO.P,D2,4,IO4_4*%
%TO.N,/video/HDMIO.HPD*%
X39710000Y-103590000D03*
D36*
%TO.P,D2,5,GND_5*%
%TO.N,GND*%
X40100000Y-103830000D03*
%TD*%
D37*
%TO.P,R36,1*%
%TO.N,/ddr3/Net-(U1-ZQ)*%
X51770000Y-32550000D03*
%TO.P,R36,2*%
%TO.N,GND*%
X51770000Y-30900000D03*
%TD*%
D24*
%TO.P,C87,1*%
%TO.N,/fpga/HDMI.REFCLK_P*%
X56140000Y-51250000D03*
%TO.P,C87,2*%
%TO.N,Net-(U9-OUT)*%
X55180000Y-51250000D03*
%TD*%
D28*
%TO.P,C64,1*%
%TO.N,+1V35*%
X81290000Y-36480000D03*
%TO.P,C64,2*%
%TO.N,GND*%
X81290000Y-35520000D03*
%TD*%
D22*
%TO.P,C74,1*%
%TO.N,+1V35*%
X58999200Y-44907200D03*
%TO.P,C74,2*%
%TO.N,GND*%
X57099200Y-44907200D03*
%TD*%
D38*
%TO.P,C60,1*%
%TO.N,+0V675REF*%
X56550000Y-31790000D03*
%TO.P,C60,2*%
%TO.N,GND*%
X56550000Y-33340000D03*
%TD*%
D31*
%TO.P,C123,1*%
%TO.N,+1V8_ETH*%
X83140000Y-95340000D03*
%TO.P,C123,2*%
%TO.N,GND*%
X83140000Y-93440000D03*
%TD*%
D39*
%TO.P,C112,1*%
%TO.N,+3V3*%
X77790000Y-69170000D03*
%TO.P,C112,2*%
%TO.N,GND*%
X78750000Y-69170000D03*
%TD*%
D28*
%TO.P,C56,1*%
%TO.N,+1V35*%
X81260000Y-29210000D03*
%TO.P,C56,2*%
%TO.N,GND*%
X81260000Y-28250000D03*
%TD*%
D29*
%TO.P,R37,1*%
%TO.N,/fpga/DRAM.CKE*%
X51680000Y-33935000D03*
%TO.P,R37,2*%
%TO.N,GND*%
X51680000Y-35585000D03*
%TD*%
D39*
%TO.P,C80,1*%
%TO.N,+0V675REF*%
X64760000Y-49590000D03*
%TO.P,C80,2*%
%TO.N,GND*%
X65720000Y-49590000D03*
%TD*%
D23*
%TO.P,C65,1*%
%TO.N,+1V35*%
X55800000Y-36190000D03*
%TO.P,C65,2*%
%TO.N,GND*%
X55800000Y-37150000D03*
%TD*%
D24*
%TO.P,C129,1*%
%TO.N,+3V3A_ETH*%
X79310000Y-97140000D03*
%TO.P,C129,2*%
%TO.N,GND*%
X78350000Y-97140000D03*
%TD*%
D39*
%TO.P,C118,1*%
%TO.N,+3V3*%
X79510000Y-91770000D03*
%TO.P,C118,2*%
%TO.N,GND*%
X80470000Y-91770000D03*
%TD*%
%TO.P,C131,1*%
%TO.N,+3V3A_ETH*%
X81570000Y-98610000D03*
%TO.P,C131,2*%
%TO.N,GND*%
X82530000Y-98610000D03*
%TD*%
D40*
%TO.P,C106,1*%
%TO.N,+3V3*%
X85220000Y-67240000D03*
%TO.P,C106,2*%
%TO.N,GND*%
X85220000Y-65690000D03*
%TD*%
D27*
%TO.P,C114,1*%
%TO.N,/usb2/+1VA8*%
X85160000Y-71200000D03*
%TO.P,C114,2*%
%TO.N,GND*%
X83610000Y-71200000D03*
%TD*%
D38*
%TO.P,C78,1*%
%TO.N,+5V*%
X85520000Y-46110000D03*
%TO.P,C78,2*%
%TO.N,GND*%
X85520000Y-47660000D03*
%TD*%
D28*
%TO.P,C115,1*%
%TO.N,+3V3*%
X65160000Y-90560000D03*
%TO.P,C115,2*%
%TO.N,GND*%
X65160000Y-89600000D03*
%TD*%
D39*
%TO.P,C103,1*%
%TO.N,+1V1*%
X70790000Y-60590000D03*
%TO.P,C103,2*%
%TO.N,GND*%
X71750000Y-60590000D03*
%TD*%
D24*
%TO.P,C127,1*%
%TO.N,+1V8_ETH*%
X82975000Y-96840000D03*
%TO.P,C127,2*%
%TO.N,GND*%
X82015000Y-96840000D03*
%TD*%
D37*
%TO.P,R49,1*%
%TO.N,+3V3*%
X84920000Y-80880000D03*
%TO.P,R49,2*%
%TO.N,/usb2/Net-(U20-EXTVBUS)*%
X84920000Y-79230000D03*
%TD*%
D24*
%TO.P,C102,1*%
%TO.N,+3V3*%
X74800000Y-60500000D03*
%TO.P,C102,2*%
%TO.N,GND*%
X73840000Y-60500000D03*
%TD*%
D28*
%TO.P,C124,1*%
%TO.N,+1V8_ETH*%
X78010000Y-95600000D03*
%TO.P,C124,2*%
%TO.N,GND*%
X78010000Y-94640000D03*
%TD*%
D22*
%TO.P,C76,1*%
%TO.N,+1V35*%
X75530000Y-46110000D03*
%TO.P,C76,2*%
%TO.N,GND*%
X73630000Y-46110000D03*
%TD*%
D24*
%TO.P,C72,1*%
%TO.N,+1V35*%
X59471800Y-41402000D03*
%TO.P,C72,2*%
%TO.N,GND*%
X58511800Y-41402000D03*
%TD*%
D31*
%TO.P,C120,1*%
%TO.N,+3V3A_PCIE*%
X73580000Y-93630000D03*
%TO.P,C120,2*%
%TO.N,GND*%
X73580000Y-91730000D03*
%TD*%
D24*
%TO.P,C93,1*%
%TO.N,+2V5_TX*%
X60210000Y-54970000D03*
%TO.P,C93,2*%
%TO.N,GND*%
X59250000Y-54970000D03*
%TD*%
D27*
%TO.P,C128,1*%
%TO.N,/video/Net-(U4-EN)*%
X32820000Y-97020000D03*
%TO.P,C128,2*%
%TO.N,GND*%
X31270000Y-97020000D03*
%TD*%
D20*
%TO.P,C73,1*%
%TO.N,+1V35*%
X50713600Y-42316400D03*
%TO.P,C73,2*%
%TO.N,GND*%
X52613600Y-42316400D03*
%TD*%
D28*
%TO.P,C99,1*%
%TO.N,+1V1*%
X66870000Y-59430000D03*
%TO.P,C99,2*%
%TO.N,GND*%
X66870000Y-58470000D03*
%TD*%
D31*
%TO.P,C84,1*%
%TO.N,+2V5_TX*%
X47700000Y-51680000D03*
%TO.P,C84,2*%
%TO.N,GND*%
X47700000Y-49780000D03*
%TD*%
D37*
%TO.P,R51,1*%
%TO.N,/video/Net-(U26-SD1)*%
X42380000Y-95120000D03*
%TO.P,R51,2*%
%TO.N,+3V3*%
X42380000Y-93470000D03*
%TD*%
D39*
%TO.P,C79,1*%
%TO.N,+1V35*%
X76530000Y-49410000D03*
%TO.P,C79,2*%
%TO.N,GND*%
X77490000Y-49410000D03*
%TD*%
D24*
%TO.P,C71,1*%
%TO.N,+1V35*%
X74960000Y-41360000D03*
%TO.P,C71,2*%
%TO.N,GND*%
X74000000Y-41360000D03*
%TD*%
D41*
%TO.P,J6,1,Pin_1_1*%
%TO.N,GND*%
X37480000Y-29520000D03*
%TO.P,J6,2,Pin_2_2*%
X42520000Y-29520000D03*
%TO.P,J6,3,Pin_3_3*%
%TO.N,+5V*%
X37480000Y-32060000D03*
%TO.P,J6,4,Pin_4_4*%
%TO.N,/fpga/CT.BR_N*%
X42520000Y-32060000D03*
%TO.P,J6,5,Pin_5_5*%
%TO.N,/fpga/CT.TS_N*%
X37480000Y-34600000D03*
%TO.P,J6,6,Pin_6_6*%
%TO.N,/fpga/CT.BG_N*%
X42520000Y-34600000D03*
%TO.P,J6,7,Pin_7_7*%
%TO.N,/fpga/CT.RW*%
X37480000Y-37140000D03*
%TO.P,J6,8,Pin_8_8*%
%TO.N,/fpga/CT.BB_N*%
X42520000Y-37140000D03*
%TO.P,J6,9,Pin_9_9*%
%TO.N,/fpga/CT.SIZ0*%
X37480000Y-39680000D03*
%TO.P,J6,10,Pin_10_10*%
%TO.N,/fpga/CT.SIZ1*%
X42520000Y-39680000D03*
%TO.P,J6,11,Pin_11_11*%
%TO.N,/fpga/CT.TA_N*%
X37480000Y-42220000D03*
%TO.P,J6,12,Pin_12_12*%
%TO.N,/fpga/CT.TEA_N*%
X42520000Y-42220000D03*
%TO.P,J6,13,Pin_13_13*%
%TO.N,/fpga/CT.DTKCMB_N*%
X37480000Y-44760000D03*
%TO.P,J6,14,Pin_14_14*%
%TO.N,Net-(J6-Pin_14)*%
X42520000Y-44760000D03*
%TO.P,J6,15,Pin_15_15*%
%TO.N,/fpga/CT.RST_N*%
X37480000Y-47300000D03*
%TO.P,J6,16,Pin_16_16*%
%TO.N,GND*%
X42520000Y-47300000D03*
%TO.P,J6,17,Pin_17_17*%
%TO.N,/fpga/CT.A30*%
X37480000Y-49840000D03*
%TO.P,J6,18,Pin_18_18*%
%TO.N,/fpga/CT.A31*%
X42520000Y-49840000D03*
%TO.P,J6,19,Pin_19_19*%
%TO.N,/fpga/CT.A28*%
X37480000Y-52380000D03*
%TO.P,J6,20,Pin_20_20*%
%TO.N,/fpga/CT.A29*%
X42520000Y-52380000D03*
%TO.P,J6,21,Pin_21_21*%
%TO.N,/fpga/CT.A26*%
X37480000Y-54920000D03*
%TO.P,J6,22,Pin_22_22*%
%TO.N,/fpga/CT.A27*%
X42520000Y-54920000D03*
%TO.P,J6,23,Pin_23_23*%
%TO.N,/fpga/CT.A24*%
X37480000Y-57460000D03*
%TO.P,J6,24,Pin_24_24*%
%TO.N,/fpga/CT.A25*%
X42520000Y-57460000D03*
%TO.P,J6,25,Pin_25_25*%
%TO.N,/fpga/CT.A22*%
X37480000Y-60000000D03*
%TO.P,J6,26,Pin_26_26*%
%TO.N,/fpga/CT.A23*%
X42520000Y-60000000D03*
%TO.P,J6,27,Pin_27_27*%
%TO.N,/fpga/CT.A20*%
X37480000Y-62540000D03*
%TO.P,J6,28,Pin_28_28*%
%TO.N,/fpga/CT.A21*%
X42520000Y-62540000D03*
%TO.P,J6,29,Pin_29_29*%
%TO.N,/fpga/CT.A18*%
X37480000Y-65080000D03*
%TO.P,J6,30,Pin_30_30*%
%TO.N,/fpga/CT.A19*%
X42520000Y-65080000D03*
%TO.P,J6,31,Pin_31_31*%
%TO.N,/fpga/CT.A16*%
X37480000Y-67620000D03*
%TO.P,J6,32,Pin_32_32*%
%TO.N,/fpga/CT.A17*%
X42520000Y-67620000D03*
%TO.P,J6,33,Pin_33_33*%
%TO.N,/fpga/CT.A14*%
X37480000Y-70160000D03*
%TO.P,J6,34,Pin_34_34*%
%TO.N,/fpga/CT.A15*%
X42520000Y-70160000D03*
%TO.P,J6,35,Pin_35_35*%
%TO.N,/fpga/CT.A12*%
X37480000Y-72700000D03*
%TO.P,J6,36,Pin_36_36*%
%TO.N,/fpga/CT.A13*%
X42520000Y-72700000D03*
%TO.P,J6,37,Pin_37_37*%
%TO.N,/fpga/CT.A10*%
X37480000Y-75240000D03*
%TO.P,J6,38,Pin_38_38*%
%TO.N,/fpga/CT.A11*%
X42520000Y-75240000D03*
%TO.P,J6,39,Pin_39_39*%
%TO.N,/fpga/CT.A8*%
X37480000Y-77780000D03*
%TO.P,J6,40,Pin_40_40*%
%TO.N,/fpga/CT.A9*%
X42520000Y-77780000D03*
%TO.P,J6,41,Pin_41_41*%
%TO.N,/fpga/CT.A6*%
X37480000Y-80320000D03*
%TO.P,J6,42,Pin_42_42*%
%TO.N,/fpga/CT.A7*%
X42520000Y-80320000D03*
%TO.P,J6,43,Pin_43_43*%
%TO.N,/fpga/CT.A4*%
X37480000Y-82860000D03*
%TO.P,J6,44,Pin_44_44*%
%TO.N,/fpga/CT.A5*%
X42520000Y-82860000D03*
%TO.P,J6,45,Pin_45_45*%
%TO.N,/fpga/CT.A2*%
X37480000Y-85400000D03*
%TO.P,J6,46,Pin_46_46*%
%TO.N,/fpga/CT.A3*%
X42520000Y-85400000D03*
%TO.P,J6,47,Pin_47_47*%
%TO.N,/fpga/CT.A0*%
X37480000Y-87940000D03*
%TO.P,J6,48,Pin_48_48*%
%TO.N,/fpga/CT.A1*%
X42520000Y-87940000D03*
%TO.P,J6,49,Pin_49_49*%
%TO.N,GND*%
X37480000Y-90480000D03*
%TO.P,J6,50,Pin_50_50*%
X42520000Y-90480000D03*
%TD*%
D28*
%TO.P,C68,1*%
%TO.N,+1V35*%
X57300000Y-38640000D03*
%TO.P,C68,2*%
%TO.N,GND*%
X57300000Y-37680000D03*
%TD*%
D37*
%TO.P,R35,1*%
%TO.N,/ddr3/Net-(U2-ZQ)*%
X72670000Y-32445000D03*
%TO.P,R35,2*%
%TO.N,GND*%
X72670000Y-30795000D03*
%TD*%
D38*
%TO.P,C136,1*%
%TO.N,GND*%
X85800000Y-101095000D03*
%TO.P,C136,2*%
%TO.N,/Ethernet/Net-(U3-XTAL1{slash}CLKIN\u002A\u002A)*%
X85800000Y-102645000D03*
%TD*%
D28*
%TO.P,C55,1*%
%TO.N,+1V35*%
X52374800Y-29182000D03*
%TO.P,C55,2*%
%TO.N,GND*%
X52374800Y-28222000D03*
%TD*%
D42*
%TO.P,U19,1,~{S}/~{CS}_1*%
%TO.N,/fpga/Net-(U29-~{S}{slash}~{CS})*%
X50240000Y-70460000D03*
%TO.P,U19,2,DQ1/SO_2*%
%TO.N,/fpga/Net-(U29-DQ1{slash}SO)*%
X51510000Y-70460000D03*
%TO.P,U19,3,~{W}/V_{PP}_3*%
%TO.N,/fpga/Net-(U29-~{W}{slash}V_{PP})*%
X52780000Y-70460000D03*
%TO.P,U19,4,V_{SS}_4*%
%TO.N,GND*%
X54050000Y-70460000D03*
%TO.P,U19,5,DQ0/SI_5*%
%TO.N,/fpga/Net-(U29-DQ0{slash}SI)*%
X54050000Y-77460000D03*
%TO.P,U19,6,C/CLK_6*%
%TO.N,/fpga/Net-(U29-C{slash}CLK)*%
X52780000Y-77460000D03*
%TO.P,U19,7,~{HOLD}_7*%
%TO.N,/fpga/Net-(U29-~{HOLD})*%
X51510000Y-77460000D03*
%TO.P,U19,8,V_{CC}_8*%
%TO.N,+3V3*%
X50240000Y-77460000D03*
%TD*%
D27*
%TO.P,C133,1*%
%TO.N,+3V3*%
X32840000Y-100180000D03*
%TO.P,C133,2*%
%TO.N,GND*%
X31290000Y-100180000D03*
%TD*%
D25*
%TO.P,R38,1*%
%TO.N,GND*%
X75420000Y-44130000D03*
%TO.P,R38,2*%
%TO.N,/fpga/DRAM.RZQ*%
X73770000Y-44130000D03*
%TD*%
D20*
%TO.P,C54,1*%
%TO.N,+1V35*%
X50728800Y-25552400D03*
%TO.P,C54,2*%
%TO.N,GND*%
X52628800Y-25552400D03*
%TD*%
%TO.P,C75,1*%
%TO.N,+1V35*%
X80040000Y-46090000D03*
%TO.P,C75,2*%
%TO.N,GND*%
X81940000Y-46090000D03*
%TD*%
D41*
%TO.P,J5,1,Pin_1_1*%
%TO.N,GND*%
X90480000Y-29520000D03*
%TO.P,J5,2,Pin_2_2*%
X95520000Y-29520000D03*
%TO.P,J5,3,Pin_3_3*%
%TO.N,/fpga/CT.TM0*%
X90480000Y-32060000D03*
%TO.P,J5,4,Pin_4_4*%
%TO.N,/expansion/unconnected-(J3-Pin_3-Pad3)*%
X95520000Y-32060000D03*
%TO.P,J5,5,Pin_5_5*%
%TO.N,/fpga/CT.TM1*%
X90480000Y-34600000D03*
%TO.P,J5,6,Pin_6_6*%
%TO.N,/expansion/unconnected-(J3-Pin_5-Pad5)*%
X95520000Y-34600000D03*
%TO.P,J5,7,Pin_7_7*%
%TO.N,/fpga/CT.TM2*%
X90480000Y-37140000D03*
%TO.P,J5,8,Pin_8_8*%
%TO.N,+3V3*%
X95520000Y-37140000D03*
%TO.P,J5,9,Pin_9_9*%
%TO.N,/fpga/CT.TT0*%
X90480000Y-39680000D03*
%TO.P,J5,10,Pin_10_10*%
%TO.N,/fpga/CT.TT1*%
X95520000Y-39680000D03*
%TO.P,J5,11,Pin_11_11*%
%TO.N,/fpga/CT.BS_N0*%
X90480000Y-42220000D03*
%TO.P,J5,12,Pin_12_12*%
%TO.N,/fpga/CT.BS_N1*%
X95520000Y-42220000D03*
%TO.P,J5,13,Pin_13_13*%
%TO.N,/fpga/CT.BS_N2*%
X90480000Y-44760000D03*
%TO.P,J5,14,Pin_14_14*%
%TO.N,/fpga/CT.BS_N3*%
X95520000Y-44760000D03*
%TO.P,J5,15,Pin_15_15*%
%TO.N,/fpga/CT.I6_N*%
X90480000Y-47300000D03*
%TO.P,J5,16,Pin_16_16*%
%TO.N,/expansion/unconnected-(J3-Pin_15-Pad15)*%
X95520000Y-47300000D03*
%TO.P,J5,17,Pin_17_17*%
%TO.N,/fpga/CT.D0*%
X90480000Y-49840000D03*
%TO.P,J5,18,Pin_18_18*%
%TO.N,/fpga/CT.D1*%
X95520000Y-49840000D03*
%TO.P,J5,19,Pin_19_19*%
%TO.N,/fpga/CT.D2*%
X90480000Y-52380000D03*
%TO.P,J5,20,Pin_20_20*%
%TO.N,/fpga/CT.D3*%
X95520000Y-52380000D03*
%TO.P,J5,21,Pin_21_21*%
%TO.N,/fpga/CT.D4*%
X90480000Y-54920000D03*
%TO.P,J5,22,Pin_22_22*%
%TO.N,/fpga/CT.D5*%
X95520000Y-54920000D03*
%TO.P,J5,23,Pin_23_23*%
%TO.N,/fpga/CT.D6*%
X90480000Y-57460000D03*
%TO.P,J5,24,Pin_24_24*%
%TO.N,/fpga/CT.D7*%
X95520000Y-57460000D03*
%TO.P,J5,25,Pin_25_25*%
%TO.N,/fpga/CT.D8*%
X90480000Y-60000000D03*
%TO.P,J5,26,Pin_26_26*%
%TO.N,/fpga/CT.D9*%
X95520000Y-60000000D03*
%TO.P,J5,27,Pin_27_27*%
%TO.N,/fpga/CT.D10*%
X90480000Y-62540000D03*
%TO.P,J5,28,Pin_28_28*%
%TO.N,/fpga/CT.D11*%
X95520000Y-62540000D03*
%TO.P,J5,29,Pin_29_29*%
%TO.N,/fpga/CT.D12*%
X90480000Y-65080000D03*
%TO.P,J5,30,Pin_30_30*%
%TO.N,/fpga/CT.D13*%
X95520000Y-65080000D03*
%TO.P,J5,31,Pin_31_31*%
%TO.N,/fpga/CT.D14*%
X90480000Y-67620000D03*
%TO.P,J5,32,Pin_32_32*%
%TO.N,/fpga/CT.D15*%
X95520000Y-67620000D03*
%TO.P,J5,33,Pin_33_33*%
%TO.N,/fpga/CT.D16*%
X90480000Y-70160000D03*
%TO.P,J5,34,Pin_34_34*%
%TO.N,/fpga/CT.D17*%
X95520000Y-70160000D03*
%TO.P,J5,35,Pin_35_35*%
%TO.N,/fpga/CT.D18*%
X90480000Y-72700000D03*
%TO.P,J5,36,Pin_36_36*%
%TO.N,/fpga/CT.D19*%
X95520000Y-72700000D03*
%TO.P,J5,37,Pin_37_37*%
%TO.N,/fpga/CT.D20*%
X90480000Y-75240000D03*
%TO.P,J5,38,Pin_38_38*%
%TO.N,/fpga/CT.D21*%
X95520000Y-75240000D03*
%TO.P,J5,39,Pin_39_39*%
%TO.N,/fpga/CT.D22*%
X90480000Y-77780000D03*
%TO.P,J5,40,Pin_40_40*%
%TO.N,/fpga/CT.D23*%
X95520000Y-77780000D03*
%TO.P,J5,41,Pin_41_41*%
%TO.N,/fpga/CT.D24*%
X90480000Y-80320000D03*
%TO.P,J5,42,Pin_42_42*%
%TO.N,/fpga/CT.D25*%
X95520000Y-80320000D03*
%TO.P,J5,43,Pin_43_43*%
%TO.N,/fpga/CT.D26*%
X90480000Y-82860000D03*
%TO.P,J5,44,Pin_44_44*%
%TO.N,/fpga/CT.D27*%
X95520000Y-82860000D03*
%TO.P,J5,45,Pin_45_45*%
%TO.N,/fpga/CT.D28*%
X90480000Y-85400000D03*
%TO.P,J5,46,Pin_46_46*%
%TO.N,/fpga/CT.D29*%
X95520000Y-85400000D03*
%TO.P,J5,47,Pin_47_47*%
%TO.N,/fpga/CT.D30*%
X90480000Y-87940000D03*
%TO.P,J5,48,Pin_48_48*%
%TO.N,/fpga/CT.D31*%
X95520000Y-87940000D03*
%TO.P,J5,49,Pin_49_49*%
%TO.N,GND*%
X90480000Y-90480000D03*
%TO.P,J5,50,Pin_50_50*%
X95520000Y-90480000D03*
%TD*%
D40*
%TO.P,C132,1*%
%TO.N,+3V3*%
X41840000Y-100700000D03*
%TO.P,C132,2*%
%TO.N,GND*%
X41840000Y-99150000D03*
%TD*%
D28*
%TO.P,C67,1*%
%TO.N,+1V35*%
X52400000Y-37810000D03*
%TO.P,C67,2*%
%TO.N,GND*%
X52400000Y-36850000D03*
%TD*%
D23*
%TO.P,C69,1*%
%TO.N,+1V35*%
X52374800Y-39194800D03*
%TO.P,C69,2*%
%TO.N,GND*%
X52374800Y-40154800D03*
%TD*%
D20*
%TO.P,C52,1*%
%TO.N,+1V35*%
X78850000Y-25400000D03*
%TO.P,C52,2*%
%TO.N,GND*%
X80750000Y-25400000D03*
%TD*%
D22*
%TO.P,C134,1*%
%TO.N,+3V3A_ETH*%
X76400000Y-100660000D03*
%TO.P,C134,2*%
%TO.N,GND*%
X74500000Y-100660000D03*
%TD*%
D29*
%TO.P,R47,1*%
%TO.N,/fpga/Net-(U29-DQ1{slash}SO)*%
X56510000Y-71850000D03*
%TO.P,R47,2*%
%TO.N,/fpga/Net-(U5special-AS_DATA1)*%
X56510000Y-73500000D03*
%TD*%
%TO.P,R52,1*%
%TO.N,Net-(L3-TXCT)*%
X95770000Y-97285000D03*
%TO.P,R52,2*%
%TO.N,/Ethernet/Net-(C4-Pad1)*%
X95770000Y-98935000D03*
%TD*%
D39*
%TO.P,C97,1*%
%TO.N,+3V3*%
X74760000Y-57630000D03*
%TO.P,C97,2*%
%TO.N,GND*%
X75720000Y-57630000D03*
%TD*%
D27*
%TO.P,C130,1*%
%TO.N,+3V3*%
X32820000Y-98560000D03*
%TO.P,C130,2*%
%TO.N,GND*%
X31270000Y-98560000D03*
%TD*%
D43*
%TO.P,RN7,1,1_1*%
%TO.N,/Ethernet/TPO_N*%
X90480000Y-100290000D03*
D44*
%TO.P,RN7,2,2_2*%
%TO.N,/Ethernet/TPO_P*%
X90480000Y-99490000D03*
%TO.P,RN7,3,3_3*%
%TO.N,/Ethernet/TPI_N*%
X90480000Y-98690000D03*
D43*
%TO.P,RN7,4,4_4*%
%TO.N,/Ethernet/TPI_P*%
X90480000Y-97890000D03*
%TO.P,RN7,5,5_5*%
%TO.N,+3V3A_ETH*%
X92080000Y-97890000D03*
D44*
%TO.P,RN7,6,6_6*%
X92080000Y-98690000D03*
%TO.P,RN7,7,7_7*%
X92080000Y-99490000D03*
D43*
%TO.P,RN7,8,8_8*%
X92080000Y-100290000D03*
%TD*%
D28*
%TO.P,C58,1*%
%TO.N,+1V35*%
X73070000Y-29330000D03*
%TO.P,C58,2*%
%TO.N,GND*%
X73070000Y-28370000D03*
%TD*%
%TO.P,C100,1*%
%TO.N,+1V1*%
X68760000Y-59530000D03*
%TO.P,C100,2*%
%TO.N,GND*%
X68760000Y-58570000D03*
%TD*%
D23*
%TO.P,C108,1*%
%TO.N,+2V5_TX*%
X74760000Y-66590000D03*
%TO.P,C108,2*%
%TO.N,GND*%
X74760000Y-67550000D03*
%TD*%
D39*
%TO.P,C82,1*%
%TO.N,+1V35*%
X69300000Y-49970000D03*
%TO.P,C82,2*%
%TO.N,GND*%
X70260000Y-49970000D03*
%TD*%
D45*
%TO.P,Y4,1,EN_1*%
%TO.N,+3V3*%
X82800000Y-54250000D03*
%TO.P,Y4,2,GND_2*%
%TO.N,GND*%
X84900000Y-54250000D03*
%TO.P,Y4,3,OUT_3*%
%TO.N,/fpga/Net-(Y6-OUT)*%
X84900000Y-55900000D03*
%TO.P,Y4,4,Vdd_4*%
%TO.N,+3V3*%
X82800000Y-55900000D03*
%TD*%
D46*
%TO.P,C137,1*%
%TO.N,/Ethernet/Net-(C4-Pad1)*%
X92210000Y-102420000D03*
%TO.P,C137,2*%
%TO.N,GND*%
X92210000Y-105370000D03*
%TD*%
D27*
%TO.P,C113,1*%
%TO.N,/usb2/+1V8*%
X85475000Y-69580000D03*
%TO.P,C113,2*%
%TO.N,GND*%
X83925000Y-69580000D03*
%TD*%
D28*
%TO.P,C57,1*%
%TO.N,+1V35*%
X60470000Y-29290000D03*
%TO.P,C57,2*%
%TO.N,GND*%
X60470000Y-28330000D03*
%TD*%
D47*
%TO.P,C89,1*%
%TO.N,+2V5*%
X70760000Y-51570000D03*
%TO.P,C89,2*%
%TO.N,GND*%
X70081178Y-52248822D03*
%TD*%
D23*
%TO.P,C62,1*%
%TO.N,+1V35*%
X73170000Y-34800000D03*
%TO.P,C62,2*%
%TO.N,GND*%
X73170000Y-35760000D03*
%TD*%
D48*
%TO.P,U18,1,CLK_IN_1*%
%TO.N,/fpga/Net-(U6-CLK_IN)*%
X85060000Y-50570000D03*
D49*
%TO.P,U18,2,VDD_OUT_2*%
%TO.N,+1V35*%
X85060000Y-51150000D03*
D50*
%TO.P,U18,3,GND_3*%
%TO.N,GND*%
X84710000Y-50860000D03*
D51*
%TO.P,U18,4,CLK_OUT_4*%
%TO.N,/fpga/Net-(U6-CLK_OUT)*%
X84360000Y-51150000D03*
D52*
%TO.P,U18,5,VDD_IN_5*%
%TO.N,+3V3*%
X84360000Y-50570000D03*
%TD*%
D28*
%TO.P,C126,1*%
%TO.N,+3V3A_ETH*%
X80490000Y-97300000D03*
%TO.P,C126,2*%
%TO.N,GND*%
X80490000Y-96340000D03*
%TD*%
D53*
%TO.P,R44,1*%
%TO.N,+3V3*%
X62299376Y-59090624D03*
%TO.P,R44,2*%
%TO.N,Net-(U10special-MSEL0)*%
X63020624Y-58369376D03*
%TD*%
D29*
%TO.P,R57,1*%
%TO.N,Net-(J6-Pin_14)*%
X45480000Y-45725000D03*
%TO.P,R57,2*%
%TO.N,/fpga/CT.CLK*%
X45480000Y-47375000D03*
%TD*%
D38*
%TO.P,C61,1*%
%TO.N,+0V675REF*%
X77120000Y-32090000D03*
%TO.P,C61,2*%
%TO.N,GND*%
X77120000Y-33640000D03*
%TD*%
D54*
%TO.P,R41,1*%
%TO.N,+3V3*%
X64903363Y-57593363D03*
%TO.P,R41,2*%
%TO.N,/fpga/Net-(U5special-CONF_DONE)*%
X63736637Y-56426637D03*
%TD*%
D38*
%TO.P,C135,1*%
%TO.N,GND*%
X79420000Y-100390000D03*
%TO.P,C135,2*%
%TO.N,Net-(L3-RCT)*%
X79420000Y-101940000D03*
%TD*%
D28*
%TO.P,C94,1*%
%TO.N,+2V5_TX*%
X75700000Y-55550000D03*
%TO.P,C94,2*%
%TO.N,GND*%
X75700000Y-54590000D03*
%TD*%
D29*
%TO.P,R42,1*%
%TO.N,/fpga/Net-(Y6-OUT)*%
X83960000Y-57535000D03*
%TO.P,R42,2*%
%TO.N,/fpga/CLK1*%
X83960000Y-59185000D03*
%TD*%
D24*
%TO.P,C98,1*%
%TO.N,+1V1*%
X70770000Y-57630000D03*
%TO.P,C98,2*%
%TO.N,GND*%
X69810000Y-57630000D03*
%TD*%
D55*
%TO.P,U21,1,IO1_1*%
%TO.N,/video/HDMIO.D0P*%
X35510000Y-103606578D03*
%TO.P,U21,2,IO2_2*%
%TO.N,/video/HDMIO.D0N*%
X35010000Y-103606578D03*
%TO.P,U21,3,G_3*%
%TO.N,GND*%
X34510000Y-103606578D03*
%TO.P,U21,4,IO3_4*%
%TO.N,/video/HDMIO.CKP*%
X34010000Y-103606578D03*
%TO.P,U21,5,IO4_5*%
%TO.N,/video/HDMIO.CKN*%
X33510000Y-103606578D03*
%TO.P,U21,6,NC_6*%
X33510000Y-102836578D03*
%TO.P,U21,7,NC_7*%
%TO.N,/video/HDMIO.CKP*%
X34010000Y-102836578D03*
%TO.P,U21,8,G_8*%
%TO.N,GND*%
X34510000Y-102836578D03*
%TO.P,U21,9,NC_9*%
%TO.N,/video/HDMIO.D0N*%
X35010000Y-102836578D03*
%TO.P,U21,10,NC_10*%
%TO.N,/video/HDMIO.D0P*%
X35510000Y-102836578D03*
%TD*%
D26*
%TO.P,R48,1*%
%TO.N,+3V3*%
X49920000Y-80010000D03*
%TO.P,R48,2*%
%TO.N,/fpga/Net-(U29-~{HOLD})*%
X51570000Y-80010000D03*
%TD*%
D23*
%TO.P,C59,1*%
%TO.N,+1V35*%
X81290000Y-30820000D03*
%TO.P,C59,2*%
%TO.N,GND*%
X81290000Y-31780000D03*
%TD*%
D29*
%TO.P,R43,1*%
%TO.N,/fpga/Net-(Y6-OUT)*%
X85450000Y-57545000D03*
%TO.P,R43,2*%
%TO.N,/fpga/Net-(U6-CLK_IN)*%
X85450000Y-59195000D03*
%TD*%
D23*
%TO.P,C109,1*%
%TO.N,+2V5_TX*%
X63790000Y-66620000D03*
%TO.P,C109,2*%
%TO.N,GND*%
X63790000Y-67580000D03*
%TD*%
D39*
%TO.P,C117,1*%
%TO.N,+3V3*%
X82460000Y-91730000D03*
%TO.P,C117,2*%
%TO.N,GND*%
X83420000Y-91730000D03*
%TD*%
D38*
%TO.P,C77,1*%
%TO.N,+1V35*%
X83970000Y-46100000D03*
%TO.P,C77,2*%
%TO.N,GND*%
X83970000Y-47650000D03*
%TD*%
D39*
%TO.P,C95,1*%
%TO.N,+1V35*%
X64300000Y-55070000D03*
%TO.P,C95,2*%
%TO.N,GND*%
X65260000Y-55070000D03*
%TD*%
D26*
%TO.P,R50,1*%
%TO.N,+3V3*%
X49870000Y-82080000D03*
%TO.P,R50,2*%
%TO.N,/fpga/Net-(U29-~{S}{slash}~{CS})*%
X51520000Y-82080000D03*
%TD*%
D56*
%TO.P,C125,1*%
%TO.N,+3V3*%
X41360000Y-96790000D03*
%TO.P,C125,2*%
%TO.N,GND*%
X42910000Y-96790000D03*
%TD*%
D23*
%TO.P,C105,1*%
%TO.N,+1V1_TX*%
X59880000Y-61580000D03*
%TO.P,C105,2*%
%TO.N,GND*%
X59880000Y-62540000D03*
%TD*%
D37*
%TO.P,R53,1*%
%TO.N,GND*%
X80950000Y-101950000D03*
%TO.P,R53,2*%
%TO.N,/Ethernet/Net-(U3-EXRES)*%
X80950000Y-100300000D03*
%TD*%
D23*
%TO.P,C86,1*%
%TO.N,+2V5*%
X66600000Y-50640000D03*
%TO.P,C86,2*%
%TO.N,GND*%
X66600000Y-51600000D03*
%TD*%
D57*
%TO.P,U20,1,VCC_1*%
%TO.N,+3V3*%
X34480000Y-100520000D03*
%TO.P,U20,2,RCLKOUTp_2*%
%TO.N,/video/unconnected-(U4-RCLKOUTp-Pad2)*%
X34480000Y-100120000D03*
%TO.P,U20,3,RCLKOUTn_3*%
%TO.N,/video/unconnected-(U4-RCLKOUTn-Pad3)*%
X34480000Y-99720000D03*
%TO.P,U20,4,CTLEMAP_SEL_4*%
%TO.N,/video/unconnected-(U4-CTLEMAP_SEL-Pad4)*%
X34480000Y-99320000D03*
%TO.P,U20,5,LINEAR_EN_5*%
%TO.N,/video/unconnected-(U4-LINEAR_EN-Pad5)*%
X34480000Y-98920000D03*
%TO.P,U20,6,VCC_6*%
%TO.N,+3V3*%
X34480000Y-98520000D03*
%TO.P,U20,7,EN_7*%
%TO.N,/video/Net-(U4-EN)*%
X34480000Y-98120000D03*
%TO.P,U20,8,EQ1_8*%
%TO.N,/video/unconnected-(U4-EQ1-Pad8)*%
X34480000Y-97720000D03*
D58*
%TO.P,U20,9,IN_CLKn_9*%
%TO.N,/video/AC.CLK_N*%
X35280000Y-97120000D03*
%TO.P,U20,10,IN_CLKp_10*%
%TO.N,/video/AC.CLK_P*%
X35680000Y-97120000D03*
%TO.P,U20,11,HPD_OUT_11*%
%TO.N,/video/unconnected-(U4-HPD_OUT-Pad11)*%
X36080000Y-97120000D03*
%TO.P,U20,12,IN_D0n_12*%
%TO.N,/video/AC.TX_N0*%
X36480000Y-97120000D03*
%TO.P,U20,13,IN_D0p_13*%
%TO.N,/video/AC.TX_P0*%
X36880000Y-97120000D03*
%TO.P,U20,14,VIO_14*%
%TO.N,+3V3*%
X37280000Y-97120000D03*
%TO.P,U20,15,IN_D1n_15*%
%TO.N,/video/AC.TX_N1*%
X37680000Y-97120000D03*
%TO.P,U20,16,IN_D1p_16*%
%TO.N,/video/AC.TX_P1*%
X38080000Y-97120000D03*
%TO.P,U20,17,MODE_17*%
%TO.N,/video/unconnected-(U4-MODE-Pad17)*%
X38480000Y-97120000D03*
%TO.P,U20,18,IN_D2n_18*%
%TO.N,/video/AC.TX_N2*%
X38880000Y-97120000D03*
%TO.P,U20,19,IN_D2p_19*%
%TO.N,/video/AC.TX_P2*%
X39280000Y-97120000D03*
%TO.P,U20,20,VCC_20*%
%TO.N,+3V3*%
X39680000Y-97120000D03*
D57*
%TO.P,U20,21,SCL/CFG0_21*%
%TO.N,/video/Net-(U26-SC1)*%
X40480000Y-97720000D03*
%TO.P,U20,22,SDA/CFG1_22*%
%TO.N,/video/Net-(U26-SD1)*%
X40480000Y-98120000D03*
%TO.P,U20,23,AC_EN_23*%
%TO.N,GND*%
X40480000Y-98520000D03*
%TO.P,U20,24,LV_DDC_SCL_24*%
%TO.N,/video/unconnected-(U4-LV_DDC_SCL-Pad24)*%
X40480000Y-98920000D03*
%TO.P,U20,25,LV_DDC_SDA_25*%
%TO.N,/video/unconnected-(U4-LV_DDC_SDA-Pad25)*%
X40480000Y-99320000D03*
%TO.P,U20,26,SIGDET_OUT_26*%
%TO.N,/video/unconnected-(U4-SIGDET_OUT-Pad26)*%
X40480000Y-99720000D03*
%TO.P,U20,27,DCGAIN_27*%
%TO.N,/video/unconnected-(U4-DCGAIN-Pad27)*%
X40480000Y-100120000D03*
%TO.P,U20,28,VCC_28*%
%TO.N,+3V3*%
X40480000Y-100520000D03*
D58*
%TO.P,U20,29,TXPRE_29*%
%TO.N,/video/unconnected-(U4-TXPRE-Pad29)*%
X39680000Y-101120000D03*
%TO.P,U20,30,OUT_D2p_30*%
%TO.N,/video/HDMIO.D2P*%
X39280000Y-101120000D03*
%TO.P,U20,31,OUT_D2n_31*%
%TO.N,/video/HDMIO.D2N*%
X38880000Y-101120000D03*
%TO.P,U20,32,HPD_IN_32*%
%TO.N,/video/HDMIO.HPD*%
X38480000Y-101120000D03*
%TO.P,U20,33,OUT_D1p_33*%
%TO.N,/video/HDMIO.D1P*%
X38080000Y-101120000D03*
%TO.P,U20,34,OUT_D1n_34*%
%TO.N,/video/HDMIO.D1N*%
X37680000Y-101120000D03*
%TO.P,U20,35,ADDR/EQ0_35*%
%TO.N,/video/unconnected-(U4-ADDR{slash}EQ0-Pad35)*%
X37280000Y-101120000D03*
%TO.P,U20,36,OUT_D0p_36*%
%TO.N,/video/HDMIO.D0P*%
X36880000Y-101120000D03*
%TO.P,U20,37,OUT_D0n_37*%
%TO.N,/video/HDMIO.D0N*%
X36480000Y-101120000D03*
%TO.P,U20,38,TXSWG_38*%
%TO.N,/video/unconnected-(U4-TXSWG-Pad38)*%
X36080000Y-101120000D03*
%TO.P,U20,39,OUT_CLKp_39*%
%TO.N,/video/HDMIO.CKP*%
X35680000Y-101120000D03*
%TO.P,U20,40,OUT_CLKn_40*%
%TO.N,/video/HDMIO.CKN*%
X35280000Y-101120000D03*
D59*
%TO.P,U20,41,GND_41*%
%TO.N,GND*%
X37480000Y-99120000D03*
%TD*%
D24*
%TO.P,C81,1*%
%TO.N,/fpga/HDMI.REFCLK_N*%
X56210000Y-49710000D03*
%TO.P,C81,2*%
%TO.N,Net-(U9-OUT2)*%
X55250000Y-49710000D03*
%TD*%
%TO.P,C116,1*%
%TO.N,+3V3*%
X67090000Y-90230000D03*
%TO.P,C116,2*%
%TO.N,GND*%
X66130000Y-90230000D03*
%TD*%
D28*
%TO.P,C121,1*%
%TO.N,+3V3*%
X70480000Y-93850000D03*
%TO.P,C121,2*%
%TO.N,GND*%
X70480000Y-92890000D03*
%TD*%
D60*
%TO.P,C88,1*%
%TO.N,+2V5_TX*%
X75008822Y-51828822D03*
%TO.P,C88,2*%
%TO.N,GND*%
X74330000Y-51150000D03*
%TD*%
D39*
%TO.P,C92,1*%
%TO.N,+1V35*%
X75260000Y-52980000D03*
%TO.P,C92,2*%
%TO.N,GND*%
X76220000Y-52980000D03*
%TD*%
D28*
%TO.P,C122,1*%
%TO.N,+3V3*%
X65490000Y-94380000D03*
%TO.P,C122,2*%
%TO.N,GND*%
X65490000Y-93420000D03*
%TD*%
D23*
%TO.P,C119,1*%
%TO.N,+3V3*%
X77750000Y-92030000D03*
%TO.P,C119,2*%
%TO.N,GND*%
X77750000Y-92990000D03*
%TD*%
D37*
%TO.P,R55,1*%
%TO.N,Net-(L3-RXCT)*%
X95760000Y-102180000D03*
%TO.P,R55,2*%
%TO.N,/Ethernet/Net-(C4-Pad1)*%
X95760000Y-100530000D03*
%TD*%
D55*
%TO.P,U22,1,IO1_1*%
%TO.N,/video/HDMIO.D2P*%
X38570000Y-103620000D03*
%TO.P,U22,2,IO2_2*%
%TO.N,/video/HDMIO.D2N*%
X38070000Y-103620000D03*
%TO.P,U22,3,G_3*%
%TO.N,GND*%
X37570000Y-103620000D03*
%TO.P,U22,4,IO3_4*%
%TO.N,/video/HDMIO.D1P*%
X37070000Y-103620000D03*
%TO.P,U22,5,IO4_5*%
%TO.N,/video/HDMIO.D1N*%
X36570000Y-103620000D03*
%TO.P,U22,6,NC_6*%
X36570000Y-102850000D03*
%TO.P,U22,7,NC_7*%
%TO.N,/video/HDMIO.D1P*%
X37070000Y-102850000D03*
%TO.P,U22,8,G_8*%
%TO.N,GND*%
X37570000Y-102850000D03*
%TO.P,U22,9,NC_9*%
%TO.N,/video/HDMIO.D2N*%
X38070000Y-102850000D03*
%TO.P,U22,10,NC_10*%
%TO.N,/video/HDMIO.D2P*%
X38570000Y-102850000D03*
%TD*%
D26*
%TO.P,R39,1*%
%TO.N,+3V3*%
X57745000Y-47710000D03*
%TO.P,R39,2*%
%TO.N,/fpga/Net-(U5special-nCONFIG)*%
X59395000Y-47710000D03*
%TD*%
D23*
%TO.P,C66,1*%
%TO.N,+1V35*%
X73220000Y-36730000D03*
%TO.P,C66,2*%
%TO.N,GND*%
X73220000Y-37690000D03*
%TD*%
D28*
%TO.P,C104,1*%
%TO.N,+1V1*%
X68760000Y-61470000D03*
%TO.P,C104,2*%
%TO.N,GND*%
X68760000Y-60510000D03*
%TD*%
D61*
%TO.P,C85,1*%
%TO.N,+2V5*%
X72860589Y-51369411D03*
%TO.P,C85,2*%
%TO.N,GND*%
X73539411Y-50690589D03*
%TD*%
D62*
%TO.P,D3,1,IO1_1*%
%TO.N,Net-(D3-IO1)*%
X77270000Y-107520000D03*
D63*
%TO.P,D3,2,IO2_2*%
%TO.N,/usb2/USBD_N*%
X77270000Y-107040000D03*
D64*
%TO.P,D3,3,IO3_3*%
%TO.N,/usb2/USBD_P*%
X78050000Y-107040000D03*
D65*
%TO.P,D3,4,IO4_4*%
%TO.N,Net-(D3-IO4)*%
X78050000Y-107520000D03*
D66*
%TO.P,D3,5,GND_5*%
%TO.N,GND*%
X77660000Y-107280000D03*
%TD*%
D39*
%TO.P,C101,1*%
%TO.N,+1V1*%
X70030000Y-59600000D03*
%TO.P,C101,2*%
%TO.N,GND*%
X70990000Y-59600000D03*
%TD*%
D67*
%TO.N,/fpga/DRAM.RAS_N*%
X64230000Y-36630000D03*
X58180000Y-33990000D03*
X78830000Y-34000000D03*
X63770000Y-49590000D03*
D68*
X48920400Y-40394000D03*
X81381600Y-37998400D03*
D67*
%TO.N,/fpga/DRAM.ODT*%
X70897725Y-34930000D03*
D68*
X84785200Y-40284400D03*
D67*
X59780000Y-33200000D03*
X80430000Y-33200000D03*
D68*
X49340000Y-39894000D03*
D67*
%TO.N,/fpga/DRAM.CAS_N*%
X62770000Y-49590000D03*
D68*
X82550000Y-37795200D03*
D67*
X78830000Y-33200000D03*
D68*
X48920400Y-39394000D03*
D67*
X63977195Y-33980000D03*
X58180000Y-33200000D03*
D68*
%TO.N,/fpga/DRAM.WE_N*%
X84328000Y-38608000D03*
D67*
X58180000Y-32400000D03*
X61460000Y-33157195D03*
X78830000Y-32400000D03*
X63770000Y-53590000D03*
D68*
X49340000Y-38894000D03*
D67*
%TO.N,/fpga/DRAM.CS_N*%
X58980000Y-32400000D03*
D68*
X48920400Y-38394000D03*
D67*
X65770000Y-52590000D03*
X79630000Y-32400000D03*
X70670000Y-32370000D03*
D68*
X83921600Y-38049200D03*
%TO.N,/fpga/DRAM.A10*%
X84429600Y-37592000D03*
D67*
X62770000Y-50590000D03*
D68*
X49340000Y-37894000D03*
D67*
X75630000Y-32400000D03*
X54980000Y-32400000D03*
X61919248Y-32369585D03*
D68*
%TO.N,/fpga/DRAM.BA2*%
X48920400Y-37394000D03*
D67*
X65818088Y-50590000D03*
X71037195Y-31560999D03*
D68*
X84924805Y-37134800D03*
D67*
X58180000Y-31600000D03*
X78830000Y-31600000D03*
D69*
%TO.N,+0V675VTT*%
X46659000Y-31985301D03*
X35630000Y-25820000D03*
D67*
%TO.N,+1V35*%
X53380000Y-34800000D03*
D68*
X71770000Y-51590000D03*
D67*
X75630000Y-35620000D03*
X58978800Y-37964500D03*
D69*
X85830000Y-62990000D03*
D67*
X74830000Y-33200000D03*
X80430000Y-30800000D03*
X74030000Y-38000000D03*
X80430000Y-38800000D03*
X74030000Y-34800000D03*
X67781944Y-53660000D03*
D69*
X84850000Y-51600000D03*
D67*
X80430000Y-29200000D03*
X79630000Y-34800000D03*
D68*
X77770000Y-53590000D03*
D67*
X79630000Y-39600000D03*
D68*
X49860000Y-42980000D03*
D67*
X79630000Y-33200000D03*
X54180000Y-33200000D03*
X74830000Y-40400000D03*
D70*
X32750000Y-32890000D03*
D67*
X58980000Y-33200000D03*
X63770000Y-50590000D03*
D69*
X71970000Y-26120000D03*
X55710000Y-46191600D03*
D67*
X53380000Y-30800000D03*
D70*
X31030000Y-32890000D03*
D67*
X58978800Y-34798000D03*
X63770000Y-54590000D03*
X74030000Y-30800000D03*
X74030000Y-29200000D03*
D68*
X78770000Y-50590000D03*
D67*
X59780000Y-36360000D03*
D69*
X84310000Y-44570000D03*
D67*
X79630000Y-38000000D03*
D69*
X48420000Y-26310000D03*
D67*
X59791600Y-38774500D03*
X53380000Y-38000000D03*
X53380000Y-29200000D03*
X80430000Y-40400000D03*
X74030000Y-37200000D03*
X75770000Y-49590000D03*
X73720000Y-55630000D03*
X54180000Y-40400000D03*
D68*
X70770000Y-54590000D03*
D70*
X31920000Y-32890000D03*
D67*
X54980000Y-35600000D03*
X62790000Y-48560000D03*
X53380000Y-37200000D03*
X59780000Y-29200000D03*
X68800000Y-50160000D03*
D69*
X78810000Y-46310000D03*
D68*
X64770000Y-52590000D03*
D67*
X59780000Y-40405500D03*
D69*
X34630000Y-31191000D03*
D68*
X49030000Y-43620000D03*
D67*
X80430000Y-36400000D03*
D69*
X76620000Y-46500000D03*
D67*
X53380000Y-38800000D03*
D69*
X49682400Y-25812000D03*
D67*
X58980000Y-39585500D03*
D68*
X49040000Y-42990000D03*
D69*
X64410000Y-26050000D03*
D67*
X74030000Y-38774500D03*
D68*
X49830000Y-43610000D03*
D69*
X77590000Y-26250000D03*
D67*
X59780000Y-30800000D03*
D69*
X49733200Y-42316400D03*
D68*
X74770000Y-52590000D03*
%TO.N,/fpga/TCK*%
X45960000Y-73630000D03*
X58580000Y-72240000D03*
D69*
%TO.N,GND*%
X78380000Y-96520000D03*
D68*
X61770000Y-67590000D03*
D67*
X55930000Y-53080000D03*
D69*
X80380000Y-102560000D03*
D68*
X80780000Y-95150000D03*
D67*
X70149998Y-93270001D03*
X58770000Y-55590000D03*
D68*
X81740000Y-95140000D03*
D67*
X65980000Y-90990000D03*
D68*
X67770000Y-60590000D03*
D67*
X79630000Y-34000000D03*
D69*
X48170000Y-44530000D03*
X77210000Y-48120000D03*
D70*
X37600000Y-30140000D03*
D67*
X59780000Y-39585500D03*
D68*
X31800000Y-29080000D03*
D67*
X74030000Y-30000000D03*
D68*
X73770000Y-50590000D03*
X78540000Y-94610000D03*
X59334453Y-90945547D03*
D67*
X58980000Y-34000000D03*
X54260000Y-58170000D03*
D68*
X92640000Y-25110000D03*
D67*
X74030000Y-28400000D03*
D68*
X67770000Y-58590000D03*
D69*
X88560000Y-43480000D03*
D68*
X68770000Y-67590000D03*
D67*
X60770000Y-52590000D03*
D69*
X92950000Y-31160000D03*
X83150000Y-44400000D03*
D68*
X81740000Y-93370000D03*
X37470000Y-48800000D03*
D67*
X58770000Y-48590000D03*
D69*
X79870000Y-96330000D03*
X92960000Y-30490000D03*
X35840000Y-108760000D03*
D68*
X62000000Y-96158200D03*
X77770000Y-58590000D03*
D70*
X92245600Y-89070000D03*
X93760551Y-88890000D03*
D69*
X69560000Y-26160000D03*
X92360000Y-48560000D03*
D67*
X40560000Y-103040000D03*
D68*
X88440000Y-71040000D03*
D69*
X37700000Y-40549000D03*
D67*
X55860000Y-58190000D03*
D69*
X66710000Y-91990000D03*
X31270000Y-101230000D03*
D68*
X57770000Y-63590000D03*
D70*
X40770000Y-89030000D03*
D67*
X80430000Y-37200000D03*
D69*
X37170000Y-108730000D03*
D68*
X72770000Y-53590000D03*
X66770000Y-57590000D03*
D69*
X85868248Y-71886791D03*
D67*
X59791600Y-37964500D03*
X57720000Y-57570000D03*
D68*
X71770000Y-60590000D03*
D67*
X80430000Y-35600000D03*
D69*
X40820000Y-47310000D03*
X32640000Y-94540000D03*
D67*
X83200000Y-77240000D03*
X84730000Y-77190000D03*
D69*
X89930000Y-76210000D03*
D67*
X59780000Y-31600000D03*
D69*
X42950000Y-48260000D03*
X42860000Y-98700000D03*
D68*
X32530000Y-29090000D03*
D67*
X53380000Y-35600000D03*
X67770000Y-48590000D03*
X57760000Y-58590000D03*
D69*
X85150000Y-100790000D03*
D67*
X83340000Y-70450000D03*
X53380000Y-30000000D03*
D68*
X63770000Y-67590000D03*
X58770000Y-67590000D03*
D69*
X53250000Y-67630000D03*
X88420000Y-53610000D03*
X38370000Y-108710000D03*
D67*
X73770000Y-65590000D03*
D69*
X94080000Y-111100000D03*
D68*
X61770000Y-58590000D03*
D69*
X53644800Y-25812000D03*
D68*
X57770000Y-65590000D03*
X57770000Y-59590000D03*
X75770000Y-69590000D03*
X61770000Y-64590000D03*
D69*
X81190000Y-48690000D03*
D67*
X58980000Y-37160000D03*
D69*
X32860000Y-75300000D03*
D68*
X65770000Y-64590000D03*
X59770000Y-60590000D03*
D67*
X54270000Y-54540000D03*
D70*
X39360000Y-89750000D03*
D67*
X65770000Y-54590000D03*
X80430000Y-31600000D03*
D68*
X72770000Y-69590000D03*
X90360000Y-68970000D03*
X67456889Y-35966889D03*
X59770000Y-64590000D03*
D69*
X73650000Y-90520000D03*
X81940000Y-25960000D03*
D68*
X75770000Y-57590000D03*
D69*
X92450000Y-30040000D03*
D67*
X54180000Y-35600000D03*
D68*
X61770000Y-60590000D03*
D67*
X57770000Y-50662000D03*
X57430000Y-53290000D03*
D68*
X34710000Y-27410000D03*
D69*
X94440831Y-68479217D03*
X73040000Y-86500000D03*
D67*
X42610000Y-99610000D03*
X58770000Y-50662000D03*
X80430000Y-39600000D03*
X74030000Y-36400000D03*
D68*
X60770000Y-61590000D03*
D67*
X59780000Y-28400000D03*
D68*
X69770000Y-58590000D03*
D67*
X65770000Y-49590000D03*
X74830000Y-38000000D03*
D68*
X57770000Y-61590000D03*
X93210000Y-25110000D03*
D69*
X83430000Y-97498498D03*
X92235000Y-83785000D03*
D68*
X69770000Y-62594400D03*
X63770000Y-60590000D03*
D67*
X66694827Y-55534827D03*
D69*
X91720000Y-108780000D03*
X85140000Y-49260000D03*
D68*
X57770000Y-69561800D03*
D69*
X48710000Y-104270000D03*
D68*
X79800000Y-94215000D03*
D69*
X81370000Y-102980000D03*
X96120000Y-71730000D03*
D68*
X76770000Y-57590000D03*
D70*
X93804400Y-89766003D03*
D67*
X58180000Y-39560000D03*
D69*
X34556922Y-102349463D03*
D67*
X63770000Y-52622000D03*
D69*
X68390000Y-92020000D03*
D68*
X72770000Y-54590000D03*
D67*
X52356400Y-53634867D03*
D69*
X30690000Y-99230000D03*
D67*
X66708056Y-51550000D03*
D69*
X85640000Y-64980000D03*
D67*
X57770000Y-51590000D03*
D69*
X36600000Y-24880000D03*
D68*
X33730000Y-27400000D03*
D67*
X60770000Y-55590000D03*
D69*
X37030000Y-26130000D03*
D68*
X66770000Y-61590000D03*
X50440000Y-101110000D03*
D67*
X51490000Y-51460000D03*
D68*
X59770000Y-56590000D03*
D67*
X59770000Y-55590000D03*
D69*
X35230000Y-63740000D03*
D67*
X74030000Y-31600000D03*
D68*
X88420000Y-68970000D03*
D70*
X41900000Y-30170000D03*
X41910000Y-30870000D03*
D68*
X76770000Y-62590000D03*
X34210000Y-26530000D03*
D69*
X88480000Y-46020000D03*
D68*
X78770000Y-60590000D03*
X58770000Y-63590000D03*
D67*
X70770000Y-49590000D03*
X64540000Y-89710000D03*
D69*
X38485461Y-40548837D03*
D68*
X73770000Y-53590000D03*
X59770000Y-68590000D03*
D67*
X56590000Y-50510000D03*
D69*
X79380000Y-69180000D03*
D67*
X64850000Y-93400000D03*
X80430000Y-38000000D03*
D68*
X58770000Y-61590000D03*
D69*
X31120000Y-96090000D03*
D67*
X52100000Y-57240000D03*
D68*
X80780000Y-94265000D03*
D71*
X77660000Y-107280000D03*
D68*
X81740000Y-94255000D03*
X58770000Y-65590000D03*
X34260000Y-28240000D03*
D67*
X72770000Y-63590000D03*
D69*
X49940000Y-107500000D03*
D67*
X70089999Y-52589999D03*
D69*
X93810000Y-30020000D03*
D67*
X36570000Y-105670000D03*
X54180000Y-37200000D03*
D68*
X76770000Y-58590000D03*
X58770000Y-58590000D03*
D67*
X70770000Y-48590000D03*
X74030000Y-39600000D03*
D69*
X54860000Y-45300000D03*
X45320000Y-48410000D03*
D70*
X92275600Y-89770000D03*
D69*
X50760000Y-49860000D03*
X78600000Y-101210000D03*
D68*
X59770000Y-58590000D03*
D69*
X89610000Y-111270000D03*
D68*
X95770000Y-25110000D03*
D67*
X74830000Y-35600000D03*
D69*
X51745810Y-41536580D03*
D67*
X78830000Y-39600000D03*
D68*
X90410000Y-71080000D03*
D69*
X60147200Y-25812000D03*
D68*
X73770000Y-60565600D03*
D67*
X61770000Y-49590000D03*
X63770000Y-55590000D03*
D69*
X29980000Y-44550000D03*
X68750000Y-93340000D03*
D67*
X53380000Y-28400000D03*
D69*
X88520000Y-51110000D03*
D67*
X54280000Y-56640000D03*
X53380000Y-39600000D03*
D68*
X78770000Y-65590000D03*
D69*
X88403200Y-58720000D03*
D67*
X57770000Y-55590000D03*
D69*
X84935461Y-99065461D03*
D67*
X76770000Y-51590000D03*
D69*
X56020000Y-35350000D03*
D68*
X83430000Y-92410000D03*
D69*
X30090000Y-35470000D03*
X32940000Y-101710000D03*
D67*
X74030000Y-40400000D03*
X43790000Y-96800000D03*
D68*
X80780000Y-93380000D03*
D67*
X53380000Y-31600000D03*
D69*
X69810000Y-86360000D03*
D68*
X60770000Y-68590000D03*
X75770000Y-54590000D03*
D69*
X86550000Y-76410000D03*
D67*
X53380000Y-36400000D03*
D69*
X93680000Y-76810000D03*
D68*
X60770000Y-57590000D03*
X71770000Y-58590000D03*
D67*
X58770000Y-57590000D03*
D68*
X63770000Y-65590000D03*
X78770000Y-55590000D03*
X80460000Y-92410000D03*
X59770000Y-62590000D03*
D69*
X73400000Y-94770000D03*
X66600000Y-93960000D03*
X53380000Y-104270000D03*
X74380000Y-90670000D03*
D67*
X74830000Y-34000000D03*
D68*
X38152216Y-48762216D03*
D70*
X39380000Y-89050000D03*
D67*
X54280000Y-52960000D03*
D68*
X65770000Y-69590000D03*
D67*
X84710000Y-50860000D03*
D69*
X30170000Y-24920000D03*
X74850000Y-47730000D03*
D67*
X59791600Y-35610800D03*
X58770000Y-51590000D03*
D69*
X30500000Y-30320000D03*
D67*
X54180000Y-34000000D03*
D68*
X70813000Y-69590000D03*
D67*
X68830000Y-55640000D03*
D68*
X60770000Y-59590000D03*
D67*
X54180000Y-38000000D03*
D68*
X96210000Y-26160000D03*
D69*
X89380000Y-105550000D03*
X36840000Y-25530000D03*
X84100000Y-52050000D03*
D67*
X59780000Y-30000000D03*
X55880000Y-55980000D03*
X79630000Y-37200000D03*
D69*
X86600000Y-78800000D03*
X48920000Y-44570000D03*
X51710000Y-105860000D03*
D67*
X80430000Y-30000000D03*
D68*
X65019063Y-35617358D03*
X79800000Y-93330000D03*
D70*
X40780000Y-89730000D03*
D67*
X51150000Y-45000000D03*
X84290000Y-68290000D03*
D70*
X37580000Y-30840000D03*
D68*
X58770000Y-59590000D03*
X67770000Y-68590000D03*
D67*
X59780000Y-37160000D03*
X53380000Y-40400000D03*
D69*
X37705921Y-104239883D03*
D67*
X80430000Y-28400000D03*
X74830000Y-37200000D03*
D68*
X74770000Y-67590000D03*
D67*
X61318963Y-51082902D03*
D69*
X88440000Y-56160000D03*
D67*
X36010000Y-103280000D03*
X59770000Y-52590000D03*
D68*
X60770000Y-66590000D03*
X68770000Y-57590000D03*
X68770000Y-65590000D03*
D69*
X76330000Y-26040000D03*
D67*
X58770000Y-69590000D03*
D68*
X62770000Y-68590000D03*
D67*
X74030000Y-35600000D03*
D68*
X77770000Y-63555600D03*
D69*
X81260000Y-96880000D03*
D68*
X77820000Y-93521800D03*
X79800000Y-95100000D03*
%TO.N,+3V3*%
X73770000Y-59590000D03*
D69*
X67860000Y-90150000D03*
D68*
X73770000Y-66590000D03*
D69*
X79490000Y-90920998D03*
X85750000Y-97630000D03*
X40920000Y-96080000D03*
D68*
X67770000Y-66590000D03*
D69*
X29980000Y-46070000D03*
D68*
X77770000Y-61590000D03*
D69*
X93920000Y-105530000D03*
D68*
X74770000Y-57590000D03*
X67770000Y-63590000D03*
D69*
X77370000Y-91530000D03*
D68*
X64770000Y-65590000D03*
D69*
X32120000Y-100820000D03*
X94340000Y-69206800D03*
X30490000Y-25860000D03*
X48300000Y-46460000D03*
X72660000Y-90820000D03*
D68*
X75770000Y-64590000D03*
D69*
X48920000Y-46460000D03*
D67*
X51510000Y-47930000D03*
D68*
X62841745Y-56518255D03*
X75770000Y-62590000D03*
X76770000Y-61590000D03*
D69*
X72160000Y-93080000D03*
X46410000Y-96450000D03*
D67*
X64170000Y-57000000D03*
X76770000Y-66590000D03*
D68*
X77770000Y-68590000D03*
X70770000Y-66590000D03*
X69770000Y-67590000D03*
D67*
X64810000Y-94310000D03*
D69*
X31440000Y-66570000D03*
D68*
X62770000Y-63590000D03*
X74770000Y-62614400D03*
D69*
X38650000Y-38570000D03*
D68*
X74770000Y-60565600D03*
D69*
X65200000Y-91260000D03*
D68*
X72770000Y-68590000D03*
D69*
X88430000Y-41880000D03*
X30790000Y-26410000D03*
D67*
X64770000Y-62590000D03*
D69*
X32710000Y-72750000D03*
X86230000Y-66910000D03*
D67*
X64770000Y-67590000D03*
D69*
X37900000Y-38590000D03*
X75630000Y-99390000D03*
D68*
X66770000Y-66590000D03*
D69*
X49250000Y-77910000D03*
D68*
X68770000Y-66590000D03*
D69*
X82500000Y-90920998D03*
X32200000Y-26810000D03*
X85982219Y-71270234D03*
X30200000Y-26390000D03*
X32140000Y-99260000D03*
D67*
X70234502Y-94340000D03*
D69*
X74960000Y-99410000D03*
X93970000Y-37140000D03*
X83410000Y-77860000D03*
X38270000Y-46260000D03*
D68*
X75770000Y-59590000D03*
D69*
X38880000Y-46270000D03*
X32257003Y-28370000D03*
X50870000Y-55650000D03*
X30130000Y-36880000D03*
X86137501Y-67682501D03*
X83650000Y-50210000D03*
X82640000Y-51980000D03*
X52420000Y-65980000D03*
X32710000Y-93030000D03*
D67*
X60180000Y-53150000D03*
D68*
X70770000Y-64590000D03*
D67*
X42610000Y-100200000D03*
D68*
X71770000Y-66590000D03*
X62770000Y-66590000D03*
D69*
X93270000Y-36750000D03*
X37253200Y-96265692D03*
X89820266Y-74145720D03*
X92980000Y-36230000D03*
X43320000Y-92660000D03*
X62320000Y-59130000D03*
D68*
%TO.N,/fpga/TDI*%
X58590000Y-71550000D03*
X45700000Y-63780000D03*
D69*
%TO.N,/usb2/USBVBUSE*%
X92245000Y-91595000D03*
X76215000Y-106585000D03*
X85000000Y-108830000D03*
X80050000Y-106600000D03*
D68*
%TO.N,/fpga/HDMI.CLK_P*%
X55789893Y-53595133D03*
X62770000Y-55590000D03*
D67*
%TO.N,/fpga/HDMI.CLK_N*%
X65770000Y-53590000D03*
D68*
X55900000Y-52550000D03*
%TO.N,/video/AC.CLK_N*%
X34890000Y-95550000D03*
X52750000Y-52480000D03*
%TO.N,/video/AC.CLK_P*%
X35360000Y-95910000D03*
X52670000Y-53200000D03*
%TO.N,/video/AC.TX_N0*%
X52670000Y-54100000D03*
X36081979Y-95546847D03*
%TO.N,/video/AC.TX_P0*%
X52660000Y-54830000D03*
X36560000Y-95870000D03*
D69*
%TO.N,+3V3A_PCIE*%
X73990000Y-92670000D03*
D68*
%TO.N,/usb2/USBD_P*%
X79060000Y-103760000D03*
X77840000Y-104260000D03*
%TO.N,/usb2/USBD_N*%
X77310000Y-103740000D03*
X78320000Y-103700000D03*
%TO.N,/usb2/Net-(U20-EXTVBUS)*%
X92640000Y-71670000D03*
X91280000Y-76750000D03*
%TO.N,/fpga/USB2.NXT*%
X92960000Y-61100000D03*
X83390000Y-58518200D03*
%TO.N,/fpga/USB2.DIR*%
X83850000Y-67300000D03*
X86830000Y-66640000D03*
X91730000Y-66700000D03*
%TO.N,/fpga/USB2.STP*%
X85470000Y-68340000D03*
X73770000Y-57590000D03*
X82160000Y-57580000D03*
X92650000Y-69580000D03*
%TO.N,/fpga/USB2.CLK*%
X83510000Y-60450000D03*
X92690000Y-69010000D03*
D69*
%TO.N,/usb2/+1V8*%
X86130000Y-68370000D03*
X92500000Y-68300000D03*
%TO.N,/usb2/+1VA8*%
X86053856Y-70647337D03*
D67*
%TO.N,+2V5*%
X67810000Y-52610000D03*
D68*
X60400000Y-50080000D03*
X72770000Y-51590000D03*
D69*
X48925000Y-48495000D03*
D67*
X64770000Y-51590000D03*
D68*
X70770000Y-51590000D03*
D67*
X66710000Y-50720000D03*
%TO.N,/fpga/PCIE.SPARE*%
X61860000Y-101540000D03*
D68*
%TO.N,/PCIe/PCIESLOT.REFLCK_N*%
X66730000Y-95600000D03*
%TO.N,/PCIe/PCIESLOT.REFLCK_P*%
X66000000Y-95430000D03*
%TO.N,/fpga/PCIE.RX_P*%
X59160000Y-90390000D03*
X61290000Y-96158200D03*
%TO.N,/fpga/PCIE.RX_N*%
X59600000Y-89890000D03*
X62540000Y-95810000D03*
%TO.N,+1V1*%
X71770000Y-57590000D03*
X67770000Y-59590000D03*
X70770000Y-56590000D03*
X71770000Y-59590000D03*
X67770000Y-61590000D03*
D69*
X32850000Y-41980000D03*
X56550000Y-48980000D03*
D68*
X69772788Y-61545600D03*
X70770000Y-58590000D03*
X66770000Y-60590000D03*
X70770000Y-60590000D03*
X67770000Y-57590000D03*
D69*
X57130000Y-48780000D03*
%TO.N,+5V*%
X70860000Y-108780000D03*
X86290000Y-45500000D03*
X89710000Y-83970000D03*
X43330000Y-110240000D03*
D67*
X43890000Y-106410000D03*
D68*
%TO.N,/fpga/Net-(U5special-nSTATUS)*%
X51380000Y-55130000D03*
X56240000Y-57370000D03*
%TO.N,/fpga/ETH.RESET_N*%
X76221380Y-97324498D03*
D67*
X69770000Y-64590000D03*
D68*
X71320000Y-75290000D03*
D67*
%TO.N,/fpga/DRAM.DQ29*%
X79630000Y-40400000D03*
X78770000Y-49590000D03*
%TO.N,/fpga/DRAM.DQ31*%
X78830000Y-40400000D03*
X76838088Y-53590000D03*
%TO.N,/fpga/DRAM.DQ28*%
X75630000Y-40400000D03*
X75711912Y-50612387D03*
%TO.N,/fpga/DRAM.DQS_N3*%
X74770000Y-53590000D03*
X75630000Y-39600000D03*
%TO.N,/fpga/DRAM.DQ30*%
X74830000Y-39600000D03*
X73770000Y-48590000D03*
%TO.N,/fpga/DRAM.DQ27*%
X79630000Y-38800000D03*
X78770000Y-52590000D03*
%TO.N,/fpga/DRAM.DQ25*%
X78770000Y-51590000D03*
X78830000Y-38800000D03*
%TO.N,/fpga/DRAM.DQS_P3*%
X75711912Y-53627804D03*
X75630000Y-38800000D03*
%TO.N,/fpga/DRAM.DQ26*%
X74830000Y-38800000D03*
X74770000Y-50590000D03*
%TO.N,/fpga/DRAM.DM3*%
X78830000Y-38000000D03*
X76828088Y-48596446D03*
%TO.N,/fpga/DRAM.DQ24*%
X74770000Y-48590000D03*
X75630000Y-38000000D03*
%TO.N,/fpga/DRAM.DQ16*%
X78830000Y-37200000D03*
X73770000Y-54590000D03*
%TO.N,/fpga/DRAM.DM2*%
X75630000Y-37200000D03*
X73770000Y-51590000D03*
%TO.N,/fpga/DRAM.DQ18*%
X79630000Y-36400000D03*
X74770000Y-56590000D03*
%TO.N,/fpga/DRAM.DQS_P2*%
X78830000Y-36400000D03*
X74770000Y-54590000D03*
%TO.N,/fpga/DRAM.DQ17*%
X72770000Y-50590000D03*
X75630000Y-36400000D03*
%TO.N,/fpga/DRAM.DQ19*%
X74830000Y-36400000D03*
X71789580Y-53590000D03*
%TO.N,/fpga/DRAM.DQ22*%
X71770000Y-48590000D03*
X79630000Y-35600000D03*
%TO.N,/fpga/DRAM.DQS_N2*%
X78830000Y-35600000D03*
X74770000Y-55590000D03*
%TO.N,+0V675REF*%
X64770000Y-49590000D03*
X60290390Y-35950000D03*
X74830000Y-31600000D03*
D69*
X46190000Y-25250000D03*
D67*
X54180000Y-31600000D03*
X59780000Y-34800000D03*
X70770000Y-50590000D03*
X80430000Y-34800000D03*
%TO.N,/fpga/DRAM.DQ20*%
X78830000Y-34800000D03*
X72770000Y-52590000D03*
%TO.N,/fpga/DRAM.DQ23*%
X75630000Y-34800000D03*
X71770000Y-52590000D03*
%TO.N,/fpga/DRAM.DQ21*%
X72770000Y-49590000D03*
X74830000Y-34800000D03*
%TO.N,/fpga/DRAM.CK_P*%
X67990000Y-35310000D03*
X81022705Y-34056188D03*
X54980000Y-34000000D03*
X65532000Y-35458400D03*
X65770000Y-56590000D03*
X75630000Y-34000000D03*
X52490000Y-34660000D03*
%TO.N,/fpga/DRAM.CK_N*%
X65530000Y-34780000D03*
X81110000Y-33170000D03*
X54980000Y-33200000D03*
X65770000Y-55590000D03*
X52587830Y-33297972D03*
X67960000Y-34798000D03*
X75630000Y-33200000D03*
%TO.N,/fpga/DRAM.CKE*%
X53380000Y-33200000D03*
X74030000Y-33200000D03*
X72460000Y-33180000D03*
%TO.N,/ddr3/Net-(U2-ZQ)*%
X74830000Y-32400000D03*
%TO.N,/fpga/DRAM.BA0*%
X79630000Y-31600000D03*
X62695001Y-32631319D03*
X58980000Y-31600000D03*
D68*
X49340000Y-36126800D03*
X84640400Y-36311200D03*
%TO.N,/fpga/DRAM.A3*%
X48920400Y-35626800D03*
D67*
X64770000Y-54590000D03*
D68*
X85040400Y-35811200D03*
D67*
X60630000Y-31570195D03*
X60675195Y-42904447D03*
X79630000Y-30800000D03*
X58980000Y-30800000D03*
%TO.N,/fpga/DRAM.A0*%
X68160000Y-31530000D03*
D68*
X85040400Y-34811200D03*
D67*
X78830000Y-30800000D03*
X58180000Y-30800000D03*
X68800000Y-45810000D03*
D68*
X48920400Y-34626800D03*
D67*
X71850000Y-31580000D03*
X64196486Y-57976243D03*
D68*
%TO.N,/fpga/DRAM.A12*%
X84640400Y-35311200D03*
D67*
X54980000Y-30800000D03*
D68*
X49340000Y-35126800D03*
D67*
X63770000Y-51590000D03*
X75630000Y-30800000D03*
X62815195Y-30785195D03*
%TO.N,/fpga/DRAM.BA1*%
X54180000Y-30800000D03*
D68*
X84640400Y-34311200D03*
D67*
X74830000Y-30800000D03*
X68529200Y-29920000D03*
D68*
X49340000Y-34126800D03*
D67*
%TO.N,/fpga/DRAM.A5*%
X65100000Y-30710000D03*
X58980000Y-30000000D03*
D68*
X84640400Y-33311200D03*
D67*
X79630000Y-30000000D03*
D68*
X49340000Y-33126800D03*
D67*
%TO.N,/fpga/DRAM.A2*%
X58180000Y-30000000D03*
D68*
X64770000Y-55590000D03*
D67*
X67820000Y-45370000D03*
D68*
X48920400Y-33626800D03*
X85040400Y-33811200D03*
D67*
X71100000Y-29980000D03*
X78830000Y-30000000D03*
%TO.N,/fpga/DRAM.A1*%
X75630000Y-30000000D03*
X54980000Y-30000000D03*
X65030000Y-29195195D03*
D68*
X48920400Y-32626800D03*
D67*
X69749401Y-30785196D03*
D68*
X85040400Y-32811200D03*
%TO.N,/fpga/DRAM.A4*%
X48920400Y-30835600D03*
X85040400Y-31046800D03*
D67*
X62790000Y-29980000D03*
X74830000Y-30000000D03*
X54180000Y-30000000D03*
%TO.N,/fpga/DRAM.A7*%
X69500000Y-29160000D03*
X58980000Y-29200000D03*
D68*
X84640400Y-31546800D03*
D67*
X79630000Y-29200000D03*
D68*
X49340000Y-31343600D03*
%TO.N,/fpga/DRAM.A9*%
X84640400Y-30546800D03*
D67*
X58180000Y-29200000D03*
X65882510Y-29134572D03*
D68*
X49340000Y-30343600D03*
D67*
X78830000Y-29200000D03*
%TO.N,/fpga/DRAM.A11*%
X62770000Y-51590000D03*
X75630000Y-29200000D03*
D68*
X49340000Y-29343600D03*
D67*
X54980000Y-29200000D03*
X61950000Y-28330000D03*
D68*
X84640400Y-29546800D03*
D67*
%TO.N,/fpga/DRAM.A6*%
X67070000Y-28350000D03*
D68*
X48920400Y-29835600D03*
X85040400Y-30046800D03*
D67*
X74830000Y-29200000D03*
X54180000Y-29200000D03*
%TO.N,/fpga/DRAM.RESET_N*%
X82477195Y-26707195D03*
X75770000Y-56590000D03*
X67327500Y-26162500D03*
%TO.N,/fpga/DRAM.A13*%
X78821328Y-28368963D03*
X66910000Y-27260000D03*
D68*
X48920400Y-28835600D03*
X85040400Y-29046800D03*
D67*
X58180000Y-28400000D03*
%TO.N,/fpga/DRAM.A14*%
X54980000Y-28400000D03*
X61060000Y-27300000D03*
X62798461Y-54618461D03*
X75630000Y-28400000D03*
D68*
X48920400Y-27835600D03*
X85040400Y-28046800D03*
D67*
X61010800Y-44043600D03*
%TO.N,/fpga/DRAM.A8*%
X64721912Y-48590000D03*
X74830000Y-28400000D03*
X63340000Y-27240000D03*
D68*
X49340000Y-28343600D03*
X84640400Y-28546800D03*
D67*
X54180000Y-28400000D03*
D68*
%TO.N,/fpga/LINK.TX_N*%
X57770000Y-60590000D03*
X49890000Y-100960000D03*
D67*
%TO.N,Net-(USBC2-TX2-)*%
X51660000Y-104300000D03*
X52470000Y-107350000D03*
D68*
%TO.N,/video/HDMIO.SCL*%
X44320000Y-99290000D03*
D67*
X41120000Y-105050000D03*
D69*
%TO.N,+1V1_TX*%
X52190000Y-51870000D03*
D68*
X60770000Y-60590000D03*
X59770000Y-57590000D03*
X59770000Y-61590000D03*
X60776374Y-58628585D03*
D67*
%TO.N,/fpga/VIDEL33.CLK0*%
X71770000Y-65590000D03*
D68*
X85680000Y-42690000D03*
D67*
%TO.N,/fpga/VIDEL33.CLK1*%
X72770000Y-65590000D03*
D68*
X85680000Y-43910000D03*
%TO.N,/fpga/VIDEL33.CLK2*%
X84220000Y-43010000D03*
D67*
X70770000Y-65590000D03*
D68*
%TO.N,/fpga/FALCON_AUDIOLV.O*%
X83736805Y-49310000D03*
X75711912Y-51620174D03*
X79470000Y-50680000D03*
%TO.N,/Ethernet/Net-(U3-XTAL1{slash}CLKIN\u002A\u002A)*%
X85090000Y-101810000D03*
X85020000Y-103290000D03*
%TO.N,/Ethernet/Net-(U3-XTAL2)*%
X81200000Y-101120000D03*
%TO.N,/video/HDMIO.HPD*%
X39625432Y-103088610D03*
X38420000Y-101920000D03*
%TO.N,/video/HDMIO.D2P*%
X38780000Y-104700000D03*
%TO.N,/video/HDMIO.D2N*%
X38229468Y-104597065D03*
%TO.N,/video/HDMIO.D1P*%
X37080000Y-104180000D03*
D67*
X37980000Y-108150000D03*
%TO.N,/video/HDMIO.D1N*%
X37570000Y-107790000D03*
D68*
X36514166Y-104111119D03*
%TO.N,/video/HDMIO.D0P*%
X35526400Y-104201367D03*
%TO.N,/video/HDMIO.D0N*%
X34954402Y-104277192D03*
%TO.N,/video/HDMIO.CKP*%
X34100000Y-104270000D03*
D67*
X36740000Y-108220000D03*
%TO.N,/video/HDMIO.CKN*%
X36260000Y-107850000D03*
D68*
X33433029Y-104276055D03*
%TO.N,/video/HDMIO.SDA*%
X45320000Y-96410000D03*
D67*
X40580000Y-105250000D03*
D68*
%TO.N,+2V5_TX*%
X59770000Y-63590000D03*
X63770000Y-66590000D03*
X69770000Y-66590000D03*
D69*
X51470000Y-53600000D03*
D68*
X74770000Y-64590000D03*
D67*
X62770000Y-52622000D03*
D68*
X73527332Y-61114322D03*
X74770000Y-66590000D03*
D69*
X51440000Y-58980000D03*
D68*
X59770000Y-59590000D03*
X75770000Y-55590000D03*
D69*
X60281400Y-55070000D03*
D67*
X61162486Y-53039517D03*
D69*
X73270001Y-62340036D03*
D67*
X59770000Y-48590000D03*
X67800000Y-51570000D03*
D68*
X74770000Y-51590000D03*
D67*
%TO.N,/fpga/Net-(U5special-nCONFIG)*%
X59280000Y-48940000D03*
%TO.N,/fpga/DRAM.DM1*%
X69770000Y-48590000D03*
X58180000Y-37960000D03*
D68*
%TO.N,/fpga/CT.A23*%
X40670000Y-59970000D03*
X58770000Y-76010000D03*
%TO.N,/fpga/CT.A27*%
X60250000Y-75970000D03*
X40750000Y-54910000D03*
%TO.N,/fpga/CT.A18*%
X39290000Y-65030000D03*
X61070000Y-76580000D03*
%TO.N,/fpga/CT.A9*%
X66265000Y-75535000D03*
X40740000Y-77810000D03*
%TO.N,/fpga/CT.RST_N*%
X39290000Y-47350000D03*
X60040000Y-77850000D03*
%TO.N,/fpga/ETH.IRQ*%
X71680000Y-74830000D03*
X77516502Y-97620000D03*
%TO.N,/fpga/CT.D27*%
X81200000Y-69270000D03*
X93590000Y-82770000D03*
%TO.N,/fpga/Net-(U5special-AS_DATA1)*%
X59770000Y-69561800D03*
%TO.N,/fpga/Net-(U29-DQ0{slash}SI)*%
X60770000Y-69561800D03*
%TO.N,/fpga/CT.A30*%
X61780056Y-69600056D03*
X39240000Y-49790000D03*
%TO.N,/fpga/CT.SIZ0*%
X39190000Y-39650000D03*
X62770000Y-69590000D03*
%TO.N,/fpga/CT.A25*%
X40720000Y-57460000D03*
X59510000Y-76000000D03*
%TO.N,/fpga/CT.A19*%
X59330000Y-77870000D03*
X40630000Y-65410000D03*
D67*
X66770000Y-63590000D03*
D68*
%TO.N,/fpga/CT.A7*%
X40680000Y-80280000D03*
X66755000Y-74695000D03*
%TO.N,/fpga/CT.A5*%
X40620000Y-82870000D03*
X68139800Y-75610000D03*
%TO.N,/fpga/CT.A14*%
X58620000Y-77840000D03*
X68770000Y-69590000D03*
X39280000Y-70090000D03*
%TO.N,/fpga/CT.D28*%
X92250000Y-85460000D03*
X79440000Y-69870000D03*
D67*
%TO.N,/fpga/DRAM.RZQ*%
X67850600Y-49619003D03*
%TO.N,/fpga/DRAM.DQ6*%
X58980000Y-35600000D03*
X68770000Y-49590000D03*
%TO.N,/fpga/DRAM.DQ8*%
X71770000Y-49590000D03*
X54980000Y-37960000D03*
%TO.N,/fpga/DRAM.DQ0*%
X58180000Y-37160000D03*
X67820600Y-50550956D03*
%TO.N,/fpga/DRAM.DQ4*%
X58190000Y-34800000D03*
X69770000Y-50590000D03*
%TO.N,/fpga/DRAM.DQ14*%
X71770000Y-50590000D03*
X54180000Y-39560000D03*
%TO.N,/fpga/DRAM.DQ2*%
X58980000Y-36360000D03*
X68770000Y-51590000D03*
%TO.N,/fpga/DRAM.DQ3*%
X69770000Y-51590000D03*
X54180000Y-36360000D03*
%TO.N,/fpga/CLK0*%
X66640000Y-53030000D03*
X67849374Y-52077584D03*
%TO.N,/fpga/DRAM.DQ7*%
X68770000Y-52590000D03*
X54980000Y-34790000D03*
%TO.N,/fpga/DRAM.DQ9*%
X58180000Y-38760000D03*
X70770000Y-52590000D03*
D68*
%TO.N,/fpga/USB2LV.DATA7*%
X77770000Y-52590000D03*
X79440000Y-53520000D03*
D67*
%TO.N,/fpga/HDMI.REFCLK_N*%
X61717079Y-53582921D03*
X56240000Y-49690000D03*
%TO.N,/fpga/DRAM.DM0*%
X54980000Y-37160000D03*
X68770000Y-53590000D03*
%TO.N,/fpga/DRAM.DQ15*%
X58180000Y-40360000D03*
X69770000Y-53590000D03*
%TO.N,/fpga/HDMI.REFCLK_P*%
X56120000Y-51260000D03*
X60780000Y-54640000D03*
%TO.N,/fpga/DRAM.DQ1*%
X67821944Y-54665770D03*
X54980000Y-36360000D03*
%TO.N,/fpga/DRAM.DQS_N0*%
X58180000Y-35600000D03*
X68732805Y-54642838D03*
%TO.N,/fpga/DRAM.DQ13*%
X58980000Y-40405500D03*
X71770000Y-54590000D03*
%TO.N,/fpga/DRAM.DQS_P0*%
X67821944Y-55590000D03*
X58180000Y-36360000D03*
%TO.N,/fpga/DRAM.DQS_P1*%
X54980000Y-38760000D03*
X70770000Y-55590000D03*
D68*
%TO.N,/fpga/USB2LV.DATA0*%
X71770000Y-55590000D03*
X81720000Y-57130000D03*
D67*
%TO.N,/fpga/DRAM.DQ12*%
X67770000Y-56590000D03*
X54980000Y-40360000D03*
%TO.N,/fpga/DRAM.DQS_N1*%
X54980000Y-39560000D03*
X69770000Y-56590000D03*
%TO.N,/fpga/DRAM.DQ11*%
X73770000Y-56590000D03*
X58976820Y-38739331D03*
D68*
%TO.N,/fpga/Net-(U5special-CONF_DONE)*%
X63299017Y-57030983D03*
D67*
%TO.N,/fpga/DRAM.DQ5*%
X54170000Y-34790000D03*
X65770000Y-57590000D03*
%TO.N,/fpga/DRAM.DQ10*%
X54180000Y-38760000D03*
X72770000Y-57590000D03*
D68*
%TO.N,/fpga/CT.TM0*%
X73770000Y-58590000D03*
X92400000Y-33030000D03*
%TO.N,/fpga/CT.D2*%
X92370000Y-52400000D03*
X81170000Y-59300000D03*
%TO.N,/fpga/CT.I6_N*%
X92260000Y-47320000D03*
X75770000Y-58590000D03*
%TO.N,/fpga/CT.TM1*%
X78770000Y-58590000D03*
X92320000Y-33820000D03*
%TO.N,/fpga/HDMI.SCL*%
X62770000Y-59590000D03*
X48050000Y-93210000D03*
%TO.N,/fpga/HDMI.SDA*%
X46850000Y-93450000D03*
X63770000Y-59590000D03*
%TO.N,/fpga/HDMI.I2CRESET*%
X64770000Y-59590000D03*
X44440000Y-101480000D03*
%TO.N,/fpga/CT.D0*%
X92390000Y-49780000D03*
X74770000Y-59590000D03*
%TO.N,/fpga/CT.TM2*%
X92320000Y-37520000D03*
X76770000Y-59590000D03*
%TO.N,/fpga/CT.D4*%
X92290000Y-54930000D03*
X77770000Y-59590000D03*
%TO.N,/fpga/CT.D1*%
X93830000Y-49800000D03*
X78770000Y-59590000D03*
%TO.N,/fpga/LINK.TX_P*%
X51003526Y-100986024D03*
X58760000Y-60600000D03*
%TO.N,/fpga/CT.BR_N*%
X41890000Y-33340000D03*
D67*
X62770000Y-60590000D03*
%TO.N,/fpga/CT.A24*%
X64770000Y-60590000D03*
D68*
X39230000Y-57470000D03*
X61860000Y-73580000D03*
D67*
%TO.N,/fpga/CT.TEA_N*%
X65770000Y-60590000D03*
D68*
X61530000Y-72870000D03*
X43463879Y-43515502D03*
%TO.N,/fpga/CLK1*%
X72770000Y-60590000D03*
X79600000Y-60590000D03*
%TO.N,/fpga/CT.TT0*%
X92310000Y-39660000D03*
X75770000Y-60590000D03*
%TO.N,/fpga/CT.D6*%
X92360000Y-57150000D03*
X76770000Y-60590000D03*
%TO.N,/fpga/CT.D7*%
X93790000Y-57480000D03*
X80520000Y-61520000D03*
D67*
%TO.N,/fpga/CT.BG_N*%
X62770000Y-61590000D03*
D68*
X40820000Y-34590000D03*
D67*
%TO.N,/fpga/CT.A28*%
X63770000Y-61590000D03*
D68*
X39351800Y-52491745D03*
X60070000Y-72420000D03*
D67*
%TO.N,/fpga/CT.DTKCMB_N*%
X64770000Y-61590000D03*
D68*
X62470000Y-74280000D03*
X39230000Y-44740000D03*
%TO.N,/fpga/CT.A21*%
X63440000Y-73650000D03*
X40760000Y-62530000D03*
D67*
X65770000Y-61590000D03*
%TO.N,/fpga/CT.A1*%
X68250000Y-62120000D03*
D68*
X40740000Y-87860000D03*
%TO.N,/fpga/CT.D9*%
X93830000Y-59850000D03*
D67*
X70880000Y-61660000D03*
%TO.N,/fpga/CT.D5*%
X72670000Y-61670000D03*
D68*
X93810000Y-54880000D03*
D67*
%TO.N,/fpga/CT.D3*%
X74300000Y-61110000D03*
D68*
X93830000Y-52350000D03*
D67*
%TO.N,/fpga/CT.BS_N1*%
X74770000Y-61590000D03*
D68*
X93750000Y-42190000D03*
%TO.N,/fpga/CT.TT1*%
X93660000Y-39700000D03*
X75770000Y-61590000D03*
%TO.N,/fpga/CT.BS_N0*%
X92230000Y-42250000D03*
X78770000Y-61590000D03*
%TO.N,/fpga/LINK.RX_N*%
X49030000Y-107320000D03*
X57770000Y-62590000D03*
%TO.N,/fpga/LINK.RX_P*%
X48450000Y-107320000D03*
X58770000Y-62590000D03*
%TO.N,/fpga/Net-(U29-~{S}{slash}~{CS})*%
X61090000Y-71480000D03*
D67*
X60770000Y-62590000D03*
D68*
%TO.N,/fpga/CT.BB_N*%
X40850000Y-37160000D03*
D67*
X61770000Y-62590000D03*
D68*
%TO.N,/fpga/CT.TS_N*%
X39210000Y-34600000D03*
D67*
X62770000Y-62590000D03*
D68*
%TO.N,/fpga/CT.RW*%
X38990000Y-37750000D03*
D67*
X63770000Y-62590000D03*
D68*
%TO.N,/fpga/CT.SIZ1*%
X40810000Y-39670000D03*
D67*
X65756619Y-62576619D03*
%TO.N,/fpga/CT.A13*%
X66770000Y-62590000D03*
D68*
X60740000Y-77830000D03*
X40670000Y-72650000D03*
D67*
%TO.N,/fpga/CT.A3*%
X67770000Y-62590000D03*
D68*
X40560000Y-85360000D03*
%TO.N,/fpga/ETH.D3*%
X76180000Y-93030000D03*
D67*
X68770000Y-62590000D03*
%TO.N,/fpga/CT.D10*%
X70770000Y-62590000D03*
D68*
X92431800Y-62370000D03*
D67*
%TO.N,/fpga/ETH.D6*%
X71770000Y-62590000D03*
D68*
X76860000Y-89700000D03*
%TO.N,/fpga/CT.D15*%
X93690000Y-67550000D03*
D67*
X72770000Y-62590000D03*
D68*
X82380000Y-63240000D03*
%TO.N,/fpga/CT.D11*%
X83010000Y-63230000D03*
X94190000Y-61730000D03*
%TO.N,/fpga/CT.D8*%
X78770000Y-62590000D03*
X92151800Y-60010000D03*
D67*
%TO.N,/fpga/CT.A17*%
X63770000Y-63590000D03*
D68*
X57210000Y-76900000D03*
X40650000Y-67640000D03*
D67*
%TO.N,/fpga/CT.A15*%
X64770000Y-63590000D03*
D68*
X57190000Y-77810000D03*
X40650000Y-70180000D03*
%TO.N,/fpga/CT.A10*%
X61520000Y-77860000D03*
D67*
X65770000Y-63590000D03*
D68*
X39300000Y-75250000D03*
%TO.N,/fpga/CT.A31*%
X61020000Y-75910000D03*
X40840000Y-49830000D03*
D67*
%TO.N,/fpga/ETH.D2*%
X69180000Y-63580000D03*
D68*
X75720000Y-93530000D03*
D67*
%TO.N,/fpga/ETH.D0*%
X69770000Y-63590000D03*
D68*
X75728617Y-94492334D03*
%TO.N,/fpga/CT.D18*%
X92250000Y-72690000D03*
D67*
X70770000Y-63590000D03*
D68*
%TO.N,/fpga/CT.D12*%
X92280000Y-65120000D03*
D67*
X71770000Y-63590000D03*
D68*
%TO.N,/fpga/CT.D26*%
X92340000Y-82770000D03*
D67*
X73770000Y-63590000D03*
D68*
%TO.N,/fpga/CT.D14*%
X92310000Y-67270000D03*
D67*
X74770000Y-63590000D03*
D68*
%TO.N,/fpga/CT.BS_N2*%
X92277784Y-44742216D03*
D67*
X75770000Y-63590000D03*
D68*
%TO.N,/fpga/CT.BS_N3*%
X93670000Y-44760000D03*
X83490000Y-63660000D03*
%TO.N,/fpga/CT.D13*%
X93710000Y-65080000D03*
X76770000Y-68590000D03*
D67*
%TO.N,/fpga/CT.A26*%
X62770000Y-64590000D03*
D68*
X39240000Y-54900000D03*
D67*
%TO.N,/fpga/CT.TA_N*%
X63770000Y-64590000D03*
D68*
X39210000Y-43320000D03*
D67*
%TO.N,/fpga/CT.A29*%
X64770000Y-64590000D03*
D68*
X40740000Y-52370000D03*
%TO.N,/fpga/CT.A11*%
X40630000Y-75270000D03*
D67*
X66770000Y-64590000D03*
D68*
%TO.N,/fpga/CT.A0*%
X39380000Y-87950000D03*
D67*
X67770000Y-64590000D03*
D68*
%TO.N,/fpga/ETH.D1*%
X76200000Y-94030000D03*
D67*
X68770000Y-64590000D03*
D68*
%TO.N,/fpga/CT.D21*%
X93620000Y-75210000D03*
D67*
X71770000Y-64590000D03*
D68*
%TO.N,/fpga/ETH.D8*%
X78010000Y-89700000D03*
D67*
X72770000Y-64590000D03*
%TO.N,/fpga/ETH.D9*%
X73770000Y-64590000D03*
D68*
X78520000Y-89240000D03*
%TO.N,/fpga/CT.D20*%
X92230000Y-75230000D03*
D67*
X76770000Y-64590000D03*
D68*
%TO.N,/fpga/CT.D19*%
X81800000Y-65050000D03*
X93620000Y-72710000D03*
%TO.N,/fpga/CT.D17*%
X93760000Y-70160000D03*
X81180000Y-65070000D03*
D67*
%TO.N,/fpga/Net-(U29-C{slash}CLK)*%
X59770000Y-65590000D03*
%TO.N,/fpga/CT.A22*%
X62770000Y-65590000D03*
D68*
X39270000Y-60020000D03*
D67*
%TO.N,/fpga/CT.A12*%
X65770000Y-65590000D03*
D68*
X39300000Y-72600000D03*
D67*
%TO.N,/fpga/CT.A6*%
X66770000Y-65590000D03*
D68*
X39320000Y-80280000D03*
%TO.N,/fpga/ETH.D4*%
X75690000Y-92530000D03*
D67*
X69770000Y-65590000D03*
%TO.N,/fpga/ETH.D10*%
X74770000Y-65590000D03*
D68*
X79000000Y-89700000D03*
D67*
%TO.N,/fpga/CT.D31*%
X75770000Y-65590000D03*
D68*
X93470000Y-87920000D03*
%TO.N,/fpga/CT.D29*%
X93630000Y-85410000D03*
D67*
X76770000Y-65590000D03*
D68*
%TO.N,/fpga/CT.D16*%
X80450000Y-65090000D03*
X92660000Y-70430000D03*
D67*
%TO.N,/fpga/CT.A20*%
X64770000Y-66590000D03*
D68*
X39220000Y-62540000D03*
D67*
%TO.N,/fpga/CT.A16*%
X65770000Y-66590000D03*
D68*
X39260000Y-67590000D03*
%TO.N,/fpga/CT.CLK*%
X48543350Y-48967968D03*
D67*
X61000000Y-65100000D03*
D68*
%TO.N,/fpga/ETH.D12*%
X80520000Y-89760000D03*
D67*
X75770000Y-66590000D03*
D68*
%TO.N,/fpga/CT.D23*%
X93530000Y-77810000D03*
X83110000Y-67060000D03*
%TO.N,/fpga/CT.D22*%
X82560000Y-67540000D03*
X92325600Y-77810000D03*
%TO.N,/fpga/CT.A8*%
X39500000Y-77810000D03*
D67*
X65770000Y-67590000D03*
D68*
%TO.N,/fpga/CT.A2*%
X39320000Y-85360000D03*
D67*
X66770000Y-67590000D03*
D68*
%TO.N,/fpga/CT.A4*%
X67200000Y-75480000D03*
X39310000Y-82860000D03*
D67*
%TO.N,/fpga/ETH.D5*%
X70770000Y-67590000D03*
D68*
X76220000Y-92040000D03*
%TO.N,/fpga/ETH.D7*%
X77510000Y-89230000D03*
D67*
X71770000Y-67590000D03*
D68*
%TO.N,/fpga/ETH.D11*%
X80020000Y-89270000D03*
D67*
X75770000Y-67590000D03*
%TO.N,/fpga/CT.D30*%
X76770000Y-67590000D03*
D68*
X92250000Y-87970000D03*
%TO.N,/fpga/CT.D25*%
X93570000Y-80270000D03*
X82020000Y-68070000D03*
%TO.N,/fpga/CT.D24*%
X81480000Y-68670000D03*
X92280000Y-80320000D03*
D67*
%TO.N,Net-(USBC2-TX2+)*%
X53060000Y-107340000D03*
X52600000Y-104210000D03*
D68*
%TO.N,/Ethernet/LED2*%
X84107694Y-95911975D03*
X92920000Y-108730000D03*
%TO.N,/Ethernet/LED1*%
X93420000Y-109320000D03*
X84109933Y-96488973D03*
D69*
%TO.N,+3V3A_ETH*%
X80527700Y-97749273D03*
X81525358Y-98623021D03*
X93560000Y-98930000D03*
X79020000Y-97670000D03*
D68*
%TO.N,/video/Net-(U26-SD1)*%
X42211603Y-97370084D03*
%TO.N,/video/Net-(U26-SC1)*%
X42064291Y-98010000D03*
%TO.N,/PCIe/REFCLKAC_N*%
X68890000Y-95750000D03*
X63700000Y-90400000D03*
D67*
%TO.N,/ddr3/Net-(U1-ZQ)*%
X54180000Y-32400000D03*
D68*
%TO.N,/PCIe/REFCLKAC_P*%
X68315861Y-95692586D03*
X63080000Y-90400000D03*
%TO.N,/video/AC.TX_N1*%
X37680000Y-95550000D03*
X52640000Y-56130000D03*
%TO.N,/video/AC.TX_P1*%
X52630000Y-56930000D03*
X38110000Y-95920000D03*
%TO.N,/video/AC.TX_N2*%
X38870000Y-96120000D03*
X52655786Y-57658019D03*
%TO.N,/video/AC.TX_P2*%
X52720000Y-58520000D03*
X39366177Y-96463413D03*
%TO.N,/Ethernet/TPO_N*%
X90500000Y-101260000D03*
X79028038Y-99604933D03*
X89570000Y-103060000D03*
%TO.N,/Ethernet/TPO_P*%
X89070000Y-100670000D03*
X90140000Y-101990000D03*
X79224000Y-99080000D03*
%TO.N,/Ethernet/TPI_N*%
X86080000Y-96630000D03*
X88870000Y-97700000D03*
X80280000Y-99410000D03*
%TO.N,/Ethernet/TPI_P*%
X89300000Y-95540000D03*
X85950000Y-95610000D03*
X80550000Y-98900000D03*
%TO.N,/Ethernet/Net-(U3-EXRES)*%
X81459990Y-99830429D03*
%TO.N,Net-(L3-RCT)*%
X77030000Y-102710000D03*
X88940000Y-102650000D03*
X88920000Y-96380000D03*
%TO.N,Net-(L3-RXCT)*%
X94550000Y-102750000D03*
%TO.N,Net-(L3-TXCT)*%
X94360000Y-96270000D03*
%TO.N,/fpga/Net-(U29-~{W}{slash}V_{PP})*%
X61770000Y-68590000D03*
X53240000Y-66910000D03*
%TO.N,/fpga/Net-(U29-~{HOLD})*%
X60770000Y-63590000D03*
%TO.N,Net-(J1-Pin_6)*%
X93730000Y-40940000D03*
X93685998Y-47740000D03*
D69*
%TO.N,+1V8_ETH*%
X77400998Y-95105151D03*
X82490000Y-97657002D03*
X84137002Y-97090367D03*
%TO.N,/video/HDMIOV*%
X42370000Y-106840000D03*
X33060000Y-105800000D03*
D67*
%TO.N,Net-(U9-OUT2)*%
X55250000Y-49710000D03*
%TO.N,Net-(U9-OUT)*%
X55180000Y-51250000D03*
D68*
%TO.N,Net-(D3-IO1)*%
X76760000Y-106210000D03*
%TO.N,Net-(D3-IO4)*%
X79740000Y-103810000D03*
X75399039Y-103184997D03*
D67*
%TO.N,Net-(U10special-MSEL0)*%
X63270000Y-59390000D03*
%TD*%
%TO.N,/fpga/DRAM.RAS_N*%
D72*
X64748600Y-45294605D02*
X64108600Y-45294605D01*
X64748600Y-40494605D02*
X64108600Y-40494605D01*
X64748600Y-44094605D02*
X64108600Y-44094605D01*
X63868600Y-36741400D02*
X63868600Y-37254605D01*
X63980000Y-36630000D02*
X63868600Y-36741400D01*
X63868600Y-43134605D02*
X63868600Y-43254605D01*
X64230000Y-36630000D02*
X63980000Y-36630000D01*
X64108600Y-38694605D02*
X64748600Y-38694605D01*
X64748600Y-42894605D02*
X64108600Y-42894605D01*
X63868600Y-39534605D02*
X63868600Y-39654605D01*
X64108600Y-43494605D02*
X64748600Y-43494605D01*
X64988600Y-43734605D02*
X64988600Y-43854605D01*
X64148600Y-38094605D02*
X64108600Y-38094605D01*
X63868600Y-38334605D02*
X63868600Y-38454605D01*
X63868600Y-41934605D02*
X63868600Y-42054605D01*
X64108600Y-37494605D02*
X64148600Y-37494605D01*
X64988600Y-42534605D02*
X64988600Y-42654605D01*
X64108600Y-39894605D02*
X64748600Y-39894605D01*
X63868600Y-45534605D02*
X63868600Y-45654605D01*
X64988600Y-38934605D02*
X64988600Y-39054605D01*
X64748600Y-39294605D02*
X64108600Y-39294605D01*
X63868600Y-44334605D02*
X63868600Y-44454605D01*
X63868600Y-45834600D02*
X63957200Y-45923200D01*
X63957200Y-45923200D02*
X63270000Y-46610400D01*
X64108600Y-44694605D02*
X64748600Y-44694605D01*
X63270000Y-49090000D02*
X63770000Y-49590000D01*
X64748600Y-41694605D02*
X64108600Y-41694605D01*
X64988600Y-41334605D02*
X64988600Y-41454605D01*
X63270000Y-46610400D02*
X63270000Y-49090000D01*
X64988600Y-44934605D02*
X64988600Y-45054605D01*
X64108600Y-41094605D02*
X64748600Y-41094605D01*
X64988600Y-40134605D02*
X64988600Y-40254605D01*
X64388600Y-37734605D02*
X64388600Y-37854605D01*
X63868600Y-40734605D02*
X63868600Y-40854605D01*
X63868600Y-45654605D02*
X63868600Y-45834600D01*
X64108600Y-42294605D02*
X64748600Y-42294605D01*
X64108600Y-39294605D02*
G75*
G03*
X63868605Y-39534605I0J-239995D01*
G01*
X64988600Y-40254605D02*
G75*
G02*
X64748600Y-40494600I-240000J5D01*
G01*
X63868600Y-44454605D02*
G75*
G03*
X64108600Y-44694600I240000J5D01*
G01*
X64748600Y-44694605D02*
G75*
G02*
X64988595Y-44934605I0J-239995D01*
G01*
X63868600Y-40854605D02*
G75*
G03*
X64108600Y-41094600I240000J5D01*
G01*
X64108600Y-41694605D02*
G75*
G03*
X63868605Y-41934605I0J-239995D01*
G01*
X64108600Y-45294605D02*
G75*
G03*
X63868605Y-45534605I0J-239995D01*
G01*
X64988600Y-41454605D02*
G75*
G02*
X64748600Y-41694600I-240000J5D01*
G01*
X64108600Y-40494605D02*
G75*
G03*
X63868605Y-40734605I0J-239995D01*
G01*
X64748600Y-43494605D02*
G75*
G02*
X64988595Y-43734605I0J-239995D01*
G01*
X64148600Y-37494605D02*
G75*
G02*
X64388595Y-37734605I0J-239995D01*
G01*
X63868600Y-43254605D02*
G75*
G03*
X64108600Y-43494600I240000J5D01*
G01*
X64748600Y-39894605D02*
G75*
G02*
X64988595Y-40134605I0J-239995D01*
G01*
X63868600Y-38454605D02*
G75*
G03*
X64108600Y-38694600I240000J5D01*
G01*
X64988600Y-45054605D02*
G75*
G02*
X64748600Y-45294600I-240000J5D01*
G01*
X64988600Y-43854605D02*
G75*
G02*
X64748600Y-44094600I-240000J5D01*
G01*
X64108600Y-38094605D02*
G75*
G03*
X63868605Y-38334605I0J-239995D01*
G01*
X63868600Y-37254605D02*
G75*
G03*
X64108600Y-37494600I240000J5D01*
G01*
X64988600Y-39054605D02*
G75*
G02*
X64748600Y-39294600I-240000J5D01*
G01*
X64108600Y-44094605D02*
G75*
G03*
X63868605Y-44334605I0J-239995D01*
G01*
X64748600Y-42294605D02*
G75*
G02*
X64988595Y-42534605I0J-239995D01*
G01*
X64748600Y-38694605D02*
G75*
G02*
X64988595Y-38934605I0J-239995D01*
G01*
X64108600Y-42894605D02*
G75*
G03*
X63868605Y-43134605I0J-239995D01*
G01*
X64988600Y-42654605D02*
G75*
G02*
X64748600Y-42894600I-240000J5D01*
G01*
X63868600Y-42054605D02*
G75*
G03*
X64108600Y-42294600I240000J5D01*
G01*
X64748600Y-41094605D02*
G75*
G02*
X64988595Y-41334605I0J-239995D01*
G01*
X64388600Y-37854605D02*
G75*
G02*
X64148600Y-38094600I-240000J5D01*
G01*
X63868600Y-39654605D02*
G75*
G03*
X64108600Y-39894600I240000J5D01*
G01*
%TO.N,/fpga/DRAM.CAS_N*%
X62770000Y-47670000D02*
X62770000Y-46024800D01*
X62770000Y-43259800D02*
X62770000Y-43139800D01*
X62770000Y-35187195D02*
X63977195Y-33980000D01*
X63010000Y-45299800D02*
X63454386Y-45299800D01*
X62770000Y-49590000D02*
X62770000Y-49130000D01*
X62770000Y-39659800D02*
X62770000Y-39539800D01*
X63010000Y-44099800D02*
X63454386Y-44099800D01*
X62770000Y-38459800D02*
X62770000Y-38339800D01*
X62770000Y-44459800D02*
X62770000Y-44339800D01*
X62320000Y-48680000D02*
X62320000Y-48120000D01*
X63454386Y-37499800D02*
X63010000Y-37499800D01*
X63694386Y-40259800D02*
X63694386Y-40139800D01*
X62557770Y-45812570D02*
X62557770Y-45405915D01*
X62770000Y-35939800D02*
X62770000Y-35509200D01*
X62770000Y-35509200D02*
X62770000Y-35187195D01*
X63010000Y-42899800D02*
X63454386Y-42899800D01*
X63454364Y-41099800D02*
X63010000Y-41099800D01*
X63010000Y-41699800D02*
X63454364Y-41699800D01*
X63694364Y-39059800D02*
X63694364Y-38939800D01*
X63694386Y-42659800D02*
X63694386Y-42539800D01*
X63454386Y-43499800D02*
X63010000Y-43499800D01*
X62320000Y-48120000D02*
X62770000Y-47670000D01*
X63454386Y-44699800D02*
X63010000Y-44699800D01*
X63010000Y-36899800D02*
X63304364Y-36899800D01*
X63694364Y-41459800D02*
X63694364Y-41339800D01*
X62770000Y-42059800D02*
X62770000Y-41939800D01*
X62770000Y-45299800D02*
X63010000Y-45299800D01*
X62770000Y-40859800D02*
X62770000Y-40739800D01*
X62770000Y-37259800D02*
X62770000Y-37139800D01*
X62770000Y-49130000D02*
X62320000Y-48680000D01*
X63694386Y-37859800D02*
X63694386Y-37739800D01*
X62663885Y-45299800D02*
X62770000Y-45299800D01*
X62770000Y-36059800D02*
X62770000Y-35939800D01*
X63694386Y-43859800D02*
X63694386Y-43739800D01*
X63694386Y-45059800D02*
X63694386Y-44939800D01*
X63454386Y-39899800D02*
X63010000Y-39899800D01*
X63544364Y-36659800D02*
X63544364Y-36539800D01*
X63304364Y-36299800D02*
X63010000Y-36299800D01*
X63010000Y-38099800D02*
X63454386Y-38099800D01*
X63454386Y-42299800D02*
X63010000Y-42299800D01*
X63010000Y-39299800D02*
X63454364Y-39299800D01*
X63454364Y-38699800D02*
X63010000Y-38699800D01*
X63010000Y-40499800D02*
X63454386Y-40499800D01*
X62770000Y-43139800D02*
G75*
G02*
X63010000Y-42899800I240000J0D01*
G01*
X63454386Y-44099800D02*
G75*
G03*
X63694400Y-43859800I14J240000D01*
G01*
X63694386Y-42539800D02*
G75*
G03*
X63454386Y-42299814I-239986J0D01*
G01*
X63694386Y-37739800D02*
G75*
G03*
X63454386Y-37499814I-239986J0D01*
G01*
X63010000Y-42299800D02*
G75*
G02*
X62770000Y-42059800I0J240000D01*
G01*
X62770000Y-46024800D02*
G75*
G03*
X62663885Y-45918700I-106100J0D01*
G01*
X63694386Y-40139800D02*
G75*
G03*
X63454386Y-39899814I-239986J0D01*
G01*
X63694386Y-43739800D02*
G75*
G03*
X63454386Y-43499814I-239986J0D01*
G01*
X63454386Y-45299800D02*
G75*
G03*
X63694400Y-45059800I14J240000D01*
G01*
X63694364Y-41339800D02*
G75*
G03*
X63454364Y-41099836I-239964J0D01*
G01*
X63010000Y-43499800D02*
G75*
G02*
X62770000Y-43259800I0J240000D01*
G01*
X62770000Y-38339800D02*
G75*
G02*
X63010000Y-38099800I240000J0D01*
G01*
X62770000Y-37139800D02*
G75*
G02*
X63010000Y-36899800I240000J0D01*
G01*
X63010000Y-36299800D02*
G75*
G02*
X62770000Y-36059800I0J240000D01*
G01*
X62557770Y-45405915D02*
G75*
G02*
X62663885Y-45299770I106130J15D01*
G01*
X62770000Y-41939800D02*
G75*
G02*
X63010000Y-41699800I240000J0D01*
G01*
X62770000Y-39539800D02*
G75*
G02*
X63010000Y-39299800I240000J0D01*
G01*
X63010000Y-41099800D02*
G75*
G02*
X62770000Y-40859800I0J240000D01*
G01*
X63544364Y-36539800D02*
G75*
G03*
X63304364Y-36299836I-239964J0D01*
G01*
X63454386Y-40499800D02*
G75*
G03*
X63694400Y-40259800I14J240000D01*
G01*
X63694364Y-38939800D02*
G75*
G03*
X63454364Y-38699836I-239964J0D01*
G01*
X63010000Y-37499800D02*
G75*
G02*
X62770000Y-37259800I0J240000D01*
G01*
X63694386Y-44939800D02*
G75*
G03*
X63454386Y-44699814I-239986J0D01*
G01*
X63454364Y-41699800D02*
G75*
G03*
X63694400Y-41459800I36J240000D01*
G01*
X63304364Y-36899800D02*
G75*
G03*
X63544400Y-36659800I36J240000D01*
G01*
X63010000Y-39899800D02*
G75*
G02*
X62770000Y-39659800I0J240000D01*
G01*
X63454386Y-38099800D02*
G75*
G03*
X63694400Y-37859800I14J240000D01*
G01*
X62770000Y-40739800D02*
G75*
G02*
X63010000Y-40499800I240000J0D01*
G01*
X63010000Y-38699800D02*
G75*
G02*
X62770000Y-38459800I0J240000D01*
G01*
X62663885Y-45918685D02*
G75*
G02*
X62557815Y-45812570I15J106085D01*
G01*
X63010000Y-44699800D02*
G75*
G02*
X62770000Y-44459800I0J240000D01*
G01*
X63454364Y-39299800D02*
G75*
G03*
X63694400Y-39059800I36J240000D01*
G01*
X62770000Y-44339800D02*
G75*
G02*
X63010000Y-44099800I240000J0D01*
G01*
X63454386Y-42899800D02*
G75*
G03*
X63694400Y-42659800I14J240000D01*
G01*
%TO.N,/fpga/DRAM.WE_N*%
X63720000Y-53540000D02*
X63020000Y-53540000D01*
X63770000Y-53590000D02*
X63720000Y-53540000D01*
X58340000Y-48840000D02*
X58340000Y-48370000D01*
X59550000Y-50680000D02*
X59110000Y-50240000D01*
X59110000Y-50240000D02*
X59110000Y-49610000D01*
X58610000Y-48100000D02*
X58610000Y-47430000D01*
X60160000Y-50680000D02*
X59550000Y-50680000D01*
X58610000Y-47430000D02*
X61460000Y-44580000D01*
X58340000Y-48370000D02*
X58610000Y-48100000D01*
X63020000Y-53540000D02*
X60160000Y-50680000D01*
X61460000Y-44580000D02*
X61460000Y-33157195D01*
X59110000Y-49610000D02*
X58340000Y-48840000D01*
%TO.N,/fpga/DRAM.CS_N*%
X66275000Y-42971400D02*
X66400000Y-42971400D01*
X66150000Y-41296400D02*
X66150000Y-41646400D01*
X70002400Y-32370000D02*
X69687200Y-32054800D01*
X66525000Y-43571400D02*
X66400000Y-43571400D01*
X66275000Y-44171400D02*
X66400000Y-44171400D01*
X66450000Y-35970000D02*
X66294000Y-36126000D01*
X67005200Y-34188400D02*
X66710000Y-34483600D01*
X66710000Y-35550400D02*
X66450000Y-35810400D01*
X67005200Y-31242000D02*
X66776600Y-31470600D01*
X66400000Y-44171400D02*
X66525000Y-44171400D01*
X66525000Y-42371400D02*
X66400000Y-42371400D01*
X66710000Y-34483600D02*
X66710000Y-35550400D01*
X67564000Y-31445200D02*
X67360800Y-31242000D01*
X66650000Y-44296400D02*
X66650000Y-44646400D01*
X66450000Y-35810400D02*
X66450000Y-35970000D01*
X66650000Y-43096400D02*
X66650000Y-43446400D01*
X66812805Y-37493152D02*
X66812805Y-37896848D01*
X70670000Y-32370000D02*
X70002400Y-32370000D01*
X65240195Y-47689805D02*
X66400000Y-46530000D01*
X66294000Y-36126000D02*
X66294000Y-36974347D01*
X66776600Y-31470600D02*
X66776600Y-31673800D01*
X65770000Y-52590000D02*
X65240195Y-52060195D01*
X66400000Y-43571400D02*
X66275000Y-43571400D01*
X66400000Y-42971400D02*
X66525000Y-42971400D01*
X66150000Y-42496400D02*
X66150000Y-42846400D01*
X68925200Y-32370000D02*
X68336400Y-32370000D01*
X68336400Y-32370000D02*
X67564000Y-31597600D01*
X66400000Y-40670000D02*
X66400000Y-41046400D01*
X67360800Y-31242000D02*
X67005200Y-31242000D01*
X66776600Y-31673800D02*
X67005200Y-31902400D01*
X66294000Y-40564000D02*
X66400000Y-40670000D01*
X69240400Y-32054800D02*
X68925200Y-32370000D01*
X66150000Y-43696400D02*
X66150000Y-44046400D01*
X66812805Y-37896848D02*
X66294000Y-38415653D01*
X69687200Y-32054800D02*
X69240400Y-32054800D01*
X66650000Y-41896400D02*
X66650000Y-42246400D01*
X66525000Y-44771400D02*
X66400000Y-44771400D01*
X66294000Y-36974347D02*
X66812805Y-37493152D01*
X66400000Y-42371400D02*
X66275000Y-42371400D01*
X66400000Y-45496400D02*
X66400000Y-45846400D01*
X67564000Y-31597600D02*
X67564000Y-31445200D01*
X66400000Y-46530000D02*
X66400000Y-46177200D01*
X66400000Y-44771400D02*
X66275000Y-44771400D01*
X65240195Y-52060195D02*
X65240195Y-47689805D01*
X66400000Y-41771400D02*
X66525000Y-41771400D01*
X67005200Y-31902400D02*
X67005200Y-34188400D01*
X66150000Y-44896400D02*
X66150000Y-45246400D01*
X66400000Y-45846400D02*
X66400000Y-46177200D01*
X66275000Y-41771400D02*
X66400000Y-41771400D01*
X66294000Y-38415653D02*
X66294000Y-40564000D01*
X66275000Y-41171400D02*
G75*
G03*
X66150000Y-41296400I0J-125000D01*
G01*
X66525000Y-42971400D02*
G75*
G02*
X66650000Y-43096400I0J-125000D01*
G01*
X66150000Y-41646400D02*
G75*
G03*
X66275000Y-41771400I125000J0D01*
G01*
X66650000Y-42246400D02*
G75*
G02*
X66525000Y-42371400I-125000J0D01*
G01*
X66400000Y-41046400D02*
G75*
G02*
X66275000Y-41171400I-125000J0D01*
G01*
X66525000Y-44171400D02*
G75*
G02*
X66650000Y-44296400I0J-125000D01*
G01*
X66650000Y-44646400D02*
G75*
G02*
X66525000Y-44771400I-125000J0D01*
G01*
X66525000Y-41771400D02*
G75*
G02*
X66650000Y-41896400I0J-125000D01*
G01*
X66275000Y-44771400D02*
G75*
G03*
X66150000Y-44896400I0J-125000D01*
G01*
X66275000Y-45371400D02*
G75*
G02*
X66400000Y-45496400I0J-125000D01*
G01*
X66650000Y-43446400D02*
G75*
G02*
X66525000Y-43571400I-125000J0D01*
G01*
X66150000Y-44046400D02*
G75*
G03*
X66275000Y-44171400I125000J0D01*
G01*
X66275000Y-43571400D02*
G75*
G03*
X66150000Y-43696400I0J-125000D01*
G01*
X66150000Y-42846400D02*
G75*
G03*
X66275000Y-42971400I125000J0D01*
G01*
X66150000Y-45246400D02*
G75*
G03*
X66275000Y-45371400I125000J0D01*
G01*
X66275000Y-42371400D02*
G75*
G03*
X66150000Y-42496400I0J-125000D01*
G01*
%TO.N,/fpga/DRAM.A10*%
X62270414Y-32776386D02*
X62440000Y-32945971D01*
X62026800Y-45770800D02*
X61925200Y-45872400D01*
X62077600Y-49022000D02*
X62230000Y-49174400D01*
X61030000Y-46356430D02*
X60960000Y-46356430D01*
X61417200Y-45872400D02*
X61270000Y-46019600D01*
X62270414Y-32522386D02*
X62270414Y-32776386D01*
X61221400Y-48811400D02*
X61112400Y-48920400D01*
X61925200Y-45872400D02*
X61417200Y-45872400D01*
X62230000Y-49784000D02*
X62770000Y-50324000D01*
X62026800Y-45364400D02*
X62026800Y-45770800D01*
X61468000Y-49326800D02*
X61772800Y-49022000D01*
X61772800Y-49022000D02*
X62077600Y-49022000D01*
X62103000Y-30810200D02*
X62331600Y-31038800D01*
X62230000Y-49174400D02*
X62230000Y-49784000D01*
X62270000Y-47196430D02*
X62270000Y-47316430D01*
X61270000Y-48516430D02*
X61270000Y-48762800D01*
X62331600Y-31038800D02*
X62331600Y-32461200D01*
X61270000Y-46019600D02*
X61270000Y-46116430D01*
X61112400Y-49123600D02*
X61315600Y-49326800D01*
X61270000Y-48396430D02*
X61270000Y-48516430D01*
X62440000Y-44951200D02*
X62026800Y-45364400D01*
X62440000Y-32945971D02*
X62440000Y-44951200D01*
X61270000Y-47556430D02*
X61030000Y-47556430D01*
X61112400Y-48920400D02*
X61112400Y-49123600D01*
X60960000Y-46956430D02*
X61030000Y-46956430D01*
X60570000Y-47796430D02*
X60570000Y-47916430D01*
X60810000Y-48156430D02*
X61030000Y-48156430D01*
X61919248Y-32369585D02*
X61925200Y-32363633D01*
X61270000Y-48762800D02*
X61221400Y-48811400D01*
X62030000Y-47556430D02*
X61270000Y-47556430D01*
X62331600Y-32461200D02*
X62270414Y-32522386D01*
X61925200Y-32363633D02*
X61925200Y-30988000D01*
X61270000Y-46956430D02*
X62030000Y-46956430D01*
X61315600Y-49326800D02*
X61468000Y-49326800D01*
X62770000Y-50324000D02*
X62770000Y-50590000D01*
X61030000Y-46956430D02*
X61270000Y-46956430D01*
X61030000Y-47556430D02*
X60810000Y-47556430D01*
X61925200Y-30988000D02*
X62103000Y-30810200D01*
X60720000Y-46596430D02*
X60720000Y-46716430D01*
X62030000Y-46956430D02*
G75*
G02*
X62269970Y-47196430I0J-239970D01*
G01*
X61270000Y-46116430D02*
G75*
G02*
X61030000Y-46356400I-240000J30D01*
G01*
X60570000Y-47916430D02*
G75*
G03*
X60810000Y-48156400I240000J30D01*
G01*
X61030000Y-48156430D02*
G75*
G02*
X61269970Y-48396430I0J-239970D01*
G01*
X60810000Y-47556430D02*
G75*
G03*
X60570030Y-47796430I0J-239970D01*
G01*
X60720000Y-46716430D02*
G75*
G03*
X60960000Y-46956400I240000J30D01*
G01*
X62270000Y-47316430D02*
G75*
G02*
X62030000Y-47556400I-240000J30D01*
G01*
X60960000Y-46356430D02*
G75*
G03*
X60720030Y-46596430I0J-239970D01*
G01*
%TO.N,/fpga/DRAM.BA2*%
X68165623Y-43172916D02*
X68165623Y-43052916D01*
X67270000Y-35527557D02*
X67270000Y-34710000D01*
X67925623Y-42812916D02*
X67180000Y-42812916D01*
X66230000Y-48990000D02*
X66300000Y-48920000D01*
X66940000Y-40480000D02*
X66802000Y-40342000D01*
X65818088Y-50590000D02*
X65818088Y-50451912D01*
X67103415Y-37372777D02*
X66802000Y-37071362D01*
X67925623Y-41612916D02*
X67180000Y-41612916D01*
X66802000Y-36398000D02*
X67014084Y-36185916D01*
X66940000Y-42572916D02*
X66940000Y-42452916D01*
X66940000Y-40998711D02*
X66940000Y-40480000D01*
X67270000Y-34710000D02*
X69220000Y-32760000D01*
X67180000Y-44612916D02*
X67925623Y-44612916D01*
X65818088Y-50451912D02*
X66230000Y-50040000D01*
X67014084Y-36185916D02*
X67014084Y-35783473D01*
X67014084Y-35783473D02*
X67270000Y-35527557D01*
X68165623Y-41972916D02*
X68165623Y-41852916D01*
X67925623Y-44012916D02*
X67180000Y-44012916D01*
X66940000Y-46770000D02*
X66940000Y-44852916D01*
X66940000Y-41372916D02*
X66940000Y-41252916D01*
X67180000Y-43412916D02*
X67925623Y-43412916D01*
X71420000Y-32410000D02*
X71420000Y-31943804D01*
X67180000Y-42212916D02*
X67925623Y-42212916D01*
X66940000Y-43772916D02*
X66940000Y-43652916D01*
X69220000Y-32760000D02*
X71070000Y-32760000D01*
X66940000Y-41252916D02*
X66940000Y-40998711D01*
X68165623Y-44372916D02*
X68165623Y-44252916D01*
X71070000Y-32760000D02*
X71420000Y-32410000D01*
X66230000Y-50040000D02*
X66230000Y-48990000D01*
X66802000Y-40342000D02*
X66802000Y-38318637D01*
X67103415Y-38017222D02*
X67103415Y-37372777D01*
X66300000Y-47410000D02*
X66940000Y-46770000D01*
X66802000Y-37071362D02*
X66802000Y-36398000D01*
X71420000Y-31943804D02*
X71037195Y-31560999D01*
X66802000Y-38318637D02*
X67103415Y-38017222D01*
X66300000Y-48920000D02*
X66300000Y-47410000D01*
X67180000Y-42812916D02*
G75*
G02*
X66939984Y-42572916I0J240016D01*
G01*
X68165623Y-44252916D02*
G75*
G03*
X67925623Y-44012877I-240023J16D01*
G01*
X67180000Y-41612916D02*
G75*
G02*
X66939984Y-41372916I0J240016D01*
G01*
X68165623Y-41852916D02*
G75*
G03*
X67925623Y-41612877I-240023J16D01*
G01*
X66940000Y-42452916D02*
G75*
G02*
X67180000Y-42212900I240000J16D01*
G01*
X67925623Y-44612916D02*
G75*
G03*
X68165616Y-44372916I-23J240016D01*
G01*
X66940000Y-43652916D02*
G75*
G02*
X67180000Y-43412900I240000J16D01*
G01*
X67180000Y-44012916D02*
G75*
G02*
X66939984Y-43772916I0J240016D01*
G01*
X68165623Y-43052916D02*
G75*
G03*
X67925623Y-42812877I-240023J16D01*
G01*
X66940000Y-44852916D02*
G75*
G02*
X67180000Y-44612900I240000J16D01*
G01*
X67925623Y-43412916D02*
G75*
G03*
X68165616Y-43172916I-23J240016D01*
G01*
X67925623Y-42212916D02*
G75*
G03*
X68165616Y-41972916I-23J240016D01*
G01*
%TO.N,+1V35*%
D73*
X76230000Y-46110000D02*
X76620000Y-46500000D01*
X69290000Y-49970000D02*
X69300000Y-49970000D01*
X50713600Y-42316400D02*
X49733200Y-42316400D01*
X58980000Y-39585500D02*
X58980600Y-39585500D01*
X72460000Y-26120000D02*
X71970000Y-26120000D01*
D74*
X58593300Y-38350000D02*
X57590000Y-38350000D01*
X58978800Y-37964500D02*
X58593300Y-38350000D01*
X58932000Y-34798000D02*
X58540000Y-35190000D01*
D73*
X81290000Y-36480000D02*
X80510000Y-36480000D01*
X55210000Y-35600000D02*
X55800000Y-36190000D01*
X78000000Y-26250000D02*
X77590000Y-26250000D01*
X85060000Y-51150000D02*
X85060000Y-51390000D01*
X74030000Y-37200000D02*
X73690000Y-37200000D01*
X83970000Y-46100000D02*
X83970000Y-44910000D01*
X52985200Y-39194800D02*
X52374800Y-39194800D01*
X54980000Y-35600000D02*
X55210000Y-35600000D01*
X81270000Y-30800000D02*
X81290000Y-30820000D01*
X78850000Y-25400000D02*
X78000000Y-26250000D01*
X53190000Y-37810000D02*
X53380000Y-38000000D01*
X60380000Y-29200000D02*
X60470000Y-29290000D01*
X58999200Y-44907200D02*
X57714800Y-46191600D01*
X80600000Y-40570000D02*
X80430000Y-40400000D01*
X73690000Y-37200000D02*
X73220000Y-36730000D01*
X50728800Y-25552400D02*
X49942000Y-25552400D01*
X81310000Y-40570000D02*
X80600000Y-40570000D01*
X80510000Y-36480000D02*
X80430000Y-36400000D01*
D74*
X57590000Y-38350000D02*
X57300000Y-38640000D01*
D73*
X80040000Y-46090000D02*
X79030000Y-46090000D01*
X75770000Y-49590000D02*
X76350000Y-49590000D01*
X52400000Y-37810000D02*
X53190000Y-37810000D01*
D74*
X58978800Y-34798000D02*
X58932000Y-34798000D01*
D73*
X63830000Y-54590000D02*
X64300000Y-55060000D01*
X49942000Y-25552400D02*
X49682400Y-25812000D01*
X74770000Y-52590000D02*
X74870000Y-52590000D01*
X57714800Y-46191600D02*
X55710000Y-46191600D01*
X64300000Y-55060000D02*
X64300000Y-55070000D01*
X34630000Y-31191000D02*
X34630000Y-31288600D01*
X73900000Y-29330000D02*
X74030000Y-29200000D01*
X80430000Y-30800000D02*
X81270000Y-30800000D01*
X59471800Y-40713700D02*
X59780000Y-40405500D01*
X81260000Y-29210000D02*
X80440000Y-29210000D01*
X59012700Y-37998400D02*
X58978800Y-37964500D01*
X63063200Y-25552400D02*
X63912400Y-25552400D01*
X69100000Y-50160000D02*
X69290000Y-49970000D01*
D74*
X57580000Y-35190000D02*
X57300000Y-35470000D01*
D73*
X73220000Y-25360000D02*
X72460000Y-26120000D01*
X59015500Y-37998400D02*
X59012700Y-37998400D01*
X79030000Y-46090000D02*
X78810000Y-46310000D01*
X74870000Y-52590000D02*
X75260000Y-52980000D01*
X53362000Y-29182000D02*
X53380000Y-29200000D01*
X52374800Y-29182000D02*
X53362000Y-29182000D01*
X73070000Y-29330000D02*
X73900000Y-29330000D01*
X75530000Y-46110000D02*
X76230000Y-46110000D01*
X74960000Y-40530000D02*
X74830000Y-40400000D01*
X74960000Y-41360000D02*
X74960000Y-40530000D01*
X59471800Y-41402000D02*
X59471800Y-40713700D01*
D74*
X58540000Y-35190000D02*
X57580000Y-35190000D01*
D73*
X63912400Y-25552400D02*
X64410000Y-26050000D01*
X68800000Y-50160000D02*
X69100000Y-50160000D01*
X53380000Y-38800000D02*
X52985200Y-39194800D01*
X76350000Y-49590000D02*
X76530000Y-49410000D01*
X59780000Y-29200000D02*
X60380000Y-29200000D01*
X85060000Y-51390000D02*
X84850000Y-51600000D01*
X80440000Y-29210000D02*
X80430000Y-29200000D01*
X74030000Y-34800000D02*
X73170000Y-34800000D01*
X74015000Y-29185000D02*
X74030000Y-29200000D01*
X63770000Y-54590000D02*
X63830000Y-54590000D01*
X83970000Y-44910000D02*
X84310000Y-44570000D01*
X80464800Y-29234800D02*
X80430000Y-29200000D01*
%TO.N,/fpga/TCK*%
D74*
X47590000Y-71420000D02*
X45960000Y-73050000D01*
X53990000Y-65490000D02*
X51740000Y-65490000D01*
X56540000Y-68040000D02*
X53990000Y-65490000D01*
X58370000Y-72240000D02*
X56540000Y-70410000D01*
X47590000Y-69640000D02*
X47590000Y-71420000D01*
X45960000Y-73050000D02*
X45960000Y-73630000D01*
X56540000Y-70410000D02*
X56540000Y-68040000D01*
X58580000Y-72240000D02*
X58370000Y-72240000D01*
X51740000Y-65490000D02*
X47590000Y-69640000D01*
%TO.N,GND*%
D73*
X65980000Y-90990000D02*
X65980000Y-90380000D01*
X83970000Y-48090000D02*
X85140000Y-49260000D01*
X49690000Y-49780000D02*
X49700000Y-49770000D01*
X69210000Y-25810000D02*
X69560000Y-26160000D01*
X70089999Y-52589999D02*
X70081178Y-52581178D01*
X76220000Y-52140000D02*
X76770000Y-51590000D01*
X89560000Y-105370000D02*
X89380000Y-105550000D01*
D75*
X91880000Y-90450000D02*
X92850000Y-90450000D01*
D73*
X38080000Y-98520000D02*
X40480000Y-98520000D01*
X70990000Y-59370000D02*
X71770000Y-58590000D01*
X41210000Y-98520000D02*
X41840000Y-99150000D01*
X40560000Y-103520000D02*
X40490000Y-103590000D01*
X83610000Y-70720000D02*
X83340000Y-70450000D01*
X31270000Y-96240000D02*
X31120000Y-96090000D01*
X40780000Y-89730000D02*
X40780000Y-90100000D01*
X80440000Y-39610000D02*
X80430000Y-39600000D01*
X74490000Y-100670000D02*
X72190000Y-100670000D01*
X92210000Y-105370000D02*
X89560000Y-105370000D01*
X78350000Y-96550000D02*
X78380000Y-96520000D01*
X37580000Y-30160000D02*
X37600000Y-30140000D01*
X37570000Y-102850000D02*
X37570000Y-103620000D01*
X53365000Y-35585000D02*
X53380000Y-35600000D01*
X74030000Y-35600000D02*
X73330000Y-35600000D01*
X43780000Y-96790000D02*
X43790000Y-96800000D01*
X73410000Y-31600000D02*
X72670000Y-30860000D01*
X91930000Y-29520000D02*
X92450000Y-30040000D01*
D74*
X54530000Y-37550000D02*
X55400000Y-37550000D01*
D73*
X85220000Y-65690000D02*
X85220000Y-65240000D01*
X67790000Y-58570000D02*
X67770000Y-58590000D01*
X43800000Y-47300000D02*
X40830000Y-47300000D01*
D75*
X36200000Y-29520000D02*
X40270000Y-29520000D01*
D73*
X31290000Y-101210000D02*
X31270000Y-101230000D01*
D75*
X35820000Y-90430000D02*
X38920000Y-90430000D01*
D73*
X43800000Y-90480000D02*
X43150000Y-90480000D01*
X37480000Y-99120000D02*
X38080000Y-98520000D01*
X39360000Y-89990000D02*
X38920000Y-90430000D01*
X84825000Y-52600000D02*
X84825000Y-54175000D01*
X73630000Y-46110000D02*
X73630000Y-46510000D01*
D74*
X58590000Y-37550000D02*
X57430000Y-37550000D01*
D73*
X80950000Y-101950000D02*
X80950000Y-101990000D01*
X83420000Y-92400000D02*
X83430000Y-92410000D01*
X52400000Y-36850000D02*
X52930000Y-36850000D01*
X56550000Y-34820000D02*
X56020000Y-35350000D01*
X84650000Y-52600000D02*
X84100000Y-52050000D01*
X65260000Y-55070000D02*
X65300000Y-55030000D01*
X80580000Y-28250000D02*
X80430000Y-28400000D01*
D75*
X88780000Y-90450000D02*
X91880000Y-90450000D01*
D73*
X37570000Y-103620000D02*
X37570000Y-104103962D01*
X81720000Y-95160000D02*
X81740000Y-95140000D01*
X84825000Y-52600000D02*
X84650000Y-52600000D01*
X31270000Y-98560000D02*
X31270000Y-98700000D01*
X79870000Y-96330000D02*
X80480000Y-96330000D01*
X31270000Y-98650000D02*
X30690000Y-99230000D01*
X79370000Y-69170000D02*
X79380000Y-69180000D01*
X41910000Y-30870000D02*
X41910000Y-30180000D01*
X73630000Y-45920000D02*
X75420000Y-44130000D01*
X65300000Y-55030000D02*
X65330000Y-55030000D01*
X34510000Y-103606578D02*
X34510000Y-102836578D01*
X70630000Y-49590000D02*
X70260000Y-49960000D01*
X70480000Y-92890000D02*
X70480000Y-92939999D01*
X81110000Y-31600000D02*
X81290000Y-31780000D01*
X78010000Y-94640000D02*
X78460000Y-94640000D01*
X65980000Y-90380000D02*
X66130000Y-90230000D01*
X92320000Y-89090000D02*
X92320000Y-89725600D01*
X83970000Y-47650000D02*
X83970000Y-48090000D01*
X74000000Y-41360000D02*
X74000000Y-40430000D01*
X55252800Y-44907200D02*
X54860000Y-45300000D01*
X73580000Y-91730000D02*
X73580000Y-91470000D01*
X92320000Y-90010000D02*
X92320000Y-89814400D01*
X53202000Y-28222000D02*
X53380000Y-28400000D01*
X61770000Y-66720000D02*
X61840000Y-66650000D01*
X52374800Y-40154800D02*
X53134800Y-40154800D01*
X72670000Y-30860000D02*
X72670000Y-30795000D01*
X52930000Y-36850000D02*
X53380000Y-36400000D01*
X83420000Y-91730000D02*
X83420000Y-92400000D01*
D74*
X59432400Y-35970000D02*
X59791600Y-35610800D01*
D73*
X93804400Y-89766003D02*
X93760551Y-89722154D01*
X78380000Y-39620000D02*
X78400000Y-39600000D01*
X80441000Y-39611000D02*
X80430000Y-39600000D01*
D75*
X40270000Y-29520000D02*
X43800000Y-29520000D01*
D73*
X74000000Y-40430000D02*
X74030000Y-40400000D01*
X67850000Y-60510000D02*
X67770000Y-60590000D01*
X54050000Y-70460000D02*
X54050000Y-68430000D01*
X76220000Y-52980000D02*
X76220000Y-52140000D01*
X77270000Y-48120000D02*
X77720000Y-48570000D01*
X64850000Y-93400000D02*
X65470000Y-93400000D01*
X75120000Y-25360000D02*
X75800000Y-26040000D01*
X40480000Y-98520000D02*
X41210000Y-98520000D01*
X58770000Y-55590000D02*
X58770000Y-55450000D01*
X85520000Y-48880000D02*
X85140000Y-49260000D01*
X74030000Y-31600000D02*
X73410000Y-31600000D01*
X94310000Y-29520000D02*
X93810000Y-30020000D01*
X70770000Y-49590000D02*
X70630000Y-49590000D01*
X40830000Y-47300000D02*
X40820000Y-47310000D01*
X31290000Y-100180000D02*
X31290000Y-101210000D01*
X66870000Y-58470000D02*
X66870000Y-57690000D01*
X81940000Y-46090000D02*
X81940000Y-47940000D01*
X93760551Y-89722154D02*
X93760551Y-88890000D01*
X53380000Y-31600000D02*
X52470000Y-31600000D01*
X81810000Y-93440000D02*
X81740000Y-93370000D01*
D75*
X93620000Y-90450000D02*
X94070000Y-90450000D01*
D74*
X57760000Y-35970000D02*
X59432400Y-35970000D01*
D73*
X80510000Y-35520000D02*
X80430000Y-35600000D01*
X68760000Y-60510000D02*
X67850000Y-60510000D01*
D75*
X95490000Y-90450000D02*
X95520000Y-90480000D01*
D73*
X85220000Y-65240000D02*
X85480000Y-64980000D01*
X92320000Y-89725600D02*
X92275600Y-89770000D01*
X61770000Y-67590000D02*
X61770000Y-66720000D01*
X73330000Y-35600000D02*
X73170000Y-35760000D01*
X52613600Y-42316400D02*
X51833780Y-41536580D01*
X56550000Y-33340000D02*
X56550000Y-34820000D01*
D75*
X38920000Y-90430000D02*
X39890000Y-90430000D01*
D73*
X40340000Y-103590000D02*
X40490000Y-103590000D01*
X51833780Y-41536580D02*
X51745810Y-41536580D01*
X78750000Y-69170000D02*
X79370000Y-69170000D01*
X39360000Y-89750000D02*
X39360000Y-89990000D01*
X81260000Y-28250000D02*
X80580000Y-28250000D01*
X85480000Y-64980000D02*
X85640000Y-64980000D01*
D75*
X93620000Y-90450000D02*
X95490000Y-90450000D01*
D73*
X80460000Y-91780000D02*
X80470000Y-91770000D01*
X81290000Y-35520000D02*
X80510000Y-35520000D01*
X40780000Y-90100000D02*
X41110000Y-90430000D01*
X77750000Y-93451800D02*
X77820000Y-93521800D01*
X83925000Y-68655000D02*
X84290000Y-68290000D01*
X89200000Y-29520000D02*
X91930000Y-29520000D01*
X74500000Y-100660000D02*
X74490000Y-100670000D01*
X82530000Y-98398498D02*
X83430000Y-97498498D01*
D74*
X54180000Y-37200000D02*
X54530000Y-37550000D01*
D73*
X47700000Y-49780000D02*
X49690000Y-49780000D01*
X73070000Y-28370000D02*
X74000000Y-28370000D01*
X74330000Y-51150000D02*
X73770000Y-50590000D01*
X93715600Y-89854803D02*
X93804400Y-89766003D01*
X52374800Y-28222000D02*
X53202000Y-28222000D01*
X53134800Y-40154800D02*
X53380000Y-40400000D01*
X42300000Y-99610000D02*
X42610000Y-99610000D01*
X57730000Y-40000000D02*
X58170000Y-39560000D01*
X70260000Y-49960000D02*
X70260000Y-49970000D01*
X70480000Y-92939999D02*
X70149998Y-93270001D01*
X85520000Y-47660000D02*
X85520000Y-48880000D01*
X81310000Y-39610000D02*
X80440000Y-39610000D01*
X77490000Y-48800000D02*
X77490000Y-49410000D01*
X68295000Y-25810000D02*
X69210000Y-25810000D01*
X81380000Y-25400000D02*
X81940000Y-25960000D01*
X58170000Y-39560000D02*
X58180000Y-39560000D01*
D74*
X57430000Y-37550000D02*
X57300000Y-37680000D01*
D73*
X77210000Y-48120000D02*
X77270000Y-48120000D01*
X34510000Y-102396385D02*
X34556922Y-102349463D01*
X80950000Y-101990000D02*
X80380000Y-102560000D01*
X37570000Y-104103962D02*
X37705921Y-104239883D01*
X92320000Y-89814400D02*
X92275600Y-89770000D01*
X61163200Y-25552400D02*
X60406800Y-25552400D01*
X49700000Y-49770000D02*
X50670000Y-49770000D01*
X51680000Y-35585000D02*
X53365000Y-35585000D01*
X85455000Y-101095000D02*
X85150000Y-100790000D01*
D75*
X41110000Y-90430000D02*
X43420000Y-90430000D01*
D73*
X68810000Y-57630000D02*
X68770000Y-57590000D01*
X75800000Y-26040000D02*
X76330000Y-26040000D01*
X68760000Y-58570000D02*
X67790000Y-58570000D01*
D74*
X58980000Y-37160000D02*
X58590000Y-37550000D01*
D73*
X42910000Y-96790000D02*
X43780000Y-96790000D01*
X83925000Y-69580000D02*
X83925000Y-68655000D01*
X74030000Y-39600000D02*
X73220000Y-38790000D01*
X37580000Y-30840000D02*
X37580000Y-30160000D01*
X84825000Y-54175000D02*
X84900000Y-54250000D01*
X60406800Y-25552400D02*
X60147200Y-25812000D01*
X31270000Y-97020000D02*
X31270000Y-96240000D01*
X74000000Y-28370000D02*
X74030000Y-28400000D01*
D74*
X57300000Y-36430000D02*
X57760000Y-35970000D01*
D73*
X69810000Y-57630000D02*
X68810000Y-57630000D01*
X94070000Y-90450000D02*
X93715600Y-90095600D01*
X80480000Y-96330000D02*
X80490000Y-96340000D01*
X81720000Y-96840000D02*
X81308498Y-96840000D01*
X91880000Y-90450000D02*
X92320000Y-90010000D01*
X73580000Y-91470000D02*
X74380000Y-90670000D01*
X53385200Y-25552400D02*
X53644800Y-25812000D01*
X58770000Y-55450000D02*
X59250000Y-54970000D01*
X80750000Y-25400000D02*
X81380000Y-25400000D01*
X85800000Y-101095000D02*
X85455000Y-101095000D01*
X82530000Y-98610000D02*
X82530000Y-98398498D01*
X40100000Y-103830000D02*
X40340000Y-103590000D01*
X80460000Y-92410000D02*
X80460000Y-91780000D01*
X54050000Y-68430000D02*
X53250000Y-67630000D01*
X70990000Y-59600000D02*
X70990000Y-59370000D01*
X52470000Y-31600000D02*
X51770000Y-30900000D01*
X73630000Y-46110000D02*
X73630000Y-45920000D01*
X65160000Y-89600000D02*
X64650000Y-89600000D01*
D75*
X92850000Y-90450000D02*
X93620000Y-90450000D01*
D73*
X41840000Y-99150000D02*
X42300000Y-99610000D01*
X52628800Y-25552400D02*
X53385200Y-25552400D01*
X73630000Y-46510000D02*
X74850000Y-47730000D01*
X64650000Y-89600000D02*
X64540000Y-89710000D01*
X65330000Y-55030000D02*
X65770000Y-54590000D01*
X39360000Y-89750000D02*
X39360000Y-89070000D01*
X60400000Y-28400000D02*
X60470000Y-28330000D01*
X57730000Y-40970000D02*
X57730000Y-40000000D01*
X83140000Y-93440000D02*
X81810000Y-93440000D01*
X78350000Y-97140000D02*
X78350000Y-96550000D01*
X58511800Y-41402000D02*
X58162000Y-41402000D01*
X66870000Y-57690000D02*
X66770000Y-57590000D01*
X80430000Y-31600000D02*
X81110000Y-31600000D01*
X77720000Y-48570000D02*
X77490000Y-48800000D01*
D75*
X39890000Y-90430000D02*
X41110000Y-90430000D01*
D73*
X70081178Y-52581178D02*
X70081178Y-52513800D01*
X57099200Y-44907200D02*
X55252800Y-44907200D01*
X78400000Y-39600000D02*
X78830000Y-39600000D01*
X78460000Y-94640000D02*
X78540000Y-94560000D01*
X77120000Y-38360000D02*
X78380000Y-39620000D01*
X73220000Y-38790000D02*
X73220000Y-37690000D01*
X40560000Y-103040000D02*
X40560000Y-103520000D01*
X40780000Y-89730000D02*
X40780000Y-89040000D01*
D74*
X55400000Y-37550000D02*
X55800000Y-37150000D01*
D73*
X59780000Y-28400000D02*
X60400000Y-28400000D01*
X41910000Y-30180000D02*
X41900000Y-30170000D01*
X77750000Y-92990000D02*
X77750000Y-93451800D01*
X34510000Y-103606578D02*
X34510000Y-102396385D01*
X58162000Y-41402000D02*
X57730000Y-40970000D01*
X31270000Y-98560000D02*
X31270000Y-98650000D01*
X81940000Y-47940000D02*
X81190000Y-48690000D01*
X79420000Y-100390000D02*
X78600000Y-101210000D01*
X65470000Y-93400000D02*
X65490000Y-93420000D01*
X93715600Y-90095600D02*
X93715600Y-89854803D01*
X53330200Y-40449800D02*
X53380000Y-40400000D01*
X83610000Y-71200000D02*
X83610000Y-70720000D01*
X77120000Y-33640000D02*
X77120000Y-38360000D01*
X96800000Y-29520000D02*
X94310000Y-29520000D01*
X72190000Y-100670000D02*
X71730000Y-101130000D01*
X50670000Y-49770000D02*
X50760000Y-49860000D01*
X71760000Y-60600000D02*
X71770000Y-60590000D01*
%TO.N,+3V3*%
X40220000Y-97120000D02*
X40550000Y-96790000D01*
X49920000Y-80010000D02*
X49230000Y-79320000D01*
X79490000Y-90920998D02*
X79490000Y-91750000D01*
X49230000Y-77930000D02*
X49250000Y-77910000D01*
D76*
X93660000Y-37140000D02*
X95520000Y-37140000D01*
D73*
X42380000Y-93470000D02*
X42510000Y-93470000D01*
X74770000Y-57590000D02*
X74770000Y-58590000D01*
X33180000Y-100520000D02*
X32840000Y-100180000D01*
X77370000Y-91650000D02*
X77750000Y-92030000D01*
X74860000Y-60500000D02*
X75770000Y-59590000D01*
X84170032Y-50210000D02*
X83650000Y-50210000D01*
X50240000Y-77460000D02*
X49700000Y-77460000D01*
X33270000Y-98560000D02*
X32820000Y-98560000D01*
X49700000Y-77460000D02*
X49250000Y-77910000D01*
X74800000Y-60500000D02*
X74860000Y-60500000D01*
X40550000Y-96790000D02*
X41360000Y-96790000D01*
X83275000Y-52600000D02*
X83275000Y-53775000D01*
X67860000Y-90150000D02*
X67170000Y-90150000D01*
X82460000Y-91730000D02*
X82460000Y-90960998D01*
X51270000Y-67130000D02*
X52420000Y-65980000D01*
X64170000Y-57000000D02*
X64310000Y-57000000D01*
X41360000Y-96790000D02*
X41360000Y-96520000D01*
X84920000Y-80880000D02*
X84920000Y-80870000D01*
X41840000Y-100700000D02*
X42110000Y-100700000D01*
X70234502Y-94095498D02*
X70234502Y-94340000D01*
X74770000Y-60565600D02*
X74770000Y-60548454D01*
X32760000Y-100180000D02*
X32120000Y-100820000D01*
X39680000Y-97120000D02*
X40220000Y-97120000D01*
X77770000Y-68590000D02*
X77770000Y-69150000D01*
X65200000Y-90600000D02*
X65160000Y-90560000D01*
X51730000Y-47710000D02*
X51510000Y-47930000D01*
X76327500Y-98790000D02*
X76230000Y-98790000D01*
X84020000Y-78470000D02*
X83410000Y-77860000D01*
X73811546Y-59590000D02*
X73770000Y-59590000D01*
X41360000Y-96520000D02*
X40920000Y-96080000D01*
X49230000Y-81460000D02*
X49230000Y-79320000D01*
X82460000Y-90960998D02*
X82500000Y-90920998D01*
X77770000Y-69150000D02*
X77790000Y-69170000D01*
X49870000Y-82080000D02*
X49850000Y-82080000D01*
X67170000Y-90150000D02*
X67090000Y-90230000D01*
X34480000Y-98520000D02*
X34472401Y-98527599D01*
X74770000Y-58590000D02*
X73770000Y-59590000D01*
X32820000Y-98580000D02*
X32140000Y-99260000D01*
X82800000Y-55900000D02*
X82800000Y-54250000D01*
X41660000Y-100520000D02*
X41840000Y-100700000D01*
X76230000Y-98790000D02*
X75630000Y-99390000D01*
X64310000Y-57000000D02*
X64903363Y-57593363D01*
X77370000Y-91530000D02*
X77370000Y-91650000D01*
X57745000Y-47710000D02*
X51730000Y-47710000D01*
X85695000Y-67240000D02*
X86137501Y-67682501D01*
X42110000Y-100700000D02*
X42610000Y-100200000D01*
X64810000Y-94310000D02*
X65420000Y-94310000D01*
X51270000Y-68510000D02*
X51270000Y-67130000D01*
X34472401Y-98527599D02*
X33302401Y-98527599D01*
X34480000Y-100520000D02*
X33180000Y-100520000D01*
X70480000Y-93850000D02*
X70234502Y-94095498D01*
X85220000Y-67240000D02*
X85695000Y-67240000D01*
X37280000Y-96292492D02*
X37253200Y-96265692D01*
X32820000Y-98560000D02*
X32820000Y-98580000D01*
X83275000Y-52600000D02*
X83260000Y-52600000D01*
X42510000Y-93470000D02*
X43320000Y-92660000D01*
X65420000Y-94310000D02*
X65490000Y-94380000D01*
X40480000Y-100520000D02*
X41660000Y-100520000D01*
X49850000Y-82080000D02*
X49330000Y-81560000D01*
X84360000Y-50570000D02*
X84360000Y-50399968D01*
X84020000Y-79970000D02*
X84020000Y-78470000D01*
X37280000Y-97120000D02*
X37280000Y-96292492D01*
X83260000Y-52600000D02*
X82640000Y-51980000D01*
X79490000Y-91750000D02*
X79510000Y-91770000D01*
X83275000Y-53775000D02*
X82800000Y-54250000D01*
D76*
X93270000Y-36750000D02*
X93660000Y-37140000D01*
D73*
X49230000Y-79320000D02*
X49230000Y-77930000D01*
X84360000Y-50399968D02*
X84170032Y-50210000D01*
X32840000Y-100180000D02*
X32760000Y-100180000D01*
X74770000Y-60548454D02*
X73811546Y-59590000D01*
X65200000Y-91260000D02*
X65200000Y-90600000D01*
X33302401Y-98527599D02*
X33270000Y-98560000D01*
X84920000Y-80870000D02*
X84020000Y-79970000D01*
%TO.N,/fpga/TDI*%
D74*
X46350000Y-63780000D02*
X45700000Y-63780000D01*
X58590000Y-71550000D02*
X57080000Y-70040000D01*
X47570000Y-65000000D02*
X46350000Y-63780000D01*
X57080000Y-67940000D02*
X54140000Y-65000000D01*
X57080000Y-70040000D02*
X57080000Y-67940000D01*
X54140000Y-65000000D02*
X47570000Y-65000000D01*
%TO.N,/usb2/USBVBUSE*%
D73*
X85000000Y-108830000D02*
X87800000Y-106030000D01*
X87800000Y-96040000D02*
X92245000Y-91595000D01*
X87800000Y-106030000D02*
X87800000Y-96040000D01*
%TO.N,/fpga/HDMI.CLK_P*%
D77*
X61432400Y-54252400D02*
X62770000Y-55590000D01*
X57975291Y-54492400D02*
X57975291Y-54953348D01*
X57375291Y-54953341D02*
X57375291Y-54492400D01*
X58215291Y-55193348D02*
X58335291Y-55193348D01*
X56442400Y-54252400D02*
X56535291Y-54252400D01*
X56775291Y-54492400D02*
X56775291Y-54953341D01*
X55789893Y-53599893D02*
X56442400Y-54252400D01*
X59102064Y-54252400D02*
X61432400Y-54252400D01*
X58815291Y-54252400D02*
X58935291Y-54252400D01*
X57015291Y-55193341D02*
X57135291Y-55193341D01*
X57615291Y-54252400D02*
X57735291Y-54252400D01*
X58935291Y-54252400D02*
X59102064Y-54252400D01*
X58575291Y-54953348D02*
X58575291Y-54492400D01*
X55789893Y-53595133D02*
X55789893Y-53599893D01*
X56535291Y-54252400D02*
G75*
G02*
X56775300Y-54492400I9J-240000D01*
G01*
X57135291Y-55193341D02*
G75*
G03*
X57375341Y-54953341I9J240041D01*
G01*
X58575291Y-54492400D02*
G75*
G02*
X58815291Y-54252391I240009J0D01*
G01*
X57375291Y-54492400D02*
G75*
G02*
X57615291Y-54252391I240009J0D01*
G01*
X57735291Y-54252400D02*
G75*
G02*
X57975300Y-54492400I9J-240000D01*
G01*
X56775291Y-54953341D02*
G75*
G03*
X57015291Y-55193309I240009J41D01*
G01*
X57975291Y-54953348D02*
G75*
G03*
X58215291Y-55193309I240009J48D01*
G01*
X58335291Y-55193348D02*
G75*
G03*
X58575348Y-54953348I9J240048D01*
G01*
%TO.N,/fpga/HDMI.CLK_N*%
X55940000Y-52550000D02*
X57337600Y-53947600D01*
X61532760Y-53947600D02*
X61705160Y-54120000D01*
X57337600Y-53947600D02*
X61532760Y-53947600D01*
X65240000Y-54120000D02*
X65770000Y-53590000D01*
X61705160Y-54120000D02*
X65240000Y-54120000D01*
X55900000Y-52550000D02*
X55940000Y-52550000D01*
%TO.N,/video/AC.CLK_N*%
X35280000Y-97120000D02*
X35280000Y-96520000D01*
X35280000Y-96520000D02*
X34890000Y-96130000D01*
X34890000Y-96130000D02*
X34890000Y-95550000D01*
%TO.N,/video/AC.CLK_P*%
X35680000Y-97120000D02*
X35680000Y-96230000D01*
X35680000Y-96230000D02*
X35360000Y-95910000D01*
%TO.N,/video/AC.TX_N0*%
X36480000Y-97120000D02*
X36480000Y-96600000D01*
X36081979Y-96201979D02*
X36081979Y-95546847D01*
X36480000Y-96600000D02*
X36081979Y-96201979D01*
%TO.N,/video/AC.TX_P0*%
X36880000Y-96559814D02*
X36560000Y-96239814D01*
X36880000Y-97120000D02*
X36880000Y-96559814D01*
X36560000Y-96239814D02*
X36560000Y-95870000D01*
%TO.N,+3V3A_PCIE*%
D73*
X73580000Y-93630000D02*
X73580000Y-93080000D01*
X73580000Y-93080000D02*
X73990000Y-92670000D01*
%TO.N,/usb2/USBD_P*%
D74*
X78050000Y-107040000D02*
X79060000Y-106030000D01*
X79060000Y-106030000D02*
X79060000Y-103760000D01*
%TO.N,/usb2/USBD_N*%
X77270000Y-107040000D02*
X77270000Y-103780000D01*
X77270000Y-103780000D02*
X77310000Y-103740000D01*
%TO.N,/usb2/Net-(U20-EXTVBUS)*%
X86180000Y-79640000D02*
X86670000Y-79640000D01*
X86670000Y-79640000D02*
X87420000Y-78890000D01*
X92640000Y-71670000D02*
X92710000Y-71740000D01*
X84920000Y-79230000D02*
X85770000Y-79230000D01*
X91250000Y-76720000D02*
X91280000Y-76750000D01*
X92710000Y-75908115D02*
X91868115Y-76750000D01*
X87420000Y-77880000D02*
X88580000Y-76720000D01*
X92710000Y-71740000D02*
X92710000Y-75908115D01*
X87420000Y-78890000D02*
X87420000Y-77880000D01*
X88580000Y-76720000D02*
X91250000Y-76720000D01*
X91868115Y-76750000D02*
X91280000Y-76750000D01*
X85770000Y-79230000D02*
X86180000Y-79640000D01*
%TO.N,/fpga/USB2.NXT*%
X92960000Y-61100000D02*
X92760000Y-60900000D01*
X84700000Y-59550000D02*
X84700000Y-58640000D01*
X83428200Y-58480000D02*
X83390000Y-58518200D01*
X84700000Y-58640000D02*
X84540000Y-58480000D01*
X84540000Y-58480000D02*
X83428200Y-58480000D01*
X86050000Y-60900000D02*
X84700000Y-59550000D01*
X92760000Y-60900000D02*
X86050000Y-60900000D01*
%TO.N,/fpga/USB2.DIR*%
X91730000Y-66700000D02*
X91420000Y-66390000D01*
X86580000Y-66390000D02*
X86830000Y-66640000D01*
X83850000Y-67300000D02*
X84760000Y-66390000D01*
X87080000Y-66390000D02*
X86830000Y-66640000D01*
X91420000Y-66390000D02*
X87080000Y-66390000D01*
X84760000Y-66390000D02*
X86580000Y-66390000D01*
%TO.N,/fpga/USB2.STP*%
X86706344Y-69410000D02*
X92480000Y-69410000D01*
X84990200Y-70240200D02*
X85876144Y-70240200D01*
X84760000Y-69050000D02*
X84760000Y-70010000D01*
X84760000Y-70010000D02*
X84990200Y-70240200D01*
X85876144Y-70240200D02*
X86706344Y-69410000D01*
X85470000Y-68340000D02*
X84760000Y-69050000D01*
X92480000Y-69410000D02*
X92650000Y-69580000D01*
%TO.N,/fpga/USB2.CLK*%
X92920000Y-69010000D02*
X92980000Y-68950000D01*
X84669428Y-61609428D02*
X83510000Y-60450000D01*
X92980000Y-68110000D02*
X92740000Y-67870000D01*
X92880000Y-62590000D02*
X92880000Y-62184433D01*
X92980000Y-68950000D02*
X92980000Y-68110000D01*
X92304995Y-61609428D02*
X84669428Y-61609428D01*
X92740000Y-67870000D02*
X92740000Y-62730000D01*
X92690000Y-69010000D02*
X92920000Y-69010000D01*
X92740000Y-62730000D02*
X92880000Y-62590000D01*
X92880000Y-62184433D02*
X92304995Y-61609428D01*
%TO.N,/usb2/+1V8*%
D73*
X92330000Y-68470000D02*
X92500000Y-68300000D01*
X86130000Y-68370000D02*
X86130000Y-68925000D01*
X86230000Y-68470000D02*
X92330000Y-68470000D01*
X86130000Y-68925000D02*
X85475000Y-69580000D01*
X86130000Y-68370000D02*
X86230000Y-68470000D01*
%TO.N,/usb2/+1VA8*%
X85160000Y-71200000D02*
X85160000Y-70725000D01*
X85237663Y-70647337D02*
X86053856Y-70647337D01*
X85160000Y-70725000D02*
X85237663Y-70647337D01*
%TO.N,+2V5*%
X64770000Y-51590000D02*
X64250000Y-52110000D01*
X71230000Y-52490000D02*
X71230000Y-52900000D01*
D78*
X64230000Y-52090000D02*
X62400000Y-52090000D01*
D73*
X69100000Y-53110000D02*
X68310000Y-53110000D01*
X72250000Y-52110000D02*
X72770000Y-51590000D01*
X71020000Y-53110000D02*
X69100000Y-53110000D01*
D79*
X60380000Y-49900000D02*
X60380000Y-50070000D01*
X61520000Y-50480000D02*
X61880000Y-50840000D01*
X60380000Y-50070000D02*
X60790000Y-50480000D01*
D78*
X62400000Y-52090000D02*
X62380000Y-52110000D01*
D73*
X71230000Y-52900000D02*
X71020000Y-53110000D01*
X68310000Y-53110000D02*
X67810000Y-52610000D01*
X71290000Y-52430000D02*
X71230000Y-52490000D01*
D79*
X61880000Y-51610000D02*
X62320000Y-52050000D01*
X62320000Y-52050000D02*
X62360000Y-52090000D01*
X61880000Y-50840000D02*
X61880000Y-51610000D01*
D73*
X71290000Y-52110000D02*
X71290000Y-52430000D01*
X71290000Y-52110000D02*
X72250000Y-52110000D01*
D79*
X60790000Y-50480000D02*
X61520000Y-50480000D01*
D73*
X72770000Y-51590000D02*
X72830000Y-51590000D01*
X70770000Y-51590000D02*
X71290000Y-52110000D01*
X62380000Y-52110000D02*
X62360000Y-52090000D01*
D78*
X64250000Y-52110000D02*
X64230000Y-52090000D01*
%TO.N,/fpga/PCIE.SPARE*%
D74*
X61660000Y-101340000D02*
X61860000Y-101540000D01*
X61660000Y-99030000D02*
X61660000Y-101340000D01*
%TO.N,/PCIe/PCIESLOT.REFLCK_N*%
X66450000Y-94910000D02*
X66730000Y-95190000D01*
X64160000Y-96370000D02*
X65620000Y-94910000D01*
X66730000Y-95190000D02*
X66730000Y-95600000D01*
X65620000Y-94910000D02*
X66450000Y-94910000D01*
X64160000Y-99030000D02*
X64160000Y-96370000D01*
%TO.N,/PCIe/PCIESLOT.REFLCK_P*%
X65520000Y-95430000D02*
X66000000Y-95430000D01*
X65070000Y-96560000D02*
X64790000Y-96560000D01*
X66160000Y-99030000D02*
X66160000Y-96240000D01*
X65600000Y-96030000D02*
X65070000Y-96560000D01*
X65950000Y-96030000D02*
X65600000Y-96030000D01*
X66160000Y-96240000D02*
X65950000Y-96030000D01*
X64710000Y-96240000D02*
X65520000Y-95430000D01*
X64710000Y-96480000D02*
X64710000Y-96240000D01*
X64790000Y-96560000D02*
X64710000Y-96480000D01*
%TO.N,/fpga/PCIE.RX_P*%
X59160000Y-90390000D02*
X59384473Y-90390000D01*
X61807600Y-92813127D02*
X61807600Y-95640600D01*
X59384473Y-90390000D02*
X61807600Y-92813127D01*
X61807600Y-95640600D02*
X61290000Y-96158200D01*
%TO.N,/fpga/PCIE.RX_N*%
X62112400Y-94459747D02*
X62112400Y-94579747D01*
X62112400Y-94977911D02*
X62112400Y-95382400D01*
X62112400Y-94579747D02*
X62112400Y-94977911D01*
X62495641Y-94219747D02*
X62352400Y-94219747D01*
X59600000Y-90174473D02*
X62112400Y-92686873D01*
X62735641Y-93859747D02*
X62735641Y-93979747D01*
X62112400Y-92686873D02*
X62112400Y-93379747D01*
X59600000Y-89890000D02*
X59600000Y-90174473D01*
X62112400Y-95382400D02*
X62540000Y-95810000D01*
X62352400Y-93619747D02*
X62495641Y-93619747D01*
X62352400Y-94219747D02*
G75*
G03*
X62112447Y-94459747I0J-239953D01*
G01*
X62495641Y-93619747D02*
G75*
G02*
X62735553Y-93859747I-41J-239953D01*
G01*
X62112400Y-93379747D02*
G75*
G03*
X62352400Y-93619700I240000J47D01*
G01*
X62735641Y-93979747D02*
G75*
G02*
X62495641Y-94219741I-240041J47D01*
G01*
%TO.N,+1V1*%
D73*
X32880000Y-41980000D02*
X32930000Y-41930000D01*
X71730000Y-57630000D02*
X71770000Y-57590000D01*
X32720000Y-41980000D02*
X32880000Y-41980000D01*
X67830000Y-59530000D02*
X67770000Y-59590000D01*
X66910000Y-59580000D02*
X67760000Y-59580000D01*
X70800000Y-60620000D02*
X70770000Y-60590000D01*
X67760000Y-59580000D02*
X67770000Y-59590000D01*
X70770000Y-57630000D02*
X71730000Y-57630000D01*
X31340000Y-52570000D02*
X31340000Y-43360000D01*
X70030000Y-59600000D02*
X70030000Y-59330000D01*
X68760000Y-61470000D02*
X67890000Y-61470000D01*
X66870000Y-59540000D02*
X66910000Y-59580000D01*
X31340000Y-43360000D02*
X32720000Y-41980000D01*
X67890000Y-61470000D02*
X67770000Y-61590000D01*
X66870000Y-59430000D02*
X66870000Y-59540000D01*
X70030000Y-59330000D02*
X70770000Y-58590000D01*
X68760000Y-59530000D02*
X67830000Y-59530000D01*
%TO.N,+5V*%
X85520000Y-46110000D02*
X85680000Y-46110000D01*
X89520000Y-84160000D02*
X86630000Y-84160000D01*
X93550000Y-69240000D02*
X93170000Y-69620000D01*
X92290000Y-55910000D02*
X93170000Y-56790000D01*
X85680000Y-46110000D02*
X86290000Y-45500000D01*
X93170000Y-56790000D02*
X93170000Y-60190000D01*
X30300000Y-34540000D02*
X30920000Y-35160000D01*
X30590000Y-50920000D02*
X30120000Y-51390000D01*
X89710000Y-83970000D02*
X89520000Y-84160000D01*
X30120000Y-103820000D02*
X31500000Y-105200000D01*
X39070000Y-107070000D02*
X39070000Y-108530000D01*
X92890000Y-76900000D02*
X92890000Y-78680000D01*
X92890000Y-78680000D02*
X92630000Y-78940000D01*
X38260000Y-106260000D02*
X39070000Y-107070000D01*
X93500000Y-61480000D02*
X93500000Y-64180000D01*
X93550000Y-68180000D02*
X93550000Y-69240000D01*
X45900000Y-108780000D02*
X45900000Y-109340000D01*
X93500000Y-64180000D02*
X93110000Y-64570000D01*
X41650000Y-108780000D02*
X45900000Y-108780000D01*
X87480000Y-54371400D02*
X89018600Y-55910000D01*
X83260000Y-108780000D02*
X70860000Y-108780000D01*
X30120000Y-51390000D02*
X30120000Y-90980000D01*
X31500000Y-105200000D02*
X32990000Y-105200000D01*
X93700000Y-60720000D02*
X93700000Y-61280000D01*
X30120000Y-90980000D02*
X30120000Y-103820000D01*
X30920000Y-35160000D02*
X30920000Y-42220000D01*
X92630000Y-78940000D02*
X88250000Y-78940000D01*
X86730000Y-93840000D02*
X86730000Y-105310000D01*
X86070000Y-84720000D02*
X86070000Y-93180000D01*
X35950000Y-106260000D02*
X38260000Y-106260000D01*
X87480000Y-46690000D02*
X87480000Y-54371400D01*
X43890000Y-106540000D02*
X43890000Y-106410000D01*
X86730000Y-105310000D02*
X83260000Y-108780000D01*
X93110000Y-67740000D02*
X93550000Y-68180000D01*
X93090000Y-76700000D02*
X92890000Y-76900000D01*
X86070000Y-93180000D02*
X86730000Y-93840000D01*
X30590000Y-42550000D02*
X30590000Y-50920000D01*
X86630000Y-84160000D02*
X86070000Y-84720000D01*
X39320000Y-108780000D02*
X41650000Y-108780000D01*
X93090000Y-72430000D02*
X93090000Y-76700000D01*
X36200000Y-32060000D02*
X30490000Y-32060000D01*
X93170000Y-69620000D02*
X93170000Y-70280000D01*
X32990000Y-105200000D02*
X34850000Y-105200000D01*
X93700000Y-61280000D02*
X93500000Y-61480000D01*
X93170000Y-60190000D02*
X93700000Y-60720000D01*
X45900000Y-108780000D02*
X70400000Y-108780000D01*
X93180000Y-70290000D02*
X93180000Y-72340000D01*
X30920000Y-42220000D02*
X30590000Y-42550000D01*
X89018600Y-55910000D02*
X92290000Y-55910000D01*
X43450000Y-110360000D02*
X43330000Y-110240000D01*
X88250000Y-78940000D02*
X86070000Y-81120000D01*
X86070000Y-81120000D02*
X86070000Y-84720000D01*
X93110000Y-64570000D02*
X93110000Y-67740000D01*
X44880000Y-110360000D02*
X43450000Y-110360000D01*
X93170000Y-70280000D02*
X93180000Y-70290000D01*
X86290000Y-45500000D02*
X87480000Y-46690000D01*
X39070000Y-108530000D02*
X39320000Y-108780000D01*
X93180000Y-72340000D02*
X93090000Y-72430000D01*
X34850000Y-105200000D02*
X35930000Y-106280000D01*
X70400000Y-108780000D02*
X70860000Y-108780000D01*
X30490000Y-32060000D02*
X30300000Y-32250000D01*
X41650000Y-108780000D02*
X43890000Y-106540000D01*
X30300000Y-32250000D02*
X30300000Y-34540000D01*
X35930000Y-106280000D02*
X35950000Y-106260000D01*
X45900000Y-109340000D02*
X44880000Y-110360000D01*
%TO.N,/fpga/Net-(U5special-nSTATUS)*%
D74*
X51780000Y-55530000D02*
X51380000Y-55130000D01*
X54400000Y-55530000D02*
X51780000Y-55530000D01*
X56240000Y-57370000D02*
X54400000Y-55530000D01*
%TO.N,/fpga/ETH.RESET_N*%
X76170000Y-94680000D02*
X76170000Y-94970000D01*
X75830000Y-90370000D02*
X76690000Y-91230000D01*
X76690000Y-91230000D02*
X76690000Y-91640000D01*
X75800000Y-95340000D02*
X75800000Y-96218620D01*
X76170000Y-94970000D02*
X75800000Y-95340000D01*
X76221380Y-96640000D02*
X76221380Y-97324498D01*
X77170000Y-93680000D02*
X76170000Y-94680000D01*
X76690000Y-91640000D02*
X77170000Y-92120000D01*
X71320000Y-75290000D02*
X75830000Y-79800000D01*
X75800000Y-96218620D02*
X76221380Y-96640000D01*
X75830000Y-79800000D02*
X75830000Y-90370000D01*
X77170000Y-92120000D02*
X77170000Y-93680000D01*
%TO.N,+0V675REF*%
D73*
X78360000Y-34380000D02*
X78390000Y-34380000D01*
X58780000Y-27780000D02*
X59880000Y-26680000D01*
X56580000Y-28370000D02*
X56550000Y-28400000D01*
X57720000Y-27780000D02*
X58780000Y-27780000D01*
X75940000Y-26680000D02*
X77120000Y-27860000D01*
X80430000Y-34800000D02*
X80030000Y-34400000D01*
X77120000Y-27860000D02*
X77120000Y-32090000D01*
X78020000Y-32990000D02*
X78020000Y-34040000D01*
X59880000Y-26680000D02*
X75940000Y-26680000D01*
X56225000Y-28015000D02*
X57485000Y-28015000D01*
X47840000Y-26900000D02*
X55110000Y-26900000D01*
X56550000Y-31790000D02*
X57420000Y-32660000D01*
X77120000Y-32090000D02*
X78020000Y-32990000D01*
D74*
X59360000Y-34380000D02*
X57760000Y-34380000D01*
D73*
X56225000Y-28015000D02*
X56580000Y-28370000D01*
D74*
X80030000Y-34400000D02*
X78410000Y-34400000D01*
D73*
X56360000Y-31600000D02*
X56550000Y-31790000D01*
X59780000Y-34800000D02*
X59360000Y-34380000D01*
X74830000Y-31600000D02*
X76630000Y-31600000D01*
X54180000Y-31600000D02*
X56360000Y-31600000D01*
X46190000Y-25250000D02*
X47840000Y-26900000D01*
X76630000Y-31600000D02*
X77120000Y-32090000D01*
X55110000Y-26900000D02*
X56225000Y-28015000D01*
X57420000Y-34040000D02*
X57760000Y-34380000D01*
X57420000Y-32660000D02*
X57420000Y-34040000D01*
X57485000Y-28015000D02*
X57720000Y-27780000D01*
X56550000Y-28400000D02*
X56550000Y-31790000D01*
X78020000Y-34040000D02*
X78360000Y-34380000D01*
D74*
X78410000Y-34400000D02*
X78390000Y-34380000D01*
%TO.N,/fpga/DRAM.CK_P*%
D77*
X72256394Y-37753856D02*
X70286394Y-37753856D01*
X67990000Y-35457462D02*
X67990000Y-35310000D01*
X72856144Y-44686394D02*
X72856144Y-38353606D01*
X68196394Y-46526144D02*
X71016394Y-46526144D01*
X67410000Y-55669359D02*
X67410000Y-47312538D01*
X70286394Y-37753856D02*
X67990000Y-35457462D01*
X71016394Y-46526144D02*
X72856144Y-44686394D01*
X67410000Y-47312538D02*
X68196394Y-46526144D01*
X72856144Y-38353606D02*
X72256394Y-37753856D01*
X66489359Y-56590000D02*
X67410000Y-55669359D01*
X65770000Y-56590000D02*
X66489359Y-56590000D01*
%TO.N,/fpga/DRAM.CK_N*%
X67080000Y-55675663D02*
X67080000Y-47257462D01*
X72583856Y-44573606D02*
X72583856Y-38466394D01*
X72143606Y-38026144D02*
X70173606Y-38026144D01*
X67080000Y-47257462D02*
X68083606Y-46253856D01*
X72583856Y-38466394D02*
X72143606Y-38026144D01*
X67970000Y-35830000D02*
X68336269Y-36196269D01*
X65770000Y-55590000D02*
X66110000Y-55930000D01*
X68083606Y-46253856D02*
X70903606Y-46253856D01*
X66825663Y-55930000D02*
X67080000Y-55675663D01*
X70173606Y-38026144D02*
X68343731Y-36196269D01*
X67636056Y-35121944D02*
X67960000Y-34798000D01*
X67970000Y-35830000D02*
X67636056Y-35496056D01*
X67636056Y-35496056D02*
X67636056Y-35121944D01*
X70903606Y-46253856D02*
X72583856Y-44573606D01*
X66110000Y-55930000D02*
X66825663Y-55930000D01*
%TO.N,/fpga/DRAM.CKE*%
D72*
X53380000Y-33200000D02*
X52645000Y-33935000D01*
X52645000Y-33935000D02*
X51680000Y-33935000D01*
%TO.N,/ddr3/Net-(U2-ZQ)*%
D74*
X74830000Y-32400000D02*
X74410000Y-32400000D01*
X74410000Y-32400000D02*
X74300000Y-32510000D01*
X72735000Y-32510000D02*
X72670000Y-32445000D01*
X74300000Y-32510000D02*
X72735000Y-32510000D01*
%TO.N,/fpga/DRAM.A3*%
D72*
X60675195Y-31615390D02*
X60630000Y-31570195D01*
X60675195Y-42904447D02*
X60675195Y-31615390D01*
%TO.N,/fpga/DRAM.A0*%
X71430000Y-31160000D02*
X71850000Y-31580000D01*
X70760000Y-31160000D02*
X71430000Y-31160000D01*
X68160000Y-31530000D02*
X68170000Y-31540000D01*
X70380000Y-31540000D02*
X70760000Y-31160000D01*
X68170000Y-31540000D02*
X70380000Y-31540000D01*
%TO.N,/fpga/DRAM.A12*%
X65996209Y-33135605D02*
X65996209Y-33255605D01*
X64249000Y-31279800D02*
X64720000Y-31750800D01*
X62815195Y-30785195D02*
X63309800Y-31279800D01*
X63193776Y-32535605D02*
X63193776Y-32655605D01*
X64695670Y-34973930D02*
X64109600Y-35560000D01*
X64395588Y-33657811D02*
X64395588Y-33933399D01*
X63433776Y-32895605D02*
X64480000Y-32895605D01*
X64720000Y-36410000D02*
X64720000Y-37920000D01*
X65320000Y-46070000D02*
X64240000Y-47150000D01*
X64240000Y-51120000D02*
X63770000Y-51590000D01*
X64109600Y-35799600D02*
X64720000Y-36410000D01*
X64720000Y-34949600D02*
X64695670Y-34973930D01*
X65320000Y-38520000D02*
X65320000Y-46070000D01*
X64720000Y-31750800D02*
X64720000Y-32055605D01*
X64480000Y-32895605D02*
X64720000Y-32895605D01*
X64720000Y-34257811D02*
X64720000Y-34530605D01*
X64720000Y-37920000D02*
X65320000Y-38520000D01*
X63309800Y-31279800D02*
X64249000Y-31279800D01*
X64240000Y-47150000D02*
X64240000Y-51120000D01*
X64720000Y-32895605D02*
X65756209Y-32895605D01*
X65756209Y-33495605D02*
X64720000Y-33495605D01*
X64720000Y-34530605D02*
X64720000Y-34949600D01*
X64480000Y-32295605D02*
X63433776Y-32295605D01*
X64109600Y-35560000D02*
X64109600Y-35799600D01*
X64720000Y-33495605D02*
X64557794Y-33495605D01*
X65756209Y-32895605D02*
G75*
G02*
X65996195Y-33135605I-9J-239995D01*
G01*
X64395588Y-33933399D02*
G75*
G03*
X64557794Y-34095612I162212J-1D01*
G01*
X63193776Y-32655605D02*
G75*
G03*
X63433776Y-32895624I240024J5D01*
G01*
X65996209Y-33255605D02*
G75*
G02*
X65756209Y-33495609I-240009J5D01*
G01*
X64557794Y-34095605D02*
G75*
G02*
X64719995Y-34257811I6J-162195D01*
G01*
X63433776Y-32295605D02*
G75*
G03*
X63193805Y-32535605I24J-239995D01*
G01*
X64720000Y-32055605D02*
G75*
G02*
X64480000Y-32295600I-240000J5D01*
G01*
X64557794Y-33495605D02*
G75*
G03*
X64395605Y-33657811I6J-162195D01*
G01*
%TO.N,/fpga/DRAM.A1*%
X65155195Y-29195195D02*
X65706600Y-29746600D01*
X69392405Y-30785195D02*
X69397600Y-30780000D01*
X69397600Y-30780000D02*
X69666800Y-30780000D01*
X68783200Y-30785195D02*
X65706600Y-29746600D01*
X65030000Y-29195195D02*
X65155195Y-29195195D01*
X68783200Y-30785195D02*
X69392405Y-30785195D01*
%TO.N,/fpga/DRAM.A11*%
X61980000Y-33020000D02*
X61520000Y-32560000D01*
X62770000Y-51260000D02*
X62350000Y-50840000D01*
X60270000Y-46490000D02*
X61980000Y-44780000D01*
X61520000Y-32560000D02*
X61520000Y-30885200D01*
X61722000Y-27381200D02*
X61925200Y-27381200D01*
X60500000Y-48970000D02*
X60480000Y-48950000D01*
X62128400Y-30276800D02*
X62128400Y-29921200D01*
X60500000Y-49320000D02*
X60500000Y-48970000D01*
X61980000Y-44780000D02*
X61980000Y-33020000D01*
X61468000Y-29260800D02*
X61468000Y-27635200D01*
X62350000Y-50840000D02*
X62350000Y-50630000D01*
X60270000Y-48679748D02*
X60270000Y-46490000D01*
X61925200Y-27381200D02*
X62026800Y-27482800D01*
X60480000Y-48889748D02*
X60270000Y-48679748D01*
X61690000Y-49970000D02*
X61150000Y-49970000D01*
X62026800Y-28253200D02*
X61950000Y-28330000D01*
X61520000Y-30885200D02*
X62128400Y-30276800D01*
X62350000Y-50630000D02*
X61690000Y-49970000D01*
X61150000Y-49970000D02*
X60500000Y-49320000D01*
X62026800Y-27482800D02*
X62026800Y-28253200D01*
X62770000Y-51590000D02*
X62770000Y-51260000D01*
X61468000Y-27635200D02*
X61722000Y-27381200D01*
X62128400Y-29921200D02*
X61468000Y-29260800D01*
X60480000Y-48950000D02*
X60480000Y-48889748D01*
%TO.N,/fpga/DRAM.RESET_N*%
X82390000Y-50570000D02*
X82620000Y-50340000D01*
X82639805Y-45421757D02*
X82620000Y-45401952D01*
X82620000Y-45401952D02*
X82620000Y-43630000D01*
X77240000Y-54400000D02*
X77240000Y-52270000D01*
X66975000Y-25810000D02*
X67327500Y-26162500D01*
X77240000Y-52270000D02*
X77440000Y-52070000D01*
X84104805Y-36341995D02*
X84104805Y-28334805D01*
X82639805Y-46758243D02*
X82639805Y-45421757D01*
X66645000Y-25810000D02*
X66975000Y-25810000D01*
X82620000Y-43630000D02*
X84140000Y-42110000D01*
X84140000Y-42110000D02*
X84120000Y-42090000D01*
X84120000Y-42090000D02*
X84120000Y-39050000D01*
X84104805Y-28334805D02*
X82477195Y-26707195D01*
X82390000Y-51460000D02*
X82390000Y-50570000D01*
X84120000Y-39050000D02*
X83159600Y-38089600D01*
X83159600Y-38089600D02*
X83159600Y-37287200D01*
X76250000Y-55390000D02*
X77240000Y-54400000D01*
X81780000Y-52070000D02*
X82390000Y-51460000D01*
X75770000Y-56590000D02*
X76250000Y-56110000D01*
X83159600Y-37287200D02*
X84104805Y-36341995D01*
X82620000Y-46778048D02*
X82639805Y-46758243D01*
X82620000Y-50340000D02*
X82620000Y-46778048D01*
X76250000Y-56110000D02*
X76250000Y-55390000D01*
X77440000Y-52070000D02*
X81780000Y-52070000D01*
%TO.N,/fpga/DRAM.A14*%
D80*
X61010800Y-44043600D02*
X61061600Y-43992800D01*
X61061600Y-27301600D02*
X61060000Y-27300000D01*
X61061600Y-43992800D02*
X61061600Y-27301600D01*
%TO.N,/fpga/DRAM.A8*%
D72*
X65820000Y-35730000D02*
X65820000Y-46220000D01*
X65525000Y-31485000D02*
X66310000Y-32270000D01*
X66310000Y-32270000D02*
X66310000Y-35240000D01*
X63328800Y-27228800D02*
X62585600Y-27228800D01*
X63271400Y-30353000D02*
X63550800Y-30632400D01*
X62585600Y-27228800D02*
X62433200Y-27381200D01*
X63271400Y-29743400D02*
X63271400Y-30353000D01*
X63340000Y-27240000D02*
X63328800Y-27228800D01*
X62433200Y-29464000D02*
X62534800Y-29565600D01*
X64667000Y-30176600D02*
X65276600Y-30176600D01*
X66310000Y-35240000D02*
X65820000Y-35730000D01*
X63550800Y-30632400D02*
X64211200Y-30632400D01*
X62673200Y-28078400D02*
X64296067Y-28078400D01*
X62433200Y-29377662D02*
X62433200Y-29464000D01*
X62534800Y-29565600D02*
X63093600Y-29565600D01*
X62433200Y-27381200D02*
X62433200Y-27838400D01*
X63093600Y-29565600D02*
X63271400Y-29743400D01*
X62433200Y-28918400D02*
X62433200Y-29038400D01*
X64770000Y-47270000D02*
X64770000Y-48541912D01*
X64296067Y-28678400D02*
X62673200Y-28678400D01*
X64770000Y-48541912D02*
X64721912Y-48590000D01*
X65525000Y-30425000D02*
X65525000Y-31485000D01*
X65276600Y-30176600D02*
X65525000Y-30425000D01*
X64211200Y-30632400D02*
X64667000Y-30176600D01*
X65820000Y-46220000D02*
X64770000Y-47270000D01*
X62433200Y-29038400D02*
X62433200Y-29377662D01*
X64536067Y-28318400D02*
X64536067Y-28438400D01*
X64536067Y-28438400D02*
G75*
G02*
X64296067Y-28678367I-239967J0D01*
G01*
X62433200Y-27838400D02*
G75*
G03*
X62673200Y-28078400I240000J0D01*
G01*
X62673200Y-28678400D02*
G75*
G03*
X62433200Y-28918400I0J-240000D01*
G01*
X64296067Y-28078400D02*
G75*
G02*
X64536100Y-28318400I33J-240000D01*
G01*
%TO.N,/video/HDMIO.SCL*%
D74*
X41120000Y-105050000D02*
X41120000Y-104700000D01*
X44100000Y-100560000D02*
X44100000Y-99510000D01*
X41120000Y-104700000D02*
X40490000Y-104070000D01*
X44100000Y-99510000D02*
X44320000Y-99290000D01*
X41120000Y-102500000D02*
X41560000Y-102060000D01*
X42600000Y-102060000D02*
X44100000Y-100560000D01*
X41120000Y-103620000D02*
X41120000Y-102500000D01*
X41560000Y-102060000D02*
X42600000Y-102060000D01*
X41120000Y-103620000D02*
X41120000Y-105050000D01*
%TO.N,+1V1_TX*%
D73*
X51820000Y-52240000D02*
X52190000Y-51870000D01*
D81*
X54060000Y-51870000D02*
X54940000Y-52750000D01*
D73*
X49700000Y-51670000D02*
X50470000Y-51670000D01*
D81*
X59047000Y-56972230D02*
X59664770Y-57590000D01*
X59664770Y-57590000D02*
X59770000Y-57590000D01*
X54940000Y-53930000D02*
X57982230Y-56972230D01*
X57982230Y-56972230D02*
X59047000Y-56972230D01*
D73*
X61500000Y-59320000D02*
X60808585Y-58628585D01*
D81*
X54940000Y-52750000D02*
X54940000Y-53930000D01*
X52190000Y-51870000D02*
X54060000Y-51870000D01*
D73*
X61500000Y-59860000D02*
X61500000Y-59320000D01*
X60770000Y-60590000D02*
X61500000Y-59860000D01*
X60808585Y-58628585D02*
X60776374Y-58628585D01*
X50470000Y-51670000D02*
X51040000Y-52240000D01*
X51040000Y-52240000D02*
X51820000Y-52240000D01*
%TO.N,/Ethernet/Net-(U3-XTAL1{slash}CLKIN\u002A\u002A)*%
D74*
X85020000Y-103290000D02*
X85390000Y-103290000D01*
X85390000Y-103290000D02*
X85800000Y-102880000D01*
X84390000Y-101810000D02*
X84080000Y-101500000D01*
X85090000Y-101810000D02*
X84390000Y-101810000D01*
X85800000Y-102880000D02*
X85800000Y-102645000D01*
%TO.N,/Ethernet/Net-(U3-XTAL2)*%
X82430000Y-101500000D02*
X81580000Y-101500000D01*
X81580000Y-101500000D02*
X81200000Y-101120000D01*
%TO.N,/video/HDMIO.HPD*%
X38480000Y-101860000D02*
X38420000Y-101920000D01*
X38480000Y-101120000D02*
X38480000Y-101860000D01*
X39710000Y-103173178D02*
X39625432Y-103088610D01*
X39710000Y-103590000D02*
X39710000Y-103173178D01*
%TO.N,/video/HDMIO.D2P*%
D77*
X38570000Y-102850000D02*
X39280000Y-102140000D01*
X38800000Y-103850000D02*
X38800000Y-104680000D01*
X38800000Y-104680000D02*
X38780000Y-104700000D01*
X38570000Y-103620000D02*
X38800000Y-103850000D01*
X39280000Y-101120000D02*
X39280000Y-102140000D01*
X38570000Y-102850000D02*
X38570000Y-103620000D01*
%TO.N,/video/HDMIO.D2N*%
X38070000Y-103910000D02*
X38229468Y-104069468D01*
X38070000Y-103620000D02*
X38070000Y-102850000D01*
X38880000Y-101120000D02*
X38880000Y-102040000D01*
X38070000Y-103620000D02*
X38070000Y-103910000D01*
X38200200Y-102389800D02*
X38070000Y-102520000D01*
X38530200Y-102389800D02*
X38200200Y-102389800D01*
X38229468Y-104069468D02*
X38229468Y-104597065D01*
X38880000Y-102040000D02*
X38530200Y-102389800D01*
X38070000Y-102520000D02*
X38070000Y-102850000D01*
%TO.N,/video/HDMIO.D1P*%
X37070000Y-104170000D02*
X37080000Y-104180000D01*
X37490000Y-102000000D02*
X37070000Y-102420000D01*
X37750000Y-102000000D02*
X37490000Y-102000000D01*
X38080000Y-101670000D02*
X37750000Y-102000000D01*
X37070000Y-103620000D02*
X37070000Y-104170000D01*
X37070000Y-102420000D02*
X37070000Y-103620000D01*
X38080000Y-101120000D02*
X38080000Y-101670000D01*
%TO.N,/video/HDMIO.D1N*%
X36570000Y-103620000D02*
X36570000Y-104055285D01*
X37680000Y-101672400D02*
X37622400Y-101730000D01*
X37680000Y-101120000D02*
X37680000Y-101672400D01*
X37340000Y-101730000D02*
X36570000Y-102500000D01*
X36570000Y-104055285D02*
X36514166Y-104111119D01*
X36570000Y-102500000D02*
X36570000Y-103620000D01*
X37622400Y-101730000D02*
X37340000Y-101730000D01*
%TO.N,/video/HDMIO.D0P*%
X35680000Y-102600000D02*
X35510000Y-102770000D01*
X35510000Y-103606578D02*
X35510000Y-104184967D01*
X35510000Y-102770000D02*
X35510000Y-103606578D01*
X36000000Y-102600000D02*
X35680000Y-102600000D01*
X36880000Y-101720000D02*
X36000000Y-102600000D01*
X36880000Y-101120000D02*
X36880000Y-101720000D01*
%TO.N,/video/HDMIO.D0N*%
X35010000Y-104221594D02*
X34954402Y-104277192D01*
X35010000Y-103606578D02*
X35010000Y-104221594D01*
X35350000Y-102020000D02*
X35010000Y-102360000D01*
X35010000Y-102360000D02*
X35010000Y-103606578D01*
X36480000Y-101120000D02*
X36480000Y-101672400D01*
X36480000Y-101672400D02*
X36132400Y-102020000D01*
X36132400Y-102020000D02*
X35350000Y-102020000D01*
%TO.N,/video/HDMIO.CKP*%
X34540000Y-101690000D02*
X34010000Y-102220000D01*
X34010000Y-102220000D02*
X34010000Y-103606578D01*
X34010000Y-104180000D02*
X34100000Y-104270000D01*
X35565200Y-101705200D02*
X35010000Y-101705200D01*
X35680000Y-101590400D02*
X35565200Y-101705200D01*
X34010000Y-103606578D02*
X34010000Y-104180000D01*
X35680000Y-101120000D02*
X35680000Y-101590400D01*
X34994800Y-101690000D02*
X34540000Y-101690000D01*
X35010000Y-101705200D02*
X34994800Y-101690000D01*
%TO.N,/video/HDMIO.CKN*%
X33510000Y-103606578D02*
X33510000Y-104199084D01*
X34610000Y-101120000D02*
X33510000Y-102220000D01*
X35280000Y-101120000D02*
X34610000Y-101120000D01*
X33510000Y-104199084D02*
X33433029Y-104276055D01*
X33510000Y-102220000D02*
X33510000Y-103606578D01*
%TO.N,/video/HDMIO.SDA*%
D74*
X39150000Y-102820000D02*
X40330000Y-101640000D01*
X40120000Y-104790000D02*
X40580000Y-105250000D01*
X42500000Y-101640000D02*
X43780000Y-100360000D01*
X39710000Y-104070000D02*
X40120000Y-104480000D01*
X39150000Y-104210000D02*
X39150000Y-102820000D01*
X43780000Y-97950000D02*
X45320000Y-96410000D01*
X40330000Y-101640000D02*
X42500000Y-101640000D01*
X43780000Y-100360000D02*
X43780000Y-97950000D01*
X40120000Y-104790000D02*
X39730000Y-104790000D01*
X39730000Y-104790000D02*
X39150000Y-104210000D01*
X40120000Y-104480000D02*
X40120000Y-104790000D01*
%TO.N,+2V5_TX*%
D73*
X73260000Y-53180000D02*
X73960000Y-52480000D01*
X65060000Y-58900000D02*
X65270000Y-59110000D01*
X73980000Y-64090000D02*
X74270000Y-64090000D01*
X73484322Y-61114322D02*
X73260000Y-60890000D01*
X74770000Y-64590000D02*
X74770000Y-64510000D01*
X63310000Y-57620000D02*
X63645944Y-57955944D01*
X63645944Y-58245944D02*
X64300000Y-58900000D01*
X60280000Y-58360000D02*
X60550000Y-58090000D01*
X69800000Y-66590000D02*
X70260000Y-66130000D01*
X65880000Y-63110000D02*
X65510000Y-63110000D01*
X59280000Y-59100000D02*
X58640000Y-59100000D01*
X66240000Y-61420000D02*
X66240000Y-62750000D01*
X61246400Y-55086400D02*
X60297800Y-55086400D01*
X74260000Y-66080000D02*
X74260000Y-65100000D01*
X62320000Y-57310000D02*
X62300000Y-57290000D01*
X73440000Y-61070000D02*
X73484322Y-61114322D01*
X64598695Y-64130000D02*
X64270000Y-64458695D01*
X75109411Y-51929411D02*
X74813416Y-51633416D01*
X58600000Y-59060000D02*
X57290000Y-59060000D01*
X62320000Y-57810000D02*
X62510000Y-57620000D01*
X70420000Y-64080000D02*
X67450000Y-64080000D01*
X51930000Y-59470000D02*
X51440000Y-58980000D01*
X74260000Y-54930000D02*
X74440000Y-55110000D01*
X62510000Y-57620000D02*
X63310000Y-57620000D01*
X60297800Y-55086400D02*
X60281400Y-55070000D01*
X63645944Y-57955944D02*
X63645944Y-58245944D01*
X67240000Y-65920000D02*
X67070000Y-66090000D01*
X70450000Y-64110000D02*
X70470000Y-64090000D01*
X59770000Y-59590000D02*
X59280000Y-59100000D01*
X57290000Y-59060000D02*
X56880000Y-59470000D01*
X60280000Y-59080000D02*
X60280000Y-58360000D01*
X69770000Y-66590000D02*
X69800000Y-66590000D01*
X75290000Y-55110000D02*
X75770000Y-55590000D01*
X59280000Y-60080000D02*
X59770000Y-59590000D01*
X65510000Y-63110000D02*
X65250000Y-63370000D01*
X70450000Y-64110000D02*
X70420000Y-64080000D01*
X56880000Y-59470000D02*
X51930000Y-59470000D01*
X59280000Y-62560000D02*
X59280000Y-60080000D01*
X74260000Y-52480000D02*
X74260000Y-54930000D01*
X64270000Y-66090000D02*
X63770000Y-66590000D01*
X64300000Y-58900000D02*
X65060000Y-58900000D01*
X73510000Y-64090000D02*
X73270001Y-63850001D01*
X62040000Y-58090000D02*
X62320000Y-57810000D01*
X64870000Y-64130000D02*
X64598695Y-64130000D01*
X73980000Y-64090000D02*
X73510000Y-64090000D01*
X49620000Y-53600000D02*
X47700000Y-51680000D01*
X75000000Y-55110000D02*
X75290000Y-55110000D01*
X65270000Y-59810000D02*
X65580000Y-60120000D01*
X67450000Y-64080000D02*
X67240000Y-64290000D01*
X62320000Y-57810000D02*
X62320000Y-57310000D01*
X62300000Y-57290000D02*
X62300000Y-56140000D01*
X60550000Y-58090000D02*
X62040000Y-58090000D01*
X59280000Y-63120000D02*
X59280000Y-62560000D01*
X74770000Y-51590000D02*
X74260000Y-52100000D01*
X74270000Y-64090000D02*
X74770000Y-64590000D01*
X65250000Y-63370000D02*
X65250000Y-63750000D01*
X65580000Y-60120000D02*
X65990000Y-60120000D01*
X65990000Y-60120000D02*
X66250000Y-60380000D01*
X58640000Y-59100000D02*
X58600000Y-59060000D01*
X74440000Y-55110000D02*
X75000000Y-55110000D01*
X59770000Y-59590000D02*
X60280000Y-59080000D01*
X64270000Y-64458695D02*
X64270000Y-66090000D01*
X51470000Y-53600000D02*
X49620000Y-53600000D01*
X74770000Y-66590000D02*
X74260000Y-66080000D01*
X62300000Y-56140000D02*
X61246400Y-55086400D01*
X70470000Y-64090000D02*
X73980000Y-64090000D01*
X74260000Y-52100000D02*
X74260000Y-52480000D01*
X70260000Y-66130000D02*
X70260000Y-64300000D01*
X73960000Y-52480000D02*
X74260000Y-52480000D01*
X65270000Y-59110000D02*
X65270000Y-59810000D01*
X66250000Y-61410000D02*
X66240000Y-61420000D01*
X73484322Y-61114322D02*
X73527332Y-61114322D01*
X67240000Y-64290000D02*
X67240000Y-65920000D01*
X67070000Y-66090000D02*
X64270000Y-66090000D01*
X66240000Y-62750000D02*
X65880000Y-63110000D01*
X66250000Y-60380000D02*
X66250000Y-61410000D01*
X73260000Y-60890000D02*
X73260000Y-53180000D01*
X74770000Y-64590000D02*
X74260000Y-65100000D01*
X65250000Y-63750000D02*
X64870000Y-64130000D01*
X70260000Y-64300000D02*
X70450000Y-64110000D01*
X59740000Y-63580000D02*
X59280000Y-63120000D01*
X73270001Y-63850001D02*
X73270001Y-62340036D01*
%TO.N,/fpga/Net-(U5special-nCONFIG)*%
D74*
X59395000Y-48505000D02*
X59270000Y-48630000D01*
X59270000Y-48630000D02*
X59270000Y-48930000D01*
X59395000Y-47710000D02*
X59395000Y-48505000D01*
X59270000Y-48930000D02*
X59280000Y-48940000D01*
%TO.N,/fpga/CT.A23*%
X40700000Y-60000000D02*
X40670000Y-59970000D01*
X43800000Y-60000000D02*
X40700000Y-60000000D01*
%TO.N,/fpga/CT.A27*%
X43800000Y-54920000D02*
X40760000Y-54920000D01*
X40760000Y-54920000D02*
X40750000Y-54910000D01*
%TO.N,/fpga/CT.A18*%
X39240000Y-65080000D02*
X39290000Y-65030000D01*
X36200000Y-65080000D02*
X39240000Y-65080000D01*
%TO.N,/fpga/CT.A9*%
X40770000Y-77780000D02*
X40740000Y-77810000D01*
X43800000Y-77780000D02*
X40770000Y-77780000D01*
%TO.N,/fpga/CT.RST_N*%
X39240000Y-47300000D02*
X39290000Y-47350000D01*
X36200000Y-47300000D02*
X39240000Y-47300000D01*
%TO.N,/fpga/ETH.IRQ*%
X78420000Y-93720000D02*
X78420000Y-91060000D01*
X76800000Y-90520000D02*
X76300000Y-90020000D01*
X76650000Y-94880000D02*
X77490000Y-94040000D01*
X72060000Y-75110000D02*
X71960000Y-75110000D01*
X77880000Y-90520000D02*
X76800000Y-90520000D01*
X76300000Y-90020000D02*
X76300000Y-79350000D01*
X76650000Y-96040000D02*
X76650000Y-94910000D01*
X76300000Y-79350000D02*
X72060000Y-75110000D01*
X77516502Y-96906502D02*
X76650000Y-96040000D01*
X77516502Y-97620000D02*
X77516502Y-96906502D01*
X78100000Y-94040000D02*
X78420000Y-93720000D01*
X77490000Y-94040000D02*
X78100000Y-94040000D01*
X78420000Y-91060000D02*
X77880000Y-90520000D01*
X71960000Y-75110000D02*
X71680000Y-74830000D01*
X76650000Y-94910000D02*
X76650000Y-94880000D01*
%TO.N,/fpga/CT.D27*%
X93680000Y-82860000D02*
X93590000Y-82770000D01*
X96800000Y-82860000D02*
X93680000Y-82860000D01*
%TO.N,/fpga/Net-(U5special-AS_DATA1)*%
X56510000Y-73500000D02*
X59270000Y-73500000D01*
X59660000Y-73110000D02*
X59660000Y-72030000D01*
X59270000Y-73500000D02*
X59660000Y-73110000D01*
X59660000Y-72030000D02*
X59770000Y-71920000D01*
X59770000Y-71920000D02*
X59770000Y-69561800D01*
%TO.N,/fpga/Net-(U29-DQ0{slash}SI)*%
X57250000Y-74260000D02*
X59250000Y-74260000D01*
X60500000Y-71380000D02*
X60770000Y-71110000D01*
X54050000Y-77460000D02*
X57250000Y-74260000D01*
X59250000Y-74260000D02*
X60500000Y-73010000D01*
X60770000Y-71110000D02*
X60770000Y-69561800D01*
X60500000Y-73010000D02*
X60500000Y-71380000D01*
%TO.N,/fpga/CT.A30*%
X36200000Y-49840000D02*
X39190000Y-49840000D01*
X39190000Y-49840000D02*
X39240000Y-49790000D01*
%TO.N,/fpga/CT.SIZ0*%
X39160000Y-39680000D02*
X39190000Y-39650000D01*
X36200000Y-39680000D02*
X39160000Y-39680000D01*
%TO.N,/fpga/CT.A25*%
X43800000Y-57460000D02*
X40720000Y-57460000D01*
%TO.N,/fpga/CT.A19*%
X42520000Y-65080000D02*
X40960000Y-65080000D01*
X40960000Y-65080000D02*
X40630000Y-65410000D01*
%TO.N,/fpga/CT.A7*%
X43800000Y-80320000D02*
X40720000Y-80320000D01*
X40720000Y-80320000D02*
X40680000Y-80280000D01*
%TO.N,/fpga/CT.A5*%
X43800000Y-82860000D02*
X40630000Y-82860000D01*
X40630000Y-82860000D02*
X40620000Y-82870000D01*
%TO.N,/fpga/CT.A14*%
X39210000Y-70160000D02*
X39280000Y-70090000D01*
X36200000Y-70160000D02*
X39210000Y-70160000D01*
%TO.N,/fpga/CT.D28*%
X92190000Y-85400000D02*
X92250000Y-85460000D01*
X89200000Y-85400000D02*
X92190000Y-85400000D01*
%TO.N,/fpga/DRAM.RZQ*%
D72*
X73270000Y-44970000D02*
X73270000Y-44630000D01*
X68900000Y-48450000D02*
X68900000Y-47810000D01*
X67850600Y-49619003D02*
X67850600Y-49499400D01*
X72650000Y-45590000D02*
X73270000Y-44970000D01*
X67850600Y-49499400D02*
X68900000Y-48450000D01*
X71730000Y-47290000D02*
X72650000Y-46370000D01*
X73270000Y-44630000D02*
X73770000Y-44130000D01*
X69420000Y-47290000D02*
X71730000Y-47290000D01*
X72650000Y-46370000D02*
X72650000Y-45590000D01*
X68900000Y-47810000D02*
X69420000Y-47290000D01*
%TO.N,/fpga/CLK0*%
D74*
X72180000Y-50500000D02*
X72620000Y-50060000D01*
X70300000Y-50990000D02*
X71970000Y-50990000D01*
X71970000Y-50990000D02*
X72180000Y-50780000D01*
X70190000Y-51100000D02*
X70300000Y-50990000D01*
X79870000Y-50060000D02*
X80850000Y-51040000D01*
X68922416Y-52077584D02*
X69310000Y-51690000D01*
X67849374Y-52077584D02*
X68922416Y-52077584D01*
X69560000Y-51100000D02*
X70190000Y-51100000D01*
X72620000Y-50060000D02*
X79870000Y-50060000D01*
X80850000Y-51040000D02*
X81520000Y-51040000D01*
X72180000Y-50780000D02*
X72180000Y-50500000D01*
X69310000Y-51690000D02*
X69310000Y-51350000D01*
X69310000Y-51350000D02*
X69560000Y-51100000D01*
%TO.N,/fpga/Net-(U5special-CONF_DONE)*%
X63299017Y-57030983D02*
X63370000Y-56960000D01*
X63766637Y-56456637D02*
X63736637Y-56426637D01*
X63766637Y-56459911D02*
X63766637Y-56456637D01*
X63370000Y-56960000D02*
X63370000Y-56856548D01*
X63370000Y-56856548D02*
X63766637Y-56459911D01*
%TO.N,/fpga/CT.TM0*%
X89200000Y-32060000D02*
X92280000Y-32060000D01*
X92400000Y-32180000D02*
X92400000Y-33030000D01*
X92280000Y-32060000D02*
X92400000Y-32180000D01*
%TO.N,/fpga/CT.D2*%
X92350000Y-52380000D02*
X92370000Y-52400000D01*
X89200000Y-52380000D02*
X92350000Y-52380000D01*
%TO.N,/fpga/CT.I6_N*%
X92240000Y-47300000D02*
X92260000Y-47320000D01*
X89200000Y-47300000D02*
X92240000Y-47300000D01*
%TO.N,/fpga/CT.TM1*%
X91470000Y-34670000D02*
X92320000Y-33820000D01*
X89200000Y-34600000D02*
X89270000Y-34670000D01*
X89270000Y-34670000D02*
X91470000Y-34670000D01*
%TO.N,/fpga/CT.D0*%
X92330000Y-49840000D02*
X92390000Y-49780000D01*
X89200000Y-49840000D02*
X92330000Y-49840000D01*
%TO.N,/fpga/CT.TM2*%
X89200000Y-37140000D02*
X91940000Y-37140000D01*
X91940000Y-37140000D02*
X92320000Y-37520000D01*
%TO.N,/fpga/CT.D4*%
X89200000Y-54920000D02*
X92280000Y-54920000D01*
X92280000Y-54920000D02*
X92290000Y-54930000D01*
%TO.N,/fpga/CT.D1*%
X93870000Y-49840000D02*
X93830000Y-49800000D01*
X96800000Y-49840000D02*
X93870000Y-49840000D01*
%TO.N,/fpga/CT.BR_N*%
X42520000Y-33340000D02*
X41890000Y-33340000D01*
X43800000Y-32060000D02*
X42520000Y-33340000D01*
%TO.N,/fpga/CT.A24*%
X36200000Y-57460000D02*
X39220000Y-57460000D01*
X39220000Y-57460000D02*
X39230000Y-57470000D01*
%TO.N,/fpga/CT.TEA_N*%
X65770000Y-60590000D02*
X65270000Y-61090000D01*
X63240000Y-63520000D02*
X63240000Y-63910000D01*
X65270000Y-61620000D02*
X64720000Y-62170000D01*
X62320000Y-72080000D02*
X61530000Y-72870000D01*
X62320000Y-64370000D02*
X62320000Y-72080000D01*
X63600000Y-63160000D02*
X63240000Y-63520000D01*
X63040000Y-64110000D02*
X62580000Y-64110000D01*
X64220000Y-62560000D02*
X64220000Y-62950000D01*
X63240000Y-63910000D02*
X63040000Y-64110000D01*
X62580000Y-64110000D02*
X62320000Y-64370000D01*
X64720000Y-62170000D02*
X64610000Y-62170000D01*
X42520000Y-42220000D02*
X43463879Y-43163879D01*
X43463879Y-43163879D02*
X43463879Y-43515502D01*
X64010000Y-63160000D02*
X63600000Y-63160000D01*
X64610000Y-62170000D02*
X64220000Y-62560000D01*
X64220000Y-62950000D02*
X64010000Y-63160000D01*
X65270000Y-61090000D02*
X65270000Y-61620000D01*
%TO.N,/fpga/CLK1*%
X81790000Y-59930000D02*
X80260000Y-59930000D01*
X82530000Y-59190000D02*
X81790000Y-59930000D01*
X83955000Y-59190000D02*
X82530000Y-59190000D01*
X80260000Y-59930000D02*
X79600000Y-60590000D01*
X83960000Y-59185000D02*
X83955000Y-59190000D01*
%TO.N,/fpga/CT.TT0*%
X89200000Y-39680000D02*
X92290000Y-39680000D01*
X92290000Y-39680000D02*
X92310000Y-39660000D01*
%TO.N,/fpga/CT.D6*%
X89200000Y-57460000D02*
X92050000Y-57460000D01*
X92050000Y-57460000D02*
X92360000Y-57150000D01*
%TO.N,/fpga/CT.D7*%
X96800000Y-57460000D02*
X93810000Y-57460000D01*
X93810000Y-57460000D02*
X93790000Y-57480000D01*
%TO.N,/fpga/CT.BG_N*%
X40830000Y-34600000D02*
X40820000Y-34590000D01*
X43800000Y-34600000D02*
X40830000Y-34600000D01*
%TO.N,/fpga/CT.A28*%
X39240055Y-52380000D02*
X39351800Y-52491745D01*
X63770000Y-61590000D02*
X63290000Y-62070000D01*
X61245000Y-64175000D02*
X61245000Y-64665000D01*
X61430000Y-64850000D02*
X61430000Y-65470000D01*
X60190000Y-71140000D02*
X60110000Y-71220000D01*
X60190000Y-66550000D02*
X60190000Y-71140000D01*
X61900000Y-63520000D02*
X61245000Y-64175000D01*
X61430000Y-65470000D02*
X60950000Y-65950000D01*
X60110000Y-71220000D02*
X60110000Y-72380000D01*
X60110000Y-72380000D02*
X60070000Y-72420000D01*
X62240000Y-62340000D02*
X62240000Y-62720000D01*
X60950000Y-65950000D02*
X60790000Y-65950000D01*
X61245000Y-64665000D02*
X61430000Y-64850000D01*
X36200000Y-52380000D02*
X39240055Y-52380000D01*
X63290000Y-62070000D02*
X62510000Y-62070000D01*
X60790000Y-65950000D02*
X60190000Y-66550000D01*
X62240000Y-62720000D02*
X61900000Y-63060000D01*
X61900000Y-63060000D02*
X61900000Y-63520000D01*
X62510000Y-62070000D02*
X62240000Y-62340000D01*
%TO.N,/fpga/CT.DTKCMB_N*%
X39210000Y-44760000D02*
X39230000Y-44740000D01*
X36200000Y-44760000D02*
X39210000Y-44760000D01*
%TO.N,/fpga/CT.A21*%
X64910000Y-62960000D02*
X64750000Y-63120000D01*
X63290000Y-64400000D02*
X63290000Y-68030000D01*
X63290000Y-68030000D02*
X63740000Y-68480000D01*
X65280000Y-62080000D02*
X65280000Y-62730000D01*
X65770000Y-61590000D02*
X65280000Y-62080000D01*
X63740000Y-72480000D02*
X63440000Y-72780000D01*
X40770000Y-62540000D02*
X40760000Y-62530000D01*
X65280000Y-62730000D02*
X65050000Y-62960000D01*
X43800000Y-62540000D02*
X40770000Y-62540000D01*
X64230000Y-63470000D02*
X64230000Y-63780000D01*
X63660000Y-64030000D02*
X63290000Y-64400000D01*
X63740000Y-68480000D02*
X63740000Y-72480000D01*
X64230000Y-63780000D02*
X63980000Y-64030000D01*
X64750000Y-63120000D02*
X64580000Y-63120000D01*
X65050000Y-62960000D02*
X64910000Y-62960000D01*
X64580000Y-63120000D02*
X64230000Y-63470000D01*
X63440000Y-72780000D02*
X63440000Y-73650000D01*
X63980000Y-64030000D02*
X63660000Y-64030000D01*
%TO.N,/fpga/CT.A1*%
X43800000Y-87940000D02*
X40820000Y-87940000D01*
X40820000Y-87940000D02*
X40740000Y-87860000D01*
%TO.N,/fpga/CT.D9*%
X93980000Y-60000000D02*
X93830000Y-59850000D01*
X96800000Y-60000000D02*
X93980000Y-60000000D01*
%TO.N,/fpga/CT.D5*%
X96800000Y-54920000D02*
X93850000Y-54920000D01*
X93850000Y-54920000D02*
X93810000Y-54880000D01*
%TO.N,/fpga/CT.D3*%
X93860000Y-52380000D02*
X93830000Y-52350000D01*
X96800000Y-52380000D02*
X93860000Y-52380000D01*
%TO.N,/fpga/CT.BS_N1*%
X93780000Y-42220000D02*
X93750000Y-42190000D01*
X96800000Y-42220000D02*
X93780000Y-42220000D01*
%TO.N,/fpga/CT.TT1*%
X93680000Y-39680000D02*
X93660000Y-39700000D01*
X96800000Y-39680000D02*
X93680000Y-39680000D01*
%TO.N,/fpga/CT.BS_N0*%
X92200000Y-42220000D02*
X92230000Y-42250000D01*
X89200000Y-42220000D02*
X92200000Y-42220000D01*
%TO.N,/fpga/Net-(U29-~{S}{slash}~{CS})*%
X51710000Y-82080000D02*
X52640000Y-81150000D01*
X50910000Y-75940000D02*
X50910000Y-80810000D01*
X60880000Y-71690000D02*
X61090000Y-71480000D01*
X50240000Y-70460000D02*
X50240000Y-75270000D01*
X50240000Y-75270000D02*
X50910000Y-75940000D01*
X51520000Y-82080000D02*
X51710000Y-82080000D01*
X50910000Y-80810000D02*
X51250000Y-81150000D01*
X52640000Y-81150000D02*
X55100000Y-78690000D01*
X60490000Y-74820000D02*
X60880000Y-74430000D01*
X57720000Y-74820000D02*
X60490000Y-74820000D01*
X51250000Y-81150000D02*
X52640000Y-81150000D01*
X60880000Y-74430000D02*
X60880000Y-71690000D01*
X55100000Y-77440000D02*
X57720000Y-74820000D01*
X55100000Y-78690000D02*
X55100000Y-77440000D01*
%TO.N,/fpga/CT.BB_N*%
X40870000Y-37140000D02*
X40850000Y-37160000D01*
X43800000Y-37140000D02*
X40870000Y-37140000D01*
%TO.N,/fpga/CT.TS_N*%
X36200000Y-34600000D02*
X39210000Y-34600000D01*
%TO.N,/fpga/CT.RW*%
X36200000Y-37140000D02*
X38380000Y-37140000D01*
X38380000Y-37140000D02*
X38990000Y-37750000D01*
%TO.N,/fpga/CT.SIZ1*%
X40820000Y-39680000D02*
X40810000Y-39670000D01*
X43800000Y-39680000D02*
X40820000Y-39680000D01*
%TO.N,/fpga/CT.A13*%
X43800000Y-72700000D02*
X40720000Y-72700000D01*
X40720000Y-72700000D02*
X40670000Y-72650000D01*
%TO.N,/fpga/CT.A3*%
X43800000Y-85400000D02*
X40600000Y-85400000D01*
X40600000Y-85400000D02*
X40560000Y-85360000D01*
%TO.N,/fpga/CT.D10*%
X92261800Y-62540000D02*
X92431800Y-62370000D01*
X89200000Y-62540000D02*
X92261800Y-62540000D01*
%TO.N,/fpga/CT.D15*%
X96800000Y-67620000D02*
X93760000Y-67620000D01*
X93760000Y-67620000D02*
X93690000Y-67550000D01*
%TO.N,/fpga/CT.D11*%
X95000000Y-62540000D02*
X94190000Y-61730000D01*
X95520000Y-62540000D02*
X95000000Y-62540000D01*
%TO.N,/fpga/CT.D8*%
X92141800Y-60000000D02*
X92151800Y-60010000D01*
X89200000Y-60000000D02*
X92141800Y-60000000D01*
%TO.N,/fpga/CT.A17*%
X40670000Y-67620000D02*
X40650000Y-67640000D01*
X43800000Y-67620000D02*
X40670000Y-67620000D01*
%TO.N,/fpga/CT.A15*%
X40670000Y-70160000D02*
X40650000Y-70180000D01*
X43800000Y-70160000D02*
X40670000Y-70160000D01*
%TO.N,/fpga/CT.A10*%
X36200000Y-75240000D02*
X39290000Y-75240000D01*
X39290000Y-75240000D02*
X39300000Y-75250000D01*
%TO.N,/fpga/CT.A31*%
X43800000Y-49840000D02*
X40850000Y-49840000D01*
X40850000Y-49840000D02*
X40840000Y-49830000D01*
%TO.N,/fpga/CT.D18*%
X92240000Y-72700000D02*
X92250000Y-72690000D01*
X89200000Y-72700000D02*
X92240000Y-72700000D01*
%TO.N,/fpga/CT.D12*%
X92240000Y-65080000D02*
X92280000Y-65120000D01*
X89200000Y-65080000D02*
X92240000Y-65080000D01*
%TO.N,/fpga/CT.D26*%
X89200000Y-82860000D02*
X92250000Y-82860000D01*
X92250000Y-82860000D02*
X92340000Y-82770000D01*
%TO.N,/fpga/CT.D14*%
X91960000Y-67620000D02*
X92310000Y-67270000D01*
X89200000Y-67620000D02*
X91960000Y-67620000D01*
%TO.N,/fpga/CT.BS_N2*%
X92260000Y-44760000D02*
X92277784Y-44742216D01*
X89200000Y-44760000D02*
X92260000Y-44760000D01*
%TO.N,/fpga/CT.BS_N3*%
X96800000Y-44760000D02*
X93670000Y-44760000D01*
%TO.N,/fpga/CT.D13*%
X96800000Y-65080000D02*
X93710000Y-65080000D01*
%TO.N,/fpga/CT.A26*%
X36200000Y-54920000D02*
X39220000Y-54920000D01*
X39220000Y-54920000D02*
X39240000Y-54900000D01*
%TO.N,/fpga/CT.TA_N*%
X38110000Y-42220000D02*
X37480000Y-42220000D01*
X39210000Y-43320000D02*
X38110000Y-42220000D01*
%TO.N,/fpga/CT.A29*%
X40750000Y-52380000D02*
X40740000Y-52370000D01*
X43800000Y-52380000D02*
X40750000Y-52380000D01*
%TO.N,/fpga/CT.A11*%
X40660000Y-75240000D02*
X40630000Y-75270000D01*
X43800000Y-75240000D02*
X40660000Y-75240000D01*
%TO.N,/fpga/CT.A0*%
X39370000Y-87940000D02*
X39380000Y-87950000D01*
X36200000Y-87940000D02*
X39370000Y-87940000D01*
%TO.N,/fpga/CT.D21*%
X96800000Y-75240000D02*
X93650000Y-75240000D01*
X93650000Y-75240000D02*
X93620000Y-75210000D01*
%TO.N,/fpga/CT.D20*%
X92220000Y-75240000D02*
X92230000Y-75230000D01*
X89200000Y-75240000D02*
X92220000Y-75240000D01*
%TO.N,/fpga/CT.D19*%
X96800000Y-72700000D02*
X93630000Y-72700000D01*
X93630000Y-72700000D02*
X93620000Y-72710000D01*
%TO.N,/fpga/CT.D17*%
X93760000Y-70160000D02*
X96800000Y-70160000D01*
%TO.N,/fpga/Net-(U29-C{slash}CLK)*%
X59770000Y-65590000D02*
X59670000Y-65590000D01*
X59350000Y-65910000D02*
X59350000Y-72770000D01*
X59670000Y-65590000D02*
X59350000Y-65910000D01*
X55520000Y-72860000D02*
X52780000Y-75600000D01*
X57710000Y-72860000D02*
X55520000Y-72860000D01*
X59350000Y-72770000D02*
X59020000Y-73100000D01*
X57950000Y-73100000D02*
X57710000Y-72860000D01*
X52780000Y-75600000D02*
X52780000Y-77460000D01*
X59020000Y-73100000D02*
X57950000Y-73100000D01*
%TO.N,/fpga/CT.A22*%
X39250000Y-60000000D02*
X39270000Y-60020000D01*
X36200000Y-60000000D02*
X39250000Y-60000000D01*
%TO.N,/fpga/CT.A12*%
X36200000Y-72700000D02*
X39200000Y-72700000D01*
X39200000Y-72700000D02*
X39300000Y-72600000D01*
%TO.N,/fpga/CT.A6*%
X36200000Y-80320000D02*
X39280000Y-80320000D01*
X39280000Y-80320000D02*
X39320000Y-80280000D01*
%TO.N,/fpga/CT.D31*%
X96800000Y-87940000D02*
X93490000Y-87940000D01*
X93490000Y-87940000D02*
X93470000Y-87920000D01*
%TO.N,/fpga/CT.D29*%
X96800000Y-85400000D02*
X93640000Y-85400000D01*
X93640000Y-85400000D02*
X93630000Y-85410000D01*
%TO.N,/fpga/CT.D16*%
X89200000Y-70160000D02*
X92390000Y-70160000D01*
X92390000Y-70160000D02*
X92660000Y-70430000D01*
%TO.N,/fpga/CT.A20*%
X36200000Y-62540000D02*
X39220000Y-62540000D01*
%TO.N,/fpga/CT.A16*%
X39230000Y-67620000D02*
X39260000Y-67590000D01*
X36200000Y-67620000D02*
X39230000Y-67620000D01*
%TO.N,/fpga/CT.CLK*%
X46950382Y-47375000D02*
X45480000Y-47375000D01*
X48543350Y-48967968D02*
X46950382Y-47375000D01*
%TO.N,/fpga/CT.D23*%
X93560000Y-77780000D02*
X93530000Y-77810000D01*
X96800000Y-77780000D02*
X93560000Y-77780000D01*
%TO.N,/fpga/CT.D22*%
X92295600Y-77780000D02*
X92325600Y-77810000D01*
X89200000Y-77780000D02*
X92295600Y-77780000D01*
%TO.N,/fpga/CT.A8*%
X36200000Y-77780000D02*
X39470000Y-77780000D01*
X39470000Y-77780000D02*
X39500000Y-77810000D01*
%TO.N,/fpga/CT.A2*%
X36200000Y-85400000D02*
X39280000Y-85400000D01*
X39280000Y-85400000D02*
X39320000Y-85360000D01*
%TO.N,/fpga/CT.A4*%
X36200000Y-82860000D02*
X39310000Y-82860000D01*
%TO.N,/fpga/CT.D30*%
X89200000Y-87940000D02*
X92220000Y-87940000D01*
X92220000Y-87940000D02*
X92250000Y-87970000D01*
%TO.N,/fpga/CT.D25*%
X93620000Y-80320000D02*
X93570000Y-80270000D01*
X96800000Y-80320000D02*
X93620000Y-80320000D01*
%TO.N,/fpga/CT.D24*%
X89200000Y-80320000D02*
X92280000Y-80320000D01*
%TO.N,+3V3A_ETH*%
D73*
X80527700Y-97749273D02*
X80527700Y-97337700D01*
X93120000Y-99760000D02*
X93030000Y-99850000D01*
X93120000Y-99030000D02*
X93120000Y-99760000D01*
X78050000Y-98790000D02*
X78452500Y-98790000D01*
X92770000Y-97890000D02*
X93120000Y-98240000D01*
X77910000Y-100337500D02*
X77910000Y-99332500D01*
X93030000Y-99850000D02*
X92670000Y-99490000D01*
X80448427Y-97670000D02*
X80527700Y-97749273D01*
X92670000Y-99490000D02*
X92080000Y-99490000D01*
X80527700Y-97749273D02*
X80651610Y-97749273D01*
X92670000Y-98690000D02*
X92080000Y-98690000D01*
X76510000Y-100330000D02*
X78050000Y-98790000D01*
X93120000Y-98240000D02*
X92670000Y-98690000D01*
X78452500Y-98237500D02*
X79020000Y-97670000D01*
X77910000Y-99332500D02*
X78452500Y-98790000D01*
X76400000Y-100660000D02*
X76510000Y-100550000D01*
X79310000Y-97380000D02*
X79020000Y-97670000D01*
X78452500Y-98790000D02*
X78452500Y-98237500D01*
X80527700Y-97337700D02*
X80490000Y-97300000D01*
X79310000Y-97140000D02*
X79310000Y-97380000D01*
X92080000Y-97890000D02*
X92770000Y-97890000D01*
X79020000Y-97670000D02*
X80448427Y-97670000D01*
X92080000Y-100290000D02*
X92590000Y-100290000D01*
X93120000Y-98240000D02*
X93120000Y-99030000D01*
X93560000Y-98930000D02*
X93220000Y-98930000D01*
X76510000Y-100550000D02*
X76510000Y-100330000D01*
X92590000Y-100290000D02*
X93030000Y-99850000D01*
X80651610Y-97749273D02*
X81525358Y-98623021D01*
X93220000Y-98930000D02*
X93120000Y-99030000D01*
%TO.N,/video/Net-(U26-SD1)*%
D74*
X42210000Y-96080000D02*
X42210000Y-97368481D01*
X42380000Y-95910000D02*
X42210000Y-96080000D01*
X42410000Y-98470000D02*
X42620000Y-98260000D01*
X42210000Y-97368481D02*
X42211603Y-97370084D01*
X41420000Y-98120000D02*
X41770000Y-98470000D01*
X42620000Y-97700000D02*
X42290084Y-97370084D01*
X42620000Y-98260000D02*
X42620000Y-97700000D01*
X42380000Y-95120000D02*
X42380000Y-95910000D01*
X40480000Y-98120000D02*
X41420000Y-98120000D01*
X41770000Y-98470000D02*
X42410000Y-98470000D01*
X42290084Y-97370084D02*
X42211603Y-97370084D01*
%TO.N,/video/Net-(U26-SC1)*%
X40480000Y-97720000D02*
X41774291Y-97720000D01*
X41774291Y-97720000D02*
X42064291Y-98010000D01*
%TO.N,/PCIe/REFCLKAC_N*%
X68802400Y-95317859D02*
X68802400Y-95439443D01*
X68802400Y-95439443D02*
X68802400Y-95565359D01*
X68802400Y-95565359D02*
X68802400Y-95662400D01*
X65648653Y-92537600D02*
X67153126Y-92537600D01*
X67153126Y-92537600D02*
X68802400Y-94186874D01*
X63700000Y-90588947D02*
X65648653Y-92537600D01*
X63700000Y-90400000D02*
X63700000Y-90588947D01*
X69280816Y-94717859D02*
X69280816Y-94839443D01*
X68802400Y-94186874D02*
X68802400Y-94239443D01*
X68802400Y-95662400D02*
X68890000Y-95750000D01*
X69280816Y-94839443D02*
G75*
G02*
X69041608Y-95078616I-239216J43D01*
G01*
X69041608Y-94478651D02*
G75*
G02*
X69280849Y-94717859I-8J-239249D01*
G01*
X69041608Y-95078651D02*
G75*
G03*
X68802351Y-95317859I-8J-239249D01*
G01*
X68802400Y-94239443D02*
G75*
G03*
X69041608Y-94478600I239200J43D01*
G01*
%TO.N,/ddr3/Net-(U1-ZQ)*%
X51770000Y-32550000D02*
X52490000Y-32550000D01*
X52490000Y-32550000D02*
X52650000Y-32390000D01*
X52650000Y-32390000D02*
X54170000Y-32390000D01*
X54170000Y-32390000D02*
X54180000Y-32400000D01*
%TO.N,/PCIe/REFCLKAC_P*%
X65522400Y-92842400D02*
X67026874Y-92842400D01*
X68497600Y-94313126D02*
X68497600Y-95510847D01*
X67026874Y-92842400D02*
X68497600Y-94313126D01*
X63080000Y-90400000D02*
X65522400Y-92842400D01*
X68497600Y-95510847D02*
X68315861Y-95692586D01*
%TO.N,/video/AC.TX_N1*%
D77*
X37710000Y-96125567D02*
X37680000Y-96095567D01*
X37710000Y-97090000D02*
X37710000Y-96125567D01*
X37680000Y-97120000D02*
X37710000Y-97090000D01*
X37680000Y-96095567D02*
X37680000Y-95550000D01*
%TO.N,/video/AC.TX_P1*%
X38080000Y-95950000D02*
X38110000Y-95920000D01*
X38080000Y-97120000D02*
X38080000Y-95950000D01*
%TO.N,/video/AC.TX_N2*%
X38880000Y-96130000D02*
X38870000Y-96120000D01*
X38880000Y-97120000D02*
X38880000Y-96130000D01*
%TO.N,/video/AC.TX_P2*%
X39280000Y-96549590D02*
X39366177Y-96463413D01*
X39280000Y-97120000D02*
X39280000Y-96549590D01*
%TO.N,/Ethernet/TPO_N*%
D74*
X90500000Y-100310000D02*
X90480000Y-100290000D01*
X90500000Y-101260000D02*
X90500000Y-100310000D01*
%TO.N,/Ethernet/TPO_P*%
X89070000Y-100670000D02*
X90250000Y-99490000D01*
X90250000Y-99490000D02*
X90480000Y-99490000D01*
%TO.N,/Ethernet/TPI_N*%
X88870000Y-97700000D02*
X89860000Y-98690000D01*
X89860000Y-98690000D02*
X90480000Y-98690000D01*
%TO.N,/Ethernet/TPI_P*%
X90480000Y-96720000D02*
X90480000Y-97890000D01*
X89300000Y-95540000D02*
X90480000Y-96720000D01*
%TO.N,/Ethernet/Net-(U3-EXRES)*%
X81488083Y-100236917D02*
X81488083Y-99858522D01*
X81488083Y-99858522D02*
X81459990Y-99830429D01*
X81425000Y-100300000D02*
X81488083Y-100236917D01*
X80950000Y-100300000D02*
X81425000Y-100300000D01*
%TO.N,Net-(L3-RCT)*%
X77910000Y-101987500D02*
X77752500Y-101987500D01*
X77752500Y-101987500D02*
X77030000Y-102710000D01*
X77910000Y-101987500D02*
X79372500Y-101987500D01*
X79372500Y-101987500D02*
X79420000Y-101940000D01*
%TO.N,Net-(L3-RXCT)*%
X95190000Y-102750000D02*
X95760000Y-102180000D01*
X94550000Y-102750000D02*
X95190000Y-102750000D01*
%TO.N,Net-(L3-TXCT)*%
X95240000Y-97150000D02*
X94360000Y-96270000D01*
X95635000Y-97150000D02*
X95240000Y-97150000D01*
X95770000Y-97285000D02*
X95635000Y-97150000D01*
%TO.N,/fpga/Net-(U6-CLK_OUT)*%
X84250000Y-51040000D02*
X84360000Y-51150000D01*
X83170000Y-51040000D02*
X84250000Y-51040000D01*
%TO.N,/fpga/Net-(U29-~{W}{slash}V_{PP})*%
X52730000Y-68320000D02*
X52920000Y-68510000D01*
X52920000Y-68570000D02*
X52780000Y-68710000D01*
X52780000Y-68710000D02*
X52780000Y-70460000D01*
X53170000Y-66910000D02*
X52730000Y-67350000D01*
X52920000Y-68510000D02*
X52920000Y-68570000D01*
X52730000Y-67350000D02*
X52730000Y-68320000D01*
X53240000Y-66910000D02*
X53170000Y-66910000D01*
%TO.N,/video/Net-(U4-EN)*%
X32960000Y-97020000D02*
X34060000Y-98120000D01*
X32820000Y-97020000D02*
X32960000Y-97020000D01*
X34060000Y-98120000D02*
X34480000Y-98120000D01*
%TO.N,/fpga/Net-(U29-DQ1{slash}SO)*%
X56067649Y-70632351D02*
X56510000Y-71074702D01*
X53230000Y-66190000D02*
X54100000Y-66190000D01*
X54100000Y-66190000D02*
X56067649Y-68157649D01*
X56510000Y-71074702D02*
X56510000Y-71850000D01*
X56067649Y-68157649D02*
X56067649Y-70632351D01*
X51970000Y-69000000D02*
X51970000Y-68210000D01*
X51970000Y-68210000D02*
X52130000Y-68050000D01*
X52130000Y-68050000D02*
X52130000Y-67290000D01*
X51510000Y-70460000D02*
X51510000Y-69460000D01*
X52130000Y-67290000D02*
X53230000Y-66190000D01*
X51510000Y-69460000D02*
X51970000Y-69000000D01*
%TO.N,/fpga/Net-(U29-~{HOLD})*%
X58020000Y-72490000D02*
X58220000Y-72690000D01*
X60270000Y-64510000D02*
X60770000Y-64010000D01*
X60770000Y-64010000D02*
X60770000Y-63590000D01*
X59020000Y-72430000D02*
X59020000Y-70680000D01*
X58230000Y-69890000D02*
X58230000Y-65480000D01*
X55030000Y-72490000D02*
X58020000Y-72490000D01*
X58680000Y-65030000D02*
X60000000Y-65030000D01*
X51510000Y-79950000D02*
X51570000Y-80010000D01*
X60270000Y-64760000D02*
X60270000Y-64510000D01*
X51510000Y-76010000D02*
X55030000Y-72490000D01*
X59020000Y-70680000D02*
X58230000Y-69890000D01*
X58230000Y-65480000D02*
X58680000Y-65030000D01*
X58760000Y-72690000D02*
X59020000Y-72430000D01*
X51510000Y-77460000D02*
X51510000Y-79950000D01*
X58220000Y-72690000D02*
X58760000Y-72690000D01*
X51510000Y-77460000D02*
X51510000Y-76010000D01*
X60000000Y-65030000D02*
X60270000Y-64760000D01*
%TO.N,/Ethernet/Net-(C4-Pad1)*%
X93510000Y-102420000D02*
X95400000Y-100530000D01*
X92210000Y-102420000D02*
X93510000Y-102420000D01*
X95485000Y-98935000D02*
X92210000Y-102210000D01*
X92210000Y-102210000D02*
X92210000Y-102420000D01*
X95770000Y-98935000D02*
X95485000Y-98935000D01*
X95400000Y-100530000D02*
X95760000Y-100530000D01*
%TO.N,/fpga/Net-(Y6-OUT)*%
X84900000Y-55900000D02*
X84900000Y-56680000D01*
X84900000Y-56765000D02*
X85450000Y-57315000D01*
X84900000Y-56680000D02*
X84900000Y-56790000D01*
X85450000Y-57315000D02*
X85450000Y-57545000D01*
X84900000Y-56790000D02*
X84155000Y-57535000D01*
X84900000Y-56680000D02*
X84900000Y-56765000D01*
X84155000Y-57535000D02*
X83960000Y-57535000D01*
%TO.N,/fpga/Net-(U6-CLK_IN)*%
X85660000Y-59195000D02*
X85450000Y-59195000D01*
X86430000Y-58425000D02*
X85660000Y-59195000D01*
X85060000Y-50570000D02*
X85326143Y-50570000D01*
X85980000Y-51223857D02*
X85980000Y-56440000D01*
X85326143Y-50570000D02*
X85980000Y-51223857D01*
X86430000Y-56890000D02*
X86430000Y-58425000D01*
X85980000Y-56440000D02*
X86430000Y-56890000D01*
%TO.N,+1V8_ETH*%
D73*
X77515151Y-95105151D02*
X78010000Y-95600000D01*
X82740000Y-97260000D02*
X82740000Y-97075000D01*
X82690000Y-95790000D02*
X78620000Y-95790000D01*
X82490000Y-97510000D02*
X82490000Y-97657002D01*
X83140000Y-95340000D02*
X83140000Y-96400000D01*
X83140000Y-96400000D02*
X83830367Y-97090367D01*
X83140000Y-95340000D02*
X82690000Y-95790000D01*
X77400998Y-95105151D02*
X77515151Y-95105151D01*
X78620000Y-95790000D02*
X78430000Y-95600000D01*
X78430000Y-95600000D02*
X78010000Y-95600000D01*
X82975000Y-96840000D02*
X82975000Y-95505000D01*
X82740000Y-97260000D02*
X82490000Y-97510000D01*
X83830367Y-97090367D02*
X84137002Y-97090367D01*
X82975000Y-95505000D02*
X83140000Y-95340000D01*
X82740000Y-97075000D02*
X82975000Y-96840000D01*
%TO.N,Net-(D3-IO1)*%
D74*
X76740000Y-106230000D02*
X76760000Y-106210000D01*
X77270000Y-107520000D02*
X76960000Y-107520000D01*
X76740000Y-107300000D02*
X76740000Y-106230000D01*
X76960000Y-107520000D02*
X76740000Y-107300000D01*
%TO.N,Net-(D3-IO4)*%
X79114997Y-103184997D02*
X79740000Y-103810000D01*
X79580000Y-106300000D02*
X79580000Y-103970000D01*
X78050000Y-107520000D02*
X78360000Y-107520000D01*
X75399039Y-103184997D02*
X79114997Y-103184997D01*
X79580000Y-103970000D02*
X79740000Y-103810000D01*
X78360000Y-107520000D02*
X79580000Y-106300000D01*
%TO.N,Net-(J6-Pin_14)*%
X44061400Y-45021400D02*
X42520000Y-45021400D01*
X44765000Y-45725000D02*
X44061400Y-45021400D01*
X45480000Y-45725000D02*
X44765000Y-45725000D01*
%TO.N,Net-(U10special-MSEL0)*%
X63270000Y-58618752D02*
X63020624Y-58369376D01*
X63189376Y-60039376D02*
X63189376Y-59470624D01*
X63270000Y-59390000D02*
X63270000Y-58618752D01*
X63189376Y-59470624D02*
X63270000Y-59390000D01*
%TD*%
M02*
