%TF.GenerationSoftware,KiCad,Pcbnew,10.0.6*%
%TF.CreationDate,2026-09-26T17:55:45+02:00*%
%TF.ProjectId,mega_videl,6d656761-5f76-4696-9465-6c2e6b696361,rev?*%
%TF.SameCoordinates,Original*%
%TF.FileFunction,Copper,L3,Inr*%
%TF.FilePolarity,Positive*%
%FSLAX46Y46*%
G04 Gerber Fmt 4.6, Leading zero omitted, Abs format (unit mm)*
G04 Created by KiCad (PCBNEW 10.0.6) date 2026-09-26 17:55:45*
%MOMM*%
%LPD*%
G01*
G04 APERTURE LIST*
%TA.AperFunction,ComponentPad*%
%ADD10C,1.300000*%
%TD*%
%TA.AperFunction,ComponentPad*%
%ADD11C,3.200000*%
%TD*%
%TA.AperFunction,ComponentPad*%
%ADD12C,0.800000*%
%TD*%
%TA.AperFunction,ComponentPad*%
%ADD13O,1.200000X2.000000*%
%TD*%
%TA.AperFunction,ComponentPad*%
%ADD14O,1.200000X1.800000*%
%TD*%
%TA.AperFunction,ComponentPad*%
%ADD15O,1.500000X2.550000*%
%TD*%
%TA.AperFunction,ComponentPad*%
%ADD16R,1.700000X1.700000*%
%TD*%
%TA.AperFunction,ComponentPad*%
%ADD17C,1.700000*%
%TD*%
%TA.AperFunction,ComponentPad*%
%ADD18O,1.000000X2.100000*%
%TD*%
%TA.AperFunction,ComponentPad*%
%ADD19O,1.000000X2.600000*%
%TD*%
%TA.AperFunction,ViaPad*%
%ADD20C,0.370000*%
%TD*%
%TA.AperFunction,ViaPad*%
%ADD21C,0.450000*%
%TD*%
%TA.AperFunction,ViaPad*%
%ADD22C,0.500000*%
%TD*%
%TA.AperFunction,ViaPad*%
%ADD23C,0.610000*%
%TD*%
%TA.AperFunction,ViaPad*%
%ADD24C,0.350000*%
%TD*%
%TA.AperFunction,Conductor*%
%ADD25C,0.127000*%
%TD*%
%TA.AperFunction,Conductor*%
%ADD26C,0.181610*%
%TD*%
%TA.AperFunction,Conductor*%
%ADD27C,0.304800*%
%TD*%
%TA.AperFunction,Conductor*%
%ADD28C,0.152400*%
%TD*%
%TA.AperFunction,Conductor*%
%ADD29C,0.116078*%
%TD*%
%TA.AperFunction,Conductor*%
%ADD30C,0.171450*%
%TD*%
G04 APERTURE END LIST*
D10*
%TO.N,/fpga/PCIE.SPARE*%
%TO.C,U17*%
X61660000Y-99030000D03*
%TO.N,/PCIe/PCIESLOT.REFLCK_N*%
X64160000Y-99030000D03*
%TO.N,/PCIe/PCIESLOT.REFLCK_P*%
X66160000Y-99030000D03*
%TO.N,/fpga/PCIE.PERST_N*%
X68660000Y-99030000D03*
%TO.N,/PCIe/PCISLOT.TX_P*%
X69160000Y-97530000D03*
%TO.N,/PCIe/PCISLOT.TX_N*%
X67160000Y-97530000D03*
%TO.N,GND*%
X65160000Y-97530000D03*
%TO.N,/fpga/PCIE.RX_P*%
X63160000Y-97530000D03*
%TO.N,/fpga/PCIE.RX_N*%
X61160000Y-97530000D03*
D11*
%TO.N,GND*%
X58590000Y-101130000D03*
X71730000Y-101130000D03*
%TD*%
D12*
%TO.N,*%
%TO.C,USBC1*%
X75150000Y-106530000D03*
X80950000Y-106530000D03*
D13*
%TO.N,GND*%
X82380000Y-106030000D03*
D14*
X82380000Y-110210000D03*
X73720000Y-110210000D03*
D13*
X73720000Y-106030000D03*
%TD*%
D15*
%TO.N,GND*%
%TO.C,VID1*%
X34070000Y-107080000D03*
X34070000Y-110450000D03*
X40270000Y-107080000D03*
X40270000Y-110450000D03*
%TD*%
D16*
%TO.N,+3V3*%
%TO.C,J4*%
X34800000Y-79120000D03*
D17*
%TO.N,/video/EXT.SDA*%
X34800000Y-81660000D03*
%TO.N,/video/EXT.SCL*%
X34800000Y-84200000D03*
%TO.N,GND*%
X34800000Y-86740000D03*
%TD*%
D16*
%TO.N,GND*%
%TO.C,J2*%
X31340000Y-60190000D03*
D17*
%TO.N,+3V3*%
X31340000Y-57650000D03*
%TO.N,+1V35*%
X31340000Y-55110000D03*
%TO.N,+1V1*%
X31340000Y-52570000D03*
%TD*%
D18*
%TO.N,GND*%
%TO.C,USBC2*%
X46380000Y-105695088D03*
D19*
X46380000Y-111055088D03*
D18*
X55020000Y-105695088D03*
D19*
X55020000Y-111055088D03*
%TD*%
D20*
%TO.N,/fpga/DRAM.RAS_N*%
X64230000Y-36630000D03*
D21*
X48920400Y-40394000D03*
X81381600Y-37998400D03*
D20*
%TO.N,/fpga/DRAM.ODT*%
X70897725Y-34930000D03*
D21*
X84785200Y-40284400D03*
D20*
X59780000Y-33200000D03*
X80430000Y-33200000D03*
D21*
X49340000Y-39894000D03*
%TO.N,/fpga/DRAM.CAS_N*%
X82550000Y-37795200D03*
X48920400Y-39394000D03*
D20*
X63977195Y-33980000D03*
D21*
%TO.N,/fpga/DRAM.WE_N*%
X84328000Y-38608000D03*
D20*
X61460000Y-33157195D03*
D21*
X49340000Y-38894000D03*
%TO.N,/fpga/DRAM.CS_N*%
X48920400Y-38394000D03*
D20*
X70670000Y-32370000D03*
D21*
X83921600Y-38049200D03*
%TO.N,/fpga/DRAM.A10*%
X84429600Y-37592000D03*
X49340000Y-37894000D03*
D20*
X75630000Y-32400000D03*
X54980000Y-32400000D03*
X61919248Y-32369585D03*
D21*
%TO.N,/fpga/DRAM.BA2*%
X48920400Y-37394000D03*
D20*
X71037195Y-31560999D03*
D21*
X84924805Y-37134800D03*
D22*
%TO.N,+0V675VTT*%
X46659000Y-31985301D03*
X35630000Y-25820000D03*
%TO.N,+1V35*%
X85830000Y-62990000D03*
X84850000Y-51600000D03*
D21*
X49860000Y-42980000D03*
D23*
X32750000Y-32890000D03*
D22*
X71970000Y-26120000D03*
X55710000Y-46191600D03*
D23*
X31030000Y-32890000D03*
D22*
X84310000Y-44570000D03*
X48420000Y-26310000D03*
D23*
X31920000Y-32890000D03*
D22*
X78810000Y-46310000D03*
X34630000Y-31191000D03*
D21*
X49030000Y-43620000D03*
D22*
X76620000Y-46500000D03*
X49682400Y-25812000D03*
D21*
X49040000Y-42990000D03*
D22*
X64410000Y-26050000D03*
D21*
X49830000Y-43610000D03*
D22*
X77590000Y-26250000D03*
X49733200Y-42316400D03*
D21*
%TO.N,/fpga/TCK*%
X45960000Y-73630000D03*
X58580000Y-72240000D03*
D22*
%TO.N,GND*%
X78380000Y-96520000D03*
D20*
X55930000Y-53080000D03*
D22*
X80380000Y-102560000D03*
D21*
X80780000Y-95150000D03*
D20*
X70149998Y-93270001D03*
D21*
X81740000Y-95140000D03*
D20*
X65980000Y-90990000D03*
X79630000Y-34000000D03*
D22*
X48170000Y-44530000D03*
X77210000Y-48120000D03*
D23*
X37600000Y-30140000D03*
D21*
X31800000Y-29080000D03*
X78540000Y-94610000D03*
X59334453Y-90945547D03*
D20*
X54260000Y-58170000D03*
D21*
X92640000Y-25110000D03*
D22*
X88560000Y-43480000D03*
X92950000Y-31160000D03*
X83150000Y-44400000D03*
D21*
X81740000Y-93370000D03*
X37470000Y-48800000D03*
D22*
X79870000Y-96330000D03*
X92960000Y-30490000D03*
X35840000Y-108760000D03*
D21*
X62000000Y-96158200D03*
D23*
X92245600Y-89070000D03*
X93760551Y-88890000D03*
D22*
X69560000Y-26160000D03*
X92360000Y-48560000D03*
D20*
X40560000Y-103040000D03*
D21*
X88440000Y-71040000D03*
D22*
X37700000Y-40549000D03*
D20*
X55860000Y-58190000D03*
D22*
X66710000Y-91990000D03*
X31270000Y-101230000D03*
D23*
X40770000Y-89030000D03*
D22*
X37170000Y-108730000D03*
X85868248Y-71886791D03*
D20*
X80430000Y-35600000D03*
D22*
X40820000Y-47310000D03*
X32640000Y-94540000D03*
D20*
X83200000Y-77240000D03*
X84730000Y-77190000D03*
D22*
X89930000Y-76210000D03*
X42950000Y-48260000D03*
X42860000Y-98700000D03*
D21*
X32530000Y-29090000D03*
D22*
X85150000Y-100790000D03*
D20*
X83340000Y-70450000D03*
D22*
X53250000Y-67630000D03*
X88420000Y-53610000D03*
X38370000Y-108710000D03*
X94080000Y-111100000D03*
X53644800Y-25812000D03*
X81190000Y-48690000D03*
X32860000Y-75300000D03*
D20*
X54270000Y-54540000D03*
D23*
X39360000Y-89750000D03*
D21*
X90360000Y-68970000D03*
X67456889Y-35966889D03*
D22*
X73650000Y-90520000D03*
X81940000Y-25960000D03*
X92450000Y-30040000D03*
D21*
X34710000Y-27410000D03*
D22*
X94440831Y-68479217D03*
X73040000Y-86500000D03*
D20*
X42610000Y-99610000D03*
D21*
X93210000Y-25110000D03*
D22*
X83430000Y-97498498D03*
X92235000Y-83785000D03*
X91720000Y-108780000D03*
X85140000Y-49260000D03*
X48710000Y-104270000D03*
D21*
X79800000Y-94215000D03*
D22*
X81370000Y-102980000D03*
X96120000Y-71730000D03*
D23*
X93804400Y-89766003D03*
D22*
X34556922Y-102349463D03*
X68390000Y-92020000D03*
D20*
X52356400Y-53634867D03*
D22*
X30690000Y-99230000D03*
X85640000Y-64980000D03*
X36600000Y-24880000D03*
D21*
X33730000Y-27400000D03*
D22*
X37030000Y-26130000D03*
D21*
X50440000Y-101110000D03*
D20*
X51490000Y-51460000D03*
D22*
X35230000Y-63740000D03*
D21*
X88420000Y-68970000D03*
D23*
X41900000Y-30170000D03*
X41910000Y-30870000D03*
D21*
X34210000Y-26530000D03*
D22*
X88480000Y-46020000D03*
D20*
X64540000Y-89710000D03*
D22*
X38485461Y-40548837D03*
D20*
X56590000Y-50510000D03*
X64850000Y-93400000D03*
D22*
X31120000Y-96090000D03*
D20*
X52100000Y-57240000D03*
D21*
X80780000Y-94265000D03*
D24*
X77660000Y-107280000D03*
D21*
X81740000Y-94255000D03*
X34260000Y-28240000D03*
D22*
X49940000Y-107500000D03*
X93810000Y-30020000D03*
D20*
X36570000Y-105670000D03*
D22*
X54860000Y-45300000D03*
X45320000Y-48410000D03*
D23*
X92275600Y-89770000D03*
D22*
X50760000Y-49860000D03*
X78600000Y-101210000D03*
X89610000Y-111270000D03*
D21*
X95770000Y-25110000D03*
D22*
X51745810Y-41536580D03*
D21*
X90410000Y-71080000D03*
D22*
X60147200Y-25812000D03*
X29980000Y-44550000D03*
X68750000Y-93340000D03*
X88520000Y-51110000D03*
D20*
X54280000Y-56640000D03*
D22*
X88403200Y-58720000D03*
X84935461Y-99065461D03*
D21*
X83430000Y-92410000D03*
D22*
X30090000Y-35470000D03*
X32940000Y-101710000D03*
D20*
X43790000Y-96800000D03*
D21*
X80780000Y-93380000D03*
D22*
X69810000Y-86360000D03*
X86550000Y-76410000D03*
X93680000Y-76810000D03*
D21*
X80460000Y-92410000D03*
D22*
X73400000Y-94770000D03*
X66600000Y-93960000D03*
X53380000Y-104270000D03*
X74380000Y-90670000D03*
D21*
X38152216Y-48762216D03*
D23*
X39380000Y-89050000D03*
D20*
X54280000Y-52960000D03*
X84710000Y-50860000D03*
D22*
X30170000Y-24920000D03*
X74850000Y-47730000D03*
X30500000Y-30320000D03*
D21*
X96210000Y-26160000D03*
D22*
X89380000Y-105550000D03*
X36840000Y-25530000D03*
X84100000Y-52050000D03*
D20*
X55880000Y-55980000D03*
D22*
X86600000Y-78800000D03*
X48920000Y-44570000D03*
X51710000Y-105860000D03*
D21*
X65019063Y-35617358D03*
X79800000Y-93330000D03*
D23*
X40780000Y-89730000D03*
D20*
X51150000Y-45000000D03*
X84290000Y-68290000D03*
D23*
X37580000Y-30840000D03*
D22*
X37705921Y-104239883D03*
X88440000Y-56160000D03*
D20*
X36010000Y-103280000D03*
D22*
X76330000Y-26040000D03*
X81260000Y-96880000D03*
D21*
X77820000Y-93521800D03*
X79800000Y-95100000D03*
D22*
%TO.N,+3V3*%
X67860000Y-90150000D03*
X79490000Y-90920998D03*
X85750000Y-97630000D03*
X40920000Y-96080000D03*
X29980000Y-46070000D03*
X93920000Y-105530000D03*
X77370000Y-91530000D03*
X32120000Y-100820000D03*
X94340000Y-69206800D03*
X30490000Y-25860000D03*
X48300000Y-46460000D03*
X72660000Y-90820000D03*
X48920000Y-46460000D03*
D20*
X51510000Y-47930000D03*
D21*
X62841745Y-56518255D03*
D22*
X72160000Y-93080000D03*
X46410000Y-96450000D03*
D20*
X64170000Y-57000000D03*
X64810000Y-94310000D03*
D22*
X31440000Y-66570000D03*
X38650000Y-38570000D03*
X65200000Y-91260000D03*
X88430000Y-41880000D03*
X30790000Y-26410000D03*
X32710000Y-72750000D03*
X86230000Y-66910000D03*
X37900000Y-38590000D03*
X75630000Y-99390000D03*
X49250000Y-77910000D03*
X82500000Y-90920998D03*
X32200000Y-26810000D03*
X85982219Y-71270234D03*
X30200000Y-26390000D03*
X32140000Y-99260000D03*
D20*
X70234502Y-94340000D03*
D22*
X74960000Y-99410000D03*
X93970000Y-37140000D03*
X83410000Y-77860000D03*
X38270000Y-46260000D03*
X38880000Y-46270000D03*
X32257003Y-28370000D03*
X50870000Y-55650000D03*
X30130000Y-36880000D03*
X86137501Y-67682501D03*
X83650000Y-50210000D03*
X82640000Y-51980000D03*
X52420000Y-65980000D03*
X32710000Y-93030000D03*
D20*
X42610000Y-100200000D03*
D22*
X93270000Y-36750000D03*
X37253200Y-96265692D03*
X89820266Y-74145720D03*
X92980000Y-36230000D03*
X43320000Y-92660000D03*
D21*
%TO.N,/fpga/TDI*%
X58590000Y-71550000D03*
X45700000Y-63780000D03*
D22*
%TO.N,/usb2/USBVBUSE*%
X92245000Y-91595000D03*
X76215000Y-106585000D03*
X85000000Y-108830000D03*
X80050000Y-106600000D03*
D21*
%TO.N,/fpga/HDMI.CLK_P*%
X55789893Y-53595133D03*
%TO.N,/fpga/HDMI.CLK_N*%
X55900000Y-52550000D03*
%TO.N,/video/AC.CLK_N*%
X34890000Y-95550000D03*
X52750000Y-52480000D03*
%TO.N,/video/AC.CLK_P*%
X35360000Y-95910000D03*
X52670000Y-53200000D03*
%TO.N,/video/AC.TX_N0*%
X52670000Y-54100000D03*
X36081979Y-95546847D03*
%TO.N,/video/AC.TX_P0*%
X52660000Y-54830000D03*
X36560000Y-95870000D03*
D22*
%TO.N,+3V3A_PCIE*%
X73990000Y-92670000D03*
D21*
%TO.N,/usb2/USBD_P*%
X79060000Y-103760000D03*
X77840000Y-104260000D03*
%TO.N,/usb2/USBD_N*%
X77310000Y-103740000D03*
X78320000Y-103700000D03*
%TO.N,/usb2/Net-(U20-EXTVBUS)*%
X92640000Y-71670000D03*
X91280000Y-76750000D03*
%TO.N,/fpga/USB2.NXT*%
X92960000Y-61100000D03*
X83390000Y-58518200D03*
%TO.N,/fpga/USB2.DIR*%
X83850000Y-67300000D03*
X86830000Y-66640000D03*
X91730000Y-66700000D03*
%TO.N,/fpga/USB2.STP*%
X85470000Y-68340000D03*
X82160000Y-57580000D03*
X92650000Y-69580000D03*
%TO.N,/fpga/USB2.CLK*%
X83510000Y-60450000D03*
X92690000Y-69010000D03*
D22*
%TO.N,/usb2/+1V8*%
X86130000Y-68370000D03*
X92500000Y-68300000D03*
%TO.N,/usb2/+1VA8*%
X86053856Y-70647337D03*
D20*
%TO.N,+2V5*%
X67810000Y-52610000D03*
D22*
X48925000Y-48495000D03*
D20*
X66710000Y-50720000D03*
%TO.N,/fpga/PCIE.SPARE*%
X61860000Y-101540000D03*
D21*
%TO.N,/PCIe/PCIESLOT.REFLCK_N*%
X66730000Y-95600000D03*
%TO.N,/PCIe/PCIESLOT.REFLCK_P*%
X66000000Y-95430000D03*
%TO.N,/fpga/PCIE.RX_P*%
X59160000Y-90390000D03*
X61290000Y-96158200D03*
%TO.N,/fpga/PCIE.RX_N*%
X59600000Y-89890000D03*
X62540000Y-95810000D03*
D22*
%TO.N,+1V1*%
X32850000Y-41980000D03*
X56550000Y-48980000D03*
X57130000Y-48780000D03*
%TO.N,+5V*%
X70860000Y-108780000D03*
X86290000Y-45500000D03*
X89710000Y-83970000D03*
X43330000Y-110240000D03*
D20*
X43890000Y-106410000D03*
D21*
%TO.N,/fpga/Net-(U5special-nSTATUS)*%
X51380000Y-55130000D03*
X56240000Y-57370000D03*
%TO.N,/fpga/ETH.RESET_N*%
X76221380Y-97324498D03*
X71320000Y-75290000D03*
D20*
%TO.N,/fpga/DRAM.DQ16*%
X78830000Y-37200000D03*
X73770000Y-54590000D03*
%TO.N,/fpga/DRAM.DM2*%
X75630000Y-37200000D03*
X73770000Y-51590000D03*
%TO.N,/fpga/DRAM.DQ18*%
X79630000Y-36400000D03*
X74770000Y-56590000D03*
%TO.N,/fpga/DRAM.DQS_P2*%
X78830000Y-36400000D03*
X74770000Y-54590000D03*
%TO.N,/fpga/DRAM.DQ17*%
X72770000Y-50590000D03*
X75630000Y-36400000D03*
%TO.N,/fpga/DRAM.DQ19*%
X74830000Y-36400000D03*
X71789580Y-53590000D03*
%TO.N,/fpga/DRAM.DQS_N2*%
X78830000Y-35600000D03*
X74770000Y-55590000D03*
%TO.N,+0V675REF*%
X60290390Y-35950000D03*
D22*
X46190000Y-25250000D03*
D20*
%TO.N,/fpga/DRAM.DQ20*%
X78830000Y-34800000D03*
X72770000Y-52590000D03*
%TO.N,/fpga/DRAM.DQ23*%
X75630000Y-34800000D03*
X71770000Y-52590000D03*
%TO.N,/fpga/DRAM.DQ21*%
X72770000Y-49590000D03*
X74830000Y-34800000D03*
%TO.N,/fpga/DRAM.CK_P*%
X67990000Y-35310000D03*
X65532000Y-35458400D03*
X52490000Y-34660000D03*
%TO.N,/fpga/DRAM.CK_N*%
X65530000Y-34780000D03*
X52587830Y-33297972D03*
X67960000Y-34798000D03*
%TO.N,/fpga/DRAM.CKE*%
X53380000Y-33200000D03*
X74030000Y-33200000D03*
X72460000Y-33180000D03*
%TO.N,/fpga/DRAM.BA0*%
X62695001Y-32631319D03*
D21*
X49340000Y-36126800D03*
X84640400Y-36311200D03*
%TO.N,/fpga/DRAM.A3*%
X48920400Y-35626800D03*
X85040400Y-35811200D03*
D20*
X60630000Y-31570195D03*
X60675195Y-42904447D03*
X79630000Y-30800000D03*
X58980000Y-30800000D03*
%TO.N,/fpga/DRAM.A0*%
X68160000Y-31530000D03*
D21*
X85040400Y-34811200D03*
D20*
X68800000Y-45810000D03*
D21*
X48920400Y-34626800D03*
D20*
X71850000Y-31580000D03*
D21*
%TO.N,/fpga/DRAM.A12*%
X84640400Y-35311200D03*
X49340000Y-35126800D03*
D20*
X62815195Y-30785195D03*
%TO.N,/fpga/DRAM.BA1*%
X54180000Y-30800000D03*
D21*
X84640400Y-34311200D03*
D20*
X74830000Y-30800000D03*
X68529200Y-29920000D03*
D21*
X49340000Y-34126800D03*
D20*
%TO.N,/fpga/DRAM.A5*%
X65100000Y-30710000D03*
D21*
X84640400Y-33311200D03*
X49340000Y-33126800D03*
D20*
%TO.N,/fpga/DRAM.A2*%
X67820000Y-45370000D03*
D21*
X48920400Y-33626800D03*
X85040400Y-33811200D03*
D20*
X71100000Y-29980000D03*
%TO.N,/fpga/DRAM.A1*%
X75630000Y-30000000D03*
X54980000Y-30000000D03*
X65030000Y-29195195D03*
D21*
X48920400Y-32626800D03*
D20*
X69749401Y-30785196D03*
D21*
X85040400Y-32811200D03*
%TO.N,/fpga/DRAM.A4*%
X48920400Y-30835600D03*
X85040400Y-31046800D03*
D20*
X62790000Y-29980000D03*
%TO.N,/fpga/DRAM.A7*%
X69500000Y-29160000D03*
D21*
X84640400Y-31546800D03*
X49340000Y-31343600D03*
%TO.N,/fpga/DRAM.A9*%
X84640400Y-30546800D03*
D20*
X58180000Y-29200000D03*
X65882510Y-29134572D03*
D21*
X49340000Y-30343600D03*
D20*
X78830000Y-29200000D03*
D21*
%TO.N,/fpga/DRAM.A11*%
X49340000Y-29343600D03*
D20*
X61950000Y-28330000D03*
D21*
X84640400Y-29546800D03*
D20*
%TO.N,/fpga/DRAM.A6*%
X67070000Y-28350000D03*
D21*
X48920400Y-29835600D03*
X85040400Y-30046800D03*
D20*
%TO.N,/fpga/DRAM.RESET_N*%
X82477195Y-26707195D03*
X67327500Y-26162500D03*
%TO.N,/fpga/DRAM.A13*%
X78821328Y-28368963D03*
X66910000Y-27260000D03*
D21*
X48920400Y-28835600D03*
X85040400Y-29046800D03*
D20*
X58180000Y-28400000D03*
%TO.N,/fpga/DRAM.A14*%
X61060000Y-27300000D03*
D21*
X48920400Y-27835600D03*
X85040400Y-28046800D03*
D20*
X61010800Y-44043600D03*
%TO.N,/fpga/DRAM.A8*%
X63340000Y-27240000D03*
D21*
X49340000Y-28343600D03*
X84640400Y-28546800D03*
%TO.N,/fpga/LINK.TX_N*%
X49890000Y-100960000D03*
D20*
%TO.N,Net-(USBC2-TX2-)*%
X51660000Y-104300000D03*
X52470000Y-107350000D03*
D21*
%TO.N,/video/HDMIO.SCL*%
X44320000Y-99290000D03*
D20*
X41120000Y-105050000D03*
D22*
%TO.N,+1V1_TX*%
X52190000Y-51870000D03*
D20*
%TO.N,/fpga/VIDEL33.CLK0*%
X71770000Y-65590000D03*
D21*
X85680000Y-42690000D03*
D20*
%TO.N,/fpga/VIDEL33.CLK1*%
X72770000Y-65590000D03*
D21*
X85680000Y-43910000D03*
%TO.N,/fpga/VIDEL33.CLK2*%
X84220000Y-43010000D03*
D20*
X70770000Y-65590000D03*
D21*
%TO.N,/fpga/FALCON_AUDIOLV.O*%
X83736805Y-49310000D03*
X79470000Y-50680000D03*
%TO.N,/Ethernet/Net-(U3-XTAL1{slash}CLKIN\u002A\u002A)*%
X85090000Y-101810000D03*
X85020000Y-103290000D03*
%TO.N,/Ethernet/Net-(U3-XTAL2)*%
X81200000Y-101120000D03*
%TO.N,/video/HDMIO.HPD*%
X39625432Y-103088610D03*
X38420000Y-101920000D03*
%TO.N,/video/HDMIO.D2P*%
X38780000Y-104700000D03*
%TO.N,/video/HDMIO.D2N*%
X38229468Y-104597065D03*
%TO.N,/video/HDMIO.D1P*%
X37080000Y-104180000D03*
D20*
X37980000Y-108150000D03*
%TO.N,/video/HDMIO.D1N*%
X37570000Y-107790000D03*
D21*
X36514166Y-104111119D03*
%TO.N,/video/HDMIO.D0P*%
X35526400Y-104201367D03*
%TO.N,/video/HDMIO.D0N*%
X34954402Y-104277192D03*
%TO.N,/video/HDMIO.CKP*%
X34100000Y-104270000D03*
D20*
X36740000Y-108220000D03*
%TO.N,/video/HDMIO.CKN*%
X36260000Y-107850000D03*
D21*
X33433029Y-104276055D03*
%TO.N,/video/HDMIO.SDA*%
X45320000Y-96410000D03*
D20*
X40580000Y-105250000D03*
D22*
%TO.N,+2V5_TX*%
X51470000Y-53600000D03*
D20*
X62770000Y-52622000D03*
D22*
X51440000Y-58980000D03*
X60281400Y-55070000D03*
D20*
X61162486Y-53039517D03*
X59770000Y-48590000D03*
X67800000Y-51570000D03*
D21*
%TO.N,/fpga/CT.A23*%
X40670000Y-59970000D03*
X58770000Y-76010000D03*
%TO.N,/fpga/CT.A27*%
X60250000Y-75970000D03*
X40750000Y-54910000D03*
%TO.N,/fpga/CT.A18*%
X39290000Y-65030000D03*
X61070000Y-76580000D03*
%TO.N,/fpga/CT.A9*%
X66265000Y-75535000D03*
X40740000Y-77810000D03*
%TO.N,/fpga/CT.RST_N*%
X39290000Y-47350000D03*
X60040000Y-77850000D03*
%TO.N,/fpga/ETH.IRQ*%
X71680000Y-74830000D03*
X77516502Y-97620000D03*
%TO.N,/fpga/CT.D27*%
X81200000Y-69270000D03*
X93590000Y-82770000D03*
%TO.N,/fpga/CT.A30*%
X39240000Y-49790000D03*
%TO.N,/fpga/CT.SIZ0*%
X39190000Y-39650000D03*
X62770000Y-69590000D03*
%TO.N,/fpga/CT.A25*%
X40720000Y-57460000D03*
X59510000Y-76000000D03*
%TO.N,/fpga/CT.A19*%
X59330000Y-77870000D03*
X40630000Y-65410000D03*
%TO.N,/fpga/CT.A7*%
X40680000Y-80280000D03*
X66755000Y-74695000D03*
%TO.N,/fpga/CT.A5*%
X40620000Y-82870000D03*
X68139800Y-75610000D03*
%TO.N,/fpga/CT.A14*%
X58620000Y-77840000D03*
X39280000Y-70090000D03*
%TO.N,/fpga/CT.D28*%
X92250000Y-85460000D03*
D20*
%TO.N,/fpga/DRAM.DQ6*%
X58980000Y-35600000D03*
X68770000Y-49590000D03*
%TO.N,/fpga/DRAM.DQ0*%
X58180000Y-37160000D03*
X67820600Y-50550956D03*
%TO.N,/fpga/DRAM.DQ4*%
X58190000Y-34800000D03*
X69770000Y-50590000D03*
%TO.N,/fpga/DRAM.DQ2*%
X58980000Y-36360000D03*
X68770000Y-51590000D03*
%TO.N,/fpga/DRAM.DQ7*%
X68770000Y-52590000D03*
X54980000Y-34790000D03*
%TO.N,/fpga/HDMI.REFCLK_N*%
X56240000Y-49690000D03*
%TO.N,/fpga/DRAM.DM0*%
X54980000Y-37160000D03*
X68770000Y-53590000D03*
%TO.N,/fpga/HDMI.REFCLK_P*%
X56120000Y-51260000D03*
%TO.N,/fpga/DRAM.DQ1*%
X67821944Y-54665770D03*
X54980000Y-36360000D03*
%TO.N,/fpga/DRAM.DQS_N0*%
X58180000Y-35600000D03*
X68732805Y-54642838D03*
%TO.N,/fpga/DRAM.DQS_P0*%
X67821944Y-55590000D03*
X58180000Y-36360000D03*
D21*
%TO.N,/fpga/USB2LV.DATA0*%
X81720000Y-57130000D03*
D20*
%TO.N,/fpga/DRAM.DQ5*%
X54170000Y-34790000D03*
X65770000Y-57590000D03*
D21*
%TO.N,/fpga/CT.TM0*%
X92400000Y-33030000D03*
%TO.N,/fpga/CT.D2*%
X92370000Y-52400000D03*
X81170000Y-59300000D03*
%TO.N,/fpga/CT.I6_N*%
X92260000Y-47320000D03*
%TO.N,/fpga/CT.TM1*%
X92320000Y-33820000D03*
%TO.N,/fpga/HDMI.SCL*%
X48050000Y-93210000D03*
%TO.N,/fpga/HDMI.SDA*%
X46850000Y-93450000D03*
%TO.N,/fpga/HDMI.I2CRESET*%
X44440000Y-101480000D03*
%TO.N,/fpga/CT.D0*%
X92390000Y-49780000D03*
X74770000Y-59590000D03*
%TO.N,/fpga/CT.TM2*%
X92320000Y-37520000D03*
%TO.N,/fpga/CT.D4*%
X92290000Y-54930000D03*
%TO.N,/fpga/CT.D1*%
X93830000Y-49800000D03*
X78770000Y-59590000D03*
%TO.N,/fpga/LINK.TX_P*%
X51003526Y-100986024D03*
%TO.N,/fpga/CT.BR_N*%
X41890000Y-33340000D03*
D20*
X62770000Y-60590000D03*
D21*
%TO.N,/fpga/CT.A24*%
X39230000Y-57470000D03*
X61860000Y-73580000D03*
%TO.N,/fpga/CT.TEA_N*%
X61530000Y-72870000D03*
X43463879Y-43515502D03*
%TO.N,/fpga/CLK1*%
X72770000Y-60590000D03*
X79600000Y-60590000D03*
%TO.N,/fpga/CT.TT0*%
X92310000Y-39660000D03*
%TO.N,/fpga/CT.D6*%
X92360000Y-57150000D03*
%TO.N,/fpga/CT.D7*%
X93790000Y-57480000D03*
X80520000Y-61520000D03*
D20*
%TO.N,/fpga/CT.BG_N*%
X62770000Y-61590000D03*
D21*
X40820000Y-34590000D03*
%TO.N,/fpga/CT.A28*%
X39351800Y-52491745D03*
X60070000Y-72420000D03*
%TO.N,/fpga/CT.DTKCMB_N*%
X62470000Y-74280000D03*
X39230000Y-44740000D03*
%TO.N,/fpga/CT.A21*%
X63440000Y-73650000D03*
X40760000Y-62530000D03*
D20*
%TO.N,/fpga/CT.A1*%
X68250000Y-62120000D03*
D21*
X40740000Y-87860000D03*
%TO.N,/fpga/CT.D9*%
X93830000Y-59850000D03*
D20*
%TO.N,/fpga/CT.D5*%
X72670000Y-61670000D03*
D21*
X93810000Y-54880000D03*
D20*
%TO.N,/fpga/CT.D3*%
X74300000Y-61110000D03*
D21*
X93830000Y-52350000D03*
%TO.N,/fpga/CT.BS_N1*%
X93750000Y-42190000D03*
%TO.N,/fpga/CT.TT1*%
X93660000Y-39700000D03*
%TO.N,/fpga/CT.BS_N0*%
X92230000Y-42250000D03*
%TO.N,/fpga/LINK.RX_N*%
X49030000Y-107320000D03*
%TO.N,/fpga/LINK.RX_P*%
X48450000Y-107320000D03*
%TO.N,/fpga/Net-(U29-~{S}{slash}~{CS})*%
X61090000Y-71480000D03*
%TO.N,/fpga/CT.BB_N*%
X40850000Y-37160000D03*
D20*
X61770000Y-62590000D03*
D21*
%TO.N,/fpga/CT.TS_N*%
X39210000Y-34600000D03*
D20*
X62770000Y-62590000D03*
D21*
%TO.N,/fpga/CT.RW*%
X38990000Y-37750000D03*
D20*
X63770000Y-62590000D03*
D21*
%TO.N,/fpga/CT.SIZ1*%
X40810000Y-39670000D03*
D20*
X65756619Y-62576619D03*
D21*
%TO.N,/fpga/CT.A13*%
X60740000Y-77830000D03*
X40670000Y-72650000D03*
D20*
%TO.N,/fpga/CT.A3*%
X67770000Y-62590000D03*
D21*
X40560000Y-85360000D03*
%TO.N,/fpga/ETH.D3*%
X76180000Y-93030000D03*
D20*
X68770000Y-62590000D03*
D21*
%TO.N,/fpga/CT.D10*%
X92431800Y-62370000D03*
%TO.N,/fpga/ETH.D6*%
X76860000Y-89700000D03*
%TO.N,/fpga/CT.D15*%
X93690000Y-67550000D03*
D20*
X72770000Y-62590000D03*
D21*
X82380000Y-63240000D03*
%TO.N,/fpga/CT.D11*%
X83010000Y-63230000D03*
X94190000Y-61730000D03*
%TO.N,/fpga/CT.D8*%
X78770000Y-62590000D03*
X92151800Y-60010000D03*
%TO.N,/fpga/CT.A17*%
X57210000Y-76900000D03*
X40650000Y-67640000D03*
%TO.N,/fpga/CT.A15*%
X57190000Y-77810000D03*
X40650000Y-70180000D03*
%TO.N,/fpga/CT.A10*%
X61520000Y-77860000D03*
X39300000Y-75250000D03*
%TO.N,/fpga/CT.A31*%
X61020000Y-75910000D03*
X40840000Y-49830000D03*
D20*
%TO.N,/fpga/ETH.D2*%
X69180000Y-63580000D03*
D21*
X75720000Y-93530000D03*
%TO.N,/fpga/ETH.D0*%
X75728617Y-94492334D03*
%TO.N,/fpga/CT.D18*%
X92250000Y-72690000D03*
%TO.N,/fpga/CT.D12*%
X92280000Y-65120000D03*
%TO.N,/fpga/CT.D26*%
X92340000Y-82770000D03*
%TO.N,/fpga/CT.D14*%
X92310000Y-67270000D03*
%TO.N,/fpga/CT.BS_N2*%
X92277784Y-44742216D03*
%TO.N,/fpga/CT.BS_N3*%
X93670000Y-44760000D03*
X83490000Y-63660000D03*
%TO.N,/fpga/CT.D13*%
X93710000Y-65080000D03*
%TO.N,/fpga/CT.A26*%
X39240000Y-54900000D03*
D20*
%TO.N,/fpga/CT.TA_N*%
X63770000Y-64590000D03*
D21*
X39210000Y-43320000D03*
D20*
%TO.N,/fpga/CT.A29*%
X64770000Y-64590000D03*
D21*
X40740000Y-52370000D03*
%TO.N,/fpga/CT.A11*%
X40630000Y-75270000D03*
D20*
X66770000Y-64590000D03*
D21*
%TO.N,/fpga/CT.A0*%
X39380000Y-87950000D03*
%TO.N,/fpga/ETH.D1*%
X76200000Y-94030000D03*
%TO.N,/fpga/CT.D21*%
X93620000Y-75210000D03*
%TO.N,/fpga/ETH.D8*%
X78010000Y-89700000D03*
%TO.N,/fpga/ETH.D9*%
X78520000Y-89240000D03*
%TO.N,/fpga/CT.D20*%
X92230000Y-75230000D03*
%TO.N,/fpga/CT.D19*%
X81800000Y-65050000D03*
X93620000Y-72710000D03*
%TO.N,/fpga/CT.D17*%
X93760000Y-70160000D03*
X81180000Y-65070000D03*
%TO.N,/fpga/CT.A22*%
X39270000Y-60020000D03*
D20*
%TO.N,/fpga/CT.A12*%
X65770000Y-65590000D03*
D21*
X39300000Y-72600000D03*
%TO.N,/fpga/CT.A6*%
X39320000Y-80280000D03*
%TO.N,/fpga/ETH.D4*%
X75690000Y-92530000D03*
%TO.N,/fpga/ETH.D10*%
X79000000Y-89700000D03*
%TO.N,/fpga/CT.D31*%
X93470000Y-87920000D03*
%TO.N,/fpga/CT.D29*%
X93630000Y-85410000D03*
%TO.N,/fpga/CT.D16*%
X80450000Y-65090000D03*
X92660000Y-70430000D03*
%TO.N,/fpga/CT.A20*%
X39220000Y-62540000D03*
%TO.N,/fpga/CT.A16*%
X39260000Y-67590000D03*
%TO.N,/fpga/CT.CLK*%
X48543350Y-48967968D03*
%TO.N,/fpga/ETH.D12*%
X80520000Y-89760000D03*
%TO.N,/fpga/CT.D23*%
X93530000Y-77810000D03*
X83110000Y-67060000D03*
%TO.N,/fpga/CT.D22*%
X82560000Y-67540000D03*
X92325600Y-77810000D03*
%TO.N,/fpga/CT.A8*%
X39500000Y-77810000D03*
%TO.N,/fpga/CT.A2*%
X39320000Y-85360000D03*
%TO.N,/fpga/CT.A4*%
X67200000Y-75480000D03*
X39310000Y-82860000D03*
%TO.N,/fpga/ETH.D5*%
X76220000Y-92040000D03*
%TO.N,/fpga/ETH.D7*%
X77510000Y-89230000D03*
%TO.N,/fpga/ETH.D11*%
X80020000Y-89270000D03*
%TO.N,/fpga/CT.D30*%
X92250000Y-87970000D03*
%TO.N,/fpga/CT.D25*%
X93570000Y-80270000D03*
X82020000Y-68070000D03*
%TO.N,/fpga/CT.D24*%
X81480000Y-68670000D03*
X92280000Y-80320000D03*
D20*
%TO.N,Net-(USBC2-TX2+)*%
X53060000Y-107340000D03*
X52600000Y-104210000D03*
D21*
%TO.N,/Ethernet/LED2*%
X84107694Y-95911975D03*
X92920000Y-108730000D03*
%TO.N,/Ethernet/LED1*%
X93420000Y-109320000D03*
X84109933Y-96488973D03*
D22*
%TO.N,+3V3A_ETH*%
X80527700Y-97749273D03*
X81525358Y-98623021D03*
X93560000Y-98930000D03*
X79020000Y-97670000D03*
D21*
%TO.N,/video/Net-(U26-SD1)*%
X42211603Y-97370084D03*
%TO.N,/video/Net-(U26-SC1)*%
X42064291Y-98010000D03*
%TO.N,/PCIe/REFCLKAC_N*%
X68890000Y-95750000D03*
X63700000Y-90400000D03*
%TO.N,/PCIe/REFCLKAC_P*%
X68315861Y-95692586D03*
X63080000Y-90400000D03*
%TO.N,/video/AC.TX_N1*%
X37680000Y-95550000D03*
X52640000Y-56130000D03*
%TO.N,/video/AC.TX_P1*%
X52630000Y-56930000D03*
X38110000Y-95920000D03*
%TO.N,/video/AC.TX_N2*%
X38870000Y-96120000D03*
X52655786Y-57658019D03*
%TO.N,/video/AC.TX_P2*%
X52720000Y-58520000D03*
X39366177Y-96463413D03*
%TO.N,/Ethernet/TPO_N*%
X90500000Y-101260000D03*
X79028038Y-99604933D03*
X89570000Y-103060000D03*
%TO.N,/Ethernet/TPO_P*%
X89070000Y-100670000D03*
X90140000Y-101990000D03*
X79224000Y-99080000D03*
%TO.N,/Ethernet/TPI_N*%
X86080000Y-96630000D03*
X88870000Y-97700000D03*
X80280000Y-99410000D03*
%TO.N,/Ethernet/TPI_P*%
X89300000Y-95540000D03*
X85950000Y-95610000D03*
X80550000Y-98900000D03*
%TO.N,/Ethernet/Net-(U3-EXRES)*%
X81459990Y-99830429D03*
%TO.N,Net-(L3-RCT)*%
X77030000Y-102710000D03*
X88940000Y-102650000D03*
X88920000Y-96380000D03*
%TO.N,Net-(L3-RXCT)*%
X94550000Y-102750000D03*
%TO.N,Net-(L3-TXCT)*%
X94360000Y-96270000D03*
%TO.N,/fpga/Net-(U29-~{W}{slash}V_{PP})*%
X53240000Y-66910000D03*
%TO.N,Net-(J1-Pin_6)*%
X93730000Y-40940000D03*
X93685998Y-47740000D03*
D22*
%TO.N,+1V8_ETH*%
X77400998Y-95105151D03*
X82490000Y-97657002D03*
X84137002Y-97090367D03*
%TO.N,/video/HDMIOV*%
X42370000Y-106840000D03*
X33060000Y-105800000D03*
D20*
%TO.N,Net-(U9-OUT2)*%
X55250000Y-49710000D03*
%TO.N,Net-(U9-OUT)*%
X55180000Y-51250000D03*
D21*
%TO.N,Net-(D3-IO1)*%
X76760000Y-106210000D03*
%TO.N,Net-(D3-IO4)*%
X79740000Y-103810000D03*
X75399039Y-103184997D03*
%TD*%
%TO.N,/fpga/DRAM.ODT*%
D25*
X52880000Y-33600000D02*
X52880000Y-33560000D01*
D26*
X73550000Y-33590000D02*
X73580000Y-33560000D01*
X75920000Y-33560000D02*
X78490000Y-33560000D01*
X55230000Y-33570000D02*
X57800000Y-33570000D01*
D25*
X78490000Y-33580000D02*
X78490000Y-33560000D01*
D26*
X62262060Y-33590000D02*
X62287404Y-33615344D01*
X70300000Y-33590000D02*
X70300000Y-34370000D01*
D25*
X73580000Y-33600000D02*
X75920000Y-33600000D01*
D26*
X52070000Y-34360000D02*
X52070000Y-38455600D01*
X81530000Y-36927600D02*
X81889600Y-37287200D01*
X70300000Y-34370000D02*
X70860000Y-34930000D01*
D25*
X52880000Y-33600000D02*
X55220000Y-33600000D01*
D26*
X63127943Y-33590000D02*
X70300000Y-33590000D01*
D25*
X75920000Y-33600000D02*
X75920000Y-33560000D01*
D26*
X50631600Y-39894000D02*
X49340000Y-39894000D01*
X84378800Y-40284400D02*
X84785200Y-40284400D01*
X52070000Y-38455600D02*
X50631600Y-39894000D01*
D25*
X57785000Y-33590000D02*
X57800000Y-33570000D01*
D26*
X70860000Y-34930000D02*
X70897725Y-34930000D01*
D25*
X58570000Y-33590000D02*
X60075000Y-33590000D01*
X78490000Y-33580000D02*
X80050000Y-33580000D01*
D26*
X59780000Y-33200000D02*
X60140000Y-33560000D01*
D25*
X55220000Y-33600000D02*
X55230000Y-33570000D01*
X73580000Y-33560000D02*
X73580000Y-33600000D01*
D26*
X52870000Y-33560000D02*
X52070000Y-34360000D01*
X70300000Y-33590000D02*
X73550000Y-33590000D01*
X81160000Y-33560000D02*
X81530000Y-33930000D01*
X81889600Y-37795200D02*
X84378800Y-40284400D01*
D25*
X80780000Y-33580000D02*
X80780000Y-33560000D01*
D26*
X80780000Y-33560000D02*
X81160000Y-33560000D01*
X63102598Y-33615344D02*
X63127943Y-33590000D01*
X60140000Y-33560000D02*
X60170000Y-33590000D01*
X60080000Y-33560000D02*
X60140000Y-33560000D01*
X81889600Y-37287200D02*
X81889600Y-37795200D01*
X81530000Y-33930000D02*
X81530000Y-36927600D01*
D25*
X60075000Y-33590000D02*
X60080000Y-33560000D01*
D26*
X62287404Y-33615344D02*
X63102598Y-33615344D01*
X60170000Y-33590000D02*
X62262060Y-33590000D01*
X80430000Y-33200000D02*
X80050000Y-33580000D01*
D25*
X80050000Y-33580000D02*
X80780000Y-33580000D01*
D26*
X52880000Y-33560000D02*
X52870000Y-33560000D01*
D25*
X57785000Y-33590000D02*
X58570000Y-33590000D01*
%TO.N,/fpga/DRAM.A10*%
X78500000Y-31990000D02*
X78500000Y-31970000D01*
D26*
X80790000Y-31970000D02*
X81550800Y-31970000D01*
X50952400Y-33045400D02*
X50952400Y-36281600D01*
X55410000Y-31970000D02*
X57800000Y-31970000D01*
D25*
X73590000Y-31990000D02*
X75220000Y-31990000D01*
D26*
X65380000Y-32360000D02*
X65480000Y-32260000D01*
D25*
X78500000Y-31990000D02*
X80790000Y-31990000D01*
D26*
X68447223Y-32223415D02*
X68690638Y-31980000D01*
D25*
X80790000Y-31990000D02*
X80790000Y-31970000D01*
D26*
X68690638Y-31980000D02*
X73580000Y-31980000D01*
X82042000Y-35204400D02*
X84429600Y-37592000D01*
X67619363Y-31980000D02*
X67862778Y-32223415D01*
X67862778Y-32223415D02*
X68447223Y-32223415D01*
D25*
X73590000Y-31990000D02*
X73590000Y-31970000D01*
D26*
X81550800Y-31970000D02*
X82042000Y-32461200D01*
D25*
X52890000Y-31970000D02*
X55230000Y-31970000D01*
D26*
X75930000Y-31970000D02*
X78500000Y-31970000D01*
X62528153Y-33034124D02*
X62861849Y-33034124D01*
X82042000Y-32461200D02*
X82042000Y-35204400D01*
X61570000Y-31980000D02*
X61670000Y-31880000D01*
X50952400Y-36281600D02*
X49340000Y-37894000D01*
X60100000Y-31980000D02*
X61570000Y-31980000D01*
D25*
X57800000Y-32000000D02*
X60090000Y-32000000D01*
D26*
X62180000Y-31880000D02*
X62280000Y-31980000D01*
X73580000Y-31980000D02*
X73590000Y-31970000D01*
X60090000Y-31970000D02*
X60100000Y-31980000D01*
X63535973Y-32360000D02*
X65380000Y-32360000D01*
D25*
X60090000Y-32000000D02*
X60090000Y-31970000D01*
D26*
X52890000Y-31970000D02*
X52027800Y-31970000D01*
X62250610Y-32639625D02*
X62250610Y-32756581D01*
X61980570Y-32369585D02*
X62250610Y-32639625D01*
X62280000Y-31980000D02*
X67619363Y-31980000D01*
X62861849Y-33034124D02*
X63535973Y-32360000D01*
X61919248Y-32369585D02*
X61980570Y-32369585D01*
D25*
X57800000Y-32000000D02*
X57800000Y-31970000D01*
D26*
X62250610Y-32756581D02*
X62528153Y-33034124D01*
X55230000Y-31970000D02*
X55410000Y-31970000D01*
X75630000Y-32400000D02*
X75220000Y-31990000D01*
D25*
X75220000Y-31990000D02*
X75930000Y-31990000D01*
D26*
X65480000Y-32260000D02*
X65480000Y-31980000D01*
X61670000Y-31880000D02*
X62180000Y-31880000D01*
X52027800Y-31970000D02*
X50952400Y-33045400D01*
X54980000Y-32400000D02*
X55410000Y-31970000D01*
D25*
X75930000Y-31990000D02*
X75930000Y-31970000D01*
%TO.N,+1V35*%
D27*
X86830000Y-62940000D02*
X86780000Y-62990000D01*
X94780000Y-44950000D02*
X94780000Y-62720000D01*
X84630000Y-44890000D02*
X89270000Y-44890000D01*
X84310000Y-44570000D02*
X84630000Y-44890000D01*
X94560000Y-62940000D02*
X86830000Y-62940000D01*
X86780000Y-62990000D02*
X85830000Y-62990000D01*
X93950000Y-44120000D02*
X94780000Y-44950000D01*
X94780000Y-62720000D02*
X94560000Y-62940000D01*
X90040000Y-44120000D02*
X93950000Y-44120000D01*
X89270000Y-44890000D02*
X90040000Y-44120000D01*
%TO.N,GND*%
X80980000Y-34670000D02*
X80980000Y-35050000D01*
X80650000Y-34340000D02*
X80980000Y-34670000D01*
X79630000Y-34000000D02*
X79970000Y-34340000D01*
X80980000Y-35050000D02*
X80430000Y-35600000D01*
X79970000Y-34340000D02*
X80650000Y-34340000D01*
%TO.N,+3V3*%
X64170000Y-57000000D02*
X63520000Y-57650000D01*
X62720000Y-56640000D02*
X62841745Y-56518255D01*
X63520000Y-57650000D02*
X63520000Y-57680000D01*
X63520000Y-57680000D02*
X63090000Y-57680000D01*
X63090000Y-57680000D02*
X62720000Y-57310000D01*
X62720000Y-57310000D02*
X62720000Y-56640000D01*
%TO.N,/usb2/USBVBUSE*%
X76330000Y-106700000D02*
X76230000Y-106600000D01*
X80050000Y-106600000D02*
X79950000Y-106700000D01*
X79950000Y-106700000D02*
X76330000Y-106700000D01*
%TO.N,/usb2/USBD_P*%
D28*
X77840000Y-104260000D02*
X78560000Y-104260000D01*
X78560000Y-104260000D02*
X79060000Y-103760000D01*
%TO.N,/usb2/USBD_N*%
X77310000Y-103740000D02*
X78280000Y-103740000D01*
X78280000Y-103740000D02*
X78320000Y-103700000D01*
%TO.N,+2V5*%
D27*
X67597786Y-52560808D02*
X67310000Y-52273022D01*
X67310000Y-52273022D02*
X67310000Y-51240000D01*
X66790000Y-50720000D02*
X66710000Y-50720000D01*
X67810000Y-52610000D02*
X67760808Y-52560808D01*
X67310000Y-51240000D02*
X66790000Y-50720000D01*
X67760808Y-52560808D02*
X67597786Y-52560808D01*
%TO.N,/fpga/DRAM.DQ16*%
D26*
X78300000Y-50340000D02*
X78560000Y-50080000D01*
X80970000Y-42730000D02*
X79250000Y-41010000D01*
X78560000Y-50080000D02*
X78970000Y-50080000D01*
X79230000Y-37600000D02*
X79230000Y-37640000D01*
X76860000Y-57030000D02*
X77240000Y-56650000D01*
X77240000Y-56650000D02*
X77240000Y-56440000D01*
X74240000Y-55480000D02*
X74240000Y-56690000D01*
D25*
X79220000Y-40980000D02*
X79220000Y-40770000D01*
D26*
X74240000Y-56690000D02*
X74580000Y-57030000D01*
D25*
X79220000Y-40770000D02*
X79230000Y-40760000D01*
D26*
X79590000Y-49490000D02*
X80970000Y-48110000D01*
X73770000Y-55010000D02*
X74240000Y-55480000D01*
X77240000Y-56440000D02*
X78300000Y-55380000D01*
X79560000Y-49490000D02*
X79590000Y-49490000D01*
X73770000Y-54590000D02*
X73770000Y-55010000D01*
X80970000Y-48110000D02*
X80970000Y-42730000D01*
X74580000Y-57030000D02*
X76860000Y-57030000D01*
D25*
X79230000Y-40760000D02*
X79230000Y-37640000D01*
D26*
X78830000Y-37200000D02*
X79230000Y-37600000D01*
X78300000Y-55380000D02*
X78300000Y-50340000D01*
X78970000Y-50080000D02*
X79560000Y-49490000D01*
D25*
X79250000Y-41010000D02*
X79220000Y-40980000D01*
%TO.N,/fpga/DRAM.DM2*%
D26*
X75940272Y-43730000D02*
X76140000Y-43730000D01*
X74220000Y-51400000D02*
X74030000Y-51590000D01*
X76140000Y-41330000D02*
X76339741Y-41330000D01*
X77350000Y-35140000D02*
X76680000Y-35810000D01*
X76140000Y-41930000D02*
X75940259Y-41930000D01*
X76140000Y-47200000D02*
X75315000Y-48025000D01*
X74250000Y-49450000D02*
X74250000Y-51110000D01*
X75940259Y-42530000D02*
X76140000Y-42530000D01*
X77040000Y-34530000D02*
X77350000Y-34840000D01*
X76490000Y-34530000D02*
X77040000Y-34530000D01*
X75990269Y-41330000D02*
X76140000Y-41330000D01*
X75315000Y-48745000D02*
X75010000Y-49050000D01*
X76140000Y-39711750D02*
X76140000Y-39920000D01*
X76150000Y-36680000D02*
X76150000Y-34870000D01*
X76140000Y-45320000D02*
X76140000Y-47120000D01*
X75740518Y-42129741D02*
X75740518Y-42330259D01*
X76539482Y-43929741D02*
X76539482Y-44130259D01*
X75840538Y-40879731D02*
X75840538Y-41180269D01*
X77350000Y-34840000D02*
X77350000Y-35140000D01*
X75743796Y-44528102D02*
X75743796Y-44731898D01*
X76680000Y-35810000D02*
X76680000Y-37220000D01*
X75740545Y-43329727D02*
X75740545Y-43530273D01*
X76140000Y-43130000D02*
X75940272Y-43130000D01*
X76150000Y-34870000D02*
X76490000Y-34530000D01*
X76680000Y-37220000D02*
X76140000Y-37760000D01*
X76140000Y-43730000D02*
X76339741Y-43730000D01*
X74250000Y-51110000D02*
X74220000Y-51140000D01*
X76339741Y-44330000D02*
X76140000Y-44330000D01*
X76339734Y-43130000D02*
X76140000Y-43130000D01*
X76140000Y-42530000D02*
X76339734Y-42530000D01*
X76531750Y-39111750D02*
X76531750Y-39320000D01*
X76140000Y-37760000D02*
X76140000Y-38720000D01*
X76339741Y-41930000D02*
X76140000Y-41930000D01*
X75315000Y-48025000D02*
X75315000Y-48745000D01*
X76140000Y-45128102D02*
X76140000Y-45320000D01*
X76536230Y-40316230D02*
X76536230Y-40531885D01*
X74220000Y-51140000D02*
X74220000Y-51400000D01*
X74650000Y-49050000D02*
X74250000Y-49450000D01*
X76539482Y-41529741D02*
X76539482Y-41730259D01*
X76140000Y-47120000D02*
X76140000Y-47200000D01*
X76140000Y-44330000D02*
X75941898Y-44330000D01*
X76338115Y-40730000D02*
X76140000Y-40730000D01*
X75010000Y-49050000D02*
X74650000Y-49050000D01*
X75630000Y-37200000D02*
X76150000Y-36680000D01*
X74030000Y-51590000D02*
X73770000Y-51590000D01*
X76539468Y-42729734D02*
X76539468Y-42930266D01*
X76140000Y-40730000D02*
X75990269Y-40730000D01*
X76539468Y-42930266D02*
G75*
G02*
X76339734Y-43130068I-199768J-34D01*
G01*
X76335875Y-38915875D02*
G75*
G02*
X76531725Y-39111750I25J-195825D01*
G01*
X75840538Y-41180269D02*
G75*
G03*
X75990269Y-41330062I149762J-31D01*
G01*
X75740518Y-42330259D02*
G75*
G03*
X75940259Y-42530082I199782J-41D01*
G01*
X76140000Y-38720000D02*
G75*
G03*
X76335875Y-38915900I195900J0D01*
G01*
X76539482Y-44130259D02*
G75*
G02*
X76339741Y-44330082I-199782J-41D01*
G01*
X75990269Y-40730000D02*
G75*
G03*
X75840600Y-40879731I31J-149700D01*
G01*
X76536230Y-40531885D02*
G75*
G02*
X76338115Y-40730030I-198130J-15D01*
G01*
X76531750Y-39320000D02*
G75*
G02*
X76335875Y-39515850I-195850J0D01*
G01*
X76140000Y-39920000D02*
G75*
G03*
X76338115Y-40118100I198100J0D01*
G01*
X75740545Y-43530273D02*
G75*
G03*
X75940272Y-43730055I199755J-27D01*
G01*
X75940272Y-43130000D02*
G75*
G03*
X75740600Y-43329727I28J-199700D01*
G01*
X75941898Y-44330000D02*
G75*
G03*
X75743800Y-44528102I2J-198100D01*
G01*
X75941898Y-44930000D02*
G75*
G02*
X76140000Y-45128102I2J-198100D01*
G01*
X76539482Y-41730259D02*
G75*
G02*
X76339741Y-41930082I-199782J-41D01*
G01*
X76338115Y-40118115D02*
G75*
G02*
X76536185Y-40316230I-15J-198085D01*
G01*
X76335875Y-39515875D02*
G75*
G03*
X76140075Y-39711750I25J-195825D01*
G01*
X76339741Y-43730000D02*
G75*
G02*
X76539400Y-43929741I-41J-199700D01*
G01*
X76339741Y-41330000D02*
G75*
G02*
X76539400Y-41529741I-41J-199700D01*
G01*
X75940259Y-41930000D02*
G75*
G03*
X75740600Y-42129741I41J-199700D01*
G01*
X75743796Y-44731898D02*
G75*
G03*
X75941898Y-44930004I198104J-2D01*
G01*
X76339734Y-42530000D02*
G75*
G02*
X76539400Y-42729734I-34J-199700D01*
G01*
%TO.N,/fpga/DRAM.DQ18*%
X78310000Y-37000000D02*
X78310000Y-41050000D01*
D25*
X78510000Y-36800000D02*
X78490000Y-36820000D01*
D26*
X78490000Y-36820000D02*
X78310000Y-37000000D01*
X80488148Y-44406704D02*
X80488148Y-44526704D01*
X78470000Y-41210000D02*
X78800000Y-41210000D01*
X75290000Y-56070000D02*
X74770000Y-56590000D01*
X78310000Y-48790000D02*
X77770000Y-49330000D01*
X80248148Y-44766704D02*
X80200000Y-44766704D01*
X78800000Y-41210000D02*
X79960000Y-42370000D01*
X76990000Y-56070000D02*
X75290000Y-56070000D01*
D25*
X79190000Y-36800000D02*
X78510000Y-36800000D01*
D26*
X79960000Y-47290000D02*
X79960000Y-47540000D01*
X79960000Y-45006704D02*
X79960000Y-45126704D01*
X80200000Y-44166704D02*
X80248148Y-44166704D01*
X79960000Y-46326704D02*
X79960000Y-47290000D01*
X78310000Y-48120000D02*
X78310000Y-48790000D01*
X80488156Y-45606704D02*
X80488156Y-45726704D01*
X80248156Y-45966704D02*
X80200000Y-45966704D01*
X79600000Y-47900000D02*
X78530000Y-47900000D01*
X77770000Y-49330000D02*
X77770000Y-50560000D01*
X77280893Y-55779107D02*
X76990000Y-56070000D01*
X80248144Y-43566704D02*
X80200000Y-43566704D01*
X79960000Y-46206704D02*
X79960000Y-46326704D01*
X80200000Y-42966704D02*
X80248144Y-42966704D01*
X80488144Y-43206704D02*
X80488144Y-43326704D01*
X79960000Y-47540000D02*
X79600000Y-47900000D01*
X77280893Y-51049107D02*
X77280893Y-55779107D01*
X80200000Y-45366704D02*
X80248156Y-45366704D01*
X77770000Y-50560000D02*
X77280893Y-51049107D01*
X79960000Y-43806704D02*
X79960000Y-43926704D01*
X79230000Y-36800000D02*
X79190000Y-36800000D01*
X78530000Y-47900000D02*
X78310000Y-48120000D01*
X78310000Y-41050000D02*
X78470000Y-41210000D01*
X79960000Y-42370000D02*
X79960000Y-42726704D01*
X79630000Y-36400000D02*
X79230000Y-36800000D01*
X80200000Y-45966704D02*
G75*
G03*
X79960004Y-46206704I0J-239996D01*
G01*
X80248148Y-44166704D02*
G75*
G02*
X80488096Y-44406704I-48J-239996D01*
G01*
X79960000Y-43926704D02*
G75*
G03*
X80200000Y-44166700I240000J4D01*
G01*
X80488148Y-44526704D02*
G75*
G02*
X80248148Y-44766748I-240048J4D01*
G01*
X80248144Y-42966704D02*
G75*
G02*
X80488096Y-43206704I-44J-239996D01*
G01*
X80200000Y-43566704D02*
G75*
G03*
X79960004Y-43806704I0J-239996D01*
G01*
X79960000Y-45126704D02*
G75*
G03*
X80200000Y-45366700I240000J4D01*
G01*
X80200000Y-44766704D02*
G75*
G03*
X79960004Y-45006704I0J-239996D01*
G01*
X79960000Y-42726704D02*
G75*
G03*
X80200000Y-42966700I240000J4D01*
G01*
X80248156Y-45366704D02*
G75*
G02*
X80488196Y-45606704I44J-239996D01*
G01*
X80488156Y-45726704D02*
G75*
G02*
X80248156Y-45966656I-239956J4D01*
G01*
X80488144Y-43326704D02*
G75*
G02*
X80248144Y-43566744I-240044J4D01*
G01*
%TO.N,/fpga/DRAM.DQS_P2*%
D29*
X78887521Y-45776144D02*
X78190000Y-45776144D01*
X78518424Y-46937910D02*
X78166144Y-46937910D01*
X78126144Y-36400000D02*
X77926144Y-36600000D01*
X78190000Y-42503856D02*
X78887521Y-42503856D01*
X77926144Y-48636394D02*
X77926144Y-47777910D01*
X77926144Y-46577910D02*
X77926144Y-46325226D01*
X77926144Y-36600000D02*
X77926144Y-42240000D01*
X75220000Y-55120000D02*
X76120000Y-55120000D01*
X77926144Y-46697910D02*
X77926144Y-46577910D01*
X79423665Y-45040000D02*
X79423665Y-45240000D01*
X74770000Y-54670000D02*
X75220000Y-55120000D01*
X78166144Y-47537910D02*
X78518424Y-47537910D01*
X78830000Y-36400000D02*
X78126144Y-36400000D01*
X77926144Y-46240000D02*
X77926144Y-46325226D01*
X77926144Y-44040000D02*
X77926144Y-44240000D01*
X79423665Y-43040000D02*
X79423665Y-43240000D01*
X76120000Y-55120000D02*
X76406144Y-54833856D01*
X76406144Y-50156394D02*
X77926144Y-48636394D01*
X78190000Y-44503856D02*
X78887521Y-44503856D01*
X78887521Y-43776144D02*
X78190000Y-43776144D01*
X77926144Y-46040000D02*
X77926144Y-46240000D01*
X78758424Y-47297910D02*
X78758424Y-47177910D01*
X74770000Y-54590000D02*
X74770000Y-54670000D01*
X76406144Y-54833856D02*
X76406144Y-50156394D01*
X78518424Y-47537910D02*
G75*
G03*
X78758410Y-47297910I-24J240010D01*
G01*
X78887521Y-42503856D02*
G75*
G02*
X79423644Y-43040000I-21J-536144D01*
G01*
X77926144Y-47777910D02*
G75*
G02*
X78166144Y-47537944I239956J10D01*
G01*
X79423665Y-45240000D02*
G75*
G02*
X78887521Y-45776165I-536165J0D01*
G01*
X77926144Y-44240000D02*
G75*
G03*
X78190000Y-44503856I263856J0D01*
G01*
X78887521Y-44503856D02*
G75*
G02*
X79423644Y-45040000I-21J-536144D01*
G01*
X77926144Y-42240000D02*
G75*
G03*
X78190000Y-42503856I263856J0D01*
G01*
X78190000Y-45776144D02*
G75*
G03*
X77926144Y-46040000I0J-263856D01*
G01*
X78190000Y-43776144D02*
G75*
G03*
X77926144Y-44040000I0J-263856D01*
G01*
X78758424Y-47177910D02*
G75*
G03*
X78518424Y-46937876I-240024J10D01*
G01*
X79423665Y-43240000D02*
G75*
G02*
X78887521Y-43776165I-536165J0D01*
G01*
X78166144Y-46937910D02*
G75*
G02*
X77926090Y-46697910I-44J240010D01*
G01*
%TO.N,/fpga/DRAM.DQ17*%
D26*
X73270000Y-45382191D02*
X73270000Y-45727578D01*
X72540983Y-39022191D02*
X73030000Y-39022191D01*
X72300983Y-44662191D02*
X72300983Y-44782191D01*
X73030000Y-38422191D02*
X72540983Y-38422191D01*
X73030000Y-43222191D02*
X72540958Y-43222191D01*
X73770000Y-35980000D02*
X73270000Y-36480000D01*
X72540983Y-45022191D02*
X73030000Y-45022191D01*
X73270000Y-45727578D02*
X73270000Y-49920000D01*
X73270000Y-41662191D02*
X73270000Y-41782191D01*
X73270000Y-44062191D02*
X73270000Y-44182191D01*
X72540958Y-43822191D02*
X73030000Y-43822191D01*
X72540958Y-41422191D02*
X73030000Y-41422191D01*
X73270000Y-40462191D02*
X73270000Y-40582191D01*
X72300958Y-41062191D02*
X72300958Y-41182191D01*
X73270000Y-45262191D02*
X73270000Y-45382191D01*
X72300983Y-39862191D02*
X72300983Y-39982191D01*
X73030000Y-37222191D02*
X72540983Y-37222191D01*
X73030000Y-42022191D02*
X72540983Y-42022191D01*
X73270000Y-49920000D02*
X72770000Y-50420000D01*
X72300983Y-38662191D02*
X72300983Y-38782191D01*
X72300958Y-43462191D02*
X72300958Y-43582191D01*
X72540983Y-40222191D02*
X73030000Y-40222191D01*
X73030000Y-40822191D02*
X72540958Y-40822191D01*
X73270000Y-39262191D02*
X73270000Y-39382191D01*
X73270000Y-36480000D02*
X73270000Y-36982191D01*
X72770000Y-50420000D02*
X72770000Y-50590000D01*
X73270000Y-42862191D02*
X73270000Y-42982191D01*
X73030000Y-39622191D02*
X72540983Y-39622191D01*
X73270000Y-38062191D02*
X73270000Y-38182191D01*
D25*
X73770000Y-35980000D02*
X75190000Y-35980000D01*
D26*
X72540983Y-37822191D02*
X73030000Y-37822191D01*
X73030000Y-44422191D02*
X72540983Y-44422191D01*
X72300983Y-42262191D02*
X72300983Y-42382191D01*
X75210000Y-35980000D02*
X75190000Y-35980000D01*
X72300983Y-37462191D02*
X72300983Y-37582191D01*
X72540983Y-42622191D02*
X73030000Y-42622191D01*
X75630000Y-36400000D02*
X75210000Y-35980000D01*
X72300958Y-43582191D02*
G75*
G03*
X72540958Y-43822242I240042J-9D01*
G01*
X72540983Y-44422191D02*
G75*
G03*
X72300991Y-44662191I17J-240009D01*
G01*
X73030000Y-41422191D02*
G75*
G02*
X73270009Y-41662191I0J-240009D01*
G01*
X73030000Y-43822191D02*
G75*
G02*
X73270009Y-44062191I0J-240009D01*
G01*
X72300983Y-37582191D02*
G75*
G03*
X72540983Y-37822217I240017J-9D01*
G01*
X72300983Y-39982191D02*
G75*
G03*
X72540983Y-40222217I240017J-9D01*
G01*
X73270000Y-36982191D02*
G75*
G02*
X73030000Y-37222200I-240000J-9D01*
G01*
X73030000Y-39022191D02*
G75*
G02*
X73270009Y-39262191I0J-240009D01*
G01*
X72300983Y-38782191D02*
G75*
G03*
X72540983Y-39022217I240017J-9D01*
G01*
X73270000Y-42982191D02*
G75*
G02*
X73030000Y-43222200I-240000J-9D01*
G01*
X73030000Y-45022191D02*
G75*
G02*
X73270009Y-45262191I0J-240009D01*
G01*
X73270000Y-38182191D02*
G75*
G02*
X73030000Y-38422200I-240000J-9D01*
G01*
X72540958Y-40822191D02*
G75*
G03*
X72300991Y-41062191I42J-240009D01*
G01*
X73030000Y-40222191D02*
G75*
G02*
X73270009Y-40462191I0J-240009D01*
G01*
X72300983Y-44782191D02*
G75*
G03*
X72540983Y-45022217I240017J-9D01*
G01*
X73270000Y-44182191D02*
G75*
G02*
X73030000Y-44422200I-240000J-9D01*
G01*
X72540958Y-43222191D02*
G75*
G03*
X72300991Y-43462191I42J-240009D01*
G01*
X72300958Y-41182191D02*
G75*
G03*
X72540958Y-41422242I240042J-9D01*
G01*
X72540983Y-37222191D02*
G75*
G03*
X72300991Y-37462191I17J-240009D01*
G01*
X72540983Y-39622191D02*
G75*
G03*
X72300991Y-39862191I17J-240009D01*
G01*
X72300983Y-42382191D02*
G75*
G03*
X72540983Y-42622217I240017J-9D01*
G01*
X73030000Y-42622191D02*
G75*
G02*
X73270009Y-42862191I0J-240009D01*
G01*
X73270000Y-40582191D02*
G75*
G02*
X73030000Y-40822200I-240000J-9D01*
G01*
X72540983Y-42022191D02*
G75*
G03*
X72300991Y-42262191I17J-240009D01*
G01*
X73030000Y-37822191D02*
G75*
G02*
X73270009Y-38062191I0J-240009D01*
G01*
X73270000Y-41782191D02*
G75*
G02*
X73030000Y-42022200I-240000J-9D01*
G01*
X73270000Y-39382191D02*
G75*
G02*
X73030000Y-39622200I-240000J-9D01*
G01*
X72540983Y-38422191D02*
G75*
G03*
X72300991Y-38662191I17J-240009D01*
G01*
%TO.N,/fpga/DRAM.DQ19*%
D25*
X75230000Y-40730000D02*
X75230000Y-36800000D01*
D26*
X74530000Y-41860000D02*
X74632460Y-41860000D01*
X74290000Y-47500000D02*
X74290000Y-47620000D01*
X74632453Y-46060000D02*
X74290000Y-46060000D01*
X74632460Y-47260000D02*
X74530000Y-47260000D01*
X74290000Y-46660000D02*
X74530000Y-46660000D01*
X74290000Y-44860000D02*
X73947547Y-44860000D01*
X74290000Y-44260000D02*
X74632460Y-44260000D01*
X74872460Y-42100000D02*
X74872460Y-42220000D01*
X74632460Y-42460000D02*
X74530000Y-42460000D01*
X74290000Y-47970000D02*
X74290000Y-48780000D01*
X74872453Y-45700000D02*
X74872453Y-45820000D01*
X74872460Y-44500000D02*
X74872460Y-44620000D01*
X73947552Y-46660000D02*
X74290000Y-46660000D01*
D25*
X75240000Y-40880000D02*
X75240000Y-40740000D01*
D26*
X72290000Y-52430000D02*
X72290000Y-53070000D01*
X75080000Y-41040000D02*
X74590000Y-41040000D01*
X73707547Y-45100000D02*
X73707547Y-45220000D01*
D30*
X74830000Y-36400000D02*
X75060000Y-36630000D01*
D26*
X73707552Y-46300000D02*
X73707552Y-46420000D01*
X74290000Y-42460000D02*
X73947540Y-42460000D01*
X74872460Y-43300000D02*
X74872460Y-43420000D01*
X74530000Y-46660000D02*
X74632460Y-46660000D01*
X74290000Y-46060000D02*
X73947552Y-46060000D01*
X75240000Y-40880000D02*
X75080000Y-41040000D01*
X73850000Y-49890000D02*
X73280000Y-50460000D01*
X71789580Y-53570420D02*
X71789580Y-53590000D01*
X74632460Y-43660000D02*
X74290000Y-43660000D01*
X74590000Y-41040000D02*
X74290000Y-41340000D01*
X73947540Y-44260000D02*
X74290000Y-44260000D01*
X73707540Y-42700000D02*
X73707540Y-42820000D01*
X73947540Y-43060000D02*
X74290000Y-43060000D01*
X73707540Y-43900000D02*
X73707540Y-44020000D01*
X74632460Y-44860000D02*
X74290000Y-44860000D01*
X73280000Y-50460000D02*
X73280000Y-51850000D01*
X72290000Y-53070000D02*
X71789580Y-53570420D01*
X73280000Y-51850000D02*
X73050000Y-52080000D01*
X74290000Y-41340000D02*
X74290000Y-41620000D01*
X74872460Y-46900000D02*
X74872460Y-47020000D01*
D30*
X75060000Y-36630000D02*
X75230000Y-36800000D01*
D25*
X75240000Y-40740000D02*
X75230000Y-40730000D01*
D26*
X73050000Y-52080000D02*
X72640000Y-52080000D01*
X74290000Y-43660000D02*
X73947540Y-43660000D01*
X73850000Y-49220000D02*
X73850000Y-49890000D01*
X74290000Y-48780000D02*
X73850000Y-49220000D01*
X74290000Y-43060000D02*
X74632460Y-43060000D01*
X74290000Y-45460000D02*
X74632453Y-45460000D01*
X74290000Y-47620000D02*
X74290000Y-47970000D01*
X72640000Y-52080000D02*
X72290000Y-52430000D01*
X73947547Y-45460000D02*
X74290000Y-45460000D01*
X74530000Y-42460000D02*
X74290000Y-42460000D01*
X73947540Y-43660000D02*
G75*
G03*
X73707500Y-43900000I-40J-240000D01*
G01*
X74872460Y-42220000D02*
G75*
G02*
X74632460Y-42459960I-239960J0D01*
G01*
X74872460Y-47020000D02*
G75*
G02*
X74632460Y-47259960I-239960J0D01*
G01*
X74872453Y-45820000D02*
G75*
G02*
X74632453Y-46059953I-239953J0D01*
G01*
X73947547Y-44860000D02*
G75*
G03*
X73707500Y-45100000I-47J-240000D01*
G01*
X73947540Y-42460000D02*
G75*
G03*
X73707500Y-42700000I-40J-240000D01*
G01*
X73707540Y-44020000D02*
G75*
G03*
X73947540Y-44259960I239960J0D01*
G01*
X74632460Y-43060000D02*
G75*
G02*
X74872500Y-43300000I40J-240000D01*
G01*
X73707552Y-46420000D02*
G75*
G03*
X73947552Y-46660048I240048J0D01*
G01*
X74632453Y-45460000D02*
G75*
G02*
X74872500Y-45700000I47J-240000D01*
G01*
X74632460Y-44260000D02*
G75*
G02*
X74872500Y-44500000I40J-240000D01*
G01*
X74872460Y-44620000D02*
G75*
G02*
X74632460Y-44859960I-239960J0D01*
G01*
X74632460Y-41860000D02*
G75*
G02*
X74872500Y-42100000I40J-240000D01*
G01*
X74290000Y-41620000D02*
G75*
G03*
X74530000Y-41860000I240000J0D01*
G01*
X74872460Y-43420000D02*
G75*
G02*
X74632460Y-43659960I-239960J0D01*
G01*
X73707547Y-45220000D02*
G75*
G03*
X73947547Y-45459953I239953J0D01*
G01*
X73947552Y-46060000D02*
G75*
G03*
X73707600Y-46300000I48J-240000D01*
G01*
X74530000Y-47260000D02*
G75*
G03*
X74290000Y-47500000I0J-240000D01*
G01*
X73707540Y-42820000D02*
G75*
G03*
X73947540Y-43059960I239960J0D01*
G01*
X74632460Y-46660000D02*
G75*
G02*
X74872500Y-46900000I40J-240000D01*
G01*
%TO.N,/fpga/DRAM.DQS_N2*%
D29*
X77653856Y-46240000D02*
X77653856Y-46325226D01*
X74290000Y-55110000D02*
X74770000Y-55590000D01*
X78887521Y-43503856D02*
X78190000Y-43503856D01*
X77653856Y-48523606D02*
X76133856Y-50043606D01*
X74290000Y-54340000D02*
X74290000Y-55110000D01*
X79151377Y-43040000D02*
X79151377Y-43240000D01*
X77653856Y-36433606D02*
X77653856Y-42240000D01*
X78190000Y-42776144D02*
X78887521Y-42776144D01*
X76133856Y-53953606D02*
X75957462Y-54130000D01*
X76133856Y-50043606D02*
X76133856Y-53953606D01*
X78887521Y-45503856D02*
X78190000Y-45503856D01*
X74500000Y-54130000D02*
X74290000Y-54340000D01*
X78830000Y-35600000D02*
X78487462Y-35600000D01*
X77653856Y-46040000D02*
X77653856Y-46240000D01*
X77653856Y-44040000D02*
X77653856Y-44240000D01*
X75957462Y-54130000D02*
X74500000Y-54130000D01*
X78487462Y-35600000D02*
X77653856Y-36433606D01*
X78190000Y-44776144D02*
X78887521Y-44776144D01*
X79151377Y-45040000D02*
X79151377Y-45240000D01*
X77653856Y-46325226D02*
X77653856Y-48523606D01*
X78887521Y-42776144D02*
G75*
G02*
X79151356Y-43040000I-21J-263856D01*
G01*
X79151377Y-45240000D02*
G75*
G02*
X78887521Y-45503877I-263877J0D01*
G01*
X78887521Y-44776144D02*
G75*
G02*
X79151356Y-45040000I-21J-263856D01*
G01*
X78190000Y-45503856D02*
G75*
G03*
X77653856Y-46040000I0J-536144D01*
G01*
X78190000Y-43503856D02*
G75*
G03*
X77653856Y-44040000I0J-536144D01*
G01*
X77653856Y-42240000D02*
G75*
G03*
X78190000Y-42776144I536144J0D01*
G01*
X77653856Y-44240000D02*
G75*
G03*
X78190000Y-44776144I536144J0D01*
G01*
X79151377Y-43240000D02*
G75*
G02*
X78887521Y-43503877I-263877J0D01*
G01*
%TO.N,/fpga/DRAM.DQ20*%
D26*
X76769705Y-42053101D02*
X76769705Y-42312807D01*
X76939852Y-44882954D02*
X77110000Y-44882954D01*
X73130000Y-52590000D02*
X72770000Y-52590000D01*
X77110000Y-44882954D02*
X77279387Y-44882954D01*
X76939852Y-41282954D02*
X77110000Y-41282954D01*
X77350282Y-41403095D02*
X77350282Y-41762813D01*
X77350282Y-39003095D02*
X77350282Y-39362813D01*
X76939852Y-38882954D02*
X77110000Y-38882954D01*
X77350282Y-40203095D02*
X77350282Y-40562813D01*
X77230141Y-40682954D02*
X77110000Y-40682954D01*
X77230141Y-41882954D02*
X77110000Y-41882954D01*
X77110000Y-42482954D02*
X77280148Y-42482954D01*
X76769705Y-43253101D02*
X76769705Y-43512807D01*
X77110000Y-43082954D02*
X76939852Y-43082954D01*
X75670000Y-49060000D02*
X75240000Y-49490000D01*
X78460000Y-34800000D02*
X77110000Y-36150000D01*
X76769705Y-38453101D02*
X76769705Y-38712807D01*
X77450295Y-42653101D02*
X77450295Y-42912807D01*
X77448774Y-45052341D02*
X77448774Y-45313567D01*
X77229350Y-38282954D02*
X77110000Y-38282954D01*
X77110000Y-38282954D02*
X76939852Y-38282954D01*
X77110000Y-43682954D02*
X77230141Y-43682954D01*
X76939852Y-42482954D02*
X77110000Y-42482954D01*
X77110000Y-39482954D02*
X76939852Y-39482954D01*
X76769705Y-40853101D02*
X76769705Y-41112807D01*
X77230141Y-44282954D02*
X77110000Y-44282954D01*
X77110000Y-41282954D02*
X77230141Y-41282954D01*
X73580000Y-52140000D02*
X73130000Y-52590000D01*
X77280148Y-43082954D02*
X77110000Y-43082954D01*
X77110000Y-36150000D02*
X77110000Y-37557954D01*
X77110000Y-40682954D02*
X76939852Y-40682954D01*
X77350282Y-43803095D02*
X77350282Y-44162813D01*
X76939852Y-40082954D02*
X77110000Y-40082954D01*
X76769705Y-39653101D02*
X76769705Y-39912807D01*
X77110000Y-47420000D02*
X77085000Y-47445000D01*
X77348700Y-37796654D02*
X77348700Y-38163604D01*
X75240000Y-51810000D02*
X74910000Y-52140000D01*
X77110000Y-45652341D02*
X77110000Y-45907954D01*
X76300000Y-48770000D02*
X76010000Y-49060000D01*
X77110000Y-38882954D02*
X77230141Y-38882954D01*
X76939852Y-43682954D02*
X77110000Y-43682954D01*
X77110000Y-44282954D02*
X76939852Y-44282954D01*
X77085000Y-47445000D02*
X76300000Y-48230000D01*
X75240000Y-49490000D02*
X75240000Y-51810000D01*
X76300000Y-48230000D02*
X76300000Y-48770000D01*
X77110000Y-45907954D02*
X77110000Y-47420000D01*
X77110000Y-40082954D02*
X77230141Y-40082954D01*
X76769705Y-44453101D02*
X76769705Y-44712807D01*
X77110000Y-41882954D02*
X76939852Y-41882954D01*
X77230141Y-39482954D02*
X77110000Y-39482954D01*
X78830000Y-34800000D02*
X78460000Y-34800000D01*
X76010000Y-49060000D02*
X75670000Y-49060000D01*
X74910000Y-52140000D02*
X73580000Y-52140000D01*
X76939852Y-43082954D02*
G75*
G03*
X76769754Y-43253101I48J-170146D01*
G01*
X77279387Y-44882954D02*
G75*
G02*
X77448746Y-45052341I13J-169346D01*
G01*
X76769705Y-44712807D02*
G75*
G03*
X76939852Y-44882995I170195J7D01*
G01*
X77350282Y-39362813D02*
G75*
G02*
X77230141Y-39482982I-120182J13D01*
G01*
X77350282Y-44162813D02*
G75*
G02*
X77230141Y-44282982I-120182J13D01*
G01*
X77279387Y-45482954D02*
G75*
G03*
X77110054Y-45652341I13J-169346D01*
G01*
X76769705Y-38712807D02*
G75*
G03*
X76939852Y-38882995I170195J7D01*
G01*
X77350282Y-41762813D02*
G75*
G02*
X77230141Y-41882982I-120182J13D01*
G01*
X76769705Y-43512807D02*
G75*
G03*
X76939852Y-43682995I170195J7D01*
G01*
X76769705Y-42312807D02*
G75*
G03*
X76939852Y-42482995I170195J7D01*
G01*
X77350282Y-40562813D02*
G75*
G02*
X77230141Y-40682982I-120182J13D01*
G01*
X76769705Y-39912807D02*
G75*
G03*
X76939852Y-40082995I170195J7D01*
G01*
X76939852Y-44282954D02*
G75*
G03*
X76769754Y-44453101I48J-170146D01*
G01*
X76939852Y-40682954D02*
G75*
G03*
X76769754Y-40853101I48J-170146D01*
G01*
X76939852Y-39482954D02*
G75*
G03*
X76769754Y-39653101I48J-170146D01*
G01*
X77229350Y-37677304D02*
G75*
G02*
X77348696Y-37796654I-50J-119396D01*
G01*
X76939852Y-41882954D02*
G75*
G03*
X76769754Y-42053101I48J-170146D01*
G01*
X77448774Y-45313567D02*
G75*
G02*
X77279387Y-45482974I-169374J-33D01*
G01*
X77230141Y-38882954D02*
G75*
G02*
X77350246Y-39003095I-41J-120146D01*
G01*
X77230141Y-41282954D02*
G75*
G02*
X77350246Y-41403095I-41J-120146D01*
G01*
X77280148Y-42482954D02*
G75*
G02*
X77450246Y-42653101I-48J-170146D01*
G01*
X76939852Y-38282954D02*
G75*
G03*
X76769754Y-38453101I48J-170146D01*
G01*
X77450295Y-42912807D02*
G75*
G02*
X77280148Y-43082995I-170195J7D01*
G01*
X77348700Y-38163604D02*
G75*
G02*
X77229350Y-38283000I-119400J4D01*
G01*
X77230141Y-40082954D02*
G75*
G02*
X77350246Y-40203095I-41J-120146D01*
G01*
X76769705Y-41112807D02*
G75*
G03*
X76939852Y-41282995I170195J7D01*
G01*
X77110000Y-37557954D02*
G75*
G03*
X77229350Y-37677400I119400J-46D01*
G01*
X77230141Y-43682954D02*
G75*
G02*
X77350246Y-43803095I-41J-120146D01*
G01*
%TO.N,/fpga/DRAM.DQ23*%
X72270000Y-51807158D02*
X71770000Y-52307158D01*
X69347589Y-41128430D02*
X69347589Y-41248430D01*
X70170000Y-39328430D02*
X70170000Y-39448430D01*
X69347589Y-38728430D02*
X69347589Y-38848430D01*
X69587589Y-39088430D02*
X69930000Y-39088430D01*
X69930000Y-40888430D02*
X69587589Y-40888430D01*
X70170000Y-41728430D02*
X70170000Y-41848430D01*
D25*
X75410000Y-34800000D02*
X75630000Y-34800000D01*
D26*
X70170000Y-44720000D02*
X72270000Y-46820000D01*
D25*
X75010000Y-34400000D02*
X75410000Y-34800000D01*
D26*
X73750000Y-34390000D02*
X71563415Y-36576585D01*
D25*
X73750000Y-34400000D02*
X75010000Y-34400000D01*
D26*
X69930000Y-38488430D02*
X69587589Y-38488430D01*
X69587589Y-40288430D02*
X69930000Y-40288430D01*
X69930000Y-42088430D02*
X69587589Y-42088430D01*
X71056585Y-37083415D02*
X70170000Y-37970000D01*
X70170000Y-40528430D02*
X70170000Y-40648430D01*
D25*
X73750000Y-34400000D02*
X73750000Y-34390000D01*
D26*
X72270000Y-46820000D02*
X72270000Y-51807158D01*
X69587589Y-41488430D02*
X69930000Y-41488430D01*
X69347589Y-42328430D02*
X69347589Y-42448430D01*
X71563415Y-36653790D02*
X71133790Y-37083415D01*
X71563415Y-36576585D02*
X71563415Y-36653790D01*
X70170000Y-43048430D02*
X70170000Y-44387910D01*
X69930000Y-39688430D02*
X69587589Y-39688430D01*
X71133790Y-37083415D02*
X71056585Y-37083415D01*
X70170000Y-37970000D02*
X70170000Y-38248430D01*
X70170000Y-44387910D02*
X70170000Y-44720000D01*
X71770000Y-52307158D02*
X71770000Y-52590000D01*
X69347589Y-39928430D02*
X69347589Y-40048430D01*
X69587589Y-42688430D02*
X69930000Y-42688430D01*
X70170000Y-42928430D02*
X70170000Y-43048430D01*
X70170000Y-40648430D02*
G75*
G02*
X69930000Y-40888400I-240000J30D01*
G01*
X69587589Y-40888430D02*
G75*
G03*
X69347630Y-41128430I11J-239970D01*
G01*
X69930000Y-39088430D02*
G75*
G02*
X70169970Y-39328430I0J-239970D01*
G01*
X69587589Y-38488430D02*
G75*
G03*
X69347630Y-38728430I11J-239970D01*
G01*
X69347589Y-41248430D02*
G75*
G03*
X69587589Y-41488411I240011J30D01*
G01*
X70170000Y-41848430D02*
G75*
G02*
X69930000Y-42088400I-240000J30D01*
G01*
X69587589Y-42088430D02*
G75*
G03*
X69347630Y-42328430I11J-239970D01*
G01*
X69930000Y-42688430D02*
G75*
G02*
X70169970Y-42928430I0J-239970D01*
G01*
X69587589Y-39688430D02*
G75*
G03*
X69347630Y-39928430I11J-239970D01*
G01*
X69930000Y-41488430D02*
G75*
G02*
X70169970Y-41728430I0J-239970D01*
G01*
X69347589Y-40048430D02*
G75*
G03*
X69587589Y-40288411I240011J30D01*
G01*
X70170000Y-38248430D02*
G75*
G02*
X69930000Y-38488400I-240000J30D01*
G01*
X69930000Y-40288430D02*
G75*
G02*
X70169970Y-40528430I0J-239970D01*
G01*
X70170000Y-39448430D02*
G75*
G02*
X69930000Y-39688400I-240000J30D01*
G01*
X69347589Y-42448430D02*
G75*
G03*
X69587589Y-42688411I240011J30D01*
G01*
X69347589Y-38848430D02*
G75*
G03*
X69587589Y-39088411I240011J30D01*
G01*
%TO.N,/fpga/DRAM.DQ21*%
X70539691Y-40776800D02*
X70539691Y-40896800D01*
X71710309Y-39336800D02*
X71270000Y-39336800D01*
X72770000Y-46110000D02*
X72770000Y-49590000D01*
X71270000Y-37670000D02*
X71270000Y-37896800D01*
X70539691Y-39576800D02*
X70539691Y-39696800D01*
X71270000Y-40536800D02*
X70779691Y-40536800D01*
X70539691Y-38376800D02*
X70539691Y-38496800D01*
X71950309Y-38976800D02*
X71950309Y-39096800D01*
X70779691Y-41136800D02*
X71270000Y-41136800D01*
X71950309Y-41376800D02*
X71950309Y-41496800D01*
X71270000Y-38736800D02*
X71710309Y-38736800D01*
X71710292Y-42936800D02*
X71270000Y-42936800D01*
X70539709Y-43176800D02*
X70539709Y-43296800D01*
X71270000Y-39336800D02*
X70779691Y-39336800D01*
X70779691Y-38736800D02*
X71030000Y-38736800D01*
X71030000Y-38736800D02*
X71270000Y-38736800D01*
X70779691Y-42336800D02*
X71270000Y-42336800D01*
X70539691Y-41976800D02*
X70539691Y-42096800D01*
D25*
X73735600Y-35204400D02*
X73720000Y-35220000D01*
D26*
X71270000Y-42936800D02*
X71030000Y-42936800D01*
X71270000Y-43896800D02*
X71270000Y-44411615D01*
D25*
X74394400Y-35204400D02*
X73735600Y-35204400D01*
D26*
X71030000Y-38136800D02*
X70779691Y-38136800D01*
X71950292Y-42576800D02*
X71950292Y-42696800D01*
X71270000Y-44411615D02*
X71270000Y-44610000D01*
X71270000Y-39936800D02*
X71710309Y-39936800D01*
X73720000Y-35220000D02*
X71270000Y-37670000D01*
X71030000Y-42936800D02*
X70779709Y-42936800D01*
X71710309Y-40536800D02*
X71270000Y-40536800D01*
X70779709Y-43536800D02*
X71030000Y-43536800D01*
X71270000Y-41136800D02*
X71710309Y-41136800D01*
X71270000Y-41736800D02*
X70779691Y-41736800D01*
X71270000Y-43776800D02*
X71270000Y-43896800D01*
X71950309Y-40176800D02*
X71950309Y-40296800D01*
X71270000Y-42336800D02*
X71710292Y-42336800D01*
D30*
X74830000Y-34800000D02*
X74425600Y-35204400D01*
D26*
X71710309Y-41736800D02*
X71270000Y-41736800D01*
X70779691Y-39936800D02*
X71270000Y-39936800D01*
D30*
X74425600Y-35204400D02*
X74394400Y-35204400D01*
D26*
X71270000Y-44610000D02*
X72770000Y-46110000D01*
X70779709Y-42936800D02*
G75*
G03*
X70539700Y-43176800I-9J-240000D01*
G01*
X70539709Y-43296800D02*
G75*
G03*
X70779709Y-43536791I239991J0D01*
G01*
X70779691Y-39336800D02*
G75*
G03*
X70539700Y-39576800I9J-240000D01*
G01*
X70539691Y-38496800D02*
G75*
G03*
X70779691Y-38736809I240009J0D01*
G01*
X70779691Y-41736800D02*
G75*
G03*
X70539700Y-41976800I9J-240000D01*
G01*
X71950292Y-42696800D02*
G75*
G02*
X71710292Y-42936792I-239992J0D01*
G01*
X71950309Y-40296800D02*
G75*
G02*
X71710309Y-40536809I-240009J0D01*
G01*
X70539691Y-40896800D02*
G75*
G03*
X70779691Y-41136809I240009J0D01*
G01*
X70539691Y-39696800D02*
G75*
G03*
X70779691Y-39936809I240009J0D01*
G01*
X71270000Y-37896800D02*
G75*
G02*
X71030000Y-38136800I-240000J0D01*
G01*
X71030000Y-43536800D02*
G75*
G02*
X71270000Y-43776800I0J-240000D01*
G01*
X71710309Y-41136800D02*
G75*
G02*
X71950300Y-41376800I-9J-240000D01*
G01*
X70779691Y-40536800D02*
G75*
G03*
X70539700Y-40776800I9J-240000D01*
G01*
X71710292Y-42336800D02*
G75*
G02*
X71950300Y-42576800I8J-240000D01*
G01*
X70539691Y-42096800D02*
G75*
G03*
X70779691Y-42336809I240009J0D01*
G01*
X70779691Y-38136800D02*
G75*
G03*
X70539700Y-38376800I9J-240000D01*
G01*
X71950309Y-41496800D02*
G75*
G02*
X71710309Y-41736809I-240009J0D01*
G01*
X71950309Y-39096800D02*
G75*
G02*
X71710309Y-39336809I-240009J0D01*
G01*
X71710309Y-38736800D02*
G75*
G02*
X71950300Y-38976800I-9J-240000D01*
G01*
X71710309Y-39936800D02*
G75*
G02*
X71950300Y-40176800I-9J-240000D01*
G01*
%TO.N,/fpga/DRAM.CKE*%
D30*
X53780000Y-32800000D02*
X55230000Y-32800000D01*
X64080000Y-33180000D02*
X66070000Y-33180000D01*
X63880000Y-32980000D02*
X63880000Y-32760000D01*
X60210000Y-32800000D02*
X60250000Y-32760000D01*
X61663044Y-32760000D02*
X61843044Y-32940000D01*
X62407779Y-33324734D02*
X63005266Y-33324734D01*
X57790000Y-32790000D02*
X57800000Y-32800000D01*
X60250000Y-32760000D02*
X61663044Y-32760000D01*
X60090000Y-32800000D02*
X60210000Y-32800000D01*
X72460000Y-33180000D02*
X66070000Y-33180000D01*
X73590000Y-32760000D02*
X74030000Y-33200000D01*
X55240000Y-32790000D02*
X57790000Y-32790000D01*
X64080000Y-33180000D02*
X63880000Y-32980000D01*
X53380000Y-33200000D02*
X53780000Y-32800000D01*
X57800000Y-32800000D02*
X60090000Y-32800000D01*
X61843044Y-32940000D02*
X62023045Y-32940000D01*
X63005266Y-33324734D02*
X63570000Y-32760000D01*
X55230000Y-32800000D02*
X55240000Y-32790000D01*
X63570000Y-32760000D02*
X73590000Y-32760000D01*
X62023045Y-32940000D02*
X62407779Y-33324734D01*
%TO.N,/fpga/DRAM.A3*%
D26*
X67983152Y-31932805D02*
X67620542Y-31570195D01*
D25*
X57810000Y-31200000D02*
X57810000Y-31170000D01*
X78510000Y-31190000D02*
X78510000Y-31170000D01*
D26*
X81970000Y-31170000D02*
X82651600Y-31851600D01*
X84175600Y-35814000D02*
X85037600Y-35814000D01*
X67620542Y-31570195D02*
X60630000Y-31570195D01*
X67983152Y-31027195D02*
X68316848Y-31027195D01*
X85037600Y-35814000D02*
X85040400Y-35811200D01*
X69480000Y-31430000D02*
X69339805Y-31570195D01*
X68326848Y-31932805D02*
X67983152Y-31932805D01*
X80800000Y-31170000D02*
X81970000Y-31170000D01*
X50393600Y-35153600D02*
X49920400Y-35626800D01*
D25*
X57810000Y-31200000D02*
X59380000Y-31200000D01*
D26*
X82651600Y-31851600D02*
X82651600Y-33680400D01*
X75940000Y-31170000D02*
X78510000Y-31170000D01*
D25*
X75940000Y-31190000D02*
X75940000Y-31170000D01*
X73600000Y-31190000D02*
X75940000Y-31190000D01*
D26*
X83820000Y-35458400D02*
X84175600Y-35814000D01*
X60100000Y-31170000D02*
X67840347Y-31170000D01*
X49920400Y-35626800D02*
X48920400Y-35626800D01*
D25*
X80800000Y-31190000D02*
X80800000Y-31170000D01*
D26*
X83820000Y-34848800D02*
X83820000Y-35458400D01*
X68459653Y-31170000D02*
X73600000Y-31170000D01*
D25*
X73600000Y-31190000D02*
X73600000Y-31170000D01*
X60100000Y-31200000D02*
X60100000Y-31170000D01*
D26*
X52900000Y-31170000D02*
X51583200Y-31170000D01*
D25*
X59380000Y-31200000D02*
X60100000Y-31200000D01*
D26*
X68316848Y-31027195D02*
X68459653Y-31170000D01*
X55240000Y-31170000D02*
X57810000Y-31170000D01*
D25*
X55240000Y-31200000D02*
X55240000Y-31170000D01*
D26*
X58980000Y-30800000D02*
X59380000Y-31200000D01*
D25*
X78510000Y-31190000D02*
X79240000Y-31190000D01*
D26*
X50393600Y-32359600D02*
X50393600Y-35153600D01*
X79630000Y-30800000D02*
X79240000Y-31190000D01*
X67840347Y-31170000D02*
X67983152Y-31027195D01*
X69339805Y-31570195D02*
X68689458Y-31570195D01*
D25*
X52900000Y-31200000D02*
X52900000Y-31170000D01*
D26*
X51583200Y-31170000D02*
X50393600Y-32359600D01*
X68689458Y-31570195D02*
X68326848Y-31932805D01*
D25*
X52900000Y-31200000D02*
X55240000Y-31200000D01*
D26*
X82651600Y-33680400D02*
X83820000Y-34848800D01*
D25*
X79240000Y-31190000D02*
X80800000Y-31190000D01*
D26*
X69480000Y-31170000D02*
X69480000Y-31430000D01*
%TO.N,/fpga/DRAM.BA1*%
D25*
X54580000Y-30400000D02*
X55240000Y-30400000D01*
X57810000Y-30400000D02*
X57810000Y-30380000D01*
D26*
X49910000Y-33556800D02*
X49340000Y-34126800D01*
X49910000Y-32240000D02*
X49910000Y-32260000D01*
D25*
X74410000Y-30380000D02*
X75940000Y-30380000D01*
D26*
X50180000Y-31750000D02*
X50180000Y-31970000D01*
X83362800Y-31394400D02*
X83362800Y-33274000D01*
D25*
X78510000Y-30380000D02*
X80800000Y-30380000D01*
D26*
X52900000Y-30380000D02*
X51550000Y-30380000D01*
X65266848Y-30307195D02*
X64680000Y-30307195D01*
X49910000Y-32260000D02*
X49910000Y-33556800D01*
X64680000Y-30030000D02*
X64790000Y-29920000D01*
X50180000Y-31970000D02*
X49910000Y-32240000D01*
D25*
X60100000Y-30400000D02*
X60100000Y-30380000D01*
D26*
X82348400Y-30380000D02*
X83362800Y-31394400D01*
X80800000Y-30380000D02*
X82348400Y-30380000D01*
X63710347Y-30380000D02*
X60100000Y-30380000D01*
D25*
X52900000Y-30400000D02*
X52900000Y-30380000D01*
D26*
X73600000Y-30380000D02*
X65339653Y-30380000D01*
X63783152Y-30307195D02*
X63710347Y-30380000D01*
X84400000Y-34311200D02*
X84640400Y-34311200D01*
X75940000Y-30380000D02*
X78510000Y-30380000D01*
D25*
X57810000Y-30400000D02*
X60100000Y-30400000D01*
D26*
X51550000Y-30380000D02*
X50180000Y-31750000D01*
D25*
X73600000Y-30380000D02*
X74410000Y-30380000D01*
X55240000Y-30400000D02*
X55240000Y-30380000D01*
D26*
X74830000Y-30800000D02*
X74410000Y-30380000D01*
X83362800Y-33274000D02*
X84400000Y-34311200D01*
X54180000Y-30800000D02*
X54580000Y-30400000D01*
X55240000Y-30380000D02*
X57810000Y-30380000D01*
X64680000Y-30307195D02*
X64680000Y-30030000D01*
X65339653Y-30380000D02*
X65266848Y-30307195D01*
X64790000Y-29920000D02*
X68529200Y-29920000D01*
D25*
X52900000Y-30400000D02*
X54580000Y-30400000D01*
D26*
X64680000Y-30307195D02*
X63783152Y-30307195D01*
%TO.N,/fpga/DRAM.A1*%
X54980000Y-30000000D02*
X55400000Y-29580000D01*
X49200800Y-32299200D02*
X49797200Y-31702800D01*
X75630000Y-30000000D02*
X75230000Y-29600000D01*
X55250000Y-29580000D02*
X55400000Y-29580000D01*
X50444400Y-29819600D02*
X52425600Y-29819600D01*
X60110000Y-29580000D02*
X64090000Y-29580000D01*
X84531200Y-32816800D02*
X85034800Y-32816800D01*
X52665200Y-29580000D02*
X52910000Y-29580000D01*
X52425600Y-29819600D02*
X52665200Y-29580000D01*
X49797200Y-31702800D02*
X49797200Y-30466800D01*
D25*
X78520000Y-29580000D02*
X80810000Y-29580000D01*
X52910000Y-29600000D02*
X52910000Y-29580000D01*
D26*
X83972400Y-32258000D02*
X84531200Y-32816800D01*
X83972400Y-30937200D02*
X83972400Y-32258000D01*
X82615200Y-29580000D02*
X83972400Y-30937200D01*
D25*
X52910000Y-29600000D02*
X55250000Y-29600000D01*
X60105000Y-29600000D02*
X60110000Y-29580000D01*
D26*
X64090000Y-29580000D02*
X64130610Y-29539390D01*
X85034800Y-32816800D02*
X85040400Y-32811200D01*
D25*
X57815000Y-29600000D02*
X57820000Y-29580000D01*
D26*
X48882800Y-32626800D02*
X49200800Y-32308800D01*
X75230000Y-29600000D02*
X75230000Y-29580000D01*
X64130610Y-29539390D02*
X65490000Y-29539390D01*
X55400000Y-29580000D02*
X57820000Y-29580000D01*
X65490000Y-29539390D02*
X68340157Y-29539390D01*
X68402352Y-29477195D02*
X68916848Y-29477195D01*
X49200800Y-32308800D02*
X49200800Y-32299200D01*
X49797200Y-30466800D02*
X50444400Y-29819600D01*
X65490000Y-29370000D02*
X65490000Y-29539390D01*
X69019653Y-29580000D02*
X73610000Y-29580000D01*
X76070000Y-29580000D02*
X76050000Y-29580000D01*
X80810000Y-29580000D02*
X82615200Y-29580000D01*
D25*
X75230000Y-29580000D02*
X75950000Y-29580000D01*
X55250000Y-29600000D02*
X55250000Y-29580000D01*
D26*
X65030000Y-29195195D02*
X65315195Y-29195195D01*
X65315195Y-29195195D02*
X65490000Y-29370000D01*
X68340157Y-29539390D02*
X68402352Y-29477195D01*
D25*
X57815000Y-29600000D02*
X60105000Y-29600000D01*
D26*
X68916848Y-29477195D02*
X69019653Y-29580000D01*
X75950000Y-29580000D02*
X76070000Y-29580000D01*
D25*
X73610000Y-29580000D02*
X75230000Y-29580000D01*
D26*
X76070000Y-29580000D02*
X78520000Y-29580000D01*
%TO.N,/fpga/DRAM.A9*%
X75950000Y-28790000D02*
X78420000Y-28790000D01*
X78830000Y-29200000D02*
X78420000Y-28790000D01*
D25*
X58580000Y-28800000D02*
X60110000Y-28800000D01*
X52910000Y-28800000D02*
X55250000Y-28800000D01*
D26*
X69699653Y-28790000D02*
X73610000Y-28790000D01*
X61800347Y-28790000D02*
X61843152Y-28747195D01*
X84124800Y-30073600D02*
X84124800Y-30226000D01*
X84445600Y-30546800D02*
X84640400Y-30546800D01*
X49340000Y-30111200D02*
X50190400Y-29260800D01*
X69333152Y-28757195D02*
X69666848Y-28757195D01*
X69300347Y-28790000D02*
X69333152Y-28757195D01*
X68274805Y-29195195D02*
X65943133Y-29195195D01*
X69666848Y-28757195D02*
X69699653Y-28790000D01*
D25*
X57820000Y-28800000D02*
X58580000Y-28800000D01*
D26*
X52591600Y-28790000D02*
X52910000Y-28790000D01*
X55250000Y-28790000D02*
X57820000Y-28790000D01*
X62219653Y-28790000D02*
X69300347Y-28790000D01*
X52120800Y-29260800D02*
X52591600Y-28790000D01*
X58180000Y-29200000D02*
X58580000Y-28800000D01*
X84124800Y-30226000D02*
X84445600Y-30546800D01*
X68680000Y-28790000D02*
X68274805Y-29195195D01*
X82841200Y-28790000D02*
X84124800Y-30073600D01*
D25*
X60110000Y-28800000D02*
X60110000Y-28790000D01*
X73610000Y-28790000D02*
X75950000Y-28790000D01*
D26*
X80810000Y-28790000D02*
X82841200Y-28790000D01*
X62176848Y-28747195D02*
X62219653Y-28790000D01*
X65943133Y-29195195D02*
X65882510Y-29134572D01*
X49340000Y-30343600D02*
X49340000Y-30111200D01*
X60110000Y-28790000D02*
X61800347Y-28790000D01*
D25*
X57820000Y-28800000D02*
X57820000Y-28790000D01*
D26*
X50190400Y-29260800D02*
X52120800Y-29260800D01*
D25*
X55250000Y-28800000D02*
X55250000Y-28790000D01*
D26*
X61843152Y-28747195D02*
X62176848Y-28747195D01*
X78420000Y-28790000D02*
X78520000Y-28790000D01*
D25*
X52910000Y-28800000D02*
X52910000Y-28790000D01*
X78520000Y-28790000D02*
X80810000Y-28790000D01*
%TO.N,/fpga/DRAM.A13*%
D26*
X55250000Y-27990000D02*
X57820000Y-27990000D01*
X60680000Y-27740000D02*
X68920000Y-27740000D01*
X58180000Y-28400000D02*
X58590000Y-27990000D01*
X72740000Y-27990000D02*
X73610000Y-27990000D01*
D25*
X52910000Y-27990000D02*
X55250000Y-27990000D01*
X78520000Y-27990000D02*
X80810000Y-27990000D01*
D26*
X60110000Y-27990000D02*
X60430000Y-27990000D01*
X75950000Y-27990000D02*
X78520000Y-27990000D01*
X68480000Y-27260000D02*
X66910000Y-27260000D01*
X50546800Y-27990000D02*
X52910000Y-27990000D01*
D25*
X57820000Y-27990000D02*
X58590000Y-27990000D01*
D26*
X72490000Y-27740000D02*
X72740000Y-27990000D01*
X68690000Y-27730000D02*
X68690000Y-27470000D01*
X68690000Y-27470000D02*
X68480000Y-27260000D01*
X60430000Y-27990000D02*
X60680000Y-27740000D01*
X78821328Y-28291328D02*
X78520000Y-27990000D01*
X49701200Y-28835600D02*
X50546800Y-27990000D01*
X83158800Y-27990000D02*
X84215600Y-29046800D01*
X68920000Y-27740000D02*
X68690000Y-27740000D01*
D25*
X73610000Y-27990000D02*
X75950000Y-27990000D01*
D26*
X48882800Y-28835600D02*
X49701200Y-28835600D01*
X78821328Y-28368963D02*
X78821328Y-28291328D01*
D25*
X58590000Y-27990000D02*
X60110000Y-27990000D01*
D26*
X68920000Y-27740000D02*
X72490000Y-27740000D01*
X84215600Y-29046800D02*
X85040400Y-29046800D01*
X80810000Y-27990000D02*
X83158800Y-27990000D01*
%TO.N,Net-(USBC2-TX2-)*%
D28*
X52470000Y-107350000D02*
X52470000Y-105110000D01*
X52470000Y-105110000D02*
X51660000Y-104300000D01*
%TO.N,/fpga/VIDEL33.CLK0*%
X82180000Y-64140000D02*
X82630000Y-64590000D01*
X72532842Y-65110000D02*
X78670000Y-65110000D01*
X78670000Y-65110000D02*
X79640000Y-64140000D01*
X71770000Y-65590000D02*
X72052842Y-65590000D01*
X72052842Y-65590000D02*
X72532842Y-65110000D01*
X95970000Y-62900000D02*
X95970000Y-43580000D01*
X84740000Y-63960000D02*
X94910000Y-63960000D01*
X94910000Y-63960000D02*
X95970000Y-62900000D01*
X95970000Y-43580000D02*
X95070000Y-42680000D01*
X84110000Y-64590000D02*
X84740000Y-63960000D01*
X85690000Y-42680000D02*
X85680000Y-42690000D01*
X82630000Y-64590000D02*
X84110000Y-64590000D01*
X79640000Y-64140000D02*
X82180000Y-64140000D01*
X95070000Y-42680000D02*
X85690000Y-42680000D01*
%TO.N,/fpga/VIDEL33.CLK1*%
X96490000Y-63450000D02*
X96490000Y-42410000D01*
X78940000Y-66100000D02*
X79330000Y-65710000D01*
X72770000Y-65590000D02*
X73280000Y-66100000D01*
X95540000Y-41460000D02*
X89150000Y-41460000D01*
X95420000Y-64520000D02*
X96490000Y-63450000D01*
X81900000Y-64490000D02*
X82430000Y-65020000D01*
X79330000Y-65710000D02*
X79330000Y-65220000D01*
X80060000Y-64490000D02*
X81900000Y-64490000D01*
X85140000Y-43370000D02*
X85680000Y-43910000D01*
X73280000Y-66100000D02*
X78940000Y-66100000D01*
X86190000Y-41280000D02*
X85140000Y-42330000D01*
X79330000Y-65220000D02*
X80060000Y-64490000D01*
X88970000Y-41280000D02*
X86190000Y-41280000D01*
X96490000Y-42410000D02*
X95540000Y-41460000D01*
X85140000Y-42330000D02*
X85140000Y-43370000D01*
X89150000Y-41460000D02*
X88970000Y-41280000D01*
X84820000Y-65020000D02*
X85320000Y-64520000D01*
X82430000Y-65020000D02*
X84820000Y-65020000D01*
X85320000Y-64520000D02*
X95420000Y-64520000D01*
%TO.N,/fpga/VIDEL33.CLK2*%
X84220000Y-43290000D02*
X84220000Y-43010000D01*
X85390000Y-44460000D02*
X84220000Y-43290000D01*
X82180000Y-63730000D02*
X82590000Y-63730000D01*
X82990000Y-64130000D02*
X83870000Y-64130000D01*
X86600000Y-44460000D02*
X85390000Y-44460000D01*
X72680000Y-64130000D02*
X78920000Y-64130000D01*
X82590000Y-63730000D02*
X82990000Y-64130000D01*
X70770000Y-65590000D02*
X71330000Y-65030000D01*
X71330000Y-65030000D02*
X72060000Y-65030000D01*
X78920000Y-64130000D02*
X79590000Y-63460000D01*
X95370000Y-44060000D02*
X94900000Y-43590000D01*
X95370000Y-62770000D02*
X95370000Y-44060000D01*
X72320000Y-64770000D02*
X72320000Y-64490000D01*
X81910000Y-63460000D02*
X82180000Y-63730000D01*
X83870000Y-64130000D02*
X84570000Y-63430000D01*
X89427000Y-43540000D02*
X88880000Y-44087000D01*
X94710000Y-63430000D02*
X95370000Y-62770000D01*
X86973000Y-44087000D02*
X86600000Y-44460000D01*
X94900000Y-43540000D02*
X89427000Y-43540000D01*
X72060000Y-65030000D02*
X72320000Y-64770000D01*
X79590000Y-63460000D02*
X81910000Y-63460000D01*
X72320000Y-64490000D02*
X72680000Y-64130000D01*
X84570000Y-63430000D02*
X94710000Y-63430000D01*
X88880000Y-44087000D02*
X86973000Y-44087000D01*
X94900000Y-43590000D02*
X94900000Y-43540000D01*
%TO.N,/fpga/FALCON_AUDIOLV.O*%
X83526805Y-49520000D02*
X83736805Y-49310000D01*
X80650000Y-49520000D02*
X81100000Y-49520000D01*
X79490000Y-50680000D02*
X80650000Y-49520000D01*
X79470000Y-50680000D02*
X79490000Y-50680000D01*
X81100000Y-49520000D02*
X83526805Y-49520000D01*
%TO.N,/video/HDMIO.D1P*%
D29*
X37080000Y-104180000D02*
X37080000Y-104372152D01*
X37980000Y-105272152D02*
X37980000Y-108150000D01*
X37080000Y-104372152D02*
X37980000Y-105272152D01*
%TO.N,/video/HDMIO.D1N*%
X36514166Y-104111119D02*
X36679123Y-104276076D01*
X36679123Y-104694649D02*
X37667600Y-105683126D01*
X37667600Y-105683126D02*
X37667600Y-107692400D01*
X36679123Y-104276076D02*
X36679123Y-104694649D01*
X37667600Y-107692400D02*
X37570000Y-107790000D01*
%TO.N,/video/HDMIO.CKP*%
X34100000Y-104270000D02*
X36740000Y-106910000D01*
X36740000Y-106910000D02*
X36740000Y-108220000D01*
%TO.N,/video/HDMIO.CKN*%
X36260000Y-106905526D02*
X36260000Y-107850000D01*
X33946974Y-104790000D02*
X34144474Y-104790000D01*
X34144474Y-104790000D02*
X36260000Y-106905526D01*
X33433029Y-104276055D02*
X33946974Y-104790000D01*
%TO.N,+2V5_TX*%
D27*
X66250000Y-58030000D02*
X66250000Y-57360000D01*
X59770000Y-48590000D02*
X59770000Y-50460000D01*
X68360000Y-52290000D02*
X68360000Y-51830000D01*
X60281400Y-56051400D02*
X62940000Y-58710000D01*
X60281400Y-55070000D02*
X60281400Y-53920603D01*
X62940000Y-58710000D02*
X65570000Y-58710000D01*
X68620000Y-57060000D02*
X70000000Y-55680000D01*
X70410000Y-53800000D02*
X70400000Y-53790000D01*
X62352483Y-53039517D02*
X62770000Y-52622000D01*
X61420000Y-52110000D02*
X61420000Y-52782003D01*
X68440000Y-53090000D02*
X68280000Y-52930000D01*
X66250000Y-57360000D02*
X66550000Y-57060000D01*
X70400000Y-53320000D02*
X70170000Y-53090000D01*
X70000000Y-54170000D02*
X70040000Y-54170000D01*
X70170000Y-53090000D02*
X68440000Y-53090000D01*
X59770000Y-50460000D02*
X61420000Y-52110000D01*
X68280000Y-52370000D02*
X68360000Y-52290000D01*
X70040000Y-54170000D02*
X70410000Y-53800000D01*
X61420000Y-52782003D02*
X61162486Y-53039517D01*
X60281400Y-53920603D02*
X61162486Y-53039517D01*
X70000000Y-55680000D02*
X70000000Y-54170000D01*
X68100000Y-51570000D02*
X67800000Y-51570000D01*
X68360000Y-51830000D02*
X68100000Y-51570000D01*
X66550000Y-57060000D02*
X68620000Y-57060000D01*
X61162486Y-53039517D02*
X62352483Y-53039517D01*
X65570000Y-58710000D02*
X66250000Y-58030000D01*
X70400000Y-53790000D02*
X70400000Y-53320000D01*
X60281400Y-55070000D02*
X60281400Y-56051400D01*
X68280000Y-52930000D02*
X68280000Y-52370000D01*
%TO.N,/fpga/CT.A23*%
D28*
X40670000Y-59970000D02*
X41360000Y-60660000D01*
X42700000Y-72150000D02*
X47370000Y-72150000D01*
X41360000Y-60660000D02*
X41360000Y-70810000D01*
X41360000Y-70810000D02*
X42700000Y-72150000D01*
X51250000Y-76030000D02*
X58750000Y-76030000D01*
X58750000Y-76030000D02*
X58770000Y-76010000D01*
X47370000Y-72150000D02*
X51250000Y-76030000D01*
%TO.N,/fpga/CT.A27*%
X48030000Y-70860000D02*
X52290000Y-75120000D01*
X43800000Y-70860000D02*
X48030000Y-70860000D01*
X40750000Y-54910000D02*
X42440000Y-56600000D01*
X59630000Y-75120000D02*
X60250000Y-75740000D01*
X52290000Y-75120000D02*
X59630000Y-75120000D01*
X42440000Y-69500000D02*
X43800000Y-70860000D01*
X42440000Y-56600000D02*
X42440000Y-69500000D01*
X60250000Y-75740000D02*
X60250000Y-75970000D01*
%TO.N,/fpga/CT.A9*%
X65510000Y-76290000D02*
X66265000Y-75535000D01*
X40740000Y-77810000D02*
X48310000Y-77810000D01*
X51170000Y-80670000D02*
X61130000Y-80670000D01*
X48310000Y-77810000D02*
X51170000Y-80670000D01*
X61130000Y-80670000D02*
X65510000Y-76290000D01*
%TO.N,/fpga/CT.RST_N*%
X43490000Y-74790000D02*
X48490000Y-74790000D01*
X39780000Y-71080000D02*
X43490000Y-74790000D01*
X52560000Y-78860000D02*
X59030000Y-78860000D01*
X39290000Y-47350000D02*
X39780000Y-47840000D01*
X59030000Y-78860000D02*
X60040000Y-77850000D01*
X48490000Y-74790000D02*
X52560000Y-78860000D01*
X39780000Y-47840000D02*
X39780000Y-71080000D01*
%TO.N,/fpga/CT.D27*%
X92620000Y-81390000D02*
X93590000Y-82360000D01*
X93590000Y-82360000D02*
X93590000Y-82770000D01*
X81200000Y-69270000D02*
X81200000Y-73840000D01*
X83870000Y-77730000D02*
X87530000Y-81390000D01*
X83870000Y-76510000D02*
X83870000Y-77730000D01*
X81200000Y-73840000D02*
X83870000Y-76510000D01*
X87530000Y-81390000D02*
X92620000Y-81390000D01*
%TO.N,/fpga/CT.SIZ0*%
X43510000Y-40440000D02*
X39980000Y-40440000D01*
X58890000Y-72800000D02*
X53920000Y-72800000D01*
X59300000Y-72060000D02*
X59300000Y-72390000D01*
X46310000Y-53260000D02*
X44140000Y-51090000D01*
X53920000Y-72800000D02*
X46310000Y-65190000D01*
X60890000Y-72150000D02*
X60530000Y-71790000D01*
X39980000Y-40440000D02*
X39190000Y-39650000D01*
X59570000Y-71790000D02*
X59300000Y-72060000D01*
X46310000Y-65190000D02*
X46310000Y-53260000D01*
X62770000Y-69590000D02*
X62770000Y-70620000D01*
X60530000Y-71790000D02*
X59570000Y-71790000D01*
X59300000Y-72390000D02*
X58890000Y-72800000D01*
X62770000Y-70620000D02*
X61240000Y-72150000D01*
X61240000Y-72150000D02*
X60890000Y-72150000D01*
X44140000Y-51090000D02*
X44140000Y-41070000D01*
X44140000Y-41070000D02*
X43510000Y-40440000D01*
%TO.N,/fpga/CT.A25*%
X59075000Y-75565000D02*
X59510000Y-76000000D01*
X40720000Y-57460000D02*
X40800000Y-57460000D01*
X51785000Y-75565000D02*
X59075000Y-75565000D01*
X43110000Y-71370000D02*
X43170000Y-71430000D01*
X47680000Y-71460000D02*
X51785000Y-75565000D01*
X43110000Y-71370000D02*
X43200000Y-71460000D01*
X40800000Y-57460000D02*
X41930000Y-58590000D01*
X43200000Y-71460000D02*
X47680000Y-71460000D01*
X41930000Y-70190000D02*
X43110000Y-71370000D01*
X41930000Y-58590000D02*
X41930000Y-70190000D01*
%TO.N,/fpga/CT.A19*%
X40240000Y-65800000D02*
X40630000Y-65410000D01*
X42330000Y-72850000D02*
X40240000Y-70760000D01*
X59330000Y-77870000D02*
X58850000Y-78350000D01*
X40240000Y-70760000D02*
X40240000Y-65800000D01*
X47270000Y-72850000D02*
X42330000Y-72850000D01*
X52770000Y-78350000D02*
X47270000Y-72850000D01*
X58850000Y-78350000D02*
X52770000Y-78350000D01*
%TO.N,/fpga/CT.A7*%
X61340000Y-81430000D02*
X66710000Y-76060000D01*
X40680000Y-80280000D02*
X49490000Y-80280000D01*
X66755000Y-76015000D02*
X66755000Y-74695000D01*
X49490000Y-80280000D02*
X50640000Y-81430000D01*
X50640000Y-81430000D02*
X61340000Y-81430000D01*
X66710000Y-76060000D02*
X66755000Y-76015000D01*
%TO.N,/fpga/CT.A5*%
X68195000Y-76445000D02*
X68195000Y-75665200D01*
X40620000Y-82870000D02*
X61770000Y-82870000D01*
X61770000Y-82870000D02*
X68195000Y-76445000D01*
X68195000Y-75665200D02*
X68139800Y-75610000D01*
%TO.N,/fpga/DRAM.DQ6*%
D26*
X62057793Y-39277793D02*
X61972942Y-39192942D01*
X59630000Y-41090000D02*
X59380000Y-40840000D01*
X59940000Y-41090000D02*
X59630000Y-41090000D01*
X61055443Y-41128672D02*
X60970590Y-41043819D01*
X68210000Y-49030000D02*
X68210000Y-47410000D01*
X68210000Y-47410000D02*
X63670000Y-42870000D01*
D25*
X59380000Y-40840000D02*
X59380000Y-35960000D01*
D26*
X63670000Y-42870000D02*
X63670000Y-41030000D01*
X62045404Y-41835772D02*
X61960551Y-41750919D01*
X60970590Y-40704407D02*
X62057793Y-39617205D01*
X61972942Y-39192942D02*
X61210000Y-38430000D01*
X63670000Y-41030000D02*
X63670000Y-40890000D01*
X62482059Y-40041471D02*
X61394855Y-41128672D01*
X61210000Y-38430000D02*
X60640000Y-37860000D01*
X68770000Y-49590000D02*
X68210000Y-49030000D01*
X63330588Y-40890000D02*
X62384814Y-41835771D01*
X60290000Y-38010000D02*
X60290000Y-40740000D01*
D25*
X59380000Y-35960000D02*
X58980000Y-35560000D01*
D26*
X61960551Y-41411507D02*
X62906322Y-40465733D01*
X60640000Y-37860000D02*
X60440000Y-37860000D01*
X62906323Y-40126323D02*
X62821471Y-40041471D01*
X60440000Y-37860000D02*
X60290000Y-38010000D01*
X60290000Y-40740000D02*
X59940000Y-41090000D01*
X62384814Y-41835771D02*
G75*
G02*
X62045395Y-41835781I-169714J169671D01*
G01*
X61394855Y-41128672D02*
G75*
G02*
X61055443Y-41128672I-169706J169701D01*
G01*
X61960551Y-41750919D02*
G75*
G02*
X61960538Y-41411494I169749J169719D01*
G01*
X62821471Y-40041471D02*
G75*
G03*
X62482059Y-40041471I-169706J-169701D01*
G01*
X63670000Y-40890000D02*
G75*
G03*
X63330588Y-40890000I-169706J-169701D01*
G01*
X62906322Y-40465733D02*
G75*
G03*
X62906351Y-40126296I-169722J169733D01*
G01*
X60970590Y-41043819D02*
G75*
G02*
X60970577Y-40704394I169710J169719D01*
G01*
X62057793Y-39617205D02*
G75*
G03*
X62057792Y-39277794I-169693J169705D01*
G01*
%TO.N,/fpga/DRAM.DQ0*%
X61536149Y-44799600D02*
X61536149Y-44919600D01*
X58843866Y-42999600D02*
X58843866Y-43119600D01*
X59890000Y-46050000D02*
X60190000Y-46350000D01*
X66210000Y-49060000D02*
X66210000Y-49900000D01*
X58315200Y-41605200D02*
X58720000Y-42010000D01*
X57861200Y-41605200D02*
X58315200Y-41605200D01*
X59688400Y-42010000D02*
X59890000Y-42211600D01*
X59890000Y-42211600D02*
X59890000Y-42519600D01*
X59890000Y-44559600D02*
X60130000Y-44559600D01*
X59890000Y-45519600D02*
X59890000Y-46050000D01*
X60636138Y-43599600D02*
X60636138Y-43719600D01*
X59650000Y-42759600D02*
X59083866Y-42759600D01*
X66831472Y-50054355D02*
X67328073Y-50550956D01*
X66250000Y-49000000D02*
X66260000Y-49010000D01*
X66260000Y-49010000D02*
X66210000Y-49060000D01*
X59650000Y-43359600D02*
X59890000Y-43359600D01*
X57560000Y-37334400D02*
X57560000Y-41296800D01*
X58180000Y-37160000D02*
X57734400Y-37160000D01*
X58483858Y-44559600D02*
X59890000Y-44559600D01*
X60396138Y-43959600D02*
X59890000Y-43959600D01*
X66364355Y-50054355D02*
X66831472Y-50054355D01*
X58720000Y-42010000D02*
X59688400Y-42010000D01*
X59890000Y-43359600D02*
X60396138Y-43359600D01*
X58243858Y-44199600D02*
X58243858Y-44319600D01*
X57556400Y-41300400D02*
X57861200Y-41605200D01*
X61296149Y-45159600D02*
X60130000Y-45159600D01*
X66210000Y-49900000D02*
X66364355Y-50054355D01*
X66250000Y-47370000D02*
X66250000Y-49000000D01*
X59890000Y-45399600D02*
X59890000Y-45519600D01*
X65230000Y-46350000D02*
X66250000Y-47370000D01*
X59083866Y-43359600D02*
X59650000Y-43359600D01*
X60130000Y-44559600D02*
X61296149Y-44559600D01*
X57734400Y-37160000D02*
X57560000Y-37334400D01*
X67328073Y-50550956D02*
X67820600Y-50550956D01*
X60190000Y-46350000D02*
X65230000Y-46350000D01*
X57560000Y-41296800D02*
X57556400Y-41300400D01*
X59890000Y-43959600D02*
X58483858Y-43959600D01*
X58483858Y-43959600D02*
G75*
G03*
X58243900Y-44199600I42J-240000D01*
G01*
X60396138Y-43359600D02*
G75*
G02*
X60636100Y-43599600I-38J-240000D01*
G01*
X58243858Y-44319600D02*
G75*
G03*
X58483858Y-44559642I240042J0D01*
G01*
X61536149Y-44919600D02*
G75*
G02*
X61296149Y-45159549I-239949J0D01*
G01*
X59890000Y-42519600D02*
G75*
G02*
X59650000Y-42759600I-240000J0D01*
G01*
X59083866Y-42759600D02*
G75*
G03*
X58843900Y-42999600I34J-240000D01*
G01*
X61296149Y-44559600D02*
G75*
G02*
X61536200Y-44799600I51J-240000D01*
G01*
X58843866Y-43119600D02*
G75*
G03*
X59083866Y-43359634I240034J0D01*
G01*
X60130000Y-45159600D02*
G75*
G03*
X59890000Y-45399600I0J-240000D01*
G01*
X60636138Y-43719600D02*
G75*
G02*
X60396138Y-43959638I-240038J0D01*
G01*
%TO.N,/fpga/DRAM.DQ4*%
D25*
X58580000Y-35160000D02*
X60050000Y-35160000D01*
D26*
X61073673Y-35844263D02*
X60903967Y-36013969D01*
X60649412Y-35420001D02*
X60988249Y-35081161D01*
X61328231Y-36438231D02*
X61872118Y-35894341D01*
X61632896Y-37830620D02*
X62176758Y-37286757D01*
X61328231Y-36438230D02*
X61328231Y-36438231D01*
X61412513Y-35505426D02*
X61073673Y-35844263D01*
X62211532Y-35894343D02*
X62296384Y-35979195D01*
X64260000Y-39380000D02*
X64260000Y-42660000D01*
X62057099Y-38594355D02*
X62141951Y-38679207D01*
X63279843Y-38389843D02*
X64260000Y-39370000D01*
D25*
X58210000Y-34790000D02*
X58580000Y-35160000D01*
D26*
X60903968Y-36013968D02*
X60360087Y-36557848D01*
X62431316Y-37880727D02*
X62057099Y-38254944D01*
X61752495Y-36862495D02*
X61208632Y-37406357D01*
X69260000Y-50080000D02*
X69770000Y-50590000D01*
X64260000Y-39370000D02*
X64260000Y-39380000D01*
X62176758Y-37286757D02*
X62176758Y-37286758D01*
X60360087Y-36897259D02*
X60444939Y-36982111D01*
X60903967Y-36013969D02*
X60903968Y-36013968D01*
X61752494Y-36862494D02*
X61752495Y-36862495D01*
X63060084Y-36742842D02*
X63144936Y-36827694D01*
X62601022Y-37711022D02*
X62431316Y-37880727D01*
X63144936Y-37167106D02*
X62601021Y-37711022D01*
X63194990Y-38304990D02*
X63279843Y-38389843D01*
X62296384Y-36318607D02*
X61752494Y-36862494D01*
X64260000Y-42660000D02*
X69260000Y-47660000D01*
D25*
X60050000Y-35160000D02*
X60140000Y-35250000D01*
D26*
X60784351Y-36982111D02*
X61328231Y-36438230D01*
X61208632Y-37745768D02*
X61293484Y-37830620D01*
X62601021Y-37711022D02*
X62601022Y-37711022D01*
X69260000Y-47660000D02*
X69260000Y-50080000D01*
X62481363Y-38679207D02*
X62855579Y-38304990D01*
D25*
X58180000Y-34760000D02*
X58210000Y-34790000D01*
D26*
X61327661Y-35081162D02*
X61412513Y-35166014D01*
X60140000Y-35250000D02*
X60310000Y-35420000D01*
X62176758Y-37286758D02*
X62720672Y-36742841D01*
X60310000Y-35420000D02*
G75*
G03*
X60649405Y-35419995I169700J169700D01*
G01*
X60988249Y-35081161D02*
G75*
G02*
X61327706Y-35081116I169751J-169739D01*
G01*
X63144936Y-36827694D02*
G75*
G02*
X63144936Y-37167106I-169736J-169706D01*
G01*
X62855579Y-38304990D02*
G75*
G02*
X63194990Y-38304990I169705J-169707D01*
G01*
X62296384Y-35979195D02*
G75*
G02*
X62296383Y-36318606I-169684J-169705D01*
G01*
X61412513Y-35166014D02*
G75*
G02*
X61412493Y-35505406I-169713J-169686D01*
G01*
X62057099Y-38254944D02*
G75*
G03*
X62057148Y-38594305I169701J-169656D01*
G01*
X61293484Y-37830620D02*
G75*
G03*
X61632896Y-37830620I169706J169704D01*
G01*
X61872118Y-35894341D02*
G75*
G02*
X62211508Y-35894367I169682J-169659D01*
G01*
X62141951Y-38679207D02*
G75*
G03*
X62481363Y-38679207I169706J169704D01*
G01*
X61208632Y-37406357D02*
G75*
G03*
X61208594Y-37745806I169668J-169743D01*
G01*
X60444939Y-36982111D02*
G75*
G03*
X60784351Y-36982111I169706J169704D01*
G01*
X60360087Y-36557848D02*
G75*
G03*
X60360040Y-36897305I169713J-169752D01*
G01*
X62720672Y-36742841D02*
G75*
G02*
X63060106Y-36742819I169728J-169759D01*
G01*
%TO.N,/fpga/DRAM.DQ2*%
X62800000Y-45970000D02*
X65780000Y-45970000D01*
X64452365Y-44840000D02*
X64452365Y-44960000D01*
X61600000Y-42300000D02*
X62580000Y-42300000D01*
X68770000Y-50840000D02*
X68770000Y-51590000D01*
D25*
X58580000Y-38930117D02*
X58561320Y-38911437D01*
D26*
X67250000Y-49850000D02*
X67470000Y-50070000D01*
X67470000Y-50070000D02*
X68000000Y-50070000D01*
X67250000Y-47440000D02*
X67250000Y-49850000D01*
X58970000Y-41580000D02*
X60880000Y-41580000D01*
X62660000Y-45830000D02*
X62800000Y-45970000D01*
X63312389Y-44000000D02*
X62660000Y-44000000D01*
D25*
X58580000Y-41190000D02*
X58580000Y-38930117D01*
D26*
X62900000Y-44600000D02*
X64212365Y-44600000D01*
X62420000Y-43400000D02*
X62660000Y-43400000D01*
X62660000Y-45560000D02*
X62660000Y-45830000D01*
D25*
X58580000Y-38548545D02*
X58580000Y-36760000D01*
D26*
X64212365Y-45200000D02*
X62900000Y-45200000D01*
X63552389Y-43640000D02*
X63552389Y-43760000D01*
D25*
X58580000Y-36760000D02*
X58980000Y-36360000D01*
D26*
X62660000Y-44000000D02*
X62107618Y-44000000D01*
X62580000Y-42300000D02*
X62660000Y-42380000D01*
X68000000Y-50070000D02*
X68770000Y-50840000D01*
X61867618Y-44240000D02*
X61867618Y-44360000D01*
X60880000Y-41580000D02*
X61600000Y-42300000D01*
X62660000Y-45440000D02*
X62660000Y-45560000D01*
X62107618Y-44600000D02*
X62660000Y-44600000D01*
X62420000Y-42800000D02*
X61707622Y-42800000D01*
X61467622Y-43040000D02*
X61467622Y-43160000D01*
X65780000Y-45970000D02*
X67250000Y-47440000D01*
X62660000Y-43400000D02*
X63312389Y-43400000D01*
X61707622Y-43400000D02*
X62420000Y-43400000D01*
X62660000Y-44600000D02*
X62900000Y-44600000D01*
D25*
X58561320Y-38911437D02*
X58561320Y-38567225D01*
D26*
X62660000Y-42380000D02*
X62660000Y-42560000D01*
X58580000Y-41190000D02*
X58970000Y-41580000D01*
D25*
X58561320Y-38567225D02*
X58580000Y-38548545D01*
D26*
X63552389Y-43760000D02*
G75*
G02*
X63312389Y-43999989I-239989J0D01*
G01*
X62107618Y-44000000D02*
G75*
G03*
X61867600Y-44240000I-18J-240000D01*
G01*
X61707622Y-42800000D02*
G75*
G03*
X61467600Y-43040000I-22J-240000D01*
G01*
X62660000Y-42560000D02*
G75*
G02*
X62420000Y-42800000I-240000J0D01*
G01*
X64212365Y-44600000D02*
G75*
G02*
X64452400Y-44840000I35J-240000D01*
G01*
X61467622Y-43160000D02*
G75*
G03*
X61707622Y-43399978I239978J0D01*
G01*
X61867618Y-44360000D02*
G75*
G03*
X62107618Y-44599982I239982J0D01*
G01*
X64452365Y-44960000D02*
G75*
G02*
X64212365Y-45199965I-239965J0D01*
G01*
X63312389Y-43400000D02*
G75*
G02*
X63552400Y-43640000I11J-240000D01*
G01*
X62900000Y-45200000D02*
G75*
G03*
X62660000Y-45440000I0J-240000D01*
G01*
%TO.N,/fpga/DRAM.DQ7*%
X68846848Y-45287195D02*
X69202805Y-45643152D01*
D25*
X60650000Y-34390000D02*
X60650000Y-34360000D01*
D26*
X66720000Y-41390000D02*
X66720000Y-42908152D01*
X66108777Y-40670000D02*
X66108777Y-40790000D01*
X66480000Y-40430000D02*
X66348777Y-40430000D01*
X70300000Y-51350000D02*
X70300000Y-51810000D01*
X64422805Y-37522805D02*
X64632805Y-37522805D01*
X66348777Y-41030000D02*
X66480000Y-41030000D01*
X60980000Y-34690000D02*
X61800000Y-34690000D01*
X71000000Y-51080000D02*
X70570000Y-51080000D01*
X71300000Y-47910000D02*
X71300000Y-50780000D01*
X61800000Y-34690000D02*
X63337195Y-36227195D01*
X69202805Y-45812805D02*
X71300000Y-47910000D01*
X56930000Y-34460000D02*
X57730000Y-34460000D01*
D25*
X60650000Y-34390000D02*
X57830000Y-34390000D01*
D26*
X64632805Y-37522805D02*
X66720000Y-39610000D01*
D25*
X57830000Y-34390000D02*
X57830000Y-34360000D01*
D26*
X66720000Y-43330000D02*
X68677195Y-45287195D01*
X63337195Y-36437195D02*
X64422805Y-37522805D01*
X70570000Y-51080000D02*
X70300000Y-51350000D01*
X60650000Y-34360000D02*
X60980000Y-34690000D01*
X57730000Y-34460000D02*
X57830000Y-34360000D01*
X70300000Y-51810000D02*
X69520000Y-52590000D01*
X66720000Y-39610000D02*
X66720000Y-40190000D01*
X63337195Y-36227195D02*
X63337195Y-36437195D01*
X56630000Y-34760000D02*
X56930000Y-34460000D01*
X66720000Y-42908152D02*
X66720000Y-43330000D01*
X66720000Y-41270000D02*
X66720000Y-41390000D01*
X71300000Y-50780000D02*
X71000000Y-51080000D01*
X69202805Y-45643152D02*
X69202805Y-45812805D01*
X54980000Y-34760000D02*
X56630000Y-34760000D01*
X69520000Y-52590000D02*
X68770000Y-52590000D01*
X68677195Y-45287195D02*
X68846848Y-45287195D01*
X66720000Y-40190000D02*
G75*
G02*
X66480000Y-40430000I-240000J0D01*
G01*
X66348777Y-40430000D02*
G75*
G03*
X66108800Y-40670000I23J-240000D01*
G01*
X66480000Y-41030000D02*
G75*
G02*
X66720000Y-41270000I0J-240000D01*
G01*
X66108777Y-40790000D02*
G75*
G03*
X66348777Y-41030023I240023J0D01*
G01*
%TO.N,/fpga/DRAM.DM0*%
X55870000Y-39870000D02*
X55870000Y-44610000D01*
X62590000Y-50070000D02*
X62970000Y-50070000D01*
X64560000Y-54080000D02*
X64970000Y-54080000D01*
X63250000Y-51690000D02*
X63620000Y-52060000D01*
X64310000Y-52510000D02*
X64310000Y-53830000D01*
X61220000Y-48820000D02*
X61470000Y-49070000D01*
X69404498Y-54921062D02*
X69404498Y-54204498D01*
X65530000Y-56070000D02*
X69000000Y-56070000D01*
X64970000Y-54080000D02*
X65290000Y-54400000D01*
X69000000Y-56070000D02*
X69400000Y-55670000D01*
X62590000Y-50060000D02*
X62590000Y-50070000D01*
X54980000Y-37160000D02*
X55460000Y-37640000D01*
X61470000Y-49070000D02*
X61940000Y-49070000D01*
X63860000Y-52060000D02*
X64310000Y-52510000D01*
X68790000Y-53590000D02*
X68770000Y-53590000D01*
X69400000Y-54925561D02*
X69404498Y-54921062D01*
X62270000Y-49400000D02*
X62270000Y-49740000D01*
X69400000Y-55670000D02*
X69400000Y-54925561D01*
X62270000Y-49740000D02*
X62590000Y-50060000D01*
X55460000Y-39460000D02*
X55870000Y-39870000D01*
X55870000Y-44610000D02*
X59050000Y-47790000D01*
X65290000Y-54400000D02*
X65290000Y-55830000D01*
X65290000Y-55830000D02*
X65530000Y-56070000D01*
X69404498Y-54204498D02*
X68790000Y-53590000D01*
X64310000Y-53830000D02*
X64560000Y-54080000D01*
X61940000Y-49070000D02*
X62270000Y-49400000D01*
X61010000Y-47790000D02*
X61220000Y-48000000D01*
X62970000Y-50070000D02*
X63250000Y-50350000D01*
X59050000Y-47790000D02*
X61010000Y-47790000D01*
X55460000Y-37640000D02*
X55460000Y-39460000D01*
X63620000Y-52060000D02*
X63860000Y-52060000D01*
X63250000Y-50350000D02*
X63250000Y-51690000D01*
X61220000Y-48000000D02*
X61220000Y-48820000D01*
%TO.N,/fpga/DRAM.DQ1*%
X55530000Y-36360000D02*
X55800000Y-36090000D01*
X56320000Y-39250000D02*
X56320000Y-39630000D01*
X63470000Y-49110000D02*
X64010000Y-49110000D01*
X65570000Y-54030000D02*
X66410000Y-54030000D01*
X54980000Y-36360000D02*
X55530000Y-36360000D01*
X64250000Y-49350000D02*
X64250000Y-51870000D01*
X56150000Y-36090000D02*
X56320000Y-36260000D01*
X56320000Y-38999748D02*
X56320000Y-39250000D01*
X67045770Y-54665770D02*
X67821944Y-54665770D01*
X56320000Y-36260000D02*
X56320000Y-36850000D01*
X55800000Y-36090000D02*
X56150000Y-36090000D01*
X55970350Y-37199650D02*
X55970350Y-37450000D01*
X64010000Y-49110000D02*
X64250000Y-49350000D01*
X65090000Y-52150000D02*
X65290000Y-52350000D01*
X65290000Y-52350000D02*
X65290000Y-53750000D01*
X64250000Y-51870000D02*
X64530000Y-52150000D01*
X55970252Y-38399748D02*
X55970252Y-38650000D01*
X64520000Y-48010000D02*
X63520000Y-48010000D01*
X63320000Y-48210000D02*
X63320000Y-48960000D01*
X56320000Y-37799650D02*
X56320000Y-38050000D01*
X64400000Y-47450000D02*
X64640000Y-47690000D01*
X56320000Y-44370000D02*
X58809492Y-46859492D01*
X63520000Y-48010000D02*
X63320000Y-48210000D01*
X64640000Y-47890000D02*
X64520000Y-48010000D01*
X64640000Y-47690000D02*
X64640000Y-47890000D01*
X65290000Y-53750000D02*
X65570000Y-54030000D01*
X56320000Y-39630000D02*
X56320000Y-44370000D01*
X58885070Y-46935070D02*
X59400000Y-47450000D01*
X64530000Y-52150000D02*
X65090000Y-52150000D01*
X59400000Y-47450000D02*
X64400000Y-47450000D01*
X66410000Y-54030000D02*
X67045770Y-54665770D01*
X63320000Y-48960000D02*
X63470000Y-49110000D01*
X58885070Y-46935070D02*
X58809492Y-46859492D01*
X56320000Y-36850000D02*
G75*
G02*
X56145175Y-37024800I-174800J0D01*
G01*
X55970350Y-37450000D02*
G75*
G03*
X56145175Y-37624850I174850J0D01*
G01*
X56320000Y-38050000D02*
G75*
G02*
X56145126Y-38224900I-174900J0D01*
G01*
X56145175Y-37024825D02*
G75*
G03*
X55970425Y-37199650I25J-174775D01*
G01*
X55970252Y-38650000D02*
G75*
G03*
X56145126Y-38824848I174848J0D01*
G01*
X56145126Y-38224874D02*
G75*
G03*
X55970274Y-38399748I-26J-174826D01*
G01*
X56145175Y-37624825D02*
G75*
G02*
X56319975Y-37799650I25J-174775D01*
G01*
X56145126Y-38824874D02*
G75*
G02*
X56319926Y-38999748I-26J-174826D01*
G01*
%TO.N,/fpga/DRAM.DQS_N0*%
D29*
X65290000Y-51800000D02*
X65290000Y-51370000D01*
X57996144Y-42336144D02*
X57310000Y-42336144D01*
X58260000Y-42800000D02*
X58260000Y-42600000D01*
X64983606Y-47086144D02*
X59853606Y-47086144D01*
X65843856Y-52040000D02*
X65530000Y-52040000D01*
X56773856Y-44006394D02*
X56773856Y-43600000D01*
X57690000Y-35280000D02*
X57900000Y-35280000D01*
X57900000Y-35280000D02*
X58180000Y-35560000D01*
X66133856Y-53136394D02*
X66133856Y-52330000D01*
X66133856Y-52330000D02*
X65843856Y-52040000D01*
X56930000Y-35560000D02*
X57410000Y-35560000D01*
X56773856Y-41800000D02*
X56773856Y-41600000D01*
X65133856Y-51213856D02*
X65133856Y-47236394D01*
X68732805Y-54642838D02*
X68410300Y-54642838D01*
X56773856Y-40544627D02*
X56773856Y-35716144D01*
X59853606Y-47086144D02*
X56773856Y-44006394D01*
X65133856Y-47236394D02*
X64983606Y-47086144D01*
X65530000Y-52040000D02*
X65290000Y-51800000D01*
X67993606Y-54226144D02*
X67223606Y-54226144D01*
X56773856Y-35716144D02*
X56930000Y-35560000D01*
X57310000Y-43063856D02*
X57996144Y-43063856D01*
X57410000Y-35560000D02*
X57690000Y-35280000D01*
X56773856Y-41600000D02*
X56773856Y-40544627D01*
X68410300Y-54642838D02*
X67993606Y-54226144D01*
X65290000Y-51370000D02*
X65133856Y-51213856D01*
X67223606Y-54226144D02*
X66133856Y-53136394D01*
X58260000Y-42600000D02*
G75*
G03*
X57996144Y-42336100I-263900J0D01*
G01*
X57310000Y-42336144D02*
G75*
G02*
X56773856Y-41800000I0J536144D01*
G01*
X57996144Y-43063856D02*
G75*
G03*
X58259956Y-42800000I-44J263856D01*
G01*
X56773856Y-43600000D02*
G75*
G02*
X57310000Y-43063856I536144J0D01*
G01*
%TO.N,/fpga/DRAM.DQS_P0*%
X69144749Y-54472205D02*
X68886275Y-54213731D01*
X68366269Y-54156269D02*
X68366269Y-53740125D01*
X67004403Y-52378259D02*
X65406144Y-50780000D01*
X57558731Y-44058731D02*
X57211269Y-44058731D01*
X59966394Y-46813856D02*
X57870000Y-44717462D01*
X57870000Y-44717462D02*
X57870000Y-44370000D01*
X57046144Y-43893606D02*
X57046144Y-43600000D01*
X68423731Y-54213731D02*
X68366269Y-54156269D01*
X58170000Y-36350000D02*
X58180000Y-36360000D01*
X58532288Y-42800000D02*
X58532288Y-42600000D01*
X57046144Y-41800000D02*
X57046144Y-41600000D01*
X65406144Y-47123606D02*
X65096394Y-46813856D01*
X69144749Y-54825251D02*
X69144749Y-54472205D01*
X67464680Y-52882152D02*
X67004403Y-52421874D01*
X57660000Y-36350000D02*
X58170000Y-36350000D01*
X57046144Y-36963856D02*
X57660000Y-36350000D01*
X57211269Y-44058731D02*
X57046144Y-43893606D01*
X65406144Y-50780000D02*
X65406144Y-47123606D01*
X57996144Y-42063856D02*
X57310000Y-42063856D01*
X68380000Y-55590000D02*
X69144749Y-54825251D01*
X57046144Y-37587774D02*
X57046144Y-40544627D01*
X57046144Y-41600000D02*
X57046144Y-40544627D01*
X67821944Y-55590000D02*
X68380000Y-55590000D01*
X67508296Y-52882152D02*
X67464680Y-52882152D01*
X68886275Y-54213731D02*
X68423731Y-54213731D01*
X57870000Y-44370000D02*
X57558731Y-44058731D01*
X57046144Y-37587774D02*
X57046144Y-36963856D01*
X57310000Y-43336144D02*
X57996144Y-43336144D01*
X68366269Y-53740125D02*
X67508296Y-52882152D01*
X65096394Y-46813856D02*
X59966394Y-46813856D01*
X67004403Y-52421874D02*
X67004403Y-52378259D01*
X57046144Y-43600000D02*
G75*
G02*
X57310000Y-43336144I263856J0D01*
G01*
X58532288Y-42600000D02*
G75*
G03*
X57996144Y-42063812I-536188J0D01*
G01*
X57996144Y-43336144D02*
G75*
G03*
X58532244Y-42800000I-44J536144D01*
G01*
X57310000Y-42063856D02*
G75*
G02*
X57046144Y-41800000I0J263856D01*
G01*
%TO.N,/fpga/DRAM.DQ5*%
D26*
X64530000Y-56090000D02*
X65010000Y-56090000D01*
X65010000Y-56090000D02*
X65250000Y-56330000D01*
X60890000Y-49070000D02*
X61280000Y-49460000D01*
X62320000Y-50380000D02*
X62320000Y-51870000D01*
X62890000Y-52060000D02*
X63260000Y-52430000D01*
X53770000Y-42665238D02*
X53770000Y-42785238D01*
X54010000Y-41825238D02*
X53530000Y-41825238D01*
X59990000Y-48120000D02*
X60240000Y-48370000D01*
X53530000Y-41825238D02*
X53436643Y-41825238D01*
X62320000Y-51870000D02*
X62510000Y-52060000D01*
X62050000Y-50110000D02*
X62320000Y-50380000D01*
X54010000Y-41225238D02*
X54103357Y-41225238D01*
X61280000Y-49460000D02*
X61280000Y-49870000D01*
X65250000Y-57070000D02*
X65770000Y-57590000D01*
D25*
X53780000Y-35160000D02*
X54180000Y-34760000D01*
D26*
X65250000Y-56330000D02*
X65250000Y-57070000D01*
X63260000Y-53760000D02*
X63550000Y-54050000D01*
X61520000Y-50110000D02*
X62050000Y-50110000D01*
X54103357Y-41825238D02*
X54010000Y-41825238D01*
X53196643Y-42065238D02*
X53196643Y-42185238D01*
X63260000Y-52430000D02*
X63260000Y-53760000D01*
X53436643Y-42425238D02*
X53530000Y-42425238D01*
X61280000Y-49870000D02*
X61520000Y-50110000D01*
D25*
X53780000Y-40740000D02*
X53780000Y-35160000D01*
D26*
X62510000Y-52060000D02*
X62890000Y-52060000D01*
X63550000Y-54050000D02*
X63940000Y-54050000D01*
X54343357Y-41465238D02*
X54343357Y-41585238D01*
X53770000Y-40750000D02*
X53770000Y-40985238D01*
X53770000Y-43410000D02*
X58480000Y-48120000D01*
X60690000Y-49070000D02*
X60890000Y-49070000D01*
X64250000Y-54360000D02*
X64250000Y-55810000D01*
X60240000Y-48370000D02*
X60240000Y-48620000D01*
X63940000Y-54050000D02*
X64250000Y-54360000D01*
X58480000Y-48120000D02*
X59990000Y-48120000D01*
X64250000Y-55810000D02*
X64530000Y-56090000D01*
X53770000Y-43370000D02*
X53770000Y-43410000D01*
X53780000Y-40740000D02*
X53770000Y-40750000D01*
X53770000Y-42785238D02*
X53770000Y-43370000D01*
X60240000Y-48620000D02*
X60690000Y-49070000D01*
X53196643Y-42185238D02*
G75*
G03*
X53436643Y-42425157I239957J38D01*
G01*
X54103357Y-41225238D02*
G75*
G02*
X54343362Y-41465238I43J-239962D01*
G01*
X54343357Y-41585238D02*
G75*
G02*
X54103357Y-41825157I-239957J38D01*
G01*
X53770000Y-40985238D02*
G75*
G03*
X54010000Y-41225200I240000J38D01*
G01*
X53530000Y-42425238D02*
G75*
G02*
X53769962Y-42665238I0J-239962D01*
G01*
X53436643Y-41825238D02*
G75*
G03*
X53196638Y-42065238I-43J-239962D01*
G01*
%TO.N,/fpga/CT.D2*%
D28*
X92080000Y-52400000D02*
X91280000Y-53200000D01*
X92370000Y-52400000D02*
X92080000Y-52400000D01*
X91280000Y-56690000D02*
X88080000Y-59890000D01*
X82040000Y-59890000D02*
X81710000Y-59560000D01*
X81710000Y-59560000D02*
X81430000Y-59560000D01*
X81430000Y-59560000D02*
X81170000Y-59300000D01*
X88080000Y-59890000D02*
X82040000Y-59890000D01*
X91280000Y-53200000D02*
X91280000Y-56690000D01*
%TO.N,/fpga/CT.D0*%
X82540000Y-59390000D02*
X85970000Y-59390000D01*
X74770000Y-59590000D02*
X75250000Y-59110000D01*
X75250000Y-59110000D02*
X79670000Y-59110000D01*
X90280000Y-55080000D02*
X90280000Y-51220000D01*
X90280000Y-51220000D02*
X91720000Y-49780000D01*
X80150000Y-58630000D02*
X81780000Y-58630000D01*
X91720000Y-49780000D02*
X92390000Y-49780000D01*
X85970000Y-59390000D02*
X90280000Y-55080000D01*
X81780000Y-58630000D02*
X82540000Y-59390000D01*
X79670000Y-59110000D02*
X80150000Y-58630000D01*
%TO.N,/fpga/CT.D1*%
X91660000Y-57630000D02*
X91660000Y-57050000D01*
X91660000Y-57050000D02*
X92730000Y-55980000D01*
X82940000Y-60930000D02*
X88360000Y-60930000D01*
X78770000Y-59590000D02*
X80520000Y-59590000D01*
X93060000Y-52720000D02*
X93060000Y-50210000D01*
X80950000Y-60020000D02*
X81280000Y-60020000D01*
X80520000Y-59590000D02*
X80950000Y-60020000D01*
X82460000Y-60450000D02*
X82940000Y-60930000D01*
X93060000Y-50210000D02*
X93470000Y-49800000D01*
X81280000Y-60020000D02*
X81710000Y-60450000D01*
X92730000Y-55980000D02*
X92730000Y-53050000D01*
X81710000Y-60450000D02*
X82460000Y-60450000D01*
X93470000Y-49800000D02*
X93830000Y-49800000D01*
X92730000Y-53050000D02*
X93060000Y-52720000D01*
X88360000Y-60930000D02*
X91660000Y-57630000D01*
%TO.N,/fpga/CT.BR_N*%
X45170000Y-33340000D02*
X47600000Y-35770000D01*
X50320000Y-58820000D02*
X51000000Y-59500000D01*
X47600000Y-35770000D02*
X47600000Y-48650000D01*
X50320000Y-58600000D02*
X50320000Y-58820000D01*
X47600000Y-48650000D02*
X50320000Y-51370000D01*
X61230000Y-59050000D02*
X57330000Y-59050000D01*
X62770000Y-60590000D02*
X61230000Y-59050000D01*
X41890000Y-33340000D02*
X45170000Y-33340000D01*
X50320000Y-51370000D02*
X50320000Y-58600000D01*
X57330000Y-59050000D02*
X56880000Y-59500000D01*
X56880000Y-59500000D02*
X51000000Y-59500000D01*
%TO.N,/fpga/CT.TEA_N*%
X61530000Y-72870000D02*
X61130000Y-73270000D01*
X45680000Y-65280000D02*
X45680000Y-64365567D01*
X43430000Y-43710000D02*
X43430000Y-43549381D01*
X43430000Y-43549381D02*
X43463879Y-43515502D01*
X45680000Y-63194433D02*
X45680000Y-53530000D01*
X45271800Y-63602633D02*
X45680000Y-63194433D01*
X53670000Y-73270000D02*
X45680000Y-65280000D01*
X61130000Y-73270000D02*
X53670000Y-73270000D01*
X45271800Y-63957367D02*
X45271800Y-63602633D01*
X43530000Y-43810000D02*
X43430000Y-43710000D01*
X43530000Y-51380000D02*
X43530000Y-43810000D01*
X45680000Y-64365567D02*
X45271800Y-63957367D01*
X45680000Y-53530000D02*
X43530000Y-51380000D01*
%TO.N,/fpga/CLK1*%
X72770000Y-60590000D02*
X73250000Y-60110000D01*
X73250000Y-60110000D02*
X79120000Y-60110000D01*
X79120000Y-60110000D02*
X79600000Y-60590000D01*
%TO.N,/fpga/CT.BG_N*%
X61240000Y-61030000D02*
X61800000Y-61590000D01*
X60910000Y-60020000D02*
X61240000Y-60350000D01*
X47080000Y-48990000D02*
X49720000Y-51630000D01*
X50350000Y-60020000D02*
X60910000Y-60020000D01*
X49720000Y-59390000D02*
X50350000Y-60020000D01*
X61240000Y-60350000D02*
X61240000Y-61030000D01*
X61800000Y-61590000D02*
X62770000Y-61590000D01*
X47080000Y-36360000D02*
X47080000Y-48990000D01*
X49720000Y-51630000D02*
X49720000Y-59320000D01*
X45310000Y-34590000D02*
X47080000Y-36360000D01*
X49720000Y-59320000D02*
X49720000Y-59390000D01*
X40820000Y-34590000D02*
X45310000Y-34590000D01*
%TO.N,/fpga/CT.DTKCMB_N*%
X62470000Y-74280000D02*
X62000000Y-74750000D01*
X60530000Y-74220000D02*
X53050000Y-74220000D01*
X62000000Y-74750000D02*
X61060000Y-74750000D01*
X61060000Y-74750000D02*
X60530000Y-74220000D01*
X39740000Y-44740000D02*
X39230000Y-44740000D01*
X41300000Y-46300000D02*
X39740000Y-44740000D01*
X41290000Y-51130000D02*
X41290000Y-46310000D01*
X44520000Y-54360000D02*
X41290000Y-51130000D01*
X44520000Y-65690000D02*
X44520000Y-54360000D01*
X53050000Y-74220000D02*
X44520000Y-65690000D01*
X41290000Y-46310000D02*
X41300000Y-46300000D01*
%TO.N,/fpga/CT.A1*%
X59750000Y-87860000D02*
X40740000Y-87860000D01*
X69110000Y-74660000D02*
X69110000Y-78500000D01*
X68290000Y-62160000D02*
X68290000Y-73840000D01*
X68290000Y-73840000D02*
X69110000Y-74660000D01*
X69110000Y-78500000D02*
X59750000Y-87860000D01*
X68250000Y-62120000D02*
X68290000Y-62160000D01*
%TO.N,/fpga/CT.D5*%
X82980000Y-62100000D02*
X85650000Y-62100000D01*
X86710000Y-61870000D02*
X86780000Y-61940000D01*
X72670000Y-61670000D02*
X73260000Y-61670000D01*
X89310000Y-61940000D02*
X93050000Y-58200000D01*
X93050000Y-58200000D02*
X94020000Y-58200000D01*
X85880000Y-61870000D02*
X86710000Y-61870000D01*
X94320000Y-56990000D02*
X93810000Y-56480000D01*
X86780000Y-61940000D02*
X89310000Y-61940000D01*
X94320000Y-57900000D02*
X94320000Y-56990000D01*
X73690000Y-62100000D02*
X82980000Y-62100000D01*
X85650000Y-62100000D02*
X85880000Y-61870000D01*
X73260000Y-61670000D02*
X73690000Y-62100000D01*
X93810000Y-56480000D02*
X93810000Y-54880000D01*
X94020000Y-58200000D02*
X94320000Y-57900000D01*
%TO.N,/fpga/CT.D3*%
X93240000Y-57070000D02*
X88830000Y-61480000D01*
X93830000Y-52350000D02*
X93240000Y-52940000D01*
X81940000Y-61110000D02*
X74300000Y-61110000D01*
X82310000Y-61480000D02*
X81940000Y-61110000D01*
X88830000Y-61480000D02*
X82310000Y-61480000D01*
X93240000Y-52940000D02*
X93240000Y-57070000D01*
%TO.N,/fpga/CT.BB_N*%
X45970000Y-47830000D02*
X46150000Y-48010000D01*
X48370000Y-60240000D02*
X51170000Y-63040000D01*
X40850000Y-37160000D02*
X44020000Y-37160000D01*
X46150000Y-50140000D02*
X48370000Y-52360000D01*
X48370000Y-59850000D02*
X48370000Y-60240000D01*
X44020000Y-37160000D02*
X45970000Y-39110000D01*
X61320000Y-63040000D02*
X52880000Y-63040000D01*
X51170000Y-63040000D02*
X52880000Y-63040000D01*
X48370000Y-52360000D02*
X48370000Y-59850000D01*
X61770000Y-62590000D02*
X61320000Y-63040000D01*
X46150000Y-48010000D02*
X46150000Y-50140000D01*
X45970000Y-39110000D02*
X45970000Y-47830000D01*
%TO.N,/fpga/CT.TS_N*%
X62250000Y-62070000D02*
X53000000Y-62070000D01*
X45140000Y-35360000D02*
X46540000Y-36760000D01*
X49100000Y-51820000D02*
X49100000Y-59610000D01*
X49100000Y-59810000D02*
X51360000Y-62070000D01*
X46540000Y-49260000D02*
X49100000Y-51820000D01*
X46540000Y-36760000D02*
X46540000Y-49260000D01*
X39210000Y-34600000D02*
X39970000Y-35360000D01*
X49100000Y-59610000D02*
X49100000Y-59810000D01*
X39970000Y-35360000D02*
X45140000Y-35360000D01*
X62770000Y-62590000D02*
X62250000Y-62070000D01*
X51360000Y-62070000D02*
X53000000Y-62070000D01*
%TO.N,/fpga/CT.RW*%
X51460000Y-64090000D02*
X61430000Y-64090000D01*
X63300000Y-63060000D02*
X63770000Y-62590000D01*
X47800000Y-60430000D02*
X51460000Y-64090000D01*
X45760000Y-50710000D02*
X47800000Y-52750000D01*
X47800000Y-52750000D02*
X47800000Y-60430000D01*
X45760000Y-48170000D02*
X45760000Y-50710000D01*
X45430000Y-40550000D02*
X45430000Y-47840000D01*
X43700000Y-38820000D02*
X45430000Y-40550000D01*
X40060000Y-38820000D02*
X43700000Y-38820000D01*
X61430000Y-64090000D02*
X62460000Y-63060000D01*
X62460000Y-63060000D02*
X63300000Y-63060000D01*
X38990000Y-37750000D02*
X40060000Y-38820000D01*
X45430000Y-47840000D02*
X45760000Y-48170000D01*
%TO.N,/fpga/CT.SIZ1*%
X65756619Y-62576619D02*
X65310000Y-63023238D01*
X65310000Y-63810000D02*
X65040000Y-64080000D01*
X44770000Y-50700000D02*
X44770000Y-40570000D01*
X61120000Y-70680000D02*
X60850000Y-70950000D01*
X46990000Y-64820000D02*
X46990000Y-52920000D01*
X46990000Y-52920000D02*
X44770000Y-50700000D01*
X63140000Y-64470000D02*
X63140000Y-64800000D01*
X63140000Y-64800000D02*
X62820000Y-65120000D01*
X53120000Y-70950000D02*
X60850000Y-70950000D01*
X65040000Y-64080000D02*
X63530000Y-64080000D01*
X53120000Y-70950000D02*
X46990000Y-64820000D01*
X63530000Y-64080000D02*
X63140000Y-64470000D01*
X65310000Y-63023238D02*
X65310000Y-63810000D01*
X61470000Y-70680000D02*
X61120000Y-70680000D01*
X62620000Y-65120000D02*
X62260000Y-65480000D01*
X44770000Y-40570000D02*
X43870000Y-39670000D01*
X62260000Y-69890000D02*
X61470000Y-70680000D01*
X62820000Y-65120000D02*
X62620000Y-65120000D01*
X43870000Y-39670000D02*
X40810000Y-39670000D01*
X62260000Y-65480000D02*
X62260000Y-69890000D01*
%TO.N,/fpga/CT.A3*%
X67270000Y-63090000D02*
X67270000Y-73890000D01*
X67270000Y-73890000D02*
X68650000Y-75270000D01*
X67770000Y-62590000D02*
X67270000Y-63090000D01*
X68650000Y-75270000D02*
X68650000Y-77250000D01*
X68650000Y-77250000D02*
X60700000Y-85200000D01*
X60700000Y-85200000D02*
X40720000Y-85200000D01*
X40720000Y-85200000D02*
X40560000Y-85360000D01*
%TO.N,/fpga/ETH.D3*%
X69320000Y-70890000D02*
X77170000Y-78740000D01*
X76340000Y-93030000D02*
X76180000Y-93030000D01*
X77170000Y-78740000D02*
X77170000Y-87420000D01*
X75820000Y-90360000D02*
X76850000Y-91390000D01*
X76850000Y-91390000D02*
X76850000Y-92520000D01*
X76850000Y-92520000D02*
X76340000Y-93030000D01*
X75820000Y-88770000D02*
X75820000Y-90360000D01*
X68790000Y-64050000D02*
X69320000Y-64580000D01*
X77170000Y-87420000D02*
X75820000Y-88770000D01*
X68790000Y-62610000D02*
X68790000Y-64050000D01*
X69320000Y-64580000D02*
X69320000Y-70890000D01*
X68770000Y-62590000D02*
X68790000Y-62610000D01*
%TO.N,/fpga/CT.D15*%
X72770000Y-62590000D02*
X73210000Y-63030000D01*
X73210000Y-63030000D02*
X82170000Y-63030000D01*
X82170000Y-63030000D02*
X82380000Y-63240000D01*
%TO.N,/fpga/CT.D8*%
X84320000Y-62510000D02*
X89840000Y-62510000D01*
X92151800Y-60198200D02*
X92151800Y-60010000D01*
X89840000Y-62510000D02*
X92151800Y-60198200D01*
X78770000Y-62590000D02*
X84240000Y-62590000D01*
X84240000Y-62590000D02*
X84320000Y-62510000D01*
%TO.N,/fpga/ETH.D2*%
X78000000Y-77860000D02*
X78000000Y-87380000D01*
X76810000Y-90570000D02*
X77390000Y-90570000D01*
X76310000Y-90070000D02*
X76810000Y-90570000D01*
X77850000Y-91030000D02*
X77850000Y-92130000D01*
X77850000Y-92130000D02*
X76450000Y-93530000D01*
X77390000Y-90570000D02*
X77850000Y-91030000D01*
X69180000Y-63580000D02*
X69700000Y-64100000D01*
X70300000Y-70160000D02*
X78000000Y-77860000D01*
X76450000Y-93530000D02*
X75720000Y-93530000D01*
X76310000Y-89070000D02*
X76310000Y-90070000D01*
X70140000Y-64100000D02*
X70300000Y-64260000D01*
X69700000Y-64100000D02*
X70140000Y-64100000D01*
X70300000Y-64260000D02*
X70300000Y-70160000D01*
X78000000Y-87380000D02*
X76310000Y-89070000D01*
%TO.N,/fpga/CT.TA_N*%
X41910000Y-48350000D02*
X41910000Y-46020000D01*
X62040000Y-74040000D02*
X62770000Y-73310000D01*
X43150000Y-49590000D02*
X41910000Y-48350000D01*
X63240000Y-71730000D02*
X63240000Y-65120000D01*
X62770000Y-73310000D02*
X62770000Y-72200000D01*
X53390000Y-73730000D02*
X60950000Y-73730000D01*
X62770000Y-72200000D02*
X63240000Y-71730000D01*
X44170000Y-53020000D02*
X44980000Y-53830000D01*
X63240000Y-65120000D02*
X63770000Y-64590000D01*
X44980000Y-65320000D02*
X53390000Y-73730000D01*
X41910000Y-46020000D02*
X39210000Y-43320000D01*
X60950000Y-73730000D02*
X61260000Y-74040000D01*
X44170000Y-53020000D02*
X43150000Y-52000000D01*
X44980000Y-53830000D02*
X44980000Y-65320000D01*
X43150000Y-52000000D02*
X43150000Y-49590000D01*
X61260000Y-74040000D02*
X62040000Y-74040000D01*
%TO.N,/fpga/CT.A29*%
X62970000Y-75390000D02*
X60730000Y-75390000D01*
X44060000Y-70060000D02*
X42980000Y-68980000D01*
X42980000Y-68980000D02*
X42980000Y-54750000D01*
X63890000Y-70890000D02*
X63890000Y-74470000D01*
X42980000Y-54750000D02*
X40740000Y-52510000D01*
X44100000Y-70020000D02*
X44060000Y-70060000D01*
X52800000Y-74700000D02*
X48120000Y-70020000D01*
X60040000Y-74700000D02*
X52800000Y-74700000D01*
X63890000Y-74470000D02*
X62970000Y-75390000D01*
X40740000Y-52510000D02*
X40740000Y-52370000D01*
X64240000Y-65120000D02*
X64240000Y-70540000D01*
X60730000Y-75390000D02*
X60040000Y-74700000D01*
X64770000Y-64590000D02*
X64240000Y-65120000D01*
X48120000Y-70020000D02*
X44100000Y-70020000D01*
X64240000Y-70540000D02*
X63890000Y-70890000D01*
%TO.N,/fpga/CT.A11*%
X66770000Y-64590000D02*
X66310000Y-65050000D01*
X65840000Y-74980000D02*
X60790000Y-80030000D01*
X52000000Y-80030000D02*
X48490000Y-76520000D01*
X65840000Y-70700000D02*
X65840000Y-74980000D01*
X66310000Y-70230000D02*
X65840000Y-70700000D01*
X41880000Y-76520000D02*
X40630000Y-75270000D01*
X66310000Y-65050000D02*
X66310000Y-70230000D01*
X60790000Y-80030000D02*
X52000000Y-80030000D01*
X48490000Y-76520000D02*
X41880000Y-76520000D01*
%TO.N,/fpga/CT.A0*%
X39380000Y-87950000D02*
X39380000Y-87840000D01*
%TO.N,/fpga/CT.D19*%
X93620000Y-72640000D02*
X93620000Y-72710000D01*
X85740000Y-65540000D02*
X86300000Y-64980000D01*
X87830000Y-64980000D02*
X88470000Y-65620000D01*
X95490000Y-67400000D02*
X95490000Y-70770000D01*
X88470000Y-65620000D02*
X93710000Y-65620000D01*
X82290000Y-65540000D02*
X85740000Y-65540000D01*
X86300000Y-64980000D02*
X87830000Y-64980000D01*
X93710000Y-65620000D02*
X95490000Y-67400000D01*
X81800000Y-65050000D02*
X82290000Y-65540000D01*
X95490000Y-70770000D02*
X93620000Y-72640000D01*
%TO.N,/fpga/CT.D17*%
X94950000Y-69640000D02*
X94430000Y-70160000D01*
X86460000Y-65460000D02*
X87540000Y-65460000D01*
X94950000Y-67750000D02*
X94950000Y-69640000D01*
X82100000Y-65990000D02*
X85930000Y-65990000D01*
X94430000Y-70160000D02*
X93760000Y-70160000D01*
X81180000Y-65070000D02*
X82100000Y-65990000D01*
X85930000Y-65990000D02*
X86460000Y-65460000D01*
X93390000Y-66190000D02*
X94950000Y-67750000D01*
X88270000Y-66190000D02*
X93390000Y-66190000D01*
X87540000Y-65460000D02*
X88270000Y-66190000D01*
%TO.N,/fpga/CT.A12*%
X43100000Y-75620000D02*
X48490000Y-75620000D01*
X60670000Y-79360000D02*
X64920000Y-75110000D01*
X39300000Y-72950000D02*
X40830000Y-74480000D01*
X52230000Y-79360000D02*
X60670000Y-79360000D01*
X41960000Y-74480000D02*
X43100000Y-75620000D01*
X64920000Y-75110000D02*
X64920000Y-71010000D01*
X65260000Y-66100000D02*
X65770000Y-65590000D01*
X64920000Y-71010000D02*
X65260000Y-70670000D01*
X40830000Y-74480000D02*
X41960000Y-74480000D01*
X48490000Y-75620000D02*
X52230000Y-79360000D01*
X65260000Y-70670000D02*
X65260000Y-66100000D01*
X39300000Y-72600000D02*
X39300000Y-72950000D01*
%TO.N,/fpga/CT.D16*%
X87920000Y-66730000D02*
X90650000Y-66730000D01*
X87220000Y-66030000D02*
X87920000Y-66730000D01*
X92720000Y-70430000D02*
X92660000Y-70430000D01*
X86630000Y-66030000D02*
X87220000Y-66030000D01*
X86000000Y-66480000D02*
X86140000Y-66340000D01*
X92850000Y-67770000D02*
X93160000Y-68080000D01*
X93160000Y-68080000D02*
X93160000Y-69990000D01*
X80450000Y-65090000D02*
X81840000Y-66480000D01*
X93160000Y-69990000D02*
X92720000Y-70430000D01*
X81840000Y-66480000D02*
X86000000Y-66480000D01*
X90650000Y-66730000D02*
X91690000Y-67770000D01*
X91690000Y-67770000D02*
X92850000Y-67770000D01*
X86320000Y-66340000D02*
X86630000Y-66030000D01*
X86140000Y-66340000D02*
X86320000Y-66340000D01*
%TO.N,/fpga/CT.D23*%
X83110000Y-67060000D02*
X83110000Y-67710000D01*
X90340000Y-76970000D02*
X90988200Y-76321800D01*
X83110000Y-67710000D02*
X84290000Y-68890000D01*
X85770000Y-68890000D02*
X86730000Y-69850000D01*
X92230000Y-76350000D02*
X93530000Y-77650000D01*
X91485567Y-76350000D02*
X92230000Y-76350000D01*
X91457367Y-76321800D02*
X91485567Y-76350000D01*
X90988200Y-76321800D02*
X91457367Y-76321800D01*
X89600000Y-76970000D02*
X90340000Y-76970000D01*
X86730000Y-74100000D02*
X89600000Y-76970000D01*
X84290000Y-68890000D02*
X85770000Y-68890000D01*
X93530000Y-77650000D02*
X93530000Y-77810000D01*
X86730000Y-69850000D02*
X86730000Y-74100000D01*
%TO.N,/fpga/CT.D22*%
X82560000Y-67820000D02*
X84175000Y-69435000D01*
X89670000Y-77880000D02*
X92290000Y-77880000D01*
X85400000Y-69710000D02*
X85400000Y-73610000D01*
X92325600Y-77844400D02*
X92325600Y-77810000D01*
X85400000Y-73610000D02*
X89670000Y-77880000D01*
X92290000Y-77880000D02*
X92325600Y-77844400D01*
X82560000Y-67540000D02*
X82560000Y-67820000D01*
X85125000Y-69435000D02*
X85400000Y-69710000D01*
X84175000Y-69435000D02*
X85125000Y-69435000D01*
%TO.N,/fpga/CT.A4*%
X50100000Y-82200000D02*
X61510000Y-82200000D01*
X49560000Y-81660000D02*
X50100000Y-82200000D01*
X40510000Y-81660000D02*
X49560000Y-81660000D01*
X61510000Y-82200000D02*
X67200000Y-76510000D01*
X39310000Y-82860000D02*
X40510000Y-81660000D01*
X67200000Y-75480000D02*
X67200000Y-76510000D01*
%TO.N,/fpga/CT.D25*%
X92770000Y-79140000D02*
X93570000Y-79940000D01*
X86640000Y-75740000D02*
X90040000Y-79140000D01*
X93570000Y-79940000D02*
X93570000Y-80270000D01*
X82020000Y-68070000D02*
X82310000Y-68360000D01*
X82310000Y-72240000D02*
X85810000Y-75740000D01*
X85810000Y-75740000D02*
X86640000Y-75740000D01*
X82310000Y-68360000D02*
X82310000Y-72240000D01*
X90040000Y-79140000D02*
X92770000Y-79140000D01*
%TO.N,/fpga/CT.D24*%
X81660000Y-68840000D02*
X81780000Y-68960000D01*
X81480000Y-68670000D02*
X81650000Y-68840000D01*
X89310000Y-80320000D02*
X92280000Y-80320000D01*
X81650000Y-68840000D02*
X81660000Y-68840000D01*
X81780000Y-72790000D02*
X89310000Y-80320000D01*
X81780000Y-68960000D02*
X81780000Y-72790000D01*
%TO.N,Net-(USBC2-TX2+)*%
X53060000Y-104670000D02*
X52600000Y-104210000D01*
X53060000Y-107340000D02*
X53060000Y-104670000D01*
%TO.N,/Ethernet/LED2*%
X94550000Y-97810000D02*
X91260000Y-94520000D01*
X84107694Y-95352306D02*
X84107694Y-95911975D01*
X92920000Y-101470000D02*
X94550000Y-99840000D01*
X94550000Y-99840000D02*
X94550000Y-97810000D01*
X92920000Y-108730000D02*
X92920000Y-101470000D01*
X91260000Y-94520000D02*
X84940000Y-94520000D01*
X84940000Y-94520000D02*
X84107694Y-95352306D01*
%TO.N,/Ethernet/LED1*%
X84590000Y-96070000D02*
X84590000Y-95440000D01*
X90830000Y-94890000D02*
X94110000Y-98170000D01*
X84109933Y-96488973D02*
X84171027Y-96488973D01*
X92590000Y-109580000D02*
X93160000Y-109580000D01*
X84171027Y-96488973D02*
X84590000Y-96070000D01*
X84590000Y-95440000D02*
X85140000Y-94890000D01*
X85140000Y-94890000D02*
X90830000Y-94890000D01*
X94110000Y-99530000D02*
X92410000Y-101230000D01*
X94110000Y-98170000D02*
X94110000Y-99530000D01*
X92410000Y-101230000D02*
X92410000Y-109400000D01*
X92410000Y-109400000D02*
X92590000Y-109580000D01*
X93160000Y-109580000D02*
X93420000Y-109320000D01*
%TO.N,+3V3A_ETH*%
D27*
X93530000Y-98900000D02*
X93560000Y-98930000D01*
%TO.N,/Ethernet/TPI_N*%
D28*
X85910000Y-96590000D02*
X85950000Y-96630000D01*
X80280000Y-99410000D02*
X83665526Y-99410000D01*
X83665526Y-99410000D02*
X84972400Y-98103126D01*
X85525526Y-96590000D02*
X85910000Y-96590000D01*
X84972400Y-97143126D02*
X85525526Y-96590000D01*
X84972400Y-98103126D02*
X84972400Y-97143126D01*
X85950000Y-96630000D02*
X86080000Y-96630000D01*
%TO.N,/Ethernet/TPI_P*%
X83539274Y-99105200D02*
X80755200Y-99105200D01*
X84667600Y-97976874D02*
X83539274Y-99105200D01*
X80755200Y-99105200D02*
X80550000Y-98900000D01*
X85950000Y-95610000D02*
X85950000Y-95734474D01*
X85950000Y-95734474D02*
X85788430Y-95896044D01*
X84734273Y-96950201D02*
X84667600Y-97016874D01*
X85024753Y-96659718D02*
X84939901Y-96744572D01*
X85093031Y-95879468D02*
X85008178Y-95964320D01*
X84939901Y-96744572D02*
X84734273Y-96950201D01*
X85449018Y-95896044D02*
X85432442Y-95879468D01*
X84667600Y-97016874D02*
X84667600Y-97976874D01*
X85008178Y-96303732D02*
X85024753Y-96320307D01*
X85008178Y-95964320D02*
G75*
G03*
X85008204Y-96303706I169722J-169680D01*
G01*
X85024753Y-96320307D02*
G75*
G02*
X85024741Y-96659706I-169753J-169693D01*
G01*
X85788430Y-95896044D02*
G75*
G02*
X85449018Y-95896044I-169706J169704D01*
G01*
X85432442Y-95879468D02*
G75*
G03*
X85093032Y-95879468I-169705J-169703D01*
G01*
%TO.N,Net-(L3-RCT)*%
X87670000Y-103300000D02*
X87670000Y-96800000D01*
X87250000Y-104560000D02*
X87670000Y-104140000D01*
X88090000Y-96380000D02*
X88920000Y-96380000D01*
X88600000Y-102990000D02*
X88940000Y-102650000D01*
X87670000Y-96800000D02*
X88090000Y-96380000D01*
X87670000Y-103300000D02*
X87980000Y-102990000D01*
X87980000Y-102990000D02*
X88600000Y-102990000D01*
X79790000Y-102710000D02*
X81640000Y-104560000D01*
X77030000Y-102710000D02*
X79790000Y-102710000D01*
X81640000Y-104560000D02*
X87250000Y-104560000D01*
X87670000Y-104140000D02*
X87670000Y-103300000D01*
%TD*%
M02*
