M48
; DRILL file KiCad 10.0.6 date 2026-09-27T22:10:23
; FORMAT={-:-/ absolute / inch / decimal}
; #@! TF.CreationDate,2026-09-27T22:10:23+02:00
; #@! TF.GenerationSoftware,Kicad,Pcbnew,10.0.6
; #@! TF.FileFunction,Plated,1,10,PTH
FMAT,2
INCH
; #@! TA.AperFunction,Plated,PTH,ViaDrill
T1C0.0098
; #@! TA.AperFunction,Plated,PTH,ViaDrill
T2C0.0118
; Post-machining
; #@! TA.AperFunction,Plated,PTH,ComponentDrill
T3C0.0236
; #@! TA.AperFunction,Plated,PTH,ComponentDrill
T4C0.0236
; #@! TA.AperFunction,Plated,PTH,ComponentDrill
T5C0.0276
; #@! TA.AperFunction,Plated,PTH,ComponentDrill
T6C0.0315
; #@! TA.AperFunction,Plated,PTH,ComponentDrill
T7C0.0394
; #@! TA.AperFunction,Plated,PTH,ComponentDrill
T8C0.0906
%
G90
G05
T1
X1.4177Y-4.0661
X1.4276Y-4.2461
X1.4398Y-4.1602
X1.4465Y-4.2606
X1.4791Y-4.2437
X1.4953Y-4.2579
X1.5969Y-4.0567
X1.5976Y-4.1437
X1.6189Y-4.1358
X1.6776Y-3.9217
X1.6776Y-3.9449
X1.724Y-3.811
X1.728Y-4.1894
X2.0138Y-1.7717
X2.0272Y-2.026
X2.028Y-1.887
X2.0339Y-4.1063
X2.0512Y-2.2535
X2.0613Y-2.1116
X2.0657Y-4.2264
X2.0665Y-1.3646
X2.0704Y-1.3109
X2.0709Y-4.1028
X2.089Y-4.226
X2.1016Y-1.1181
X2.1016Y-1.1496
X2.1016Y-1.1811
X2.1016Y-1.2126
X2.1016Y-1.2441
X2.1016Y-1.3071
X2.1016Y-1.3701
X2.1016Y-1.4016
X2.1016Y-1.4331
X2.1016Y-1.4646
X2.1016Y-1.4961
X2.1016Y-1.5276
X2.1016Y-1.5591
X2.1016Y-1.5906
X2.1327Y-1.3697
X2.1331Y-1.1181
X2.1331Y-1.1496
X2.1331Y-1.1811
X2.1331Y-1.2126
X2.1331Y-1.2441
X2.1331Y-1.2756
X2.1331Y-1.3071
X2.1331Y-1.3386
X2.1331Y-1.4016
X2.1331Y-1.4315
X2.1331Y-1.4646
X2.1331Y-1.4961
X2.1331Y-1.526
X2.1331Y-1.5575
X2.1331Y-1.5906
X2.1362Y-2.2902
X2.1366Y-2.1472
X2.137Y-2.085
X2.137Y-2.2299
X2.1646Y-1.1181
X2.1646Y-1.1496
X2.1646Y-1.1811
X2.1646Y-1.2126
X2.1646Y-1.2756
X2.1646Y-1.3071
X2.1646Y-1.3386
X2.1646Y-1.3697
X2.1646Y-1.4016
X2.1646Y-1.4315
X2.1646Y-1.463
X2.1646Y-1.4945
X2.1646Y-1.526
X2.1646Y-1.5575
X2.1646Y-1.589
X2.1724Y-2.0177
X2.1752Y-1.9571
X2.1992Y-2.2909
X2.2Y-2.2039
X2.202Y-2.0898
X2.2094Y-2.0181
X2.2142Y-1.9563
X2.228Y-1.9886
X2.261Y-2.098
X2.2724Y-2.2665
X2.274Y-2.3067
X2.2744Y-1.9946
X2.2744Y-2.0311
X2.2744Y-2.1886
X2.2906Y-1.1181
X2.2906Y-1.1496
X2.2906Y-1.1811
X2.2906Y-1.2126
X2.2906Y-1.2441
X2.2906Y-1.2756
X2.2906Y-1.3071
X2.2906Y-1.3382
X2.2906Y-1.4016
X2.2906Y-1.4315
X2.2906Y-1.463
X2.2906Y-1.4945
X2.2906Y-1.526
X2.2906Y-1.5575
X2.2906Y-1.589
X2.2909Y-1.3701
X2.3138Y-1.913
X2.3138Y-1.9946
X2.3138Y-2.0311
X2.3138Y-2.1886
X2.3138Y-2.2673
X2.3138Y-2.7398
X2.3219Y-1.5252
X2.322Y-1.37
X2.322Y-1.4947
X2.322Y-1.1496
X2.322Y-1.1811
X2.322Y-1.2126
X2.322Y-1.2441
X2.322Y-1.2756
X2.322Y-1.3071
X2.322Y-1.3386
X2.322Y-1.4016
X2.322Y-1.4315
X2.322Y-1.463
X2.322Y-1.5585
X2.322Y-1.5908
X2.3339Y-1.9268
X2.3531Y-1.913
X2.3531Y-2.0705
X2.3531Y-2.1886
X2.3531Y-2.5823
X2.3535Y-1.1181
X2.3535Y-1.1496
X2.3535Y-1.1811
X2.3535Y-1.2126
X2.3535Y-1.2441
X2.3535Y-1.3071
X2.3535Y-1.3701
X2.3535Y-1.4315
X2.3535Y-1.463
X2.3535Y-1.5585
X2.3535Y-1.5908
X2.354Y-1.402
X2.354Y-1.4947
X2.354Y-1.5266
X2.3693Y-2.0925
X2.3736Y-1.4154
X2.387Y-1.2429
X2.3888Y-1.6892
X2.3925Y-2.0705
X2.3925Y-2.1886
X2.3925Y-2.4642
X2.3929Y-2.1512
X2.4016Y-2.563
X2.402Y-1.734
X2.4039Y-1.0748
X2.408Y-2.0882
X2.4141Y-2.0111
X2.4197Y-1.3054
X2.4298Y-2.1096
X2.4319Y-1.9524
X2.4319Y-2.4642
X2.4354Y-3.9976
X2.4378Y-1.2744
X2.439Y-1.1154
X2.4683Y-1.2847
X2.4713Y-1.9524
X2.4713Y-1.9917
X2.4713Y-2.0311
X2.4713Y-2.0717
X2.4713Y-2.3854
X2.4713Y-2.4248
X2.4713Y-2.4642
X2.4713Y-2.5429
X2.4713Y-2.5823
X2.472Y-1.1803
X2.472Y-1.9118
X2.4724Y-2.1503
X2.473Y-1.212
X2.4909Y-2.3382
X2.4937Y-1.0724
X2.5106Y-1.9524
X2.5106Y-1.9917
X2.5106Y-2.0311
X2.5106Y-2.0717
X2.5106Y-2.1098
X2.5106Y-2.1492
X2.5106Y-2.1886
X2.5106Y-2.4248
X2.5106Y-2.4642
X2.5106Y-2.5035
X2.5106Y-2.5429
X2.5188Y-1.3378
X2.5264Y-2.2441
X2.5274Y-2.2825
X2.5287Y-1.4421
X2.5409Y-3.5319
X2.5481Y-1.913
X2.55Y-1.9524
X2.55Y-2.0311
X2.55Y-2.1492
X2.55Y-2.3854
X2.55Y-2.4248
X2.55Y-2.4642
X2.55Y-2.5035
X2.55Y-2.5429
X2.55Y-2.6217
X2.55Y-2.661
X2.5516Y-3.713
X2.5531Y-3.6772
X2.5602Y-1.1494
X2.563Y-1.2091
X2.5799Y-1.3693
X2.58Y-1.396
X2.5888Y-2.4636
X2.5894Y-1.9524
X2.5894Y-2.0705
X2.5894Y-2.1098
X2.5894Y-2.1492
X2.5894Y-2.1886
X2.5894Y-2.228
X2.5894Y-2.2673
X2.5894Y-2.3854
X2.5894Y-2.4248
X2.5894Y-2.5035
X2.5894Y-2.5823
X2.5894Y-2.6217
X2.5894Y-2.661
X2.5913Y-1.9917
X2.5938Y-1.147
X2.5976Y-3.5823
X2.6236Y-2.0878
X2.6258Y-2.1864
X2.6263Y-2.0295
X2.6264Y-1.9969
X2.6287Y-2.4642
X2.6287Y-2.5035
X2.6287Y-2.5429
X2.6287Y-2.5823
X2.6287Y-2.661
X2.6343Y-1.0732
X2.6406Y-1.1161
X2.6507Y-1.03
X2.6681Y-1.913
X2.6681Y-2.228
X2.6681Y-2.4642
X2.6681Y-2.5429
X2.6686Y-2.1126
X2.6693Y-2.0303
X2.6697Y-2.0713
X2.6701Y-1.7862
X2.6701Y-1.9902
X2.6702Y-2.1522
X2.6702Y-2.1886
X2.6712Y-2.0503
X2.6713Y-1.9535
X2.6756Y-1.37
X2.6768Y-1.3902
X2.6835Y-1.2413
X2.687Y-2.4457
X2.698Y-1.178
X2.706Y-2.1513
X2.7075Y-1.9524
X2.7075Y-2.0311
X2.7075Y-2.0705
X2.7075Y-2.1098
X2.7075Y-2.4642
X2.7075Y-2.5429
X2.7087Y-1.8035
X2.7087Y-1.9748
X2.7098Y-2.1906
X2.7236Y-2.5031
X2.7362Y-1.148
X2.746Y-1.212
X2.7469Y-1.913
X2.7469Y-1.9917
X2.7469Y-2.0311
X2.7469Y-2.1098
X2.7469Y-2.228
X2.7469Y-2.5035
X2.7469Y-2.5429
X2.7469Y-2.5823
X2.7594Y-2.0705
X2.7618Y-3.672
X2.7651Y-3.7142
X2.7823Y-1.2744
X2.7862Y-1.913
X2.7862Y-1.9524
X2.7862Y-1.9917
X2.7862Y-2.0705
X2.7862Y-2.1886
X2.7862Y-2.4642
X2.7862Y-2.5035
X2.7862Y-2.5823
X2.7862Y-2.661
X2.7906Y-2.4276
X2.7912Y-1.3752
X2.7967Y-1.2426
X2.7992Y-1.1803
X2.8256Y-1.913
X2.8256Y-1.9524
X2.8256Y-1.9917
X2.8256Y-2.0705
X2.8256Y-2.1492
X2.8256Y-2.4642
X2.8256Y-2.5035
X2.8256Y-2.5429
X2.8256Y-2.5823
X2.8256Y-2.661
X2.8264Y-2.1098
X2.8287Y-1.2433
X2.8528Y-1.3063
X2.861Y-2.428
X2.865Y-1.9524
X2.865Y-1.9917
X2.865Y-2.0705
X2.865Y-2.2673
X2.865Y-2.4642
X2.865Y-2.5035
X2.865Y-2.5429
X2.865Y-2.5823
X2.9024Y-2.1902
X2.9043Y-1.913
X2.9043Y-2.0311
X2.9043Y-2.1492
X2.9043Y-2.228
X2.9043Y-2.5035
X2.9043Y-2.5429
X2.9043Y-2.5823
X2.9146Y-1.1181
X2.9146Y-1.1496
X2.9146Y-1.1811
X2.9146Y-1.2126
X2.9146Y-1.2441
X2.9146Y-1.3071
X2.9146Y-1.3701
X2.9146Y-1.4016
X2.9146Y-1.4331
X2.9146Y-1.4646
X2.9146Y-1.4961
X2.9146Y-1.5266
X2.9146Y-1.5591
X2.9146Y-1.5906
X2.9252Y-2.4059
X2.9437Y-1.913
X2.9437Y-1.9917
X2.9437Y-2.1098
X2.9437Y-2.1492
X2.9437Y-2.1886
X2.9437Y-2.228
X2.9437Y-2.4248
X2.9437Y-2.5035
X2.9437Y-2.5823
X2.9461Y-1.1181
X2.9461Y-1.1496
X2.9461Y-1.1811
X2.9461Y-1.2126
X2.9461Y-1.2441
X2.9461Y-1.2756
X2.9461Y-1.3071
X2.9461Y-1.3386
X2.9461Y-1.3701
X2.9461Y-1.4016
X2.9461Y-1.4331
X2.9461Y-1.4646
X2.9461Y-1.4961
X2.9461Y-1.5276
X2.9461Y-1.5591
X2.9461Y-1.5906
X2.9776Y-1.1181
X2.9776Y-1.1496
X2.9776Y-1.1811
X2.9776Y-1.2126
X2.9776Y-1.2756
X2.9776Y-1.3071
X2.9776Y-1.3386
X2.9776Y-1.3701
X2.9776Y-1.4024
X2.9776Y-1.4331
X2.9776Y-1.4646
X2.9776Y-1.4961
X2.9776Y-1.5276
X2.9776Y-1.5591
X2.9776Y-1.5906
X2.9808Y-1.9926
X2.9808Y-2.1113
X2.9831Y-1.9524
X2.9831Y-2.228
X2.9831Y-2.5035
X2.9831Y-2.5823
X2.9831Y-2.6217
X2.9831Y-2.661
X3.0224Y-2.0311
X3.0224Y-2.5429
X3.0224Y-2.5823
X3.0224Y-2.6217
X3.0224Y-2.661
X3.0247Y-1.9132
X3.0251Y-2.1098
X3.0575Y-4.2236
X3.1012Y-1.9524
X3.1012Y-2.0311
X3.1012Y-2.0705
X3.1032Y-1.1169
X3.1035Y-1.1496
X3.1035Y-1.1811
X3.1035Y-1.2126
X3.1035Y-1.2441
X3.1035Y-1.2756
X3.1035Y-1.3071
X3.1035Y-1.3386
X3.1035Y-1.3701
X3.1035Y-1.4016
X3.1035Y-1.4331
X3.1035Y-1.4646
X3.1035Y-1.4961
X3.1035Y-1.5276
X3.1035Y-1.5591
X3.1035Y-1.5906
X3.135Y-1.1496
X3.135Y-1.1811
X3.135Y-1.2126
X3.135Y-1.2441
X3.135Y-1.2756
X3.135Y-1.3071
X3.135Y-1.3386
X3.135Y-1.3701
X3.135Y-1.4016
X3.135Y-1.4331
X3.135Y-1.4646
X3.135Y-1.4961
X3.135Y-1.5276
X3.135Y-1.5591
X3.135Y-1.5906
X3.1665Y-1.1181
X3.1665Y-1.1496
X3.1665Y-1.1811
X3.1665Y-1.2126
X3.1665Y-1.2441
X3.1665Y-1.3071
X3.1665Y-1.3701
X3.1665Y-1.4016
X3.1665Y-1.4331
X3.1665Y-1.4646
X3.1665Y-1.4961
X3.1665Y-1.5276
X3.1665Y-1.5591
X3.1665Y-1.5906
X3.1899Y-1.3408
X3.1933Y-1.3059
X3.2471Y-1.0515
X3.2756Y-3.0409
X3.2811Y-2.7736
X3.3185Y-2.6886
X3.335Y-2.0024
X3.3358Y-3.039
X3.6457Y-2.4154
X3.6563Y-2.398
X3.6776Y-1.6512
X3.6799Y-2.3543
X3.6831Y-2.1795
X3.6839Y-1.7654
X3.6839Y-2.2846
X3.6893Y-2.373
X3.7047Y-2.4217
X3.7346Y-2.4213
X3.7362Y-1.5992
X3.7575Y-2.4213
X3.7727Y-1.598
T2
X1.1803Y-1.7539
X1.1803Y-1.8138
X1.1846Y-1.3965
X1.1862Y-1.452
X1.1878Y-0.9811
X1.189Y-1.039
X1.2004Y-1.0181
X1.2008Y-1.1937
X1.2083Y-3.9067
X1.2122Y-1.0398
X1.2217Y-1.2949
X1.2252Y-3.7831
X1.2311Y-3.9854
X1.2378Y-2.6209
X1.252Y-1.1449
X1.2567Y-1.2949
X1.2646Y-3.9693
X1.2654Y-3.9079
X1.2677Y-1.0555
X1.27Y-1.1169
X1.2807Y-1.1453
X1.285Y-3.722
X1.2878Y-2.8642
X1.2878Y-3.6626
X1.2894Y-1.2949
X1.2933Y-1.6528
X1.2937Y-2.9646
X1.2969Y-4.0043
X1.3016Y-4.1654
X1.3163Y-4.1054
X1.328Y-1.0787
X1.3413Y-1.715
X1.3425Y-4.1051
X1.3469Y-1.0445
X1.3488Y-1.1118
X1.3605Y-4.0295
X1.3634Y-1.228
X1.3665Y-1.0791
X1.3736Y-3.7618
X1.3762Y-4.1054
X1.387Y-2.5094
X1.3921Y-3.776
X1.3987Y-4.1024
X1.4028Y-1.0165
X1.411Y-4.2819
X1.4206Y-3.7617
X1.4224Y-1.8264
X1.437Y-1.916
X1.4376Y-4.0989
X1.4394Y-3.7744
X1.4409Y-0.9795
X1.4504Y-1.0051
X1.4579Y-1.0287
X1.4598Y-4.1016
X1.4634Y-4.2807
X1.4667Y-3.79
X1.4752Y-1.9213
X1.4795Y-1.2142
X1.4803Y-1.1866
X1.4835Y-3.7618
X1.4843Y-1.5964
X1.4845Y-4.1039
X1.4921Y-1.5193
X1.5004Y-3.7764
X1.5021Y-1.9198
X1.5051Y-4.118
X1.5067Y-1.8213
X1.5106Y-4.2799
X1.5126Y-4.0126
X1.5152Y-1.5964
X1.5215Y-2.697
X1.5217Y-1.5185
X1.5219Y-2.5953
X1.5268Y-4.122
X1.5303Y-3.7843
X1.5307Y-1.8217
X1.538Y-2.3953
X1.5425Y-2.1945
X1.5433Y-2.1016
X1.5445Y-2.2996
X1.548Y-3.1606
X1.548Y-3.3606
X1.5485Y-1.9752
X1.5488Y-2.463
X1.5496Y-3.5335
X1.5498Y-3.7978
X1.5504Y-3.4626
X1.5504Y-3.5059
X1.5539Y-3.265
X1.5551Y-3.0634
X1.5559Y-2.861
X1.5563Y-2.9642
X1.5567Y-1.5157
X1.5594Y-2.5476
X1.5601Y-4.0586
X1.5646Y-1.5846
X1.5709Y-1.3768
X1.5776Y-2.8466
X1.5843Y-2.6748
X1.589Y-1.4642
X1.5913Y-2.085
X1.5949Y-3.0634
X1.5957Y-3.4594
X1.5969Y-3.3606
X1.5976Y-2.2634
X1.598Y-2.1634
X1.5992Y-3.2626
X1.5996Y-2.0083
X1.5996Y-2.6528
X1.5996Y-2.9634
X1.6Y-1.3713
X1.6Y-2.4665
X1.6004Y-2.763
X1.6012Y-2.361
X1.6012Y-2.8602
X1.6016Y-3.1606
X1.6051Y-3.5051
X1.6055Y-3.5327
X1.6071Y-1.8626
X1.611Y-3.7827
X1.6492Y-1.3126
X1.6496Y-1.1878
X1.65Y-1.2154
X1.6561Y-3.8587
X1.6619Y-3.8335
X1.6681Y-4.2063
X1.6807Y-1.5961
X1.6874Y-3.8858
X1.6909Y-1.9
X1.6984Y-1.7287
X1.7055Y-3.648
X1.7059Y-4.3402
X1.7449Y-3.9091
X1.7496Y-3.9953
X1.7843Y-1.9059
X1.7843Y-3.7957
X1.7992Y-2.511
X1.8094Y-2.8988
X1.8185Y-0.9941
X1.8272Y-3.7972
X1.837Y-1.2593
X1.8445Y-3.6791
X1.8917Y-3.6697
X1.8965Y-1.7531
X1.9016Y-1.8291
X1.9063Y-1.0358
X1.9075Y-4.2252
X1.9112Y-1.9279
X1.9177Y-4.1051
X1.926Y-1.7547
X1.926Y-1.8291
X1.926Y-1.0959
X1.926Y-1.1353
X1.926Y-1.1746
X1.926Y-1.214
X1.926Y-1.2845
X1.926Y-1.3239
X1.926Y-1.3633
X1.926Y-1.4026
X1.926Y-1.4722
X1.926Y-1.5116
X1.926Y-1.5509
X1.926Y-1.5903
X1.9262Y-1.9093
X1.9303Y-1.7173
X1.9303Y-4.2252
X1.9307Y-1.6925
X1.939Y-3.0673
X1.9425Y-1.1159
X1.9425Y-1.1553
X1.9425Y-1.1946
X1.9425Y-1.234
X1.9425Y-1.3042
X1.9425Y-1.3436
X1.9425Y-1.3829
X1.9425Y-1.4223
X1.9425Y-1.4919
X1.9425Y-1.5313
X1.9425Y-1.5706
X1.956Y-1.0162
X1.958Y-1.666
X1.9618Y-1.7169
X1.963Y-1.6921
X1.9642Y-3.9748
X1.9661Y-4.2323
X1.9858Y-3.9807
X1.9984Y-1.963
X2.0028Y-2.1909
X2.008Y-3.9758
X2.0228Y-2.1705
X2.0252Y-2.322
X2.0264Y-2.1102
X2.0358Y-4.1677
X2.0372Y-1.6353
X2.0547Y-2.0421
X2.0638Y-2.5976
X2.072Y-2.2413
X2.0724Y-2.2098
X2.0731Y-2.27
X2.0732Y-2.1587
X2.0736Y-2.0945
X2.0736Y-2.1299
X2.0756Y-2.3039
X2.0768Y-2.0661
X2.0961Y-2.6343
X2.0965Y-2.6626
X2.1016Y-4.1051
X2.112Y-1.0162
X2.1598Y-1.7835
X2.1933Y-1.8186
X2.1965Y-2.11
X2.2008Y-2.0689
X2.2055Y-1.3917
X2.2142Y-2.2587
X2.2264Y-1.9283
X2.2492Y-1.9205
X2.2516Y-3.0634
X2.2524Y-3.0276
X2.2744Y-2.3461
X2.2744Y-2.3854
X2.2744Y-2.4248
X2.2744Y-2.4642
X2.2744Y-2.5035
X2.2744Y-2.5823
X2.2744Y-2.7387
X2.3063Y-2.8441
X2.3067Y-2.8169
X2.3079Y-3.0646
X2.3134Y-2.3858
X2.3138Y-2.3067
X2.3138Y-2.3461
X2.3138Y-2.4248
X2.3138Y-2.4642
X2.3138Y-2.5035
X2.3138Y-2.5823
X2.3138Y-2.661
X2.3138Y-2.9925
X2.3291Y-3.5587
X2.3358Y-3.0657
; Post-machining back countersink angle 82deg
X2.336Y-3.5805
X2.3429Y-2.9921
X2.3465Y-3.539
X2.3531Y-2.228
X2.3531Y-2.2673
X2.3531Y-2.3067
X2.3531Y-2.3461
X2.3531Y-2.3854
X2.3531Y-2.4248
X2.3531Y-2.4642
X2.3531Y-2.5035
X2.3531Y-2.5429
X2.3531Y-2.7004
X2.3531Y-2.7387
X2.3638Y-3.065
X2.365Y-2.8512
X2.368Y-1.0162
X2.372Y-2.9909
X2.3733Y-2.1681
X2.378Y-1.9717
X2.3913Y-3.0642
X2.3925Y-2.2673
X2.3925Y-2.3461
X2.3925Y-2.3854
X2.3925Y-2.4248
X2.3925Y-2.5035
X2.3925Y-2.6217
X2.3925Y-2.7004
X2.3925Y-2.7387
X2.3928Y-2.3082
X2.4024Y-2.9886
X2.4043Y-3.015
X2.4051Y-2.8142
X2.413Y-3.7858
X2.422Y-3.0654
X2.4224Y-2.8689
X2.4319Y-2.3067
X2.4319Y-2.3854
X2.4319Y-2.5429
X2.4319Y-2.661
X2.4319Y-2.7004
X2.4323Y-2.7402
X2.4354Y-2.8969
; Post-machining back countersink angle 82deg
X2.4409Y-3.7858
X2.4535Y-2.328
X2.4594Y-2.9244
X2.4622Y-3.772
X2.4713Y-2.1886
X2.4713Y-2.3461
X2.4713Y-2.5035
X2.4713Y-2.6217
X2.4713Y-2.7004
X2.4713Y-2.7398
X2.4741Y-2.2251
X2.4835Y-3.5591
X2.4921Y-2.2453
X2.4976Y-2.8996
X2.5079Y-3.5591
X2.5106Y-2.3461
X2.5106Y-2.3854
X2.5106Y-2.5823
X2.5106Y-2.6217
X2.5106Y-2.661
X2.5358Y-1.0256
X2.55Y-2.0705
X2.55Y-2.1886
X2.55Y-2.3461
X2.55Y-2.5823
X2.5598Y-1.4023
X2.5669Y-3.5929
X2.5894Y-2.5429
X2.5894Y-2.7398
X2.5984Y-3.7571
X2.6089Y-2.9738
X2.622Y-3.6992
X2.6264Y-3.6217
X2.6272Y-3.7638
X2.6281Y-2.9407
X2.6287Y-2.2673
X2.6287Y-2.3854
X2.6287Y-2.4248
X2.6287Y-2.6217
X2.6457Y-2.9717
X2.6558Y-1.416
X2.6681Y-2.2673
X2.6681Y-2.3067
X2.6681Y-2.3461
X2.6681Y-2.3854
X2.6681Y-2.4248
X2.6681Y-2.5035
X2.6681Y-2.6217
X2.6681Y-2.7004
X2.6717Y-3.5492
X2.6827Y-2.9768
X2.6896Y-3.7674
X2.6925Y-3.6228
X2.7067Y-3.6748
X2.7075Y-2.2673
X2.7075Y-2.5823
X2.7075Y-2.6217
X2.7075Y-2.661
X2.7075Y-2.7398
X2.7122Y-3.7697
X2.7386Y-1.0299
X2.7469Y-2.3067
X2.7469Y-2.4643
X2.7469Y-2.6217
X2.7469Y-2.661
X2.747Y-2.4231
X2.7484Y-3.4
X2.7862Y-2.0311
X2.7862Y-2.1492
X2.7862Y-2.228
X2.7862Y-2.3067
X2.7862Y-2.3854
X2.7862Y-2.5429
X2.7862Y-2.6217
X2.7879Y-2.7398
X2.7898Y-4.2827
X2.8079Y-2.9642
X2.822Y-2.9461
X2.8256Y-2.0311
X2.8256Y-2.1886
X2.8256Y-2.2673
X2.8256Y-2.3067
X2.8256Y-2.3461
X2.8256Y-2.3854
X2.8256Y-2.6217
X2.8335Y-1.0283
X2.8409Y-3.6646
X2.8606Y-3.5756
X2.865Y-2.0311
X2.865Y-2.1098
X2.865Y-2.1492
X2.865Y-2.3854
X2.865Y-2.7004
X2.865Y-2.7398
X2.8756Y-3.4055
X2.8846Y-2.4543
X2.8898Y-3.7311
X2.8948Y-2.4061
X2.8996Y-3.5638
X2.9043Y-1.9917
X2.9043Y-2.1098
X2.9043Y-2.2673
X2.9043Y-2.3067
X2.9043Y-2.3461
X2.9043Y-2.3845
X2.9043Y-2.6217
X2.913Y-3.6484
X2.9283Y-3.5697
X2.9437Y-2.0311
X2.9437Y-2.0705
X2.9437Y-2.2673
X2.9437Y-2.3461
X2.9437Y-2.3845
X2.9437Y-2.4651
X2.9437Y-2.5429
X2.9437Y-2.6217
X2.9437Y-2.661
X2.9469Y-1.8791
X2.9512Y-3.9138
X2.9685Y-4.0624
X2.9776Y-3.913
X2.9799Y-3.6429
X2.9808Y-2.0323
X2.9811Y-3.6823
X2.9814Y-3.7202
X2.9831Y-2.1492
X2.9831Y-2.1886
X2.9831Y-2.2673
X2.9831Y-2.3067
X2.9831Y-2.3461
X2.9831Y-2.3854
X2.9831Y-2.4248
X2.9831Y-2.4642
X2.9831Y-2.5429
X2.9831Y-2.7398
X2.9992Y-3.6626
X3.0Y-3.702
X3.0006Y-4.1963
X3.0008Y-3.6236
X3.0008Y-3.8317
X3.0051Y-1.0252
X3.0165Y-1.8307
X3.022Y-4.1815
X3.0224Y-2.2673
X3.0224Y-2.3067
X3.0224Y-2.3461
X3.0224Y-2.3854
X3.0224Y-2.4248
X3.0224Y-2.4642
X3.0224Y-2.7004
X3.026Y-3.5315
X3.0327Y-4.0437
X3.0398Y-1.8945
X3.0437Y-4.0843
X3.0461Y-3.6035
X3.0473Y-3.7443
X3.0516Y-3.513
X3.0518Y-3.8433
X3.0547Y-1.0335
X3.0618Y-2.0705
X3.0618Y-2.1098
X3.0618Y-2.3067
X3.0618Y-2.3461
X3.0618Y-2.4248
X3.0618Y-2.5022
X3.0618Y-2.7004
X3.0638Y-3.682
X3.0646Y-4.1047
X3.0713Y-3.5315
X3.0835Y-4.0827
X3.0858Y-3.8
X3.0913Y-3.5134
X3.0921Y-3.7248
X3.0945Y-3.9846
X3.1012Y-1.9917
X3.1012Y-2.1886
X3.1012Y-2.3067
X3.1012Y-2.3461
X3.1012Y-2.3854
X3.1012Y-2.4248
X3.1012Y-2.4642
X3.1012Y-2.5823
X3.1028Y-1.8232
X3.1102Y-3.5315
X3.111Y-3.8453
X3.1113Y-3.9215
X3.1126Y-4.085
X3.1191Y-3.9008
X3.1252Y-2.7236
X3.1276Y-2.1071
X3.1276Y-2.7508
X3.1287Y-1.9953
X3.1295Y-3.5796
X3.1339Y-2.3854
X3.1394Y-4.087
X3.1417Y-3.6744
X3.1417Y-3.7093
X3.1417Y-3.7441
X3.1445Y-3.7925
X3.1504Y-3.5146
X3.1516Y-4.1969
X3.1606Y-3.9138
X3.1646Y-4.0378
X3.1673Y-2.5626
X3.1677Y-3.6382
X3.1701Y-2.422
X3.1701Y-3.5339
X3.1704Y-3.8484
X3.1713Y-3.8937
X3.1803Y-3.6764
X3.1803Y-3.7112
X3.1803Y-3.7461
X3.1957Y-2.3346
X3.1961Y-2.5618
X3.1965Y-1.9169
X3.1969Y-2.7272
X3.1969Y-3.9811
X3.1992Y-3.8142
X3.2035Y-4.0543
X3.204Y-1.496
X3.2071Y-3.9303
X3.2079Y-2.7035
X3.2097Y-3.8828
X3.2173Y-2.2492
X3.2181Y-3.676
X3.2181Y-3.7108
X3.2181Y-3.7457
X3.2205Y-2.561
X3.226Y-1.022
X3.2291Y-2.6799
X3.2346Y-2.2669
X3.2433Y-2.4898
X3.2476Y-3.8448
X3.248Y-3.5796
X3.25Y-1.488
X3.2504Y-2.6591
X3.2535Y-2.0465
X3.2681Y-2.4894
X3.272Y-2.6402
X3.2736Y-1.748
X3.2831Y-2.3039
X3.2839Y-3.0654
X3.2846Y-3.6382
X3.2846Y-3.8385
X3.287Y-2.5063
X3.2878Y-2.3799
X3.2933Y-1.9768
X3.2967Y-1.9413
X3.3012Y-2.6496
X3.304Y-1.498
X3.311Y-2.0492
X3.3113Y-3.7761
X3.3114Y-3.7988
X3.3125Y-3.8225
X3.3157Y-1.6933
X3.3193Y-1.7547
X3.32Y-1.52
X3.324Y-1.48
X3.3323Y-1.1239
X3.3323Y-1.1633
X3.3323Y-1.2026
X3.3323Y-1.242
X3.3323Y-1.3115
X3.3323Y-1.3508
X3.3323Y-1.3902
X3.3323Y-1.4296
X3.338Y-1.586
X3.3406Y-2.0315
X3.3435Y-1.462
X3.3439Y-3.9002
X3.3465Y-4.2846
X3.3472Y-4.0665
X3.348Y-1.1042
X3.348Y-1.1436
X3.348Y-1.1829
X3.348Y-1.2223
X3.348Y-1.2918
X3.348Y-1.3311
X3.348Y-1.3705
X3.348Y-1.4099
X3.35Y-4.0083
X3.352Y-1.9394
X3.3524Y-3.9681
X3.3598Y-2.6839
X3.3717Y-2.5583
X3.3732Y-1.6807
X3.3732Y-1.7287
X3.376Y-3.8437
X3.3791Y-2.4799
X3.3803Y-2.6677
X3.3839Y-3.7642
X3.3862Y-2.8354
X3.3868Y-2.8076
X3.3879Y-2.7814
X3.389Y-3.8043
X3.3909Y-2.6917
X3.3949Y-2.6343
X3.3957Y-3.0059
X3.3972Y-1.7913
X3.4079Y-2.874
X3.4094Y-3.1024
X3.4138Y-1.9185
X3.4178Y-3.0151
X3.4185Y-2.6236
X3.4209Y-2.6484
X3.4319Y-1.2727
X3.4386Y-3.1404
X3.4768Y-1.4417
X3.4768Y-2.0827
X3.4804Y-2.3118
X3.4811Y-1.9547
X3.4811Y-2.1106
X3.4811Y-2.7154
X3.4814Y-2.1988
X3.4815Y-1.6488
X3.4819Y-2.7969
X3.4827Y-2.0409
X3.4834Y-2.2864
X3.4835Y-1.8118
X3.485Y-2.0122
X3.4866Y-1.7118
X3.4988Y-3.8465
X3.5008Y-3.7945
X3.5016Y-4.0413
X3.5067Y-3.9634
X3.5157Y-3.7614
X3.5189Y-4.1555
X3.5264Y-4.0575
X3.5267Y-1.6157
X3.528Y-4.3807
X3.5319Y-3.3059
X3.5362Y-2.9191
X3.5406Y-3.0004
X3.5488Y-4.0154
X3.5508Y-3.3953
X3.5575Y-2.7154
X3.5591Y-3.5012
X3.5594Y-2.7984
X3.563Y-3.9866
X3.5745Y-3.0981
X3.5937Y-3.0217
X3.5992Y-3.2256
X3.611Y-4.2827
X3.6114Y-2.626
X3.6196Y-1.5224
X3.6303Y-2.2098
X3.6313Y-3.2986
X3.6317Y-3.6061
X3.6317Y-3.5067
X3.6329Y-3.5343
X3.6344Y-1.6583
X3.6344Y-2.5638
X3.6349Y-1.9118
X3.6362Y-2.3618
X3.6374Y-1.8303
X3.639Y-2.4544
X3.6398Y-1.1827
X3.6417Y-2.689
X3.6472Y-0.9886
X3.6472Y-2.8217
X3.6476Y-2.7394
X3.648Y-2.7728
X3.6492Y-2.7169
X3.6571Y-1.6606
X3.6583Y-4.2807
X3.6594Y-1.2268
X3.6598Y-1.2004
X3.6606Y-1.4264
X3.6697Y-0.9886
X3.672Y-1.4469
X3.678Y-4.3039
X3.6799Y-3.4614
X3.6823Y-3.0634
X3.6827Y-2.2409
X3.6835Y-3.8949
X3.6839Y-3.1602
X3.6843Y-3.3882
X3.6846Y-3.2587
X3.6846Y-3.4256
X3.6858Y-2.8626
X3.6862Y-2.5618
X3.6862Y-3.3626
X3.6874Y-1.563
X3.6875Y-2.7651
X3.6878Y-3.1232
X3.6882Y-3.024
X3.6884Y-1.8795
X3.6902Y-1.6118
X3.6913Y-3.2228
X3.6914Y-3.4996
X3.6931Y-3.5341
X3.6933Y-1.1819
X3.6976Y-4.1547
X3.6996Y-1.4622
X3.7039Y-4.374
X3.7114Y-2.5122
X3.7142Y-2.7247
X3.715Y-3.7902
X3.7181Y-2.696
X3.7185Y-3.0283
X3.7224Y-4.0453
X3.7555Y-2.9055
X3.7705Y-0.9886
X3.7843Y-2.824
X3.7874Y-3.0276
X3.7878Y-1.0299
X3.7898Y-1.5083
X3.7902Y-2.7323
X3.7983Y-2.5969
X3.802Y-2.5307
X3.8035Y-2.5063
X3.8039Y-2.9091
X3.8083Y-2.6173
T4
X2.9587Y-4.1941
X3.187Y-4.1941
T5
X2.4079Y-3.8398
X2.4276Y-3.8988
X2.4866Y-3.8398
X2.526Y-3.8988
X2.5654Y-3.8398
X2.6047Y-3.8988
X2.6441Y-3.8398
X2.7031Y-3.8988
X2.7228Y-3.8398
T7
X1.2339Y-2.0697
X1.2339Y-2.1697
X1.2339Y-2.2697
X1.2339Y-2.3697
X1.3701Y-3.115
X1.3701Y-3.215
X1.3701Y-3.315
X1.3701Y-3.415
T8
X2.3067Y-3.9815
X2.824Y-3.9815
T3
G00X1.826Y-4.1415
M15
G01X1.826Y-4.1809
M16
G05
G00X1.826Y-4.3427
M15
G01X1.826Y-4.4018
M16
G05
G00X2.1661Y-4.1415
M15
G01X2.1661Y-4.1809
M16
G05
G00X2.1661Y-4.3427
M15
G01X2.1661Y-4.4018
M16
G05
T5
G00X1.3413Y-4.1961
M15
G01X1.3413Y-4.2354
M16
G05
G00X1.3413Y-4.3287
M15
G01X1.3413Y-4.3681
M16
G05
G00X1.5854Y-4.1961
M15
G01X1.5854Y-4.2354
M16
G05
G00X1.5854Y-4.3287
M15
G01X1.5854Y-4.3681
M16
G05
T6
G00X2.9024Y-4.1606
M15
G01X2.9024Y-4.1882
M16
G05
G00X2.9024Y-4.3311
M15
G01X2.9024Y-4.3469
M16
G05
G00X3.2433Y-4.1606
M15
G01X3.2433Y-4.1882
M16
G05
G00X3.2433Y-4.3311
M15
G01X3.2433Y-4.3469
M16
G05
M30
